<svg xmlns="http://www.w3.org/2000/svg" width="72" height="72" viewBox="0 0 72 72"><defs><style>.a,.b{fill:#001e00;}.a{opacity:0;}.b{opacity:0.12;}</style></defs><rect class="a" width="72" height="72"/><g transform="translate(-758.835 -133.258)"><path class="b" d="M769.24,151.563c1.326-5.444,10.432-2.947,6.6,3.64l-1.194,1.327q-7.761.837-7.155-4.433c-.015-.34-.573-.256-.561-.042.126,2.155.389,3.929,2.346,5.247a5.013,5.013,0,0,0,5.664-.119,5.47,5.47,0,0,0,1.939-7.074,4.548,4.548,0,0,0-5.024-2.351c-2.176.518-3.058,2.034-3.549,4.087C768.163,152.468,769.154,151.913,769.24,151.563Z"/><path class="b" d="M767.768,150.531q7.348-6.848,6.742,3.387-2.828,4.908-8.346-2.495c-.061-.393-.664-.941-.625-.283.125,2.078.4,3.719,2.365,5a5.291,5.291,0,0,0,5.773-.1c2.3-1.413,2.856-4.939,1.525-7.157a4.346,4.346,0,0,0-5.607-1.793c-1.824.8-2.536,2.066-3.011,4C766.394,151.862,767.683,150.88,767.768,150.531Z"/><path class="b" d="M768.177,148.125q11.892-4.981-1.826,1.018c-.017-.277-.627-.954-.631-.453-.026,2.887.816,5.581,4.11,6.143a5.372,5.372,0,0,0,6.2-4.2c.566-3.129-1.959-6.887-5.38-6.091-2.232.519-3.3,2.283-3.839,4.353C766.582,149.755,768.085,148.485,768.177,148.125Z"/><path class="b" d="M769.117,149.924q11.9,8.673-1.487,1.385c-.067-.42-.705-1.3-.662-.42.164,3.307,2.361,6.43,6.232,5.385a5.316,5.316,0,0,0,3.2-7.736,4.408,4.408,0,0,0-5.114-2.09c-2.527.768-3.708,2.64-4.186,5.115C767.032,151.9,768.988,150.513,769.117,149.924Z"/><path class="b" d="M767.05,150.246,774,148.864a3.569,3.569,0,0,1,.551,2.576,2.933,2.933,0,0,1-.316,1.729q-1.395,5.2-8.793-2.276c-.046-.4-.631-.738-.609-.206.116,2.863,1.1,5.061,4.143,5.926,5.1,1.45,8.076-5.3,4.9-8.753a4.23,4.23,0,0,0-4.335-1.364c-2.078.527-2.821,2.022-3.32,3.961C766.081,150.995,766.962,150.611,767.05,150.246Z"/><path class="b" d="M769.549,147.688q5.955-3.668,7.083,1.008,1.114,6.651-9.075.308c-.02-.446-.623-.949-.625-.3-.009,2.968.942,5.215,4.047,5.954,4.226,1.006,7.236-3.383,5.921-7.021-.879-2.433-2.867-4.04-5.464-3.116-2.257.8-3.287,2.55-3.861,4.8C767.505,149.6,769.392,148.29,769.549,147.688Z"/><path class="b" d="M769.453,148.562q13.855,7.412-1.746,1.429c-.022-.245-.659-1.171-.654-.589.028,2.848.911,5.489,4.181,5.944a5.334,5.334,0,0,0,6-6.188c-.509-2.362-2.631-4.563-5.21-4.106-2.735.484-4.2,2.866-4.735,5.32C767.226,150.646,769.3,149.207,769.453,148.562Z"/><path class="b" d="M768.72,149.288q9.243.63,6.159,4.11-2.453,3.984-7.627-2.6c-.03-.185-.726-1.393-.7-.711.063,1.714-.084,2.474,1.023,3.881a5.118,5.118,0,0,0,5.245,1.728,5.231,5.231,0,0,0,3.135-7.754,4.373,4.373,0,0,0-5.058-2.1c-2.526.758-3.721,2.7-4.234,5.148C766.6,151.292,768.58,149.9,768.72,149.288Z"/><path class="b" d="M768.075,151.953l7.019-1.547q1.621,3.744-.773,5.783-1.54,2.163-4.192-.759-4.358.2-3.653-3.212c-.012-.3-.56-.157-.552,0,.147,2.684,1.1,5.4,4.086,6.043,3.437.739,7.1-2.57,6.44-6.1a4.887,4.887,0,0,0-5.672-4.191c-2.039.309-2.755,1.952-3.19,3.707C767.537,151.888,768,152.261,768.075,151.953Z"/><path class="b" d="M770.227,149.481q9.294,1.336,5.842,4.591-2.9,3.933-7.666-3.372c-.033-.429-.637-.908-.618-.285.083,2.754,1.037,5.417,4.2,5.86a5.489,5.489,0,0,0,6.116-6.021c-.443-2.777-2.89-4.925-5.673-4.166-2.557.7-3.8,2.6-4.283,5.074C768.083,151.488,770.088,150.08,770.227,149.481Z"/><path class="b" d="M769.651,150.33q11.573,9.408-1.724,1.043c-.043-.408-.639-.844-.609-.262.136,2.662,1.2,5.49,4.3,5.859a5.415,5.415,0,0,0,5.677-7.072,4.544,4.544,0,0,0-5.218-3.12c-2.522.489-3.748,2.629-4.19,4.916C767.813,152.08,769.539,150.841,769.651,150.33Z"/><path class="b" d="M768.154,151.076c1.222-5.141,10.009-3.315,6.686,3.324l-1.02,1.318q-4.029,3.2-7.283-3.859c-.054-.391-.644-.759-.607-.22.117,1.695-.014,2.326,1.057,3.76a5.076,5.076,0,0,0,7.034,1.17,5.517,5.517,0,0,0,1.645-7.09,4.48,4.48,0,0,0-5.006-2.16c-2.185.572-3.126,2.159-3.619,4.235C766.866,152.29,768.071,151.423,768.154,151.076Z"/><path class="b" d="M767.53,148.894q6.409-4.475,7.373.529.778,6.579-9.086.487c-.026-.244-.648-1.017-.644-.478.026,2.957.994,5.225,4.086,6.02a5.092,5.092,0,0,0,5.865-3.192c1.43-3.676-1.679-8.433-5.794-6.708-1.8.757-2.526,2.071-3.013,3.952C766.115,150.285,767.442,149.248,767.53,148.894Z"/><path class="b" d="M768.578,150.442q3.724-5.961,4.326.936,4.479,8.22-5.824.314c-.068-.406-.7-1.149-.649-.36.1,1.641-.005,2.291,1.07,3.661a5.036,5.036,0,0,0,6.954.958,5.373,5.373,0,0,0,1.476-6.962,4.478,4.478,0,0,0-5.1-2.073c-2.391.7-3.421,2.465-3.891,4.78C766.866,152.087,768.473,150.928,768.578,150.442Z"/><path class="b" d="M770.778,148.617q10.959.6,5.139,4.6a3.049,3.049,0,0,1-3.731,1.872c-2.627-.508-3.463-2.811-3.525-5.343-.01-.412-.6-.6-.586-.181.052,2.183.173,4.026,2.291,5.367a5.378,5.378,0,0,0,3.982.566,5.183,5.183,0,0,0,3.83-6.811c-.838-2.462-2.912-4.17-5.521-3.255-2.335.819-3.419,2.487-3.932,4.851C768.658,150.592,770.63,149.214,770.778,148.617Z"/><path class="b" d="M769.934,151.019q4.24-6.241,4.254,1.115,3.785,9.027-6.107-.384c-.018-.375-.588-.393-.571-.1.12,2.137.3,3.841,2.3,5.193a4.437,4.437,0,0,0,3.868.668,5.568,5.568,0,0,0,4.282-6.066,4.707,4.707,0,0,0-5.611-4.086c-2.239.546-3.251,2.141-3.691,4.281C768.482,152.477,769.858,151.363,769.934,151.019Z"/><path class="b" d="M767.953,149.617q6.917-6.353,6.737,3.478-2.649,4.819-8.212-2.1c-.032-.181-.716-1.293-.689-.639.07,1.724-.064,2.44,1.036,3.857a5.331,5.331,0,0,0,5.255,1.822c3.541-.6,4.91-5.092,3.162-7.894a4.326,4.326,0,0,0-5.594-1.76c-2.03.913-2.825,2.351-3.318,4.5C766.246,151.253,767.837,150.111,767.953,149.617Z"/><path class="b" d="M767.155,151.285q1.542-6.542,7.7.145a4.336,4.336,0,0,1-.443,2.7,3.275,3.275,0,0,1-1.541,2.024q-4.507,2.864-7.282-4.565c-.023-.365-.585-.354-.573-.064.087,2.146.379,3.913,2.293,5.244,3.416,2.375,8.021-.316,8.13-4.344a4.8,4.8,0,0,0-3.7-5.1c-2.78-.557-4.438,1.229-5.061,3.681C766.638,151.178,767.087,151.564,767.155,151.285Z"/><path class="b" d="M814.976,151.563c1.328-5.445,10.43-2.945,6.606,3.64l-1.194,1.327q-7.762.837-7.156-4.433c-.015-.34-.572-.256-.56-.042.126,2.155.388,3.929,2.345,5.247a5.012,5.012,0,0,0,5.664-.119,5.47,5.47,0,0,0,1.939-7.074,4.548,4.548,0,0,0-5.024-2.351c-2.176.518-3.057,2.034-3.548,4.087C813.9,152.468,814.891,151.913,814.976,151.563Z"/><path class="b" d="M813.5,150.531q7.348-6.848,6.743,3.387-2.828,4.908-8.346-2.495c-.061-.393-.665-.941-.625-.283.125,2.078.4,3.719,2.364,5a5.289,5.289,0,0,0,5.773-.1c2.3-1.413,2.857-4.94,1.526-7.157a4.347,4.347,0,0,0-5.608-1.793c-1.823.795-2.536,2.066-3.011,4C812.13,151.862,813.419,150.88,813.5,150.531Z"/><path class="b" d="M813.913,148.125q11.892-4.981-1.826,1.018c-.016-.277-.626-.954-.631-.453-.026,2.887.817,5.581,4.11,6.143a5.371,5.371,0,0,0,6.2-4.2c.566-3.129-1.958-6.887-5.379-6.091-2.233.519-3.3,2.283-3.839,4.353C812.319,149.755,813.822,148.485,813.913,148.125Z"/><path class="b" d="M814.853,149.924q11.9,8.673-1.486,1.386c-.067-.421-.705-1.3-.662-.421.163,3.307,2.361,6.43,6.231,5.385a5.315,5.315,0,0,0,3.2-7.736,4.408,4.408,0,0,0-5.114-2.09c-2.527.768-3.708,2.64-4.185,5.115C812.768,151.9,814.724,150.513,814.853,149.924Z"/><path class="b" d="M812.786,150.246l6.953-1.382a3.565,3.565,0,0,1,.552,2.576,2.942,2.942,0,0,1-.317,1.729q-1.395,5.2-8.793-2.276c-.046-.4-.63-.738-.609-.206.116,2.863,1.1,5.061,4.144,5.926,5.1,1.45,8.077-5.3,4.9-8.753a4.229,4.229,0,0,0-4.335-1.364c-2.077.527-2.821,2.022-3.32,3.961C811.818,150.995,812.7,150.611,812.786,150.246Z"/><path class="b" d="M815.285,147.688q5.957-3.668,7.084,1.008,1.113,6.652-9.075.308c-.02-.446-.624-.949-.626-.3-.009,2.968.942,5.215,4.048,5.954,4.225,1.006,7.236-3.383,5.921-7.021-.88-2.433-2.868-4.039-5.465-3.116-2.257.8-3.287,2.55-3.86,4.8C813.241,149.6,815.129,148.29,815.285,147.688Z"/><path class="b" d="M815.189,148.562q13.857,7.412-1.745,1.429c-.022-.245-.66-1.171-.654-.589.028,2.848.911,5.489,4.18,5.944a5.334,5.334,0,0,0,6-6.187c-.509-2.362-2.632-4.564-5.211-4.107-2.734.484-4.2,2.866-4.734,5.32C812.962,150.646,815.034,149.207,815.189,148.562Z"/><path class="b" d="M814.456,149.288q9.243.63,6.16,4.111-2.453,3.984-7.628-2.6c-.029-.185-.725-1.393-.7-.711.063,1.714-.085,2.474,1.022,3.881a5.118,5.118,0,0,0,5.245,1.728,5.231,5.231,0,0,0,3.136-7.754,4.374,4.374,0,0,0-5.059-2.1c-2.526.758-3.721,2.7-4.234,5.148C812.335,151.292,814.317,149.9,814.456,149.288Z"/><path class="b" d="M813.811,151.953l7.019-1.547q1.621,3.742-.772,5.783-1.54,2.163-4.192-.759-4.358.2-3.654-3.212c-.012-.3-.56-.157-.551,0,.147,2.684,1.1,5.4,4.085,6.043,3.437.739,7.1-2.571,6.441-6.1a4.887,4.887,0,0,0-5.672-4.191c-2.04.309-2.756,1.952-3.191,3.707C813.274,151.888,813.737,152.261,813.811,151.953Z"/><path class="b" d="M815.963,149.481q9.294,1.335,5.842,4.591-2.895,3.935-7.665-3.371c-.033-.43-.637-.909-.618-.286.083,2.754,1.036,5.417,4.2,5.86a5.489,5.489,0,0,0,6.116-6.021c-.443-2.777-2.89-4.925-5.674-4.166-2.556.7-3.8,2.6-4.283,5.074C813.819,151.487,815.824,150.08,815.963,149.481Z"/><path class="b" d="M815.387,150.33q11.572,9.408-1.723,1.043c-.043-.408-.639-.844-.61-.262.136,2.663,1.2,5.489,4.3,5.859a5.416,5.416,0,0,0,5.678-7.072,4.545,4.545,0,0,0-5.218-3.12c-2.523.489-3.748,2.629-4.191,4.916C813.549,152.079,815.275,150.841,815.387,150.33Z"/><path class="b" d="M813.89,151.076c1.223-5.141,10.008-3.314,6.687,3.324l-1.02,1.318q-4.029,3.2-7.284-3.859c-.053-.391-.644-.759-.606-.22.117,1.695-.015,2.326,1.056,3.76a5.077,5.077,0,0,0,7.035,1.17,5.516,5.516,0,0,0,1.644-7.09,4.481,4.481,0,0,0-5.006-2.16c-2.185.572-3.126,2.159-3.618,4.235C812.6,152.29,813.807,151.423,813.89,151.076Z"/><path class="b" d="M813.266,148.894q6.41-4.475,7.374.529.777,6.579-9.087.487c-.025-.244-.647-1.017-.643-.478.026,2.957.993,5.225,4.085,6.02a5.091,5.091,0,0,0,5.865-3.192c1.43-3.676-1.679-8.433-5.794-6.708-1.8.756-2.526,2.071-3.013,3.952C811.851,150.285,813.178,149.248,813.266,148.894Z"/><path class="b" d="M814.315,150.442q3.723-5.961,4.325.936,4.48,8.22-5.823.314c-.068-.406-.7-1.149-.649-.36.1,1.641-.005,2.29,1.07,3.661a5.034,5.034,0,0,0,6.953.958,5.371,5.371,0,0,0,1.476-6.962,4.477,4.477,0,0,0-5.094-2.073c-2.392.7-3.421,2.465-3.892,4.78C812.6,152.087,814.209,150.928,814.315,150.442Z"/><path class="b" d="M816.515,148.617q10.957.6,5.139,4.6a3.049,3.049,0,0,1-3.731,1.872c-2.628-.509-3.464-2.81-3.525-5.343-.01-.412-.6-.6-.586-.181.052,2.183.172,4.026,2.291,5.367a5.378,5.378,0,0,0,3.982.566,5.183,5.183,0,0,0,3.829-6.811c-.837-2.462-2.911-4.17-5.52-3.255-2.336.819-3.42,2.488-3.932,4.851C814.394,150.592,816.367,149.214,816.515,148.617Z"/><path class="b" d="M815.67,151.019q4.242-6.241,4.254,1.115,3.785,9.027-6.106-.384c-.018-.375-.588-.393-.571-.1.12,2.137.3,3.841,2.3,5.193a4.434,4.434,0,0,0,3.867.668,5.57,5.57,0,0,0,4.283-6.066,4.708,4.708,0,0,0-5.612-4.086c-2.238.547-3.25,2.14-3.69,4.281C814.219,152.477,815.594,151.363,815.67,151.019Z"/><path class="b" d="M813.69,149.617q6.915-6.353,6.736,3.478-2.648,4.819-8.212-2.1c-.031-.181-.716-1.292-.689-.639.071,1.724-.064,2.44,1.037,3.857a5.329,5.329,0,0,0,5.254,1.822c3.54-.6,4.911-5.092,3.163-7.894a4.327,4.327,0,0,0-5.6-1.76c-2.03.913-2.824,2.351-3.318,4.5C811.983,151.253,813.573,150.111,813.69,149.617Z"/><path class="b" d="M812.892,151.285q1.54-6.542,7.7.145a4.33,4.33,0,0,1-.443,2.7,3.279,3.279,0,0,1-1.541,2.025q-4.506,2.862-7.282-4.566c-.022-.365-.584-.354-.572-.064.086,2.145.378,3.913,2.292,5.244,3.416,2.375,8.021-.316,8.131-4.344a4.8,4.8,0,0,0-3.7-5.1c-2.78-.557-4.438,1.229-5.062,3.681C812.374,151.178,812.824,151.564,812.892,151.285Z"/><path class="b" d="M819.642,174.49c-1.945,4.759-4.425,9.06-8.437,12.319a13.326,13.326,0,0,1-7.672,3.589q-20.564,10.487-36.033-18.81l-.436.368a36.73,36.73,0,0,0,7.694,1.333c5.41.579,10.657.968,16.112,1.165,10.973.4,22.03.17,32.986.871.395.025-1.02-1.811-1.6-1.809q-12.269.04-24.539.014c-5.644-.006-11.371.172-17.005-.182l-7.832-.818a16.3,16.3,0,0,1-5.438-1.01.3.3,0,0,0-.435.368c1.922,5.71,4.507,11.008,9.323,14.876a29.376,29.376,0,0,0,12.141,5.981,28.4,28.4,0,0,0,18.207-2.118c7.25-3.478,11.563-9.448,14.537-16.7C821.4,173.487,819.8,174.1,819.642,174.49Z"/><path class="b" d="M818.326,173.343c-2.261,5.539-4.688,10.228-10.067,13.694-13.567,8.743-33.745,8.031-42.154-16.394l-.057,1.2a36.344,36.344,0,0,1,5.4.419q4.068.33,8.138.624c6.663.4,13.351.518,20.023.665,7.507.166,15.037.108,22.539.438.466.021-.7-1.434-1.171-1.436-8.205-.029-16.411-.05-24.617-.111-5.73-.042-11.476-.018-17.2-.236q-3.819-.16-7.626-.5a10.406,10.406,0,0,1-5.632-1.413c-.542-.371-.125,1.367-.1,1.428,1.581,4.323,3.331,8.138,6.515,11.562a29.138,29.138,0,0,0,30.155,7.755,29.134,29.134,0,0,0,11.38-7.125c3.408-3.431,5.254-7.2,7.032-11.615C821.026,171.936,818.558,172.776,818.326,173.343Z"/><path class="b" d="M818.563,171.04c-1.991,4.85-4.539,9.218-8.635,12.531a13.121,13.121,0,0,1-3.592,2.44q-19.564,12.075-40.188-18.063l.095,1.836a13.12,13.12,0,0,1,5.735.557q3.907.4,7.835.455,8.718.345,17.437.528c8.295.161,16.6.149,24.89.364.253.006.458-.525.084-.535-7.456-.208-14.921-.191-22.378-.326-5.085-.093-10.17-.2-15.252-.389q-4.488-.2-8.977-.363a18.852,18.852,0,0,1-9.586-2.269c-.435-.4-.079,1.711-.044,1.806,1.559,4.233,3.3,8.008,6.371,11.379a28.952,28.952,0,0,0,11.283,7.559,27.856,27.856,0,0,0,17.988.4,28.856,28.856,0,0,0,11.216-6.714c3.421-3.394,5.156-7.078,6.919-11.412C819.948,170.377,818.674,170.77,818.563,171.04Z"/><path class="b" d="M819.9,172.746c-1.943,4.76-4.348,9.009-8.437,12.38C798.881,195.5,776.412,196.165,767.39,170.1l.076,1.832a24.3,24.3,0,0,1,5.186.021q4.055.132,8.1.393c5.886.287,11.781.431,17.671.582,8.331.213,16.7.115,25.018.525.386.019-1.128-1.9-1.726-1.9q-11.059,0-22.119-.01c-4.992,0-9.984.035-14.976.021q-4.272-.014-8.543-.043a14.525,14.525,0,0,1-8.8-1.559c-.538-.363-.1,1.695-.062,1.8,2.149,5.527,4.963,10.619,9.832,14.238A29.66,29.66,0,0,0,789.5,191.55a28.743,28.743,0,0,0,18.2-2.722c7.17-3.712,11.2-9.513,14.164-16.823C822.035,171.582,820.088,172.293,819.9,172.746Z"/><path class="b" d="M817.445,173.113c-2.265,5.541-4.7,10.216-10.1,13.659-13.6,8.669-33.7,7.747-41.961-16.678l-.079,1.061a42.178,42.178,0,0,1,5.646.74c6.717.868,13.551.949,20.309,1.144,10.032.288,20.078.217,30.108.559.653.022.071-.9-.282-.9-7.435-.123-14.872-.129-22.308-.229-5.093-.069-10.188-.147-15.28-.3q-4.425-.063-8.832-.459a16.048,16.048,0,0,1-9.476-1.923c-.478-.356-.224,1.021-.214,1.048,1.625,4.588,3.4,8.539,6.747,12.132a28.438,28.438,0,0,0,41.178.72c3.4-3.409,5.235-7.159,7-11.553C820.055,171.756,817.667,172.569,817.445,173.113Z"/><path class="b" d="M820.031,170.768a20.063,20.063,0,0,1-2.872,6.031q-13.251,23.264-49.787-8.984l.072,1.837a15.589,15.589,0,0,1,5.668.516q3.919.357,7.853.446c5.859.253,11.716.5,17.58.625,8.3.177,16.62.144,24.921.409.568.019.166-.79-.2-.8-9.157-.206-18.32-.177-27.478-.36-6.342-.127-12.7-.276-19.034-.611-3.236-.171-6.971.089-9.5-2.207-.446-.406-.1,1.707-.066,1.805,2.089,5.672,4.825,10.623,9.681,14.428a28.845,28.845,0,0,0,11.874,5.573,28.187,28.187,0,0,0,17.748-2.176c7.069-3.4,11.236-9.215,14.153-16.349C820.8,170.586,820.178,170.41,820.031,170.768Z"/><path class="b" d="M820.05,171.485a26.7,26.7,0,0,1-6.909,11.182q-18.953,17.916-45.654-13.92l.095,1.984c2.846-.477,6.151.215,9.006.344,6.465.294,12.931.586,19.4.766,9.233.257,18.487.171,27.715.55.477.02-.615-1.32-1.055-1.323-8.228-.057-16.457-.087-24.685-.176-5.8-.063-11.594-.2-17.391-.313-4.268-.084-9.71.873-13.2-1.989-.473-.387-.089,1.829-.043,1.948,2.1,5.466,4.873,10.56,9.666,14.161a29.6,29.6,0,0,0,12.244,5.6,28.608,28.608,0,0,0,13.788-.79,29.258,29.258,0,0,0,11.294-6.8c3.43-3.229,5.164-7.1,6.887-11.322C821.492,170.683,820.181,171.166,820.05,171.485Z"/><path class="b" d="M819.47,172.141l-1.689,4.149a23.5,23.5,0,0,1-10.3,10.7c-13.434,7.8-32.777,4.83-40.514-17.521l.135,2.139a20.442,20.442,0,0,1,5.172-.111q4.058.076,8.113.246c5.851.23,11.7.441,17.552.581,8.344.2,16.708.139,25.047.488.444.019-.851-1.564-1.353-1.566q-9.853-.048-19.7-.081c-5.01-.02-10.019-.04-15.028-.09q-3.59-.033-7.177-.089a24.919,24.919,0,0,1-12.877-1.686c-.482-.371-.06,1.959,0,2.1,2.014,5.03,4.305,9.17,8.406,12.788a27.833,27.833,0,0,0,13.838,6.789,30.365,30.365,0,0,0,18.3-2.763c7.109-3.478,11.205-9.727,14.062-16.812C821.627,170.976,819.655,171.687,819.47,172.141Z"/><path class="b" d="M818.5,174.742a17.359,17.359,0,0,1-4.244,7.544,17.1,17.1,0,0,1-5.886,6.093l-3.762,2.137q-32.461,3.378-38.094-18.711l-.475.207a31.063,31.063,0,0,0,5.931,1.283,194.892,194.892,0,0,0,20.533,1.458c10.092.367,20.234.171,30.316.733.462.026-.681-1.438-1.151-1.438-8.154,0-16.308-.018-24.46-.093-5.712-.052-11.5.061-17.2-.333q-4.039-.43-8.075-.888a15.6,15.6,0,0,1-5.5-1.04c-.109-.06-.538.02-.475.207,2,5.975,4.6,11.015,9.456,15.1a27.751,27.751,0,0,0,14.367,6.244,28.051,28.051,0,0,0,12.01-.864,29.931,29.931,0,0,0,11.594-6.892c3.442-3.2,5.34-7.25,7.093-11.52C820.651,173.555,818.691,174.281,818.5,174.742Z"/><path class="b" d="M820.864,172.374c-1.649,4.038-3.481,8.229-6.878,11.18l-15.5,7.327q-19.527,2.181-30.242-21.234l.005,1.471c3.009-.056,6.133.476,9.126.707,6.5.5,13.006.747,19.526.939,9.19.27,18.425.136,27.6.626.4.022-1.037-1.762-1.607-1.763q-11.046-.018-22.092-.036c-4.991-.01-9.981-.029-14.972-.093q-4.338.012-8.667-.262a26.619,26.619,0,0,1-9.034-1.7c-.543-.371-.158,1.375-.131,1.449a34.618,34.618,0,0,0,6.274,11.317,28,28,0,0,0,15.058,8.725,28.092,28.092,0,0,0,22.208-4.522c5.145-3.648,7.987-8.451,10.324-14.158C822.123,171.717,821,172.047,820.864,172.374Z"/><path class="b" d="M820.345,173.239a26.741,26.741,0,0,1-6.9,11.074q-18.878,17.832-45.555-13.685l-.093,1.1c2.982-.038,6.092.5,9.056.748,6.511.551,13.022.766,19.554.961,9.2.275,18.45.119,27.638.643.366.021-1.183-1.984-1.808-1.983q-12.3.028-24.6.026c-5.669.005-11.356.145-17.022-.038q-3.681-.146-7.349-.476A11.856,11.856,0,0,1,767.7,170.3c-.557-.351-.173,1.24-.147,1.314,1.994,5.576,4.673,10.45,9.307,14.269a28.812,28.812,0,0,0,12.407,5.955,27.74,27.74,0,0,0,14.122-.714,29.658,29.658,0,0,0,11.438-6.864c3.462-3.425,5.267-7.177,7.068-11.554C822.074,172.26,820.505,172.855,820.345,173.239Z"/><path class="b" d="M818.728,173.879a26.177,26.177,0,0,1-10.079,13.689q-20.314,13.757-42.165-16.484l-.1.959c3.027.08,6.124.658,9.137.943,6.439.608,12.887.8,19.351.976,9.233.259,18.505.131,27.729.6.436.022-.887-1.66-1.411-1.66q-12.312.006-24.625-.034c-5.683-.013-11.4.089-17.082-.172q-3.789-.241-7.567-.606a12.539,12.539,0,0,1-5.613-1.281c-.486-.3-.265.876-.24.948,2.041,5.759,4.694,10.734,9.475,14.679a27.6,27.6,0,0,0,8.437,4.807,28.359,28.359,0,0,0,18.619.338,30.5,30.5,0,0,0,11.482-7.08c3.417-3.42,5.277-7.2,7.064-11.608C821.285,172.519,818.95,173.338,818.728,173.879Z"/><path class="b" d="M817.848,171.892l-1.688,4.145a23.275,23.275,0,0,1-10.341,10.63c-13.485,7.683-32.645,4.366-40.212-17.933l.1,1.771a11.948,11.948,0,0,1,5.651.474q3.927.366,7.87.474,8.728.372,17.462.535c8.3.161,16.6.145,24.9.37.464.013.3-.689-.081-.7-8.3-.185-16.613-.18-24.918-.321-5.788-.1-11.575-.232-17.36-.462-4.036-.16-10.544.509-13.736-2.279-.462-.4-.074,1.663-.043,1.744,1.588,4.281,3.346,8.07,6.482,11.46a28.949,28.949,0,0,0,11.5,7.576c7.131,2.5,15.683,2.152,22.345-1.505,7.038-3.863,11.044-9.327,13.994-16.664C819.943,170.77,818.027,171.452,817.848,171.892Z"/><path class="b" d="M819.325,173.279l-1.7,4.154a23.391,23.391,0,0,1-10.262,10.67c-13.44,7.8-32.693,4.952-40.5-17.545l.049,1.6a28.8,28.8,0,0,1,5.218.174q4.076.212,8.143.518c5.873.329,11.765.439,17.645.588,8.329.212,16.691.114,25.012.525.4.02-1.076-1.867-1.658-1.866q-11.051.012-22.1,0c-4.985,0-9.97.021-14.954,0q-4.3.02-8.589-.138a25.783,25.783,0,0,1-8.879-1.518c-.555-.357-.121,1.494-.089,1.578,2.745,7.253,6.917,13.307,13.889,17.073a28.685,28.685,0,0,0,34.073-5.141c3.395-3.429,5.249-7.207,7.029-11.608C821.808,171.955,819.539,172.755,819.325,173.279Z"/><path class="b" d="M821.327,171.6a27.045,27.045,0,0,1-10.221,13.944q-20.4,13.977-42.481-16.6L768.508,170c3.1.318,6.158.888,9.262,1.188,5.626.544,11.268.745,16.916.943,10.1.355,20.234.2,30.327.7.469.024-.617-1.321-1.063-1.324-6.532-.045-13.065-.06-19.6-.123-5.07-.049-10.14-.116-15.209-.23q-7.482-.114-14.935-.889a10.733,10.733,0,0,1-5.766-1.619c-.471-.355-.266.984-.251,1.028,1.961,5.694,4.555,10.722,9.243,14.655a28.676,28.676,0,0,0,12.126,5.995,27.678,27.678,0,0,0,17.875-2.021c7.167-3.635,11.188-8.932,14.2-16.25C821.671,171.945,821.375,171.487,821.327,171.6Z"/><path class="b" d="M820.446,173.825a32.073,32.073,0,0,1-5.426,9.507,13.154,13.154,0,0,1-6.944,4.819q-20.07,14.785-40.007-16.992l-.313.571a40.721,40.721,0,0,0,5.643.945c6,.717,11.967,1.1,18,1.321,10.988.4,22.06.185,33.029.892.363.024-1.154-1.951-1.777-1.948-7.336.028-14.673.026-22.009.033-4.965,0-9.929,0-14.894-.064a57.461,57.461,0,0,1-8.737-.441,24.335,24.335,0,0,1-9.008-1.42c-.423-.236-.513.234-.412.529,1.933,5.673,4.531,10.96,9.332,14.795a29.408,29.408,0,0,0,12.138,5.959,28.375,28.375,0,0,0,18.159-2.127,28.752,28.752,0,0,0,4-2.344c5.185-3.638,8.047-8.44,10.4-14.168C821.912,172.982,820.577,173.505,820.446,173.825Z"/><path class="b" d="M818.633,172.5l-1.692,4.154A16.47,16.47,0,0,1,809.7,184.4a13.3,13.3,0,0,1-6.979,4.789q-19.8,8.349-36.5-19.432l.119,1.951a22.388,22.388,0,0,1,5.364.043q4,.168,8.007.332c5.842.248,11.684.462,17.53.591,8.338.185,16.7.146,25.03.476.471.019-.689-1.4-1.146-1.4q-11.094-.059-22.19-.118-7.525-.053-15.051-.164-7.515-.066-15.016-.584a4.258,4.258,0,0,1-2.766-1.276c-.5-.378-.064,1.807-.021,1.917,1.723,4.386,3.563,8.18,6.913,11.6a28.842,28.842,0,0,0,35.834,4.156c6.045-3.836,9.548-9.083,12.217-15.734C821.191,171.161,818.85,171.964,818.633,172.5Z"/><path class="b" d="M817.526,174.078a25.849,25.849,0,0,1-10.1,13.625q-20.312,13.563-41.854-16.711l-.3.582c9.453,2.13,19.175,2.233,28.82,2.5,9.186.251,18.394.166,27.575.55.73.031-.1-1.008-.513-1.013-7.382-.074-14.763-.109-22.144-.2-5.081-.064-10.164-.136-15.243-.287a73.98,73.98,0,0,1-8.889-.569,42.586,42.586,0,0,1-9.373-1.667c-.431-.277-.484.288-.4.541,1.946,5.733,4.52,10.943,9.332,14.843a29.2,29.2,0,0,0,12.334,6.024,28.848,28.848,0,0,0,14.564-.648,29.971,29.971,0,0,0,11.486-6.969c3.47-3.27,5.307-7.231,7.062-11.551C820.042,172.745,817.744,173.548,817.526,174.078Z"/></g></svg>