<svg xmlns="http://www.w3.org/2000/svg" width={20} height={227} viewBox="0 0 20 227"><defs><style dangerouslySetInnerHTML={{__html: ".a{fill:#4ccd43;opacity:0.062;}" }} /></defs><path className="a" d="M1164.258,289.728c-.32-35.622-.034-71.249-.035-106.872s0-71.261,0-106.89c0-.7-1.8-.219-1.8.213q0,53.445,0,106.891c0,35.622-.321,71.249.039,106.87C1162.467,290.642,1164.261,290.161,1164.258,289.728Z" transform="translate(-1152.372 -63.296)" /><path className="a" d="M1159.742,286.829c-.347-35.7-.038-71.41-.038-107.113s-.009-71.422,0-107.133c0-.442-1.031-.088-1.225,0-.525.231-1.566.681-1.566,1.1q.014,53.567,0,107.133v72.627c0,11.492-.1,22.985.053,34.477.005.439,1.022.092,1.221,0C1158.708,287.691,1159.746,287.242,1159.742,286.829Z" transform="translate(-1155.526 -63.296)" /><path className="a" d="M1161.492,279.336c.251-71.585.024-143.172.024-214.757,0-.553-1.352.088-1.473.146-.618.3-2.262,1-2.262,1.519V173.616c0,35.783-.228,71.57.034,107.352,0,.547,1.33-.076,1.458-.137C1159.886,280.536,1161.49,279.853,1161.492,279.336Z" transform="translate(-1154.327 -63.296)" /><path className="a" d="M1159.413,280.257c-.2-35.707-.025-71.416-.026-107.124s.027-71.426,0-107.139c0-.442-1.035-.08-1.22,0-.525.237-1.523.684-1.523,1.1q.01,53.569,0,107.139c0,35.705-.27,71.414.036,107.118,0,.44,1.03.082,1.218,0C1158.42,281.118,1159.416,280.671,1159.413,280.257Z" transform="translate(-1155.526 -63.296)" /><path className="a" d="M1164.684,285.755c-.133-35.885-.015-71.772-.016-107.657q0-36.5,0-73c0-11.535-.145-23.073.009-34.607.009-.694-1.885.392-1.9.4q-1.272.683-2.45,1.415a2.652,2.652,0,0,0-1.057.848c-.282,3.53-.047,7.092-.048,10.626q0,11.946,0,23.893,0,36.494,0,72.989c0,35.872-.241,71.747.037,107.619.005.675,1.826-.327,1.894-.36q1.278-.65,2.464-1.351A2.656,2.656,0,0,0,1164.684,285.755Z" transform="translate(-1153.156 -63.296)" /><path className="a" d="M1157.45,285.568c-.342-35.6-.04-71.2-.04-106.793s0-71.21,0-106.815c0-.523-1.471-.4-1.471.058q0,53.407,0,106.815v72.411c0,11.459-.078,22.92.042,34.38C1155.987,286.145,1157.454,286.027,1157.45,285.568Z" transform="translate(-1155.526 -63.296)" /><path className="a" d="M1165.98,278.845c-.132-35.889-.013-71.779-.015-107.668s-.158-71.768.005-107.651c0-.685-1.844.377-1.866.388q-1.233.669-2.372,1.386a2.487,2.487,0,0,0-1.016.832c-.142,3.563-.027,7.134-.027,10.7q0,11.947,0,23.894,0,36.5,0,72.993c0,35.875-.247,71.754.032,107.629.005.671,1.8-.327,1.857-.356q1.236-.642,2.38-1.335A2.476,2.476,0,0,0,1165.98,278.845Z" transform="translate(-1152.254 -63.296)" /><path className="a" d="M1165.734,281.706q-.03-53.885,0-107.771,0-36.533,0-73.066c0-11.549-.139-23.1.01-34.65.009-.72-2,.468-1.991.465q-1.352.741-2.609,1.532a3.053,3.053,0,0,0-1.139.909c-.31,3.53-.052,7.1-.052,10.632q0,11.957,0,23.914,0,36.529,0,73.058c0,35.912-.071,71.824.011,107.736,0,.7,1.941-.4,1.985-.42q1.361-.706,2.63-1.463A3.069,3.069,0,0,0,1165.734,281.706Z" transform="translate(-1152.562 -63.296)" /><path className="a" d="M1156.79,283.924c-.3-35.574-.034-71.153-.035-106.727s0-71.165,0-106.747c0-.264-1.117-.575-1.117-.138q0,53.374,0,106.747c0,35.575-.275,71.153.036,106.727C1155.676,284.049,1156.793,284.361,1156.79,283.924Z" transform="translate(-1155.526 -63.296)" /><path className="a" d="M1163.463,283.846c-.129-35.9-.012-71.8-.013-107.7q0-36.51,0-73.021c0-11.538-.139-23.08.009-34.618.01-.7-1.923.425-1.928.428q-1.291.706-2.49,1.46a2.767,2.767,0,0,0-1.077.871c-.3,3.528-.05,7.091-.051,10.622q0,11.95,0,23.9,0,36.506,0,73.013c0,35.886-.186,71.774.028,107.659,0,.686,1.867-.357,1.921-.384q1.3-.672,2.509-1.395A2.774,2.774,0,0,0,1163.463,283.846Z" transform="translate(-1154.001 -63.296)" /><path className="a" d="M1165.905,286.592c-.225-35.852-.023-71.706-.024-107.558s-.149-71.7,0-107.556c0-.654-1.728.284-1.791.316q-1.174.6-2.256,1.258a2.2,2.2,0,0,0-.959.77c-.266,11.527-.016,23.065-.016,34.592q0,36.463,0,72.925t0,72.952c0,11.515-.142,23.034.085,34.548.012.639,1.673-.239,1.772-.287q1.163-.581,2.235-1.213A2.156,2.156,0,0,0,1165.905,286.592Z" transform="translate(-1152.236 -63.296)" /><path className="a" d="M1168.089,284.458c-.139-35.9-.012-71.792-.014-107.688,0-35.881-.251-71.765.006-107.645.005-.7-1.911.4-1.934.413q-1.3.7-2.516,1.44a2.816,2.816,0,0,0-1.092.862c-.236,3.54-.042,7.1-.043,10.644q0,11.95,0,23.9,0,36.5,0,73.007c0,35.882-.18,71.767.025,107.649,0,.682,1.859-.339,1.927-.372q1.313-.664,2.533-1.378A2.829,2.829,0,0,0,1168.089,284.458Z" transform="translate(-1149.791 -63.296)" /><path className="a" d="M1169.791,282.836c-.142-35.872-.016-71.746-.017-107.618s-.117-71.743,0-107.614c0-.667-1.785.317-1.839.344q-1.216.631-2.342,1.313a2.4,2.4,0,0,0-1.005.8c-.277,11.531-.016,23.075-.017,34.607q0,36.48,0,72.961c0,35.856-.326,71.717.047,107.573.007.655,1.741-.275,1.826-.317q1.215-.609,2.339-1.27A2.37,2.37,0,0,0,1169.791,282.836Z" transform="translate(-1149.791 -63.296)" /><path className="a" d="M1159.476,285.022c.235-35.768.045-71.539.044-107.307s0-71.522,0-107.283c0-.517-1.236.02-1.386.09-.583.272-2.025.88-2.025,1.364q0,53.642,0,107.283c0,35.751-.326,71.507.047,107.257.005.506,1.2,0,1.363-.077C1158.1,286.082,1159.473,285.5,1159.476,285.022Z" transform="translate(-1155.526 -63.296)" /><path className="a" d="M1160.9,288.386c-.132-11.484-.046-22.97-.046-34.455q0-36.286,0-72.57,0-53.525,0-107.05c0-.408-.931-.129-1.146-.051-.505.186-1.345.6-1.345.963q-.028,53.525,0,107.05,0,36.286,0,72.57c0,11.483-.1,22.968.053,34.45C1158.423,289.931,1160.9,288.836,1160.9,288.386Z" transform="translate(-1154.151 -63.296)" /><path className="a" d="M1164.841,287.944c.327-71.588.093-143.18.04-214.769,0-.557-1.364.074-1.5.139-.623.287-2.4,1-2.4,1.527q.01,53.687,0,107.374c0,35.782-.324,71.569.045,107.349.006.548,1.332-.059,1.482-.127C1163.117,289.154,1164.838,288.459,1164.841,287.944Z" transform="translate(-1152.506 -63.296)" /><path className="a" d="M1161.905,286.655c.3-11.567.151-23.138.151-34.706q0-36.435,0-72.871,0-53.747,0-107.494c0-.605-1.536.174-1.637.222q-1.03.517-1.968,1.083a1.632,1.632,0,0,0-.81.679q0,53.747,0,107.494,0,36.435,0,72.871c0,11.526-.115,23.053.08,34.578.01.584,1.456-.132,1.579-.19C1159.966,288,1161.891,287.216,1161.905,286.655Z" transform="translate(-1155.526 -63.296)" /><path className="a" d="M1162.415,289.607c-.323-35.608-.039-71.22-.039-106.828s0-71.233,0-106.849c0-.614-1.625-.323-1.625.124q0,53.424,0,106.849c0,35.608-.316,71.219.042,106.826C1160.8,290.341,1162.419,290.054,1162.415,289.607Z" transform="translate(-1153.183 -63.296)" /><path className="a" d="M1161.624,282.738c.189-71.715-.11-143.431.013-215.146,0-.651-1.706.288-1.76.315q-1.134.6-2.177,1.249a2.055,2.055,0,0,0-.916.763c-.138,11.537-.009,23.078-.009,34.616q0,36.463,0,72.926t0,72.953c0,11.516-.129,23.035.079,34.55.012.636,1.65-.245,1.733-.286q1.116-.575,2.139-1.2A1.97,1.97,0,0,0,1161.624,282.738Z" transform="translate(-1155.526 -63.296)" /><path className="a" d="M1163.251,281.925c-.1-35.89-.012-71.781-.013-107.672q0-36.5,0-73c0-11.539-.13-23.08.009-34.619.008-.695-1.882.406-1.889.41q-1.254.687-2.412,1.422a2.585,2.585,0,0,0-1.035.852c-.262,3.535-.045,7.1-.046,10.636q0,11.947,0,23.895,0,36.5,0,73c0,35.877-.21,71.757.034,107.634,0,.677,1.826-.341,1.881-.368q1.258-.655,2.424-1.36A2.578,2.578,0,0,0,1163.251,281.925Z" transform="translate(-1154.055 -63.296)" /><path className="a" d="M1167.023,287.26c.215-11.55.1-23.1.1-34.653q0-36.414,0-72.826,0-53.713,0-107.427c0-.581-1.446.115-1.574.175-.649.3-2.618,1.088-2.618,1.635q0,53.713,0,107.427v72.826c0,11.52-.1,23.043.07,34.563.009.565,1.388-.085,1.532-.152C1165.17,288.532,1167.013,287.8,1167.023,287.26Z" transform="translate(-1151.303 -63.296)" /><path className="a" d="M1157.971,282.014c-.24-35.648-.031-71.3-.032-106.947s0-71.31,0-106.965c0-.821-2.055-.024-2.055.394q0,53.482,0,106.965c0,35.647-.267,71.3.037,106.944C1155.928,283.223,1157.973,282.432,1157.971,282.014Z" transform="translate(-1155.526 -63.296)" /><path className="a" d="M1159.2,283.262c.285-71.487.031-142.976.03-214.463,0-.488-1.152-.021-1.316.054-.559.257-1.815.8-1.815,1.255q0,53.612,0,107.223c0,35.731-.3,71.467.044,107.2,0,.478,1.125.035,1.3-.044C1158,284.231,1159.2,283.71,1159.2,283.262Z" transform="translate(-1155.526 -63.296)" /><path className="a" d="M1169.384,281.533c-.073-35.908-.006-71.816-.007-107.723s-.246-71.789.006-107.681c0-.706-1.937.425-1.951.432q-1.317.711-2.54,1.472a2.875,2.875,0,0,0-1.1.878c-.26,3.537-.044,7.1-.045,10.639q0,11.953,0,23.9,0,36.514,0,73.027c0,35.9-.083,71.791.015,107.686,0,.688,1.886-.357,1.944-.387q1.328-.676,2.562-1.4A2.887,2.887,0,0,0,1169.384,281.533Z" transform="translate(-1149.791 -63.296)" /><path className="a" d="M1166.385,283.752q0-53.9,0-107.8,0-36.541,0-73.082c0-11.551-.147-23.1.01-34.655.009-.727-2.036.483-2.033.481q-1.4.758-2.7,1.566a3.275,3.275,0,0,0-1.184.927c-.323,3.528-.054,7.1-.055,10.63q0,11.961,0,23.92,0,36.538,0,73.075,0,53.88.011,107.76c0,.709,1.98-.412,2.027-.435q1.4-.723,2.718-1.5A3.289,3.289,0,0,0,1166.385,283.752Z" transform="translate(-1152.167 -63.296)" /><path className="a" d="M1168.117,279.863c-.081-35.906-.007-71.812-.008-107.718s-.246-71.789.005-107.682c.005-.7-1.92.422-1.931.428q-1.295.705-2.5,1.46a2.774,2.774,0,0,0-1.08.871c-.234,3.543-.041,7.108-.042,10.653q0,11.951,0,23.9,0,36.512,0,73.024c0,35.893-.108,71.788.017,107.681,0,.686,1.87-.357,1.924-.384q1.3-.672,2.515-1.4A2.786,2.786,0,0,0,1168.117,279.863Z" transform="translate(-1149.791 -63.296)" /><path className="a" d="M1161.06,284.575c.286-11.563.119-23.132.119-34.7V176.973q0-53.773,0-107.545c0-.625-1.611.222-1.693.263q-1.077.553-2.061,1.155a1.822,1.822,0,0,0-.859.715q0,53.773,0,107.545v72.906c0,11.524-.1,23.051.078,34.576.01.607,1.539-.182,1.641-.231q1.029-.524,1.966-1.1A1.643,1.643,0,0,0,1161.06,284.575Z" transform="translate(-1155.526 -63.296)" /><path className="a" d="M1164.216,278.919c-.216-71.733-.081-143.469-.009-215.2,0-.656-1.728.3-1.776.327q-1.152.611-2.209,1.271a2.116,2.116,0,0,0-.931.774c-.17,35.862-.006,71.725-.006,107.587q0,36.486,0,72.972c0,11.521-.111,23.045.065,34.566.009.644,1.684-.268,1.758-.3q1.139-.592,2.185-1.233A2.068,2.068,0,0,0,1164.216,278.919Z" transform="translate(-1153.243 -63.296)" /><path className="a" d="M1168.611,285.622c.242-35.855.03-71.712.029-107.566s0-71.713,0-107.57c0-.638-1.665.237-1.753.279q-1.143.573-2.195,1.2a2.077,2.077,0,0,0-.93.738q0,53.784,0,107.568,0,36.462,0,72.926c0,11.519-.111,23.042.068,34.561.01.625,1.617-.205,1.725-.256q1.119-.553,2.148-1.157A1.977,1.977,0,0,0,1168.611,285.622Z" transform="translate(-1149.791 -63.296)" /><path className="a" d="M1162.8,287.678c.212-35.809.042-71.621.042-107.431s.009-71.605,0-107.408c0-.571-1.412.1-1.539.163-.637.3-2.5,1.055-2.5,1.592q-.015,53.7,0,107.408v72.813c0,11.522-.083,23.045.051,34.567.007.562,1.377-.085,1.515-.15C1161.005,288.938,1162.8,288.208,1162.8,287.678Z" transform="translate(-1153.684 -63.296)" /><path className="a" d="M1166.082,288.676c-.239-35.674-.029-71.351-.03-107.025s.026-71.36,0-107.041c0-.638-2.517.45-2.516.9q.01,53.52,0,107.041c0,35.671-.3,71.348.039,107.019C1163.581,290.212,1166.085,289.125,1166.082,288.676Z" transform="translate(-1151.625 -63.296)" /><path className="a" d="M1163.06,285.539c-.25-35.865-.032-71.733-.032-107.6s-.256-71.718.006-107.574c0-.674-1.8.343-1.839.361q-1.211.644-2.329,1.337a2.38,2.38,0,0,0-.995.809c-.172,3.553-.032,7.118-.033,10.672q0,11.941,0,23.882,0,36.477,0,72.955t0,72.984c0,11.523-.109,23.047.065,34.569.01.658,1.749-.29,1.826-.328q1.211-.618,2.33-1.286A2.368,2.368,0,0,0,1163.06,285.539Z" transform="translate(-1154.085 -63.296)" /></svg>