<svg xmlns="http://www.w3.org/2000/svg" xmlns:xlink="http://www.w3.org/1999/xlink" width="150" height="150" viewBox="0 0 150 150"><defs><style>.a{fill:#fff;opacity:0;}.b{fill:url(#a);}.c{fill:#4ccd43;opacity:0.076;}</style><radialGradient id="a" cx="0.5" cy="0.5" r="0.5" gradientTransform="translate(0.019 1.024) rotate(-90)" gradientUnits="objectBoundingBox"><stop offset="0" stop-color="#4ccd43"/><stop offset="1" stop-color="#4ccd43" stop-opacity="0"/></radialGradient></defs><rect class="a" width="150" height="150"/><ellipse class="b" cx="48.66" cy="48.807" rx="48.66" ry="48.807" transform="translate(25.423 25.024)"/><g transform="translate(0 150) rotate(-90)"><path class="c" d="M569.7,395.127l25.206,11-8.223-8.668q-142.228,101.382-26.6-20.489c6.667-.02,13.751-8.727,4.506-9.517-15.523-1.318-27.668-1.005-41.3,7.594a58.6,58.6,0,0,0-25.4,35.1c-9.829,37.308,24.077,74.695,61.915,71.483,27.152-2.294,51.725-26.756,51.443-54.625-.107-10.816-6.063-20.2-12.408-28.259C589.3,386.624,577.7,381.8,562.6,378.327,551.415,375.75,564.105,393.887,569.7,395.127Z" transform="translate(-462.912 -354.324)"/><path class="c" d="M567.677,394.624q39.137,57.954.467,70.234-48.2,24.365-13.459-86.721c2.822-.049,8.71-.429,9.6-3.9s-1.451-5.447-4.515-5.623c-27.707-1.6-51.171,7.516-60.942,35.336-10.461,29.763,2.433,60.677,32.281,71.972,22.228,8.414,46.2,4.441,62.431-13.412,12.7-13.979,16.933-32.818,10.52-50.74a66.241,66.241,0,0,0-11.474-19.25c-11.844-14.408-24.349-18.312-42.188-21.2-6.774-1.1.428,9.293.681,9.654C554.7,385.917,561.351,393.434,567.677,394.624Z" transform="translate(-471.097 -340.644)"/><path class="c" d="M564.116,395.453,583.3,459.118,571.181,466.1l-14.16,4.715q-32.379,7.233-32.183-36.488-31.663-25.111-11.61-41.965a24.5,24.5,0,0,1,11.455-9.166c12.37-7.145,22.636-7.087,36.855-6.15,4.311.273,2.56-8.659-.691-8.746-18.822-.517-33.945.078-49.506,13.3-13.625,11.567-19.523,29.733-18.208,47.343,2.345,31.364,27.736,55.338,60.017,54.157,28.534-1.044,57.876-24.394,53.555-55.377-1.567-11.215-5.469-21.573-13.528-29.87-9.82-10.123-17-10.894-30.033-13.559C556.135,382.842,558.179,394.2,564.116,395.453Z" transform="translate(-491.019 -342.898)"/><path class="c" d="M565.057,397.152l18.335,61.663a44.349,44.349,0,0,1-18.987,9.9,25,25,0,0,1-15.23,2.5q-40.743,3.689-46.217-58.637c7.931-28.366,31.337-36.908,58.576-34.731,4.525.361,2.9-8.619-.555-8.766-12.934-.527-23.337-1.357-35.551,4.188-22.325,10.161-33.643,32.5-32,56.606,2.394,35.259,33.595,57.9,68.425,52.331,32.437-5.193,53.02-36.644,41.361-67.979-7.036-18.927-22.393-26.863-41.059-30.27C553.184,382.324,559.334,396.059,565.057,397.152Z" transform="translate(-488.213 -338.339)"/><path class="c" d="M562.606,390.541q30.7-1.582,13.294,35.619,2.277,91.47-25.216-49.139c2.842-.42,10.229-.644,11-4.529s-1.878-5.359-5.206-5.369c-27.687-.01-56.7,13.618-61.1,45.02-4.126,29.431,14.539,59.584,44.63,65.7,34.4,7,71.491-22.275,65.185-58.461a56.543,56.543,0,0,0-9.8-23.242c-10.812-15.247-22.958-20.431-41.021-23.779C542.11,370.1,557.107,389.516,562.606,390.541Z" transform="translate(-474.804 -352.13)"/><path class="c" d="M569.414,397.482l27.356,17.991-7.9-14.769-3.649,55.786-10.881,9.039c-27.414,15.852-72.143-11.333-69.992-43.644.7-10.5,3.756-19.591,10.461-27.761,11.893-14.467,25.712-16.555,45.565-15.521,6.413.342,9.08-8.766,2.978-9.117-19.065-1.083-34.86-1.2-50.382,12.9-17.508,15.882-23.065,43.985-13.566,65.6,9.985,22.734,32.125,35.268,57.165,34.673,35.609-.839,62.9-37.913,47.482-71.493a74.775,74.775,0,0,0-15.785-21.817c-10.657-10.132-20.165-10.923-33.887-13.139-6.287-1.016-.341,8.492.087,9.107C557.755,390.005,563.614,396.37,569.414,397.482Z" transform="translate(-474.83 -335.224)"/><path class="c" d="M561.889,392.476q45.429,2.343,20.573,67.91-17.5,14.262-38.947,1.562-67.413.557-12.33-83.138a53.677,53.677,0,0,1,30.588-3.114c4.506.2,2.637-8.678-.8-8.736-30.938-.576-58.382,10.191-66.489,42.023-8.6,33.745,15.9,68.964,49.944,72.567,29.984,3.182,60.533-16.77,61.847-48.192.38-9.049-.029-15.774-4.311-24.648-7.542-15.618-19.59-20.43-35.716-23.886C563.2,384.169,557.2,391.49,561.889,392.476Z" transform="translate(-492.753 -353.752)"/><path class="c" d="M563.658,393q50.99,52.39,8.895,69.96l-50.772-5L557.77,376c5.917-.332,8.506-9.2,2.589-9.127-24.009.313-47.745,6.013-60.377,29.05-20.895,38.1,12.048,89.142,55.423,84.964,33.79-3.26,64.056-38.04,46.752-71.629-9.187-17.854-21.965-24.794-40.991-28.816C552.894,378.693,557.828,391.783,563.658,393Z" transform="translate(-485.899 -354.338)"/><path class="c" d="M567.034,398.08q20.393-.556,29.945,19.015L590.187,404.1c11.9,34.009-1.343,63.1-32.164,67.822q-21.255,4.847-34.2-14.125-21.489-7.629-20.944-29.011c-.214-15.042,3.913-31.881,16.768-41.222,13.391-9.732,26.383-10.4,42.519-9.029,5.606.478,5.255-8.658,1.567-8.863-19.259-1.083-35.765-.635-50.937,12.631-9.508,8.327-14.724,18.634-17.158,30.973-7.143,36.186,16.068,64.806,50.752,69.189,20.534,2.6,39.687-3.026,52.455-20.567a49.828,49.828,0,0,0,6.744-45.469c-2.55-7.566-7.192-14.028-12.389-20.011-9.43-10.865-19.474-13.793-33.614-16.145C547.453,378.255,561.6,397.075,567.034,398.08Z" transform="translate(-478.833 -333.069)"/><path class="c" d="M562.086,391.582q30.013-1.962,13.79,34.4l-.477,31.871-22.977-80.776c2.87-.332,8.321-.4,9.206-3.992a4.324,4.324,0,0,0-4.486-5.574c-23.98.263-46,7.351-57.487,30.553-17.566,35.512,9.479,79.117,48.241,80.639,32.6,1.288,62.216-24.511,56.61-58.452a56.089,56.089,0,0,0-9.576-23.281c-10.549-15.023-22.451-19.845-40.2-22.862C542.8,372.088,556.607,390.616,562.086,391.582Z" transform="translate(-480.25 -348.739)"/><path class="c" d="M564.823,391.433q21.751,151.414-11.425-14.75c2.832-.351,9.868-.654,10.646-4.451.788-3.836-1.839-5.32-5.09-5.388-13.566-.3-20.914-.615-33.439,5.886a57.016,57.016,0,0,0-29.352,38.518c-6.1,29.626,14.666,60.658,43.988,67.432,39.726,9.186,79.354-30.046,63.627-69.267-8.292-20.675-24.9-30.514-46.013-34.868C546.371,372.193,559.276,390.3,564.823,391.433Z" transform="translate(-472.291 -355.706)"/><path class="c" d="M570.658,397.789a34.2,34.2,0,0,1,25.264,10.991l-10.111-11.157,14.471,19.8L593.606,405.5l-53.234,67.579-14.461-7a48.827,48.827,0,0,1-16.165-60.043c9.362-21.417,23.152-28.991,51.891-27.459,6.774.361,12.107-8.561,4.029-9.342-14.306-1.4-21.624-3.241-35.473,2.684-22.646,9.664-35.969,35.21-33.556,59.428,3.64,36.479,44.923,61.966,79.15,48.817,25.5-9.8,43.823-41.213,31.648-67.286-2.744-5.876-7.279-11.528-11.376-16.516-9.372-11.362-21.225-15.14-35.239-18.215C547.973,375.338,565.1,396.578,570.658,397.789Z" transform="translate(-461.29 -345.985)"/><path class="c" d="M564.952,392.327q42.889,93.608-19.415,69.13-74.143-1.581,12.272-86.018c2.861-.263,6.588-.41,7.464-3.68.73-2.694-1.158-5.662-3.912-5.671-29.731-.059-60.912,12.524-66.207,46.376-5.168,33.072,19.425,65.343,52.923,67.988,28.261,2.235,56.718-19.435,58.859-48.339.905-12.163-2.277-22.451-9.508-32.222-9.489-12.827-19.989-16.9-35.259-20.246C553.868,377.831,559.094,391.1,564.952,392.327Z" transform="translate(-477.783 -361.198)"/><path class="c" d="M566.639,394.409q39.852,55.1,2.433,68.633-46.714,26.165-13.742-84.9c2.842-.039,7.542-.39,8.457-3.69a4.353,4.353,0,0,0-4.107-5.691c-15.279-.644-27.911-.088-40.816,8.668-12.477,8.463-20.135,19.816-23.1,34.781-6.9,34.692,17.6,65.313,52.387,67.461,34.714,2.148,66.168-26.141,56.475-62.8a60.5,60.5,0,0,0-12.233-23.887c-11.435-13.929-24.058-17.736-41.342-20.362-6.4-.976-.185,8.639.234,9.244C554.63,386.589,560.722,393.334,566.639,394.409Z" transform="translate(-476.676 -339.412)"/><path class="c" d="M569.407,394.55l-14.141-16.487c2.8-.107,9.761-.537,10.608-4.178.9-3.826-1.693-5.3-4.905-5.515-15.24-1-27.24-.449-40.3,8.493a57.822,57.822,0,0,0-23.58,35.024c-5.674,24.248,6.287,49.8,28.008,61.39,20.778,11.1,45.37,9.752,63.968-4.666,15.279-11.85,22.646-33.374,17.722-51.775a59.709,59.709,0,0,0-12.3-23.32c-12.1-14.779-24.378-18.947-42.528-22.2-6.8-1.22.574,9.42.749,9.654C556.414,385.959,563.042,393.29,569.407,394.55Z" transform="translate(-467.153 -344.366)"/><path class="c" d="M566.453,392.3q35.867,10.528-11.435-15.384c2.822-.234,9.859-.654,10.656-4.373.817-3.885-1.82-5.271-5.051-5.427-15.162-.742-26.821.39-39.794,9.127a58.581,58.581,0,0,0-23.882,34.672c-5.927,24.1,7.279,49.861,28.329,61.741,35.94,20.275,86.089-5.447,83.549-48.993-.515-8.766-4.564-17.121-9.537-24.1-10.764-15.111-22.578-21.241-40.942-25.136C546.414,371.889,560.906,391.148,566.453,392.3Z" transform="translate(-468.549 -353.85)"/><path class="c" d="M565.482,392.087q26.6,140.3-14.724-14.32c2.822-.293,10.549-.605,11.357-4.451.827-3.992-1.888-5.32-5.246-5.408-27.23-.693-49.594,9.966-58.917,37.308-10.277,30.124,8.593,68,42.12,72.742,22.1,3.124,46.052-4.53,58.382-24.277,8.408-13.461,9.245-30.046,3.747-44.639-3.212-8.551-8.408-15.618-14.637-22.168-11.338-11.919-22.831-14.681-38.665-17.288-6.618-1.083.214,9.049.516,9.459C552.938,383.888,559.331,390.945,565.482,392.087Z" transform="translate(-471.831 -345.525)"/><path class="c" d="M569.07,395.243a34.817,34.817,0,0,1,25.371,10.932l-9.722-10.649q-138.622,105-25.7-17.981c2.812,0,8.4-.546,9.255-3.934.876-3.446-1.469-5.349-4.447-5.6-15.474-1.3-27.639-1.064-41.156,7.653-12.584,8.1-21.079,20.43-24.885,35.142-8.01,30.973,13.654,62.629,44.115,69.521,33.439,7.565,69.612-17.707,68.678-53.639-.243-9.215-4.438-17.307-9.518-24.54-10.841-15.433-22.519-21.8-41.214-25.887C547.339,373.524,563.513,394.042,569.07,395.243Z" transform="translate(-463.469 -349.452)"/><path class="c" d="M562.728,393.226q40.48,0,22.87,57.436-41.356,40.119-30.043-73.309c2.851-.107,6.443-.371,7.357-3.524.75-2.616-1.031-5.71-3.766-5.749-23.668-.293-47.472,5.066-59.452,28.4-16.457,32.037,3.757,75.173,38.645,82.728,34.948,7.575,72.659-19.493,66.489-57.27a56.058,56.058,0,0,0-9.44-23.584c-10.432-14.974-22.042-19.6-39.735-22.441C543.771,374.005,557.269,392.279,562.728,393.226Z" transform="translate(-482.926 -343.843)"/><path class="c" d="M562.979,391.378l24.778,10.269Q602,414.268,593.6,432.883q6.321,38.538-39.356,21.231L516.83,455.2l45.039-80.561c5.43.01,4.778-8.873,1.1-8.912-15.688-.166-28.155.5-42.022,8.707-10.774,6.374-18.082,14.164-22.861,25.771-12.282,29.8,2.365,62.805,31.279,76.061C553.646,487.4,585.2,478.049,600,455.149c6.248-9.674,8.3-20.88,7.474-32.2-.934-12.67-8.739-24.179-18.763-31.119-10-6.921-4.681-4.012-20.962-7.653C565.577,383.686,559.339,390.6,562.979,391.378Z" transform="translate(-484.296 -364.563)"/><path class="c" d="M565.59,397.185Q610.9,442.648,578.5,461.61a39.948,39.948,0,0,1-20.418,9.117c-27.522,3.485-57-20.089-55.024-49.861,2.2-32.964,28.4-45.049,58.314-42.736,5.264.41,4.243-8.658,1.148-8.8-19.152-.9-35.5-.264-50.606,12.817-14.131,12.221-19.737,31.041-17.81,49.344,3.63,34.4,33.594,55.709,67.764,50.662,31.9-4.7,53.389-35.092,42.382-66.7a56.785,56.785,0,0,0-11.659-18.9c-9.022-10.142-19.026-12.729-32.232-14.945C549.581,379.8,560.072,396.169,565.59,397.185Z" transform="translate(-484.124 -335.219)"/><path class="c" d="M568.658,393.293l-8.9-17.122c2.832-.117,7.98-.6,8.807-3.983.818-3.319-1.469-5.379-4.4-5.564-17.829-1.132-32.972.371-47.453,12.358-9.547,7.9-16.262,20.636-19.4,32.427-9.031,33.911,20.6,66.407,53.107,68.789,28.768,2.109,55.686-17.834,59.55-47.079,1.9-14.311-3.368-26.629-12.856-37.308-9.177-10.327-20.077-14.124-33.41-17.189C553.9,376.366,562.975,392.043,568.658,393.293Z" transform="translate(-467.203 -359.216)"/><path class="c" d="M563.563,392.186q50.261,50.662,9.469,69.687-103.981,15.462-15.318-86.135c5.771-.693,7.766-9.244,1.177-9.117-30.071.586-59.1,13.383-64.114,47.4-5.752,38.987,30.958,74.245,69.516,63.684,30.948-8.473,50.178-36.664,38.032-67.579-7.7-19.611-23.308-28.318-43.249-32.417C549.257,375.7,557.89,391.043,563.563,392.186Z" transform="translate(-480.287 -356.547)"/><path class="c" d="M571.874,398.773l22.773,10.22-11.085-12.885,15.172,20.968-7.776-14.193-6.608,57.983-70.693-4.92c-7.747-10.162-10.3-22.686-8.963-35.161a49.469,49.469,0,0,1,11.455-27.557c12.019-14.3,25.819-15.95,45.594-14.525,6.549.478,9.674-8.639,3.192-9.156-19.035-1.5-34.976-1.943-50.616,12.143-14.053,12.66-19.386,31.6-18.52,49.939,1.684,35.639,38.159,54.967,69.749,50.74,32.544-4.354,54.742-42.492,38.966-72.323a84.458,84.458,0,0,0-14.325-19.21c-10.306-10.493-20.729-11.518-34.285-14.027-6.491-1.2.078,8.932.35,9.312C559.748,390.974,565.84,397.533,571.874,398.773Z" transform="translate(-466.944 -337.198)"/><path class="c" d="M562.512,391.519l35.162,47.89q-18.364,43.136-54.508,22.705-50.874,1.141-11.377-46.874-4.613-48.466,29.867-40.266c5.236.117,4.039-8.8.817-8.864-18.491-.322-33.74.733-48.757,12.358-10.608,8.209-15.824,16.262-18.89,29.4-7.2,30.934,12.068,65,43.395,72.478,27.9,6.657,61.555-11.265,68.153-40.227a50.892,50.892,0,0,0-3.688-32.105c-8-16.428-19.5-20.274-35.483-23.788C564.848,383.7,558.62,390.7,562.512,391.519Z" transform="translate(-487.81 -361.415)"/><path class="c" d="M567.3,393.111l-7.756-17.59c2.851-.166,6.89-.527,7.737-3.778a4.411,4.411,0,0,0-4.039-5.632c-18.364-.683-32.748,1.279-47.852,12.944-9.352,7.223-17.021,20.7-19.279,32.32-5.625,28.923,14.024,62.424,44.1,68.184,28.972,5.554,57.613-10.445,67.141-38.675,3.649-10.816,1.9-24.287-3.543-34.175-9-16.36-22.189-22.6-39.6-26.5C555.75,378.313,561.453,391.871,567.3,393.111Z" transform="translate(-471.802 -362.05)"/><path class="c" d="M563.224,394.113q50.333,51.131,9.119,68.925-76.7-94.632-13.333-86.428c5.674.078,5.6-8.893,1.548-8.941-18.7-.2-34.052.946-48.893,13.207-10.657,8.795-14.968,16.106-17.469,29.752-6.764,36.83,20.719,73.914,59.822,71.054,34.519-2.518,64.5-37.367,47.531-71.463-8.924-17.922-21.625-24.823-40.611-28.562C552.665,380.027,557.4,392.952,563.224,394.113Z" transform="translate(-489.106 -347.502)"/><path class="c" d="M566.848,392.255q51.706,41.247,21.07,66.026-37.123,40.281-25.128-83.45c5.956-.127,7.9-8.961,2.248-9.137-15.8-.468-28.135.293-42.081,8.6a57.5,57.5,0,0,0-26.364,33.8c-6.978,24.384,5.275,51.248,26.471,64.25,31.736,19.484,74.819,3.036,85.34-33.081,2.851-9.8,1.09-22.344-3.494-31.432-8.2-16.272-21.089-21.192-37.546-24.96C562.624,381.791,560.795,390.967,566.848,392.255Z" transform="translate(-476.38 -365.587)"/><path class="c" d="M564.375,392.4q28.174,137.285-12.924-14.691c2.851-.254,9.061-.42,9.946-4.07.846-3.495-1.547-5.506-4.7-5.545-26.889-.322-50.713,9.537-59.53,37.25-11.659,36.693,18.627,79.966,59.462,73.582,33.5-5.232,57.156-35.874,44.669-69.482-3.123-8.395-8.116-15.325-14.228-21.778-11.114-11.7-22.383-14.183-37.935-16.6-6.326-.977-.273,8.532.156,9.146C552.589,384.864,558.555,391.355,564.375,392.4Z" transform="translate(-476.242 -343.69)"/></g></svg>