<svg xmlns="http://www.w3.org/2000/svg" width="72" height="72" viewBox="0 0 72 72"><defs><style>.a,.b{fill:#001e00;}.a{opacity:0;}.b{opacity:0.12;}</style></defs><rect class="a" width="72" height="72"/><g transform="translate(-579.789 -133.258)"><path class="b" d="M591.247,151.563c1.327-5.444,10.431-2.946,6.606,3.64l-1.194,1.327q-7.762.837-7.155-4.433c-.015-.34-.573-.256-.561-.042.126,2.154.389,3.93,2.345,5.247a5.015,5.015,0,0,0,5.665-.119,5.472,5.472,0,0,0,1.939-7.074,4.549,4.549,0,0,0-5.024-2.351c-2.177.518-3.059,2.034-3.549,4.087C590.17,152.468,591.162,151.913,591.247,151.563Z"/><path class="b" d="M589.775,150.531q7.348-6.848,6.743,3.387-2.826,4.909-8.346-2.495c-.061-.393-.664-.941-.625-.283.125,2.077.4,3.72,2.364,5a5.292,5.292,0,0,0,5.774-.1c2.3-1.413,2.856-4.94,1.525-7.157a4.347,4.347,0,0,0-5.608-1.793c-1.823.795-2.536,2.066-3.01,4C588.4,151.862,589.691,150.88,589.775,150.531Z"/><path class="b" d="M590.185,148.125q11.892-4.981-1.826,1.019c-.017-.278-.627-.954-.632-.453-.026,2.886.817,5.58,4.11,6.142a5.371,5.371,0,0,0,6.2-4.2c.566-3.129-1.958-6.887-5.379-6.091-2.233.519-3.3,2.282-3.839,4.353C588.59,149.755,590.093,148.485,590.185,148.125Z"/><path class="b" d="M591.124,149.924q11.9,8.673-1.486,1.386c-.067-.421-.705-1.3-.662-.421.164,3.307,2.361,6.43,6.231,5.385a5.317,5.317,0,0,0,3.2-7.736,4.408,4.408,0,0,0-5.114-2.09c-2.528.767-3.709,2.64-4.186,5.115C589.04,151.9,590.995,150.513,591.124,149.924Z"/><path class="b" d="M589.058,150.246l6.953-1.382a3.574,3.574,0,0,1,.551,2.576,2.941,2.941,0,0,1-.316,1.729q-1.4,5.2-8.793-2.276c-.046-.4-.631-.738-.609-.205.115,2.862,1.1,5.06,4.143,5.925,5.1,1.45,8.076-5.3,4.9-8.753a4.229,4.229,0,0,0-4.336-1.364c-2.078.527-2.82,2.022-3.319,3.961C588.089,150.995,588.969,150.611,589.058,150.246Z"/><path class="b" d="M591.556,147.688q5.956-3.668,7.084,1.008,1.114,6.651-9.075.308c-.02-.446-.623-.949-.625-.3-.01,2.967.942,5.214,4.047,5.953,4.226,1.005,7.235-3.383,5.921-7.021-.88-2.433-2.868-4.039-5.465-3.116-2.257.8-3.287,2.55-3.86,4.8C589.512,149.6,591.4,148.29,591.556,147.688Z"/><path class="b" d="M591.46,148.562q13.857,7.412-1.745,1.429c-.022-.245-.659-1.171-.654-.589.028,2.848.911,5.489,4.181,5.944a5.334,5.334,0,0,0,6-6.188c-.509-2.362-2.631-4.563-5.21-4.106-2.735.484-4.2,2.865-4.735,5.32C589.233,150.646,591.306,149.207,591.46,148.562Z"/><path class="b" d="M590.727,149.288q9.243.63,6.16,4.11-2.453,3.985-7.627-2.6c-.03-.185-.726-1.392-.7-.71.063,1.714-.084,2.472,1.023,3.88a5.116,5.116,0,0,0,5.244,1.728,5.231,5.231,0,0,0,3.136-7.754,4.373,4.373,0,0,0-5.059-2.1c-2.526.758-3.72,2.7-4.234,5.148C588.606,151.292,590.588,149.9,590.727,149.288Z"/><path class="b" d="M590.082,151.953l7.019-1.547q1.621,3.742-.772,5.783-1.54,2.163-4.192-.759-4.358.2-3.653-3.212c-.012-.3-.56-.157-.552,0,.147,2.684,1.1,5.4,4.085,6.042,3.438.74,7.1-2.569,6.441-6.094a4.887,4.887,0,0,0-5.672-4.191c-2.04.309-2.756,1.952-3.191,3.707C589.545,151.888,590.008,152.261,590.082,151.953Z"/><path class="b" d="M592.234,149.481q9.294,1.335,5.843,4.591-2.9,3.935-7.666-3.371c-.033-.43-.636-.909-.618-.286.083,2.754,1.037,5.417,4.2,5.86a5.489,5.489,0,0,0,6.116-6.021c-.443-2.777-2.89-4.925-5.674-4.166-2.556.7-3.8,2.6-4.282,5.074C590.091,151.487,592.1,150.08,592.234,149.481Z"/><path class="b" d="M591.658,150.33q11.572,9.408-1.723,1.043c-.043-.408-.639-.844-.609-.262.135,2.663,1.2,5.489,4.3,5.859A5.416,5.416,0,0,0,599.3,149.9a4.545,4.545,0,0,0-5.218-3.12c-2.523.489-3.748,2.628-4.19,4.916C589.82,152.079,591.546,150.841,591.658,150.33Z"/><path class="b" d="M590.161,151.076c1.222-5.141,10.009-3.315,6.687,3.324l-1.02,1.318q-4.029,3.2-7.283-3.858c-.053-.392-.644-.76-.607-.221.117,1.7-.015,2.325,1.056,3.76a5.077,5.077,0,0,0,7.035,1.17,5.517,5.517,0,0,0,1.644-7.09,4.478,4.478,0,0,0-5-2.16c-2.186.572-3.127,2.159-3.619,4.235C588.874,152.29,590.079,151.423,590.161,151.076Z"/><path class="b" d="M589.537,148.894q6.411-4.475,7.374.529.777,6.579-9.086.487c-.025-.244-.648-1.017-.643-.478.025,2.957.993,5.225,4.085,6.02a5.091,5.091,0,0,0,5.864-3.191c1.431-3.678-1.678-8.433-5.794-6.709-1.8.756-2.525,2.071-3.012,3.952C588.123,150.285,589.45,149.248,589.537,148.894Z"/><path class="b" d="M590.586,150.442q3.723-5.961,4.325.936,4.48,8.22-5.822.314c-.069-.406-.7-1.149-.649-.36.1,1.641-.006,2.29,1.069,3.661a5.034,5.034,0,0,0,6.953.958,5.369,5.369,0,0,0,1.476-6.961,4.476,4.476,0,0,0-5.094-2.074c-2.392.7-3.421,2.465-3.891,4.78C588.873,152.087,590.48,150.928,590.586,150.442Z"/><path class="b" d="M592.786,148.617q10.957.6,5.139,4.6a3.048,3.048,0,0,1-3.731,1.871c-2.628-.507-3.463-2.809-3.525-5.342-.01-.412-.6-.6-.586-.181.052,2.183.172,4.027,2.291,5.367a5.378,5.378,0,0,0,3.982.566,5.183,5.183,0,0,0,3.829-6.811c-.837-2.462-2.911-4.17-5.52-3.255-2.336.819-3.42,2.487-3.932,4.851C590.665,150.592,592.638,149.214,592.786,148.617Z"/><path class="b" d="M591.941,151.019q4.242-6.241,4.254,1.115,3.786,9.027-6.106-.384c-.018-.375-.588-.393-.571-.1.12,2.136.3,3.841,2.295,5.193a4.44,4.44,0,0,0,3.868.668,5.569,5.569,0,0,0,4.283-6.066,4.707,4.707,0,0,0-5.612-4.086c-2.238.546-3.25,2.14-3.69,4.281C590.49,152.477,591.865,151.363,591.941,151.019Z"/><path class="b" d="M589.961,149.617q6.915-6.353,6.737,3.478-2.649,4.819-8.213-2.1c-.031-.182-.715-1.293-.689-.64.071,1.724-.064,2.439,1.037,3.857a5.331,5.331,0,0,0,5.255,1.822c3.54-.6,4.91-5.092,3.162-7.894a4.328,4.328,0,0,0-5.595-1.76c-2.03.912-2.824,2.351-3.318,4.5C588.254,151.253,589.844,150.111,589.961,149.617Z"/><path class="b" d="M589.163,151.285q1.54-6.542,7.7.145a4.323,4.323,0,0,1-.443,2.7,3.273,3.273,0,0,1-1.541,2.025q-4.506,2.862-7.282-4.566c-.022-.365-.584-.354-.572-.064.087,2.145.379,3.913,2.292,5.244,3.416,2.375,8.022-.316,8.131-4.344a4.8,4.8,0,0,0-3.7-5.1c-2.78-.557-4.437,1.229-5.061,3.681C588.645,151.178,589.095,151.564,589.163,151.285Z"/><path class="b" d="M636.984,151.563c1.326-5.444,10.432-2.947,6.6,3.64l-1.194,1.328q-7.761.835-7.155-4.434c-.015-.34-.573-.256-.56-.042.126,2.155.388,3.929,2.345,5.247a5.015,5.015,0,0,0,5.664-.119,5.47,5.47,0,0,0,1.939-7.074,4.548,4.548,0,0,0-5.024-2.351c-2.176.518-3.058,2.034-3.549,4.087C635.907,152.468,636.9,151.913,636.984,151.563Z"/><path class="b" d="M635.512,150.531q7.348-6.848,6.742,3.387-2.826,4.909-8.346-2.495c-.061-.393-.664-.941-.625-.283.126,2.078.4,3.72,2.365,5a5.291,5.291,0,0,0,5.773-.1c2.3-1.413,2.857-4.94,1.525-7.157a4.346,4.346,0,0,0-5.607-1.793c-1.824.795-2.536,2.066-3.011,4C634.138,151.862,635.427,150.88,635.512,150.531Z"/><path class="b" d="M635.921,148.125q11.892-4.981-1.826,1.019c-.017-.278-.627-.954-.631-.453-.026,2.886.817,5.58,4.11,6.142a5.371,5.371,0,0,0,6.2-4.2c.566-3.129-1.958-6.887-5.38-6.091-2.232.519-3.3,2.283-3.839,4.353C634.326,149.755,635.829,148.485,635.921,148.125Z"/><path class="b" d="M636.861,149.924q11.9,8.673-1.487,1.386c-.067-.42-.705-1.3-.662-.421.165,3.307,2.361,6.43,6.232,5.385a5.316,5.316,0,0,0,3.2-7.736,4.408,4.408,0,0,0-5.114-2.09c-2.527.768-3.709,2.64-4.186,5.115C634.776,151.9,636.732,150.513,636.861,149.924Z"/><path class="b" d="M634.794,150.246l6.953-1.382a3.568,3.568,0,0,1,.551,2.576,2.933,2.933,0,0,1-.316,1.729q-1.395,5.2-8.793-2.276c-.046-.4-.631-.738-.609-.205.117,2.862,1.1,5.06,4.144,5.925,5.1,1.45,8.076-5.3,4.9-8.753a4.229,4.229,0,0,0-4.335-1.364c-2.078.527-2.821,2.022-3.32,3.961C633.825,150.995,634.705,150.611,634.794,150.246Z"/><path class="b" d="M637.293,147.688q5.956-3.668,7.083,1.008,1.115,6.652-9.075.308c-.02-.446-.623-.949-.625-.3-.009,2.967.942,5.214,4.047,5.953,4.226,1.006,7.236-3.383,5.922-7.021-.88-2.433-2.869-4.039-5.465-3.116-2.257.8-3.287,2.55-3.861,4.8C635.249,149.6,637.136,148.29,637.293,147.688Z"/><path class="b" d="M637.2,148.562q13.855,7.412-1.745,1.429c-.022-.245-.66-1.171-.654-.589.028,2.848.911,5.489,4.18,5.944a5.335,5.335,0,0,0,6-6.187c-.509-2.362-2.632-4.564-5.211-4.107-2.734.484-4.2,2.866-4.735,5.32C634.97,150.646,637.042,149.207,637.2,148.562Z"/><path class="b" d="M636.464,149.288q9.243.63,6.159,4.111-2.451,3.984-7.627-2.6c-.03-.185-.726-1.392-.7-.71.064,1.713-.083,2.473,1.023,3.88a5.117,5.117,0,0,0,5.244,1.728,5.23,5.23,0,0,0,3.136-7.754,4.373,4.373,0,0,0-5.058-2.1c-2.526.758-3.721,2.7-4.234,5.148C634.342,151.292,636.324,149.9,636.464,149.288Z"/><path class="b" d="M635.819,151.953l7.019-1.547q1.621,3.742-.772,5.783-1.54,2.163-4.192-.759-4.358.2-3.654-3.212c-.012-.3-.56-.157-.551,0,.147,2.684,1.1,5.4,4.084,6.042,3.438.74,7.1-2.569,6.442-6.094a4.887,4.887,0,0,0-5.672-4.191c-2.04.309-2.756,1.952-3.191,3.707C635.281,151.888,635.745,152.261,635.819,151.953Z"/><path class="b" d="M637.97,149.481q9.294,1.335,5.843,4.591-2.895,3.935-7.665-3.371c-.034-.429-.637-.909-.618-.286.083,2.754,1.036,5.417,4.2,5.86a5.488,5.488,0,0,0,6.115-6.021c-.442-2.777-2.889-4.925-5.673-4.166-2.557.7-3.8,2.6-4.283,5.074C635.827,151.487,637.832,150.08,637.97,149.481Z"/><path class="b" d="M637.4,150.33q11.572,9.408-1.724,1.043c-.042-.408-.639-.844-.609-.262.136,2.663,1.2,5.489,4.3,5.859a5.415,5.415,0,0,0,5.677-7.072,4.544,4.544,0,0,0-5.217-3.12c-2.523.489-3.749,2.629-4.191,4.916C635.557,152.079,637.282,150.841,637.4,150.33Z"/><path class="b" d="M635.9,151.076c1.223-5.142,10.01-3.313,6.687,3.324l-1.02,1.318q-4.029,3.2-7.283-3.858c-.053-.392-.644-.76-.607-.221.118,1.695-.014,2.326,1.057,3.76a5.077,5.077,0,0,0,7.035,1.17,5.518,5.518,0,0,0,1.644-7.09,4.48,4.48,0,0,0-5.006-2.16c-2.185.572-3.127,2.159-3.619,4.235C634.61,152.29,635.815,151.423,635.9,151.076Z"/><path class="b" d="M635.274,148.894q6.41-4.475,7.374.529.777,6.579-9.087.487c-.025-.244-.648-1.017-.643-.478.026,2.957.993,5.225,4.085,6.02a5.093,5.093,0,0,0,5.865-3.191c1.43-3.677-1.679-8.433-5.794-6.709-1.8.756-2.526,2.071-3.013,3.952C633.859,150.285,635.186,149.248,635.274,148.894Z"/><path class="b" d="M636.322,150.442q3.724-5.961,4.326.936,4.48,8.22-5.823.314c-.068-.4-.7-1.149-.649-.36.1,1.641-.005,2.291,1.07,3.661a5.034,5.034,0,0,0,6.953.958,5.371,5.371,0,0,0,1.476-6.961,4.478,4.478,0,0,0-5.095-2.074c-2.392.7-3.42,2.465-3.891,4.78C634.609,152.087,636.216,150.928,636.322,150.442Z"/><path class="b" d="M638.522,148.617q10.959.6,5.139,4.6a3.049,3.049,0,0,1-3.731,1.872c-2.627-.508-3.463-2.811-3.525-5.342-.01-.413-.6-.6-.586-.182.053,2.183.173,4.027,2.291,5.367a5.378,5.378,0,0,0,3.982.566,5.182,5.182,0,0,0,3.83-6.811c-.837-2.462-2.912-4.17-5.521-3.255-2.335.819-3.419,2.487-3.932,4.851C636.4,150.592,638.374,149.214,638.522,148.617Z"/><path class="b" d="M637.678,151.019q4.241-6.241,4.254,1.115,3.785,9.028-6.107-.384c-.018-.375-.588-.393-.571-.1.12,2.137.3,3.841,2.3,5.193a4.434,4.434,0,0,0,3.867.668,5.568,5.568,0,0,0,4.282-6.066,4.706,4.706,0,0,0-5.611-4.086c-2.239.546-3.25,2.141-3.691,4.281C636.226,152.477,637.6,151.363,637.678,151.019Z"/><path class="b" d="M635.7,149.617q6.916-6.353,6.737,3.478-2.648,4.819-8.212-2.1c-.032-.182-.716-1.293-.689-.64.071,1.723-.063,2.44,1.037,3.857a5.329,5.329,0,0,0,5.254,1.822c3.541-.6,4.911-5.092,3.162-7.894a4.326,4.326,0,0,0-5.594-1.76c-2.03.913-2.825,2.351-3.318,4.5C633.99,151.253,635.581,150.111,635.7,149.617Z"/><path class="b" d="M634.9,151.285q1.542-6.542,7.7.145a4.33,4.33,0,0,1-.443,2.7,3.277,3.277,0,0,1-1.541,2.025q-4.508,2.862-7.282-4.566c-.022-.365-.585-.354-.573-.064.087,2.146.379,3.913,2.293,5.244,3.416,2.375,8.021-.316,8.13-4.344a4.8,4.8,0,0,0-3.7-5.1c-2.78-.557-4.437,1.229-5.061,3.681C634.382,151.178,634.831,151.564,634.9,151.285Z"/><path class="b" d="M641.649,174.49c-1.944,4.759-4.425,9.059-8.436,12.319a13.323,13.323,0,0,1-7.672,3.589q-20.565,10.485-36.034-18.81c-.088-.264-.607-.045-.491.3,1.922,5.71,4.508,11.008,9.324,14.875a29.356,29.356,0,0,0,12.14,5.982,28.4,28.4,0,0,0,18.207-2.118c7.251-3.478,11.564-9.448,14.537-16.7C643.405,173.487,641.81,174.1,641.649,174.49Z"/><path class="b" d="M640.333,173.343c-2.26,5.538-4.689,10.229-10.066,13.694-13.569,8.741-33.743,8.037-42.155-16.394-.374-1.086-.484.581-.3,1.073,1.582,4.323,3.332,8.138,6.516,11.562a29.138,29.138,0,0,0,30.155,7.755,29.141,29.141,0,0,0,11.38-7.125c3.407-3.432,5.254-7.2,7.031-11.615C643.033,171.936,640.565,172.776,640.333,173.343Z"/><path class="b" d="M640.571,171.04c-1.992,4.851-4.539,9.217-8.636,12.531a13.1,13.1,0,0,1-3.592,2.439q-19.566,12.075-40.187-18.062a.223.223,0,0,0-.438.077,4.322,4.322,0,0,0,.277,1.587c1.559,4.233,3.3,8.008,6.371,11.379a28.952,28.952,0,0,0,11.283,7.559,27.846,27.846,0,0,0,17.987.4,28.851,28.851,0,0,0,11.217-6.715c3.421-3.394,5.156-7.077,6.919-11.411C641.955,170.377,640.682,170.77,640.571,171.04Z"/><path class="b" d="M641.911,172.746c-1.944,4.76-4.349,9.009-8.438,12.38C620.889,195.5,598.415,196.152,589.4,170.1a.223.223,0,0,0-.439.072,4.1,4.1,0,0,0,.261,1.585c2.148,5.528,4.963,10.619,9.831,14.238a29.672,29.672,0,0,0,12.457,5.555,28.743,28.743,0,0,0,18.2-2.722c7.17-3.712,11.2-9.513,14.165-16.823C644.042,171.582,642.1,172.293,641.911,172.746Z"/><path class="b" d="M639.452,173.113c-2.264,5.54-4.7,10.217-10.1,13.659-13.605,8.668-33.7,7.749-41.961-16.678-.3-.888-.578.259-.408.738,1.626,4.588,3.4,8.539,6.748,12.132a28.436,28.436,0,0,0,41.177.72c3.4-3.41,5.235-7.159,7.005-11.553C642.062,171.756,639.674,172.569,639.452,173.113Z"/><path class="b" d="M642.038,170.768a20.037,20.037,0,0,1-2.871,6.031q-13.253,23.264-49.787-8.984a.223.223,0,0,0-.439.071,4.248,4.248,0,0,0,.257,1.591c2.089,5.672,4.825,10.623,9.68,14.428a28.851,28.851,0,0,0,11.874,5.573A28.186,28.186,0,0,0,628.5,187.3c7.069-3.4,11.236-9.215,14.154-16.349C642.8,170.586,642.185,170.41,642.038,170.768Z"/><path class="b" d="M642.058,171.485a26.7,26.7,0,0,1-6.91,11.182q-18.949,17.917-45.653-13.92c-.1-.287-.428-.22-.439.071a4.623,4.623,0,0,0,.277,1.72c2.1,5.467,4.874,10.56,9.667,14.161a29.6,29.6,0,0,0,12.243,5.6,28.606,28.606,0,0,0,13.788-.79,29.269,29.269,0,0,0,11.295-6.8c3.43-3.23,5.164-7.1,6.887-11.322C643.5,170.683,642.188,171.166,642.058,171.485Z"/><path class="b" d="M641.478,172.141l-1.689,4.149a23.5,23.5,0,0,1-10.3,10.7c-13.434,7.8-32.772,4.841-40.513-17.521-.114-.33-.4-.213-.438.074a4.347,4.347,0,0,0,.312,1.856c2.015,5.03,4.306,9.171,8.406,12.788a27.837,27.837,0,0,0,13.839,6.789,30.362,30.362,0,0,0,18.3-2.763c7.109-3.478,11.206-9.727,14.062-16.812C643.634,170.976,641.663,171.687,641.478,172.141Z"/><path class="b" d="M640.509,174.742a17.351,17.351,0,0,1-4.245,7.544,17.1,17.1,0,0,1-5.885,6.093l-3.763,2.137q-32.462,3.378-38.094-18.711c-.074-.22-.625-.118-.554.1,2,5.975,4.6,11.015,9.457,15.1a27.751,27.751,0,0,0,14.367,6.244,28.051,28.051,0,0,0,12.01-.864,29.921,29.921,0,0,0,11.593-6.892c3.443-3.2,5.341-7.249,7.094-11.52C642.658,173.555,640.7,174.281,640.509,174.742Z"/><path class="b" d="M642.872,172.374c-1.649,4.038-3.481,8.229-6.878,11.18l-15.5,7.326q-19.528,2.183-30.243-21.233c-.075-.226-.417-.146-.439.068a2.992,2.992,0,0,0,.2,1.269,34.655,34.655,0,0,0,6.274,11.317,28.01,28.01,0,0,0,15.058,8.725,28.1,28.1,0,0,0,22.208-4.523c5.146-3.647,7.988-8.45,10.324-14.157C644.13,171.717,643.006,172.047,642.872,172.374Z"/><path class="b" d="M642.353,173.239a26.758,26.758,0,0,1-6.905,11.074q-18.878,17.832-45.556-13.685c-.338-1.005-.509.5-.336.986,1.994,5.576,4.673,10.45,9.307,14.269a28.819,28.819,0,0,0,12.406,5.955,27.74,27.74,0,0,0,14.122-.714,29.64,29.64,0,0,0,11.438-6.865c3.462-3.425,5.267-7.176,7.069-11.553C644.082,172.26,642.512,172.855,642.353,173.239Z"/><path class="b" d="M640.736,173.879a26.173,26.173,0,0,1-10.08,13.689q-20.315,13.755-42.165-16.484c-.271-.8-.59.2-.425.67,2.04,5.759,4.694,10.734,9.474,14.679a27.622,27.622,0,0,0,8.437,4.807,28.356,28.356,0,0,0,18.62.338,30.512,30.512,0,0,0,11.482-7.08c3.416-3.421,5.277-7.2,7.064-11.608C643.293,172.519,640.957,173.338,640.736,173.879Z"/><path class="b" d="M639.856,171.892l-1.689,4.145a23.265,23.265,0,0,1-10.341,10.63c-13.485,7.682-32.643,4.372-40.211-17.933a.224.224,0,0,0-.438.079,4.144,4.144,0,0,0,.277,1.529c1.589,4.282,3.346,8.07,6.483,11.46a28.959,28.959,0,0,0,11.5,7.576c7.13,2.5,15.683,2.152,22.345-1.505,7.038-3.863,11.043-9.327,13.993-16.664C641.951,170.77,640.035,171.452,639.856,171.892Z"/><path class="b" d="M641.332,173.279l-1.7,4.155A23.392,23.392,0,0,1,629.375,188.1c-13.441,7.8-32.694,4.953-40.5-17.545a.227.227,0,0,0-.438.075,3.442,3.442,0,0,0,.236,1.382c2.744,7.252,6.917,13.306,13.889,17.072a28.681,28.681,0,0,0,34.072-5.142c3.4-3.429,5.249-7.206,7.03-11.607C643.815,171.955,641.546,172.755,641.332,173.279Z"/><path class="b" d="M643.335,171.6a27.052,27.052,0,0,1-10.221,13.944q-20.4,13.976-42.481-16.6c-.287-.881-.6.231-.435.716,1.961,5.694,4.556,10.722,9.243,14.655a28.682,28.682,0,0,0,12.126,5.995,27.671,27.671,0,0,0,17.875-2.021c7.167-3.635,11.188-8.932,14.2-16.25C643.679,171.945,643.383,171.487,643.335,171.6Z"/><path class="b" d="M642.454,173.825a32.1,32.1,0,0,1-5.426,9.507,13.156,13.156,0,0,1-6.945,4.819q-20.07,14.785-40.006-16.992c-.15-.447-.612.014-.475.418,1.934,5.673,4.531,10.96,9.332,14.795a29.414,29.414,0,0,0,12.138,5.959,28.367,28.367,0,0,0,18.159-2.127,28.672,28.672,0,0,0,4-2.345c5.184-3.637,8.047-8.439,10.4-14.167C643.92,172.982,642.585,173.505,642.454,173.825Z"/><path class="b" d="M640.64,172.5l-1.692,4.154a16.464,16.464,0,0,1-7.243,7.746,13.316,13.316,0,0,1-6.98,4.789q-19.8,8.351-36.5-19.432c-.1-.283-.431-.207-.438.077a4.577,4.577,0,0,0,.3,1.689c1.722,4.386,3.563,8.179,6.913,11.6a28.842,28.842,0,0,0,35.834,4.156c6.044-3.835,9.548-9.084,12.217-15.734C643.2,171.161,640.857,171.964,640.64,172.5Z"/><path class="b" d="M639.534,174.078a25.854,25.854,0,0,1-10.1,13.625q-20.313,13.562-41.855-16.711c-.15-.446-.6.033-.463.432,1.947,5.733,4.521,10.943,9.332,14.842a29.2,29.2,0,0,0,12.335,6.025,28.848,28.848,0,0,0,14.564-.648,29.967,29.967,0,0,0,11.485-6.969c3.47-3.271,5.308-7.231,7.063-11.551C642.049,172.745,639.751,173.548,639.534,174.078Z"/><path class="b" d="M589.664,171.153l-5.208,2.488c-.5.239.161.794.492.636l5.207-2.488C590.657,171.549,589.994,170.995,589.664,171.153Z"/><path class="b" d="M587.942,170.075l-5.171,2.46c-.4.192,1.815,1.236,2.312,1l5.112-2.408C590.613,170.931,588.428,169.844,587.942,170.075Z"/><path class="b" d="M587.84,167.79l-5.166,2.464c-.438.209,1.551,1.144,1.994.934l5.1-2.413C590.225,168.56,588.272,167.584,587.84,167.79Z"/><path class="b" d="M589.485,169.665l-5.148,2.457c-.443.211,1.467,1.09,1.9.886l5.091-2.414C591.782,170.377,589.905,169.465,589.485,169.665Z"/><path class="b" d="M587.006,169.654q-2.586,1.231-5.173,2.463c-.388.185,1.917,1.277,2.436,1.032l5.1-2.4C589.779,170.556,587.511,169.413,587.006,169.654Z"/><path class="b" d="M589.216,167.7l-5.2,2.492c-.481.23.939.924,1.288.757l5.2-2.49C590.987,168.233,589.565,167.537,589.216,167.7Z"/><path class="b" d="M589.5,168.473q-2.619,1.216-5.237,2.438c-.46.214,1.241,1.015,1.636.83q2.58-1.21,5.16-2.419C591.535,169.1,589.884,168.3,589.5,168.473Z"/><path class="b" d="M589.027,169.038l-5.166,2.456c-.414.2,1.756,1.236,2.24,1.007l5.106-2.4C591.637,169.894,589.5,168.814,589.027,169.038Z"/><path class="b" d="M588.3,171.318l-5.2,2.491c-.462.222.741.79,1.07.633l5.2-2.491C589.839,171.73,588.633,171.16,588.3,171.318Z"/><path class="b" d="M590.393,169.449q-2.6,1.243-5.2,2.491c-.463.222.646.779.966.625l5.2-2.49C591.826,169.853,590.715,169.295,590.393,169.449Z"/><path class="b" d="M589.883,170.141q-2.6,1.245-5.2,2.492c-.474.228.892.875,1.235.71l5.2-2.491C591.595,170.625,590.227,169.976,589.883,170.141Z"/><path class="b" d="M588.361,170.614l-5.156,2.461c-.438.209,1.455,1.061,1.884.858q2.549-1.21,5.1-2.421C590.64,171.3,588.78,170.414,588.361,170.614Z"/><path class="b" d="M587.286,168.472l-5.174,2.464c-.387.185,1.964,1.328,2.492,1.08q2.551-1.2,5.1-2.4C590.113,169.425,587.8,168.229,587.286,168.472Z"/><path class="b" d="M588.933,170.156l-5.158,2.456c-.427.2,1.6,1.138,2.051.923l5.1-2.41C591.37,170.916,589.377,169.944,588.933,170.156Z"/><path class="b" d="M590.874,168.74q-2.6,1.242-5.208,2.487c-.321.153-.112.725.234.559l5.207-2.488C591.427,169.146,591.221,168.574,590.874,168.74Z"/><path class="b" d="M590.328,170.756q-2.605,1.242-5.208,2.487c-.435.208.047.767.387.6l5.207-2.488C591.148,171.152,590.668,170.594,590.328,170.756Z"/><path class="b" d="M588.172,169.315,583,171.774c-.375.178,2.044,1.366,2.59,1.11l5.109-2.4C591.09,170.3,588.7,169.063,588.172,169.315Z"/><path class="b" d="M587.18,170.557l-5.159,2.464c-.439.21,1.407,1.027,1.828.827q2.546-1.211,5.092-2.421C589.4,171.211,587.589,170.362,587.18,170.557Z"/><path class="b" d="M642.761,174.906l5.17,2.485c.376.181-.222-2.421-.759-2.683l-5.074-2.47C641.7,172.047,642.237,174.654,642.761,174.906Z"/><path class="b" d="M641.186,173.415q2.577,1.238,5.154,2.478c.432.208-.093-1.98-.543-2.2q-2.541-1.233-5.083-2.463C640.268,171.015,640.744,173.2,641.186,173.415Z"/><path class="b" d="M641.16,170.916l5.2,2.5c.176.085.656-.227.338-.38l-5.2-2.494C641.323,170.454,640.842,170.764,641.16,170.916Z"/><path class="b" d="M642.5,172.826q2.577,1.239,5.154,2.482c.394.19-.187-2.263-.7-2.511q-2.535-1.236-5.074-2.47C641.472,170.128,642,172.586,642.5,172.826Z"/><path class="b" d="M640.537,173.159q2.6,1.24,5.2,2.484c.48.229.122-1.33-.229-1.5l-5.2-2.486C639.827,171.429,640.185,172.991,640.537,173.159Z"/><path class="b" d="M642.388,170.828q2.6,1.246,5.2,2.5c.314.15.626-.366.279-.533l-5.2-2.494C642.355,170.147,642.041,170.662,642.388,170.828Z"/><path class="b" d="M642.651,171.751q2.6,1.24,5.2,2.483c.472.226.1-1.309-.257-1.477q-2.6-1.245-5.2-2.486C641.92,170.045,642.3,171.583,642.651,171.751Z"/><path class="b" d="M642.066,172.182l5.143,2.469c.44.211-.076-1.818-.5-2.024q-2.538-1.227-5.075-2.45C641.176,169.958,641.647,171.982,642.066,172.182Z"/><path class="b" d="M641.738,175.086l5.166,2.483c.414.2-.138-2.148-.62-2.382q-2.539-1.234-5.08-2.466C640.773,172.512,641.268,174.861,641.738,175.086Z"/><path class="b" d="M643.456,172.794q2.573,1.234,5.145,2.472c.428.206-.118-1.874-.559-2.088l-5.067-2.455C642.531,170.509,643.023,172.587,643.456,172.794Z"/><path class="b" d="M643.008,173.5l5.164,2.488c.382.184-.211-2.347-.736-2.6q-2.539-1.238-5.081-2.473C641.957,170.722,642.495,173.256,643.008,173.5Z"/><path class="b" d="M641.617,174.039l5.164,2.487c.394.191-.173-2.322-.687-2.572l-5.081-2.471C640.6,171.283,641.115,173.8,641.617,174.039Z"/><path class="b" d="M640.633,171.673l5.2,2.495c.518.249.521-.645.194-.8l-5.2-2.494C640.31,170.624,640.306,171.517,640.633,171.673Z"/><path class="b" d="M641.993,173.38q2.58,1.242,5.158,2.487c.38.183-.206-2.415-.74-2.675l-5.073-2.472C640.941,170.527,641.471,173.129,641.993,173.38Z"/><path class="b" d="M643.809,172.146l5.2,2.483c.464.222.136-1.116-.2-1.276l-5.2-2.487C643.147,170.644,643.476,171.987,643.809,172.146Z"/><path class="b" d="M643.314,174.4q2.584,1.24,5.166,2.484c.377.181-.227-2.38-.76-2.639q-2.536-1.234-5.072-2.469C642.254,171.585,642.794,174.151,643.314,174.4Z"/><path class="b" d="M641.328,172.532,646.471,175c.448.215-.051-1.776-.469-1.977q-2.538-1.224-5.076-2.446C640.464,170.354,640.919,172.336,641.328,172.532Z"/><path class="b" d="M640.768,174.214l5.193,2.531c.463.225.032-1.6-.357-1.791l-5.151-2.5C639.979,172.227,640.388,174.029,640.768,174.214Z"/></g></svg>