<svg xmlns="http://www.w3.org/2000/svg" width="72" height="72" viewBox="0 0 72 72"><defs><style>.a,.b{opacity:0;}.b,.c{fill:#001e00;}.c{opacity:0.12;}</style></defs><g class="a"><rect class="b" width="72" height="72"/><g transform="translate(-935.83 -671.288)"><path class="c" d="M993.025,683.443l3.72-3.15q5.555,4.362,2.323,7.278a2.4,2.4,0,0,1-1.414,1.051q-3.848,2.326-6.37-4.629c0-.343-.565-.265-.56-.044.047,2.2.211,3.871,2.236,5.071a5.558,5.558,0,0,0,3.942.635,5.419,5.419,0,0,0,4.325-5.869,4.946,4.946,0,0,0-5.707-4.189c-2.193.505-2.967,2.114-3.423,4.128C991.955,684.348,992.949,683.8,993.025,683.443Z"/><path class="c" d="M991.553,682.412q9.423.519,6.211,3.964-2.635,4.068-7.786-2.955c-.059-.4-.662-1.024-.632-.314.142,3.378,2.29,6.552,6.263,5.6a5.543,5.543,0,0,0,4.063-6.129,4.868,4.868,0,0,0-5.739-3.9c-2.178.579-3.076,2.231-3.564,4.287C990.186,683.743,991.477,682.767,991.553,682.412Z"/><path class="c" d="M991.962,680.005q4.164-4.5,6.761-.938.553,12.327-8.608,2.021c-.026-.44-.616-1-.629-.317-.056,3.036,1.184,5.166,4.29,5.932a5.142,5.142,0,0,0,6.04-4.165c.685-3.635-2.474-7.1-6.124-5.744-1.842.684-2.61,2.139-3.1,3.984C990.366,681.632,991.876,680.372,991.962,680.005Z"/><path class="c" d="M992.9,681.8q11.792,8.524-1.487,1.514c-.068-.412-.7-1.4-.663-.464.1,2.709,1.332,5.043,4.349,5.364a5.331,5.331,0,0,0,5.717-6.18,4.588,4.588,0,0,0-6.25-3.549c-2.291.933-3.187,2.594-3.687,4.953C990.816,683.75,992.779,682.419,992.9,681.8Z"/><path class="c" d="M990.835,682.126q3.952-4.938,6.313-1.889a3.389,3.389,0,0,1,1.228,2.2l-.057,1.81q-1.263,6.189-9.106-1.485c-.044-.4-.624-.747-.608-.211.088,2.845,1.154,5.379,4.252,6a5.294,5.294,0,0,0,6.135-4.092c.692-3.3-2.162-6.887-5.687-6.081-2.115.484-2.816,2.052-3.3,3.963C989.87,682.872,990.753,682.5,990.835,682.126Z"/><path class="c" d="M993.334,679.568q2.079-3.54,5.026-1.858a4.484,4.484,0,0,1,2.124,4.716c-1.03,5.295-8.947,4.79-9.168-1.451-.015-.444-.607-1.019-.62-.336-.056,3.06,1.209,5.18,4.359,5.889,4.391.989,7.53-4.262,5.466-7.9a4.522,4.522,0,0,0-5.4-2.1c-2.2.758-3.183,2.5-3.762,4.672C991.292,681.46,993.184,680.193,993.334,679.568Z"/><path class="c" d="M993.238,680.442q8.63-1.124,6.855,3.159-1.109,5.127-8.6-1.613c-.02-.23-.65-1.252-.653-.641-.009,1.457-.107,2.575.836,3.806a5.331,5.331,0,0,0,9.434-4.114,4.8,4.8,0,0,0-5.328-4.057c-2.7.462-4.112,2.89-4.709,5.27C991.011,682.489,993.082,681.119,993.238,680.442Z"/><path class="c" d="M992.505,681.168q9.237.537,6.159,4.068-2.391,4.029-7.627-2.441c-.028-.151-.726-1.484-.7-.766.1,2.727,1.287,5.358,4.412,5.662a5.386,5.386,0,0,0,5.713-6.18,4.781,4.781,0,0,0-5.625-3.857c-2.591.544-3.849,2.9-4.389,5.214C990.383,683.142,992.369,681.807,992.505,681.168Z"/><path class="c" d="M991.86,683.833q.734-4.908,5.811-2.694a2.941,2.941,0,0,1,1.11,3.764,2.831,2.831,0,0,1-1.241,3.708q-8.1.892-7.276-4.5c0-.3-.555-.164-.552,0,.064,3.1.96,5.1,4.117,5.894a5.351,5.351,0,0,0,6.372-4.878,4.942,4.942,0,0,0-3.811-5.3c-2.823-.615-4.425,1.263-5.017,3.731C991.324,683.77,991.792,684.14,991.86,683.833Z"/><path class="c" d="M994.012,681.361q9.276,1.153,5.878,4.439-2.829,3.961-7.734-3.148c-.028-.426-.622-.964-.612-.317.045,2.839,1.13,5.262,4.335,5.645a5.424,5.424,0,0,0,6.033-5.893,4.667,4.667,0,0,0-5.678-4.151c-2.57.7-3.75,2.653-4.3,5.106C991.866,683.335,993.873,681.987,994.012,681.361Z"/><path class="c" d="M993.436,682.21q8.847,3.324,4.621,5.226-3.542,2.456-6.336-4.067c-.038-.414-.633-.925-.612-.3.092,2.813,1.139,5.236,4.324,5.6a5.4,5.4,0,0,0,5.945-6.058,4.614,4.614,0,0,0-6.147-3.767c-2.243.843-3.084,2.453-3.559,4.731C991.6,683.939,993.328,682.742,993.436,682.21Z"/><path class="c" d="M991.939,682.956q9.061,3.06,4.845,5-3.622,2.521-6.471-4.242c-.043-.4-.628-.771-.607-.225.133,3.439,2.136,6.658,6.23,5.7a5.491,5.491,0,0,0,4.127-6.059,4.9,4.9,0,0,0-5.749-3.956c-2.2.553-3.03,2.23-3.488,4.265C990.66,684.172,991.867,683.31,991.939,682.956Z"/><path class="c" d="M991.315,680.774,996.8,678.5a3.188,3.188,0,0,1,1.577,2.014,2.182,2.182,0,0,1,.3,1.723q.315,5.566-9.1-.374c-.049-.42-.645-1.074-.637-.336.028,2.821,1.241,5.306,4.289,5.882a5.249,5.249,0,0,0,5.364-2.361c2.076-3.427-.471-8.833-4.91-7.82-2.128.486-3.079,2.184-3.586,4.156C989.9,682.163,991.233,681.135,991.315,680.774Z"/><path class="c" d="M992.364,682.322q8.957,2.911,4.874,5.026-3.321,2.563-6.374-3.642c-.066-.4-.687-1.248-.649-.4.148,3.293,2.371,6.339,6.2,5.318a5.4,5.4,0,0,0,3.937-6.074,4.677,4.677,0,0,0-6.165-3.646c-2.185.889-2.978,2.408-3.456,4.675C990.651,683.952,992.265,682.828,992.364,682.322Z"/><path class="c" d="M994.564,680.5l7.044,2.779q-1.8,4.738-5.464,3.246c-2.815-.559-3.683-1.569-3.7-4.894,0-.415-.586-.606-.586-.183,0,2.965,1.026,5.458,4.359,5.943a5.321,5.321,0,0,0,5.886-6.857,4.534,4.534,0,0,0-4.9-3.458c-2.69.384-4.1,2.725-4.694,5.087C992.442,682.434,994.412,681.123,994.564,680.5Z"/><path class="c" d="M993.719,682.9q5.019-7.406,6.49,3.528-3.177,4.86-8.341-2.8c-.006-.379-.578-.406-.572-.1.052,2.894.964,5.295,4.249,5.723,3.4.443,6.728-2.441,6.2-5.917-.429-2.844-3.173-5-5.988-4.029-2.075.716-2.872,2.106-3.321,4.214C992.262,684.353,993.646,683.248,993.719,682.9Z"/><path class="c" d="M991.738,681.5q8.359-1.806,6.937,2.538-.673,5.09-8.414-1.032c-.029-.148-.717-1.378-.688-.693.089,2.107.317,3.765,2.352,5.028a5.2,5.2,0,0,0,3.944.6,5.443,5.443,0,0,0,3.322-7.753,4.708,4.708,0,0,0-5.184-2.2c-2.373.669-3.35,2.529-3.892,4.775C990.032,683.115,991.627,682.014,991.738,681.5Z"/><path class="c" d="M990.94,683.165q.516-3.937,4.467-3.423a4.639,4.639,0,0,1,3.223,3.628,5.424,5.424,0,0,1-.732,3.415q-3.486,4.734-8.525-3.3c-.014-.367-.577-.36-.573-.067.033,2.2.221,3.906,2.257,5.21,2.242,1.437,5.867,1.043,7.333-1.371a5.337,5.337,0,0,0-1.26-7.282,4.592,4.592,0,0,0-5.174-.07c-1.071.819-1.181,1.727-1.489,2.979C990.424,683.06,990.878,683.443,990.94,683.165Z"/><path class="c" d="M947,687.084q6.071-4.095,8.433.523c.174.238,1.782,1.256,1.368.51-1.236-2.223-2.682-3.926-5.432-3.97-2.669-.042-4.165.93-5.883,2.952C945.189,687.444,946.779,687.33,947,687.084Z"/><path class="c" d="M945.3,686.07q2.907-4.644,8.69.456c.176.244,1.592,1.032,1.205.378-1.252-2.112-2.548-3.65-5.13-3.871-2.663-.228-4.371.985-6.08,2.924C943.45,686.566,945.067,686.333,945.3,686.07Z"/><path class="c" d="M945.674,683.849l9.226,1.165c.192.3.607-.1.471-.315-1.165-1.834-2.377-3.491-4.728-3.814-2.586-.355-4.442.987-6.1,2.823C944.059,684.246,945.435,684.117,945.674,683.849Z"/><path class="c" d="M946.736,685.478l8.037.168c.184.2,2.136,1.5,1.623.674-1.432-2.311-3.067-3.821-5.962-3.727-2.939.094-4.538,1.1-6.385,3.326C943.834,686.179,946.326,685.946,946.736,685.478Z"/><path class="c" d="M944.495,685.775l9.309.819c.191.3,1.027.444.779.04-1.158-1.884-2.425-3.751-4.908-3.921-2.624-.179-4.179.915-5.848,2.781C943.516,685.842,944.241,686.06,944.495,685.775Z"/><path class="c" d="M947.186,683.518l8.828,1.278c.179.249.9.259.68-.112-1.5-2.493-3.182-4.119-6.106-3.9-2.408.185-3.81,1.22-5.444,3.033C944.89,684.1,946.844,683.893,947.186,683.518Z"/><path class="c" d="M947.069,684.267l8.508.752c.166.194,1.564.943,1.157.307-1.663-2.6-3.5-4.1-6.576-3.806-2.5.239-3.946,1.243-5.613,3.171C944.325,684.945,946.669,684.715,947.069,684.267Z"/><path class="c" d="M946.3,684.868l8.331.369c.173.193,1.847,1.213,1.382.492-1.453-2.253-3.271-3.936-6.108-3.732a7.976,7.976,0,0,0-6.078,3.272C943.6,685.538,945.914,685.306,946.3,684.868Z"/><path class="c" d="M945.737,687.323q6.81-4.329,9.07.793c.174.272,1.4.864,1.065.27-1.273-2.253-2.528-3.834-5.2-4.089-2.551-.244-4.05.922-5.665,2.75C944.663,687.436,945.487,687.6,945.737,687.323Z"/><path class="c" d="M947.963,685.162l8.026.5c.17.188,1.958,1.36,1.485.563-1.467-2.474-3.2-4.033-6.242-3.848a7.721,7.721,0,0,0-6.139,3.27c-.365.436.894.2.816.2A3.875,3.875,0,0,0,947.963,685.162Z"/><path class="c" d="M947.329,685.934l8.014.3c.184.206,2.111,1.514,1.618.673-1.368-2.334-2.986-3.908-5.881-3.824a7.628,7.628,0,0,0-6.3,3.247C944.544,686.6,946.94,686.376,947.329,685.934Z"/><path class="c" d="M945.76,686.587l8.505.366c.178.238,1.757,1.2,1.335.486-1.338-2.258-2.9-3.887-5.63-3.836-2.552.049-4.033,1.056-5.7,3C943.976,686.946,945.541,686.836,945.76,686.587Z"/><path class="c" d="M944.941,684.574l9.289,1.023c.229.351.763.083.55-.254-2.879-4.564-7.224-4.947-10.805-.961C943.543,684.864,944.7,684.845,944.941,684.574Z"/><path class="c" d="M946.175,685.99l8.178.213c.185.214,2.043,1.436,1.555.64-1.377-2.244-2.973-3.8-5.774-3.755-2.774.044-4.406,1.11-6.157,3.206C943.719,686.6,945.833,686.381,946.175,685.99Z"/><path class="c" d="M948.544,684.431q5.82-3.393,8.358,1.011c.161.194,1.485.9,1.1.261-1.341-2.243-2.833-4.04-5.673-3.995a7.831,7.831,0,0,0-6.459,3.174C945.665,685.123,948.122,684.9,948.544,684.431Z"/><path class="c" d="M947.707,686.527l8.127.532c.177.219,1.954,1.41,1.5.6-1.287-2.311-2.815-3.975-5.672-3.946-2.741.029-4.331.971-6.089,3.081C945.309,687.117,947.376,686.9,947.707,686.527Z"/><path class="c" d="M945.518,685.191l8.567.5c.175.219,1.641,1.042,1.228.387-1.4-2.218-3.027-3.871-5.762-3.771-2.606.094-4.179,1.133-5.9,3.116C943.379,685.742,945.211,685.536,945.518,685.191Z"/><path class="c" d="M944.624,686.731l9.417.8c.187.308,1.053.484.8.064-1.139-1.915-2.384-3.8-4.887-3.985-2.555-.189-4.016.831-5.643,2.651C944.152,686.442,944.4,686.986,944.624,686.731Z"/><path class="c" d="M998.28,704.9c-4.644,3.619-9.483,7.189-15.355,8.6l-18.044.872a39.747,39.747,0,0,1-20.658-10.814c-.239-.2-.58.26-.288.507a57.54,57.54,0,0,0,9.589,6.98,39.064,39.064,0,0,0,17.752,4.6,45.1,45.1,0,0,0,17.983-3.708,40.03,40.03,0,0,0,9.874-6.564C999.658,704.968,998.56,704.684,998.28,704.9Z"/><path class="c" d="M996.653,703.91c-8.107,6.305-15.664,10.732-27.216,10.014C958.9,713.27,951.3,709.75,942.7,702.405a.223.223,0,0,0-.354.269,3.777,3.777,0,0,0,.966,1.274,58.188,58.188,0,0,0,9.847,6.782,39.674,39.674,0,0,0,21.2,4.02,31.46,31.46,0,0,0,9.264-1.619c6.04-1.857,10.684-5.011,15.59-8.85C999.536,704.029,997.109,703.556,996.653,703.91Z"/><path class="c" d="M996.637,701.719a23.959,23.959,0,0,1-12.918,6.639,24.37,24.37,0,0,1-14.4,3.284c-10.481-.631-18.225-4.377-26.647-11.694-.655-.569.4,1.484.751,1.766,4.793,3.857,9.291,7.04,15.229,8.957a40.465,40.465,0,0,0,18.34,1.545,43.723,43.723,0,0,0,11.488-3.49c4.545-2.149,6.032-3.576,9.939-6.634C998.809,701.789,996.983,701.451,996.637,701.719Z"/><path class="c" d="M998.223,703.443a24.143,24.143,0,0,1-12.882,6.688,24.5,24.5,0,0,1-14.386,3.371c-10.5-.551-18.3-4.217-26.817-11.448-.62-.526.3,1.344.636,1.61,4.837,3.833,9.385,7,15.354,8.884a41.038,41.038,0,0,0,18.52,1.468,44.613,44.613,0,0,0,11.591-3.552c4.534-2.152,6.071-3.612,9.967-6.665C1000.577,703.508,998.595,703.152,998.223,703.443Z"/><path class="c" d="M995.7,703.565c-8.094,6.291-15.645,10.706-27.179,9.947-10.509-.691-18.064-4.236-26.619-11.6a.223.223,0,0,0-.353.27,3.781,3.781,0,0,0,.961,1.257,57.84,57.84,0,0,0,9.827,6.838,39.525,39.525,0,0,0,21.181,4.09,31.341,31.341,0,0,0,9.254-1.6c6.037-1.846,10.672-4.991,15.574-8.826C998.663,703.7,996.17,703.2,995.7,703.565Z"/><path class="c" d="M998.207,701.507a38.959,38.959,0,0,1-9.844,6.516,28.944,28.944,0,0,1-8.579,2.661c-13.415,2.682-24.841-1.3-35.858-10.842-.592-.512.238,1.275.563,1.539,6.206,5.033,12.733,9.213,20.874,10.4a40.508,40.508,0,0,0,18.317-1.079c5.846-1.9,10.564-4.921,15.4-8.7C999.619,701.587,998.484,701.293,998.207,701.507Z"/><path class="c" d="M998.186,702.284c-7.942,6.173-17.195,10.557-27.308,10-10.488-.58-18.265-4.286-26.736-11.551-.629-.539.312,1.384.652,1.655,4.787,3.814,9.272,6.96,15.184,8.855a40.615,40.615,0,0,0,29.933-2.006,58.242,58.242,0,0,0,9.826-6.6C1000.131,702.328,998.507,702.034,998.186,702.284Z"/><path class="c" d="M997.777,702.829a38.608,38.608,0,0,1-9.813,6.5,35.018,35.018,0,0,1-20.526,3.232c-9.5-.99-16.414-4.9-23.734-11.144-.7-.6.471,1.6.839,1.886,4.866,3.8,9.431,6.939,15.416,8.792a42.392,42.392,0,0,0,18.505,1.373,36.053,36.053,0,0,0,6.166-1.438,51.39,51.39,0,0,0,15.386-8.823C1000.371,702.93,998.184,702.512,997.777,702.829Z"/><path class="c" d="M996.885,705.168c-6.067,4.725-13.181,9.064-21.1,9.687l-17.839-1.9a40.114,40.114,0,0,1-14.782-9.274c-.283-.242-.568.279-.26.54,4.66,3.954,9.158,7.508,15.144,9.415a41.628,41.628,0,0,0,12.184,2.213,43.463,43.463,0,0,0,12.516-1.589c6.168-1.8,10.713-4.932,15.653-8.778C998.79,705.178,997.205,704.919,996.885,705.168Z"/><path class="c" d="M999.273,703.134c-4.753,3.7-9.459,7.063-15.411,8.613-14.024,3.649-26.453.629-39.013-10.134-.488-.419.008.947.3,1.189,6.185,5.1,12.776,9.306,20.871,10.556a43.8,43.8,0,0,0,12.657.257,39.792,39.792,0,0,0,21.41-10C1000.6,703.219,999.553,702.915,999.273,703.134Z"/><path class="c" d="M998.6,703.932l-9.693,6.44a29.2,29.2,0,0,1-8.533,2.686c-12.98,2.671-24.355-.793-35.941-10.684-.483-.412.01.935.3,1.175,6.376,5.25,12.91,9.206,21.177,10.624a41.568,41.568,0,0,0,18.505-1.1c6.142-1.831,10.678-4.973,15.6-8.816C1000.414,703.95,998.914,703.692,998.6,703.932Z"/><path class="c" d="M997.075,704.445l-4.66,3.624A34.2,34.2,0,0,1,972.9,714.3c-11.356.537-20.2-3.171-29.865-11.439-.51-.437.1,1.024.394,1.268,3.779,3.106,5.362,4.651,9.813,6.878a40.543,40.543,0,0,0,14.851,4.087,40.128,40.128,0,0,0,15.671-1.534c5.962-1.838,10.6-4.953,15.5-8.776C999.614,704.515,997.477,704.131,997.075,704.445Z"/><path class="c" d="M996.05,702.394c-8.112,6.308-15.683,10.7-27.244,9.942-10.509-.693-18.1-4.249-26.633-11.627-.678-.587.468,1.555.829,1.844,4.848,3.873,9.413,7.073,15.414,8.978a42.148,42.148,0,0,0,18.51,1.47,35.932,35.932,0,0,0,6.179-1.414,50.918,50.918,0,0,0,15.375-8.795C998.822,702.524,996.484,702.057,996.05,702.394Z"/><path class="c" d="M997.663,703.942a24.179,24.179,0,0,1-12.878,6.687,24.446,24.446,0,0,1-14.376,3.366c-10.5-.56-18.286-4.228-26.807-11.463-.595-.506.267,1.274.594,1.535,3.979,3.177,5.123,4.417,9.8,6.714a40.9,40.9,0,0,0,17.994,4.2,41.921,41.921,0,0,0,12.465-1.873,51.348,51.348,0,0,0,15.461-8.809C1000.268,704.027,998.074,703.622,997.663,703.942Z"/><path class="c" d="M999.728,702.437a47.27,47.27,0,0,1-12.631,7.579,37.456,37.456,0,0,1-14.931,2.575,47.129,47.129,0,0,1-12-2.224c-5.882-1.905-10.415-5.533-15.013-9.482-.4-.347-.151.721.128.956a48.454,48.454,0,0,0,12.129,7.969,37.987,37.987,0,0,0,14.8,3.363,47.745,47.745,0,0,0,12.166-1.56c5.959-1.568,10.676-4.93,15.441-8.638C999.946,702.876,999.921,702.287,999.728,702.437Z"/><path class="c" d="M999,704.477a39.6,39.6,0,0,1-9.821,6.529,24.4,24.4,0,0,1-14.617,2.523,24.687,24.687,0,0,1-14.884-1.1,39.958,39.958,0,0,1-14.87-9.278c-.309-.263-.576.284-.257.552,4.723,3.98,9.171,7.286,15.1,9.331a41.293,41.293,0,0,0,12.265,2.187,39.248,39.248,0,0,0,12.248-1.6l5.624-2.111a40.1,40.1,0,0,0,9.874-6.563C1000.092,704.607,999.292,704.249,999,704.477Z"/><path class="c" d="M996.918,703.136a38.594,38.594,0,0,1-9.822,6.5,34.827,34.827,0,0,1-20.477,3.213c-9.484-1-16.384-4.914-23.693-11.151-.7-.6.5,1.608.867,1.9a51.232,51.232,0,0,0,15.537,8.874,39.086,39.086,0,0,0,15.612,1.592,31.3,31.3,0,0,0,9.108-1.65c6.018-1.882,10.654-5.041,15.546-8.88C999.911,703.283,997.389,702.769,996.918,703.136Z"/><path class="c" d="M995.856,704.472l-4.66,3.621a33.988,33.988,0,0,1-19.486,6.171c-11.216.487-20.005-3.193-29.508-11.352-.691-.594-.3.6.078.913,3.81,3.2,5.235,4.658,9.732,6.968a42.533,42.533,0,0,0,30.51,2.754c5.971-1.813,10.6-4.912,15.5-8.732C998.378,704.54,996.257,704.161,995.856,704.472Z"/><path class="c" d="M945.705,703.033q-2.605,1.242-5.209,2.487c-.5.24.162.794.493.636q2.6-1.241,5.207-2.487C946.7,703.429,946.036,702.875,945.705,703.033Z"/><path class="c" d="M943.983,701.955q-2.584,1.23-5.171,2.46c-.4.191,1.814,1.235,2.312,1q2.557-1.2,5.113-2.408C946.655,702.811,944.469,701.724,943.983,701.955Z"/><path class="c" d="M943.882,699.67q-2.585,1.232-5.167,2.464c-.438.208,1.55,1.144,1.994.934q2.551-1.2,5.1-2.413C946.266,700.44,944.314,699.465,943.882,699.67Z"/><path class="c" d="M945.526,701.546q-2.574,1.225-5.149,2.455c-.442.21,1.467,1.09,1.9.887q2.547-1.2,5.091-2.414C947.823,702.257,945.946,701.346,945.526,701.546Z"/><path class="c" d="M943.048,701.534q-2.587,1.23-5.174,2.463c-.388.184,1.916,1.276,2.436,1.032q2.553-1.2,5.1-2.4C945.821,702.437,943.553,701.294,943.048,701.534Z"/><path class="c" d="M945.258,699.584q-2.6,1.244-5.2,2.492c-.481.23.939.924,1.288.757q2.6-1.242,5.2-2.49C947.028,700.113,945.607,699.417,945.258,699.584Z"/><path class="c" d="M945.543,700.353q-2.619,1.218-5.237,2.437c-.46.214,1.241,1.015,1.636.83q2.582-1.206,5.16-2.419C947.577,700.979,945.925,700.176,945.543,700.353Z"/><path class="c" d="M945.068,700.918q-2.583,1.227-5.166,2.455c-.414.2,1.755,1.236,2.24,1.008q2.554-1.2,5.106-2.4C947.679,701.774,945.541,700.694,945.068,700.918Z"/><path class="c" d="M944.346,703.2q-2.6,1.243-5.2,2.491c-.462.222.741.79,1.069.633l5.2-2.491C945.881,703.61,944.675,703.04,944.346,703.2Z"/><path class="c" d="M946.434,701.328q-2.6,1.246-5.2,2.492c-.462.221.646.778.967.625q2.6-1.243,5.2-2.491C947.867,701.733,946.756,701.174,946.434,701.328Z"/><path class="c" d="M945.924,702.021c-1.733.829-3.463,1.664-5.2,2.492-.474.226.891.874,1.235.71q2.6-1.244,5.2-2.491C947.636,702.506,946.268,701.857,945.924,702.021Z"/><path class="c" d="M944.4,702.494q-2.578,1.228-5.156,2.461c-.438.208,1.455,1.061,1.884.858q2.55-1.209,5.1-2.421C946.681,703.177,944.821,702.295,944.4,702.494Z"/><path class="c" d="M943.328,700.352q-2.589,1.231-5.176,2.464c-.386.184,1.964,1.327,2.493,1.08l5.1-2.4C946.155,701.3,943.84,700.109,943.328,700.352Z"/><path class="c" d="M944.975,702.036q-2.58,1.227-5.159,2.456c-.427.2,1.6,1.137,2.051.923q2.553-1.2,5.1-2.41C947.412,702.8,945.419,701.825,944.975,702.036Z"/><path class="c" d="M946.916,700.62q-2.605,1.241-5.209,2.487c-.322.153-.113.724.234.559q2.605-1.241,5.208-2.487C947.469,701.026,947.262,700.455,946.916,700.62Z"/><path class="c" d="M946.369,702.636q-2.6,1.242-5.209,2.487c-.434.207.048.766.388.6q2.6-1.242,5.208-2.488C947.189,703.032,946.709,702.473,946.369,702.636Z"/><path class="c" d="M944.213,701.2q-2.588,1.227-5.175,2.459c-.374.178,2.044,1.366,2.59,1.11q2.556-1.2,5.111-2.4C947.131,702.178,944.744,700.943,944.213,701.2Z"/><path class="c" d="M943.221,702.437q-2.58,1.231-5.159,2.463c-.439.21,1.407,1.027,1.828.827q2.547-1.207,5.093-2.42C945.438,703.091,943.631,702.242,943.221,702.437Z"/><path class="c" d="M998.8,706.786l5.169,2.485c.376.181-.221-2.421-.759-2.683q-2.538-1.233-5.074-2.469C997.745,703.927,998.279,706.534,998.8,706.786Z"/><path class="c" d="M997.227,705.295l5.154,2.478c.433.208-.093-1.98-.544-2.2l-5.082-2.463C996.309,702.9,996.785,705.083,997.227,705.295Z"/><path class="c" d="M997.2,702.8q2.6,1.246,5.2,2.5c.176.085.656-.227.338-.38q-2.6-1.245-5.2-2.494C997.364,702.334,996.883,702.644,997.2,702.8Z"/><path class="c" d="M998.537,704.706l5.154,2.482c.394.19-.187-2.264-.694-2.511q-2.538-1.233-5.074-2.47C997.513,702.008,998.04,704.466,998.537,704.706Z"/><path class="c" d="M996.578,705.039q2.6,1.241,5.2,2.484c.481.229.122-1.33-.229-1.5l-5.2-2.486C995.868,703.309,996.227,704.871,996.578,705.039Z"/><path class="c" d="M998.429,702.708q2.6,1.248,5.2,2.5c.314.15.626-.367.279-.533l-5.2-2.494C998.4,702.027,998.082,702.542,998.429,702.708Z"/><path class="c" d="M998.692,703.631q2.6,1.241,5.2,2.483c.473.225.1-1.309-.257-1.477l-5.2-2.486C997.961,701.925,998.339,703.463,998.692,703.631Z"/><path class="c" d="M998.107,704.062q2.571,1.236,5.143,2.469c.44.211-.076-1.818-.5-2.024l-5.075-2.45C997.218,701.838,997.689,703.861,998.107,704.062Z"/><path class="c" d="M997.779,706.966l5.166,2.483c.415.2-.138-2.148-.62-2.382l-5.079-2.466C996.815,704.392,997.309,706.741,997.779,706.966Z"/><path class="c" d="M999.5,704.675q2.572,1.233,5.145,2.471c.428.206-.118-1.874-.559-2.088q-2.534-1.227-5.067-2.455C998.572,702.389,999.065,704.467,999.5,704.675Z"/><path class="c" d="M999.049,705.383l5.164,2.488c.383.184-.211-2.347-.736-2.6L998.4,702.8C998,702.6,998.536,705.136,999.049,705.383Z"/><path class="c" d="M997.658,705.919q2.583,1.242,5.164,2.487c.395.191-.173-2.322-.687-2.572l-5.081-2.471C996.642,703.163,997.156,705.678,997.658,705.919Z"/><path class="c" d="M996.674,703.553l5.2,2.495c.518.249.521-.646.194-.8q-2.6-1.245-5.2-2.494C996.351,702.5,996.348,703.4,996.674,703.553Z"/><path class="c" d="M998.034,705.26q2.58,1.242,5.159,2.487c.38.183-.207-2.416-.741-2.675q-2.537-1.236-5.073-2.472C996.983,702.407,997.512,705.009,998.034,705.26Z"/><path class="c" d="M999.85,704.026q2.6,1.241,5.2,2.483c.465.222.137-1.117-.2-1.276q-2.6-1.24-5.2-2.486C999.188,702.525,999.517,703.867,999.85,704.026Z"/><path class="c" d="M999.356,706.281q2.582,1.243,5.166,2.484c.376.181-.228-2.38-.761-2.639q-2.536-1.233-5.071-2.469C998.295,703.465,998.836,706.031,999.356,706.281Z"/><path class="c" d="M997.369,704.412l5.143,2.467c.448.215-.05-1.776-.469-1.977l-5.075-2.446C996.506,702.234,996.96,704.216,997.369,704.412Z"/><path class="c" d="M996.809,706.094q2.6,1.266,5.193,2.531c.464.225.032-1.6-.357-1.792q-2.577-1.246-5.15-2.5C996.02,704.107,996.43,705.909,996.809,706.094Z"/><path class="c" d="M959.349,716.176c0,3.352-.213,6.771,0,10.115a12.784,12.784,0,0,0,15,11.774,13.488,13.488,0,0,0,11.474-11.539c.659-4.365.257-8.976.271-13.388,0-.53-.955.022-.953.369a89.206,89.206,0,0,1-.124,10.421,10.226,10.226,0,0,1-1.048,3.659,8.544,8.544,0,0,1-2.863,5.368,11.98,11.98,0,0,1-20.216-8.482c-.1-3.161,0-6.345,0-9.508C960.892,714.459,959.349,715.724,959.349,716.176Z"/><path class="c" d="M958.039,714.964q-.006,3.07-.006,6.142c0,2.226-.265,4.937.471,7.075a13,13,0,0,0,16.162,8.179,13.64,13.64,0,0,0,9.3-9.321c.724-2.6.543-5.458.564-8.126.018-2.267.028-4.533.059-6.8.008-.556-1.188.2-1.179.561.068,2.843.075,5.688.038,8.531-.061,4.637-.349,9.628-6.168,12.306a12.541,12.541,0,0,1-7.507,1.1,10.843,10.843,0,0,1-6.411-3.293l-3.219-8.023q0-.639,0-1.278.011-4.4.019-8.8C960.168,712.773,958.04,714.384,958.039,714.964Z"/><path class="c" d="M958.331,712.562c-.005,4.709-.9,10.383,1.188,14.768a12.824,12.824,0,0,0,12.052,7.292,14.135,14.135,0,0,0,11.283-6.713c3.039-5.207,1.924-12.43,2.179-18.168.024-.54-1.284.257-1.259.65.139,2.157.15,4.324.2,6.485q.03,1.923.091,3.847-19,18.993-23.777,6.175c-1.89-4.316-1.084-9.925-1.079-14.564C959.205,711.706,958.331,712.21,958.331,712.562Z"/><path class="c" d="M959.568,714.308c-.005,3.36-.166,6.758-.005,10.114a12.546,12.546,0,0,0,9.526,11.568c8.318,2.073,16.081-4.442,16.575-12.707.23-3.84.1-7.712.232-11.558.018-.533-1.956.731-1.946,1.206.067,3.188.117,6.408-.083,9.593-.307,4.914-2.979,10.248-8.274,11.367-7.528,1.591-14-3.2-14.336-11.412-.127-3.158.006-6.354.013-9.514C961.271,712.469,959.569,713.826,959.568,714.308Z"/><path class="c" d="M957.226,714.76q0,3.07,0,6.14c0,2.323-.192,4.832.476,7.092a12.81,12.81,0,0,0,6.145,7.267,13.283,13.283,0,0,0,11.855.144,13.132,13.132,0,0,0,7.814-10.377c.6-4.322.307-8.763.391-13.12.01-.543-.78-.315-.77.029.066,2.222.074,4.448.071,6.672l-.009,2.168-12.5,14.478a12.129,12.129,0,0,1-7.134-2.835,6.006,6.006,0,0,1-2.783-5.034,6.424,6.424,0,0,1-1.631-4.371c-.049-.893,0-1.809.006-2.7q.006-3.546.014-7.092C959.169,712.743,957.227,714.231,957.226,714.76Z"/><path class="c" d="M959.7,712.26c-.007,5.111-1.037,11.615,1.852,16.144a12.949,12.949,0,0,0,11.163,6.019c4.374-.265,9.2-2.511,11.387-6.5,3.018-5.507,1.907-12.312,2.206-18.331.026-.528-1.745.6-1.706,1.06.176,2.077.22,4.168.3,6.251q.061,1.852.137,3.705-23.211,17.468-24.576,3.474c-.591-3.828-.24-7.84-.236-11.707C960.225,712.129,959.7,711.891,959.7,712.26Z"/><path class="c" d="M959.7,713.157q0,3.075,0,6.151c0,2.324-.188,4.827.5,7.083a12.921,12.921,0,0,0,14.278,8.627,13.312,13.312,0,0,0,10.3-7.882c2.15-5.089,1.2-11.321,1.44-16.726.024-.519-2.011.765-1.979,1.255.158,2.4.191,4.809.236,7.213.017.932.1,1.9.056,2.833q.4,4.953-7.472,6.175-4.3,8.636-10.388,4.724l-5.474-6.862-.471-3.1c-.046-.664,0-1.347,0-2.012q0-4.068,0-8.135C960.73,711.984,959.7,712.795,959.7,713.157Z"/><path class="c" d="M959.141,713.7c0,3.359-.163,6.755,0,10.11a12.522,12.522,0,0,0,9.535,11.558,13.807,13.807,0,0,0,9.945-1.534c4.234-2.248,6.285-6.57,6.641-11.16.3-3.844.1-7.734.242-11.587.02-.527-1.958.741-1.937,1.22.14,3.206.2,6.44.1,9.646-.184,5.931-3.69,11.1-9.967,11.824-7.1.824-12.642-4.376-12.938-11.535-.135-3.247,0-6.537.005-9.787C960.766,711.95,959.141,713.243,959.141,713.7Z"/><path class="c" d="M958.222,716.472q0,3.07,0,6.142c0,2.317-.194,4.825.475,7.079,2.247,7.571,11.189,10.619,18.047,7.547a13.205,13.205,0,0,0,8.005-10.569c.578-4.321.221-8.817.237-13.174,0-.3-.546-.519-.544-.153.019,2.979.073,5.966-.05,8.942-.221,5.338-2.778,11.394-8.04,13.363a12.076,12.076,0,0,1-7.782.4,12.471,12.471,0,0,1-8.5-12.3q.008-4.4.015-8.8C960.083,714.48,958.222,715.95,958.222,716.472Z"/><path class="c" d="M960.442,714.09c0,3.371-.16,6.778,0,10.145a12.8,12.8,0,0,0,9.5,11.683,13.758,13.758,0,0,0,10.022-1.476c4.282-2.26,6.439-6.7,6.777-11.347.284-3.909.119-7.858.271-11.775.021-.53-1.98.74-1.965,1.221.107,3.252.177,6.54.02,9.791-.25,5.166-3.052,10.673-8.514,12.01-2.907.712-6.488.762-9.084-.939l-5.525-6.759a12.257,12.257,0,0,1-.47-3.651c-.1-3.186,0-6.4,0-9.585C961.481,712.893,960.442,713.726,960.442,714.09Z"/><path class="c" d="M959.938,714.876c-.014,3.355-.242,6.792-.032,10.143a12.6,12.6,0,0,0,11.32,11.8,13.556,13.556,0,0,0,15-13.03c.172-3.892.118-7.8.243-11.7.018-.559-1.727.554-1.725.983.023,3.3.06,6.623-.181,9.913-.426,5.829-3.795,11.008-10.024,11.771a11.427,11.427,0,0,1-13.15-11.2c-.14-3.251.01-6.553.019-9.808C961.409,713.238,959.94,714.441,959.938,714.876Z"/><path class="c" d="M958.416,715.526q0,3.07-.006,6.143c0,2.228-.263,4.928.47,7.07a13.016,13.016,0,0,0,16.2,8.232,13.644,13.644,0,0,0,9.309-9.381c.719-2.615.505-5.475.526-8.155q.025-3.39.06-6.779c.006-.554-1.131.153-1.127.511.038,3.4.211,6.875-.093,10.264-.7,7.782-6.191,12.631-13.57,11.556a11.88,11.88,0,0,1-6.414-3.192c-2.148-1.974-3.1-5.7-3.259-8.51-.173-3.153.013-6.362.021-9.522C960.535,713.324,958.416,714.943,958.416,715.526Z"/><path class="c" d="M957.657,713.469q-.021,3.087-.035,6.174c-.012,2.331-.222,4.845.488,7.107,2.032,6.481,9.881,10.345,16.279,8.058a13.975,13.975,0,0,0,9.144-9.21c1.334-4.739.637-10.209.8-15.069.018-.532-1.123.151-1.1.526.111,2.16.123,4.326.15,6.489a30.42,30.42,0,0,1,.049,3.853L967.734,734a7.535,7.535,0,0,1-5.564-4.773c-2.252-2.959-3-3.579-3.133-6.916-.036-.9.006-1.815.009-2.717q.01-3.566.022-7.132C959.07,711.933,957.66,713.054,957.657,713.469Z"/><path class="c" d="M958.993,714.864c-.007,3.352-.217,6.779-.012,10.126a12.458,12.458,0,0,0,11.3,11.755,13.513,13.513,0,0,0,14.888-12.953c.158-3.868.118-7.752.228-11.623.016-.567-1.612.475-1.608.885a91.6,91.6,0,0,1-.221,10.521c-.6,5.54-4.066,10.283-9.964,10.8a11.976,11.976,0,0,1-7.064-1.411,6.911,6.911,0,0,1-3.92-5.723,6.42,6.42,0,0,1-1.626-4.522c-.208-3.143.011-6.365.02-9.518C961.011,712.751,958.995,714.308,958.993,714.864Z"/><path class="c" d="M960.9,713.128q0,4.07,0,8.14a15.417,15.417,0,0,0,.49,5.135c1.76,5.14,6.772,9.375,12.438,9.143A14.471,14.471,0,0,0,985.441,729c1.749-2.654,1.86-6.162,1.931-9.219.072-3.09.039-6.183.178-9.271.024-.531-1.881.674-1.854,1.142a74.959,74.959,0,0,1,.257,10.657q-24.983,13.036-24.613-.011,0-1.354,0-2.709,0-3.078,0-6.156C961.344,713.29,960.9,712.93,960.9,713.128Z"/><path class="c" d="M959.99,715.672c0,3.356-.214,6.793,0,10.145a12.661,12.661,0,0,0,11.41,11.828,13.706,13.706,0,0,0,15.2-13.179c.111-3.935.078-7.881.154-11.818.011-.571-1.318.266-1.318.637.006,3.442.1,6.929-.189,10.36-.5,6.005-4.155,11.252-10.5,12.039-7.024.871-13.089-3.791-13.43-11.142-.152-3.27,0-6.593,0-9.866C961.322,714.157,959.991,715.261,959.99,715.672Z"/><path class="c" d="M958.333,714.071q0,3.069-.005,6.138c0,2.225-.265,4.942.471,7.078a12.942,12.942,0,0,0,16.011,8.226,13.433,13.433,0,0,0,9.258-9.223c1.275-4.68.572-10.118.706-14.911.015-.553-1.553.478-1.539.893.094,2.786.088,5.577.068,8.365-.035,4.566.006,9.314-5.882,12.143a12.335,12.335,0,0,1-7.5,1.2,10.712,10.712,0,0,1-6.453-3.29l-3.232-8.075q0-.641,0-1.279.009-4.4.017-8.8C960.261,712.059,958.334,713.544,958.333,714.071Z"/><path class="c" d="M957.292,715.788c-.007,4.172-.75,9.17.472,13.233,2.078,6.911,9.982,10.288,16.593,8.085a13.78,13.78,0,0,0,9.159-9.491c.671-2.593.463-5.379.485-8.02.018-2.252.019-4.5.037-6.756,0-.221-.483-.545-.478-.2q.069,4.32.005,8.642.522,5.118-4.771,8.232-1.341,6.516-6.38,6.4a11.323,11.323,0,0,1-7.506-1.693l-2.33-1.858-3.3-8.122c-.061-.654,0-1.342,0-2q.008-4.041.016-8.08C959.3,713.7,957.293,715.239,957.292,715.788Z"/><path class="c" d="M970.825,717.794q0,3.691,0,7.383c0,.491,1.535-.811,1.536-1.274q0-3.66.009-7.32C972.368,716.078,970.825,717.341,970.825,717.794Z"/><path class="c" d="M969.515,716.582q-.011,3.7-.012,7.4c0,.425,2.106-1.223,2.109-1.815q.015-3.668.03-7.334C971.644,714.392,969.516,716,969.515,716.582Z"/><path class="c" d="M969.806,714.18q-.006,3.715,0,7.431c0,.629.873.124.873-.228q0-3.715,0-7.431C970.68,713.324,969.807,713.828,969.806,714.18Z"/><path class="c" d="M971.044,715.926q-.008,3.69-.008,7.381c0,.483,1.688-.908,1.689-1.4q.011-3.662.02-7.325C972.747,714.088,971.044,715.443,971.044,715.926Z"/><path class="c" d="M968.7,716.378q-.008,3.7-.009,7.394c0,.459,1.921-1.068,1.923-1.61q.012-3.663.027-7.325C970.645,714.362,968.7,715.848,968.7,716.378Z"/><path class="c" d="M971.179,713.878q0,3.715-.005,7.432c0,.244.522.479.522.109q0-3.714,0-7.43C971.7,713.746,971.179,713.509,971.179,713.878Z"/><path class="c" d="M971.174,714.775q0,3.711.005,7.422c0,.518,1.028-.292,1.028-.653q0-3.713,0-7.425C972.205,713.6,971.173,714.413,971.174,714.775Z"/><path class="c" d="M970.616,715.322q-.006,3.688,0,7.377c0,.495,1.616-.832,1.617-1.3q.006-3.659.012-7.319C972.242,713.568,970.617,714.861,970.616,715.322Z"/><path class="c" d="M969.7,718.09q-.008,3.7-.007,7.4c0,.456,1.841-1.052,1.843-1.586q.012-3.668.025-7.333C971.56,716.1,969.7,717.567,969.7,718.09Z"/><path class="c" d="M971.918,715.708q0,3.711,0,7.423c0,.516,1.036-.316,1.036-.679q0-3.714,0-7.426C972.956,714.511,971.918,715.344,971.918,715.708Z"/><path class="c" d="M971.413,716.494q-.02,3.7-.034,7.411c0,.5,1.477-.745,1.479-1.193q.012-3.672.025-7.343C972.885,714.856,971.415,716.058,971.413,716.494Z"/><path class="c" d="M969.891,717.143q-.009,3.7-.011,7.4c0,.421,2.1-1.234,2.1-1.829q.014-3.668.029-7.336C972.011,714.944,969.893,716.56,969.891,717.143Z"/><path class="c" d="M969.132,715.087q-.031,3.73-.056,7.461c0,.52,1.433-.63,1.435-1.055q.016-3.707.033-7.413C970.546,713.552,969.136,714.672,969.132,715.087Z"/><path class="c" d="M970.469,716.482q-.009,3.7-.015,7.4c0,.437,2-1.156,2-1.725q.015-3.666.029-7.33C972.487,714.37,970.47,715.925,970.469,716.482Z"/><path class="c" d="M972.371,714.745q0,3.717,0,7.432c0,.144.448.5.448.3q0-3.715,0-7.431C972.819,714.908,972.372,714.548,972.371,714.745Z"/><path class="c" d="M971.466,717.29q0,3.711,0,7.423c0,.519,1.33-.584,1.329-.994q0-3.712,0-7.425C972.8,715.775,971.466,716.879,971.466,717.29Z"/><path class="c" d="M969.809,715.689q-.009,3.7-.011,7.391c0,.46,1.908-1.058,1.91-1.6q.015-3.664.028-7.33C971.738,713.679,969.81,715.161,969.809,715.689Z"/><path class="c" d="M968.768,717.406q-.008,3.7-.008,7.4c0,.443,1.98-1.135,1.982-1.7q.015-3.664.028-7.331C970.772,715.319,968.769,716.856,968.768,717.406Z"/></g></g></svg>