<svg xmlns="http://www.w3.org/2000/svg" width="48" height="48" viewBox="0 0 48 48"><defs><style>.a,.b{fill:#001e00;}.a{opacity:0;}.b{opacity:0.06;}</style></defs><rect class="a" width="48" height="48"/><g transform="translate(5.958 6.033)"><path class="b" d="M600.48,224.8l1.188.249c.041,0,.11-.124.124-.117l-1.222-.269C600.529,224.653,600.411,224.784,600.48,224.8Z" transform="translate(-568.36 -224.021)"/><path class="b" d="M600.838,224.822l2.134.981a.964.964,0,0,0,.131-.1c-1.333-1.022-.608-.691-2.252-1.05C600.762,224.629,600.72,224.8,600.838,224.822Z" transform="translate(-568.455 -224.017)"/><path class="b" d="M601.279,225.068l2.763,3.453h.173a2.832,2.832,0,0,0-.691-2.59c-.8-.946-1.216-.9-2.334-1.153C600.982,224.737,601.175,225.048,601.279,225.068Z" transform="translate(-568.557 -224.056)"/><path class="b" d="M601.628,225.418c3.3.691,2.583,3.246,2.431,5.145a1.5,1.5,0,0,0,.166.048c.11-1.381.587-2.569-.166-3.861a4.188,4.188,0,0,0-.449-.691c-.787-.912-1.264-.849-2.341-1.091C601.151,224.935,601.483,225.39,601.628,225.418Z" transform="translate(-568.603 -224.116)"/><path class="b" d="M605.3,237.583s-.1-.083-.138-.083S605.263,237.583,605.3,237.583Z" transform="translate(-569.814 -227.993)"/><path class="b" d="M601.8,225.758c3.391.725,2.438,3.792,2.341,5.8s-.11,4.1-.138,6.14c0,0,.145.069.145.1,0-2.479,0-4.973.242-7.438.076-.912.49-1.7.166-2.638a4.405,4.405,0,0,0-.691-1.264,3.631,3.631,0,0,0-2.473-1.236C601.242,225.185,601.615,225.71,601.8,225.758Z" transform="translate(-568.638 -224.194)"/><path class="b" d="M600.125,226.883l2.528,2.714v.262a18.382,18.382,0,0,1-.263,2.928c-.159,2.721-.186,5.442-.221,8.163,0,2.286-.048,4.572-.069,6.858v1.105c.166,1.064-.4,1.8-1.7,2.2q-.725,1.754-2.072,1.437c-.49-.069-.995-.111-1.492-.131,0,0-.062.166-.048.166,1.768.131,3.2.656,4.662-.691a3.453,3.453,0,0,0,1.05-2.611c.138-2.569,0-5.173.048-7.749,0-3.032,0-6.071.124-9.1.041-1.14.615-2.479.242-3.619a5.239,5.239,0,0,0-.691-1.257,3.908,3.908,0,0,0-2.652-1.423C599.441,226.137,599.9,226.834,600.125,226.883Z" transform="translate(-567.224 -224.476)"/><path class="b" d="M591.2,264H589.25s-.062.145-.09.145l1.968.035Z" transform="translate(-564.864 -236.191)"/><path class="b" d="M584.439,262.819c-4.993-.083-9.987-.124-14.98-.159h-2.894c-.124.1-.124.138-.235.332v.048c.421-.414,1.941-.2,2.341-.193h4.213c3.819,0,7.638.055,11.458.131C584.4,262.971,584.445,262.819,584.439,262.819Z" transform="translate(-557.802 -235.777)"/><path class="b" d="M586.659,262.729c-7.411-.47-14.842-.29-22.259-.449a.09.09,0,0,0-.09.062,9.448,9.448,0,0,1-1.554,1.809c-1.008,1.064-2.072,2.072-3.073,3.142-.034,0,0,.138,0,.166,1.381-1.423,2.763-2.866,4.178-4.275a1.761,1.761,0,0,1,1.271-.635,25.51,25.51,0,0,1,3,0c6.174,0,12.369-.083,18.53.338a.506.506,0,0,0,0-.159Z" transform="translate(-555.74 -235.659)"/><path class="b" d="M587.275,227.054c3.046.691,2.548,2.362,2.39,4.068q-.207,2.127-.276,4.254c-.111,3.2-.145,6.4-.187,9.593,0,1.381,0,2.763-.041,4.185,0,1.727.138,3.6-3.315,3.619-.877,0-1.775-.173-2.659-.214-1.823-.083-3.647-.1-5.47-.124-3.729-.048-7.452-.069-11.181-.083h-3.37a.706.706,0,0,0-.269,0,3.452,3.452,0,0,0-.691.691l-2.4,2.41c-1.285,1.291-2.576,2.583-3.854,3.888l.221.117c.09-.387.166-.773.221-1.16,0,0-.1.076-.11.117l-.352.946c-.076.117.166.18.221.117,1.789-1.879,3.619-3.723,5.4-5.615.4-.428.849-1.216,1.478-1.381a8.144,8.144,0,0,1,1.878,0h3.253c5.235.035,10.511-.062,15.74.269,1.678.111,3.018.691,4.455-.5,1.305-1.057,1.285-2.576,1.292-4.109,0-4.669,0-9.344.09-14.02a18.114,18.114,0,0,1,.193-3,3.41,3.41,0,0,0,.124-1.381,1.906,1.906,0,0,0-.235-1.07,6.266,6.266,0,0,0-.656-1.091,3.62,3.62,0,0,0-2.514-1.229C586.6,226.322,587.054,227.013,587.275,227.054Z" transform="translate(-554.581 -224.543)"/><path class="b" d="M586.513,227.125c3.2.691,2.645,2.424,2.459,4.144q-.214,2.134-.311,4.268c-.138,3.2-.173,6.409-.221,9.614,0,1.381,0,2.763-.055,4.192s.069.891-1.588,2.251c-1.823,1.5-1.174,1.292-3.039,1.133-1.6-.131-3.2-.159-4.834-.186-3.805-.076-7.6-.1-11.43-.117h-4.386a4.947,4.947,0,0,0-1.022,0,5.272,5.272,0,0,0-.691.691l-2.424,2.438c-1.305,1.3-2.6,2.6-3.888,3.909l.477.062a5.383,5.383,0,0,1,.152-1.146.614.614,0,0,0-.117.117l-.511.967c-.117.117.38.186.463.1,1.775-1.879,3.6-3.709,5.366-5.6.387-.421.836-1.188,1.437-1.381h5.138c5.228.035,10.5-.062,15.719.269,1.029.062,2.072.559,3.135.256a4.144,4.144,0,0,0,1.133-.629,3.64,3.64,0,0,0,1.506-3.018c.207-4.192,0-8.44.041-12.639q0-1.713.041-3.453a10.289,10.289,0,0,1,.311-2.908,3.717,3.717,0,0,0-.173-1.609,3.964,3.964,0,0,0-.746-1.229c-.822-.919-1.264-.877-2.383-1.105C585.988,226.558,586.354,227.09,586.513,227.125Z" transform="translate(-554.316 -224.593)"/><path class="b" d="M560.217,268.29q-1.637,1.637-3.26,3.287c-.622.628-.407.47-.221-.449,0,.048-.1.076-.11.131l-.256.912c0,.055,0,.228.076.138,1.236-1.3,2.514-2.562,3.75-3.861A.374.374,0,0,0,560.217,268.29Z" transform="translate(-554.72 -237.518)"/><path class="b" d="M585.752,226.76c3.294.691,2.811,2.514,2.624,4.268-.145,1.416-.255,2.852-.318,4.275-.152,3.2-.186,6.423-.235,9.634,0,1.381,0,2.8-.062,4.192s.042.9-1.381,2.265c-1.658,1.561-.932,1.333-2.666,1.16-1.195-.124-2.383-.186-3.578-.228-3.792-.138-7.6-.159-11.375-.193l-5.207-.035a9.558,9.558,0,0,0-2.141,0,5.224,5.224,0,0,0-.732.767c-.794.815-1.6,1.623-2.41,2.431-1.3,1.305-2.6,2.611-3.9,3.937l.78.076a11.051,11.051,0,0,1,.214-2.286s-.152,0-.159.069a2.673,2.673,0,0,1-.836,2.141c-.1.083.635.242.76.111,1.775-1.858,3.584-3.688,5.352-5.525.8-.843,1-1.34,2.189-1.333l6.368.035q4.247,0,8.509.083c1.243,0,2.479.041,3.723.062a10.565,10.565,0,0,1,3.156.373,3.308,3.308,0,0,0,2.625-.815c1.236-.946,1.381-2.21,1.381-3.653,0-4.586,0-9.165.035-13.744,0-.995.048-1.982.083-2.97a1.927,1.927,0,0,1,.221-1.609,4,4,0,0,0-.138-1.519,3.751,3.751,0,0,0-.691-1.174c-.794-.877-1.195-.815-2.279-1.043C585.441,226.407,585.641,226.732,585.752,226.76Z" transform="translate(-554.101 -224.587)"/><path class="b" d="M586.234,226.906c3.253.691,2.7,2.431,2.521,4.192-.145,1.423-.235,2.845-.311,4.268-.166,3.2-.173,6.423-.221,9.628,0,1.381-.035,2.763-.055,4.192v.96l-2.839,2.631a4.47,4.47,0,0,1-1.305-.152c-1.16-.111-2.327-.166-3.5-.2-4.1-.138-8.2-.152-12.307-.18h-4.793a4.912,4.912,0,0,0-1.588,0,2.322,2.322,0,0,0-.49.483c-.691.746-1.457,1.478-2.189,2.217-1.45,1.457-2.908,2.908-4.344,4.379l.649.069a14.562,14.562,0,0,1,.235-2.258s-.152,0-.159.062a2.928,2.928,0,0,1-.691,2.127c-.11.1.532.214.628.111,1.782-1.865,3.591-3.695,5.359-5.573.787-.836.988-1.381,2.155-1.34h4.4q4.206,0,8.419.069l4.082.062a26.737,26.737,0,0,1,4.973.4,3.377,3.377,0,0,0,2.542-.815c1.229-.946,1.381-2.231,1.381-3.667q0-6.423.034-12.839v-2.493a11.607,11.607,0,0,1,.269-2.928,3.856,3.856,0,0,0-.166-1.582,3.992,3.992,0,0,0-.732-1.216c-.822-.912-1.257-.849-2.369-1.084A1.231,1.231,0,0,0,586.234,226.906Z" transform="translate(-554.238 -224.568)"/><path class="b" d="M556.556,265.574l.069-1.954s-.159-.048-.152-.069l-.083,1.975A1.5,1.5,0,0,0,556.556,265.574Z" transform="translate(-554.726 -236.052)"/><path class="b" d="M556,265.227l.069-1.948c0-.035-.159-.062-.159-.069l-.076,1.975C555.823,265.234,556,265.261,556,265.227Z" transform="translate(-554.553 -235.947)"/><path class="b" d="M556.336,258.278c.207-5.919.235-11.844.276-17.77,0-.041-.124-.083-.124-.117-.041,5.953-.09,11.9-.318,17.846C556.17,258.3,556.336,258.333,556.336,258.278Z" transform="translate(-554.658 -228.887)"/><path class="b" d="M585.582,226.37c3.363.691,2.859,2.514,2.687,4.282-.138,1.423-.242,2.859-.318,4.282-.145,2.9-.166,5.808-.207,8.709q-.041,2.293-.069,4.565a9.3,9.3,0,0,1,0,1.519c-.594,3.163-2.4,2.638-4.144,2.479-1.478-.131-2.956-.214-4.441-.262-3.833-.124-7.673-.166-11.506-.2h-4.227a8.189,8.189,0,0,0-2.141,0,5.4,5.4,0,0,0-.739.8c-.773.829-1.575,1.637-2.376,2.445-1.3,1.312-2.6,2.611-3.874,3.937l.912.083a7.107,7.107,0,0,1,.117-2.258c.152-1.381.159-2.763.207-4.144.117-3.356.159-6.713.186-10.07.048-4.586.035-9.179.083-13.764,0-.048-.124-.09-.124-.117-.048,4.213-.048,8.426-.09,12.639-.035,3.08-.076,6.16-.159,9.241-.034,1.305-.09,2.611-.131,3.916s.076,3.6-1,4.468c-.09.069.746.262.884.117,1.789-1.844,3.591-3.688,5.373-5.525a7.859,7.859,0,0,1,1.05-1.091,1.837,1.837,0,0,1,1.105-.159h6.368c2.845,0,5.7,0,8.55.048,1.222,0,2.445,0,3.667.048l1.5.048,1.582.283a3.453,3.453,0,0,0,2.638-.836c1.381-1.036,1.381-2.624,1.381-4.2,0-4.655-.083-9.317,0-13.972,0-.9.048-1.8.083-2.687a10.656,10.656,0,0,1,.193-1.174,4.145,4.145,0,0,0-.138-1.43,4.055,4.055,0,0,0-.691-1.167,3.423,3.423,0,0,0-2.293-1.064C585.354,226.08,585.471,226.349,585.582,226.37Z" transform="translate(-554.055 -224.481)"/><path class="b" d="M588.179,227.909a20.54,20.54,0,0,1-.145,3.384c-.269,3.626-.338,7.266-.394,10.905,0,1.644-.048,3.294-.076,4.938a15.25,15.25,0,0,1-.034,1.948c-.359,2.528-2.017,2.866-3.64,2.707q-2.072-.207-4.144-.311c-3.805-.186-7.6-.221-11.43-.269l-5.214-.062a9.854,9.854,0,0,0-2.141,0,5.833,5.833,0,0,0-.691.849c-.76.843-1.561,1.664-2.362,2.472-1.292,1.312-2.59,2.611-3.861,3.937l.953.09a10.738,10.738,0,0,1,.18-2.977c.083-1.146.11-2.293.152-3.453.117-2.97.159-5.946.2-8.916.041-3.281.055-6.561.076-9.835,0-2.327-.5-5.27,1.022-7.266a.967.967,0,0,1-.1-.131,3.612,3.612,0,0,0-1.057,2.486c-.145,2.617,0,5.283-.055,7.9,0,4.2-.076,8.4-.173,12.59-.042,1.961-.076,3.93-.18,5.884-.069,1.209.055,2.763-1.015,3.612-.083.069.78.276.925.131,1.381-1.423,2.763-2.832,4.185-4.261l1.229-1.257,1.077-1.077a4.881,4.881,0,0,1,2.251-.145H575.36c1.913,0,3.826,0,5.739.048,1.271,0,2.493.359,3.757.283A3.287,3.287,0,0,0,587,251.17a4.122,4.122,0,0,0,1.112-3.4v-9.945c0-1.789,0-3.577.083-5.359a32.415,32.415,0,0,0,.152-4.627C588.331,227.8,588.179,227.881,588.179,227.909Z" transform="translate(-554 -224.411)"/><path class="b" d="M588.458,228.378c-.159.4-.1.283-.166.932-.138,1.416-.221,2.866-.276,4.282-.11,2.9-.131,5.8-.166,8.7l-.062,4.572a9.313,9.313,0,0,1,0,1.519c-.6,3.35-2.479,2.763-4.261,2.6q-2.258-.214-4.531-.311c-3.819-.159-7.652-.2-11.478-.249l-4.234-.048a8.782,8.782,0,0,0-2.141-.035,7.349,7.349,0,0,0-.691.87c-.746.856-1.554,1.671-2.355,2.479-1.292,1.3-2.59,2.6-3.847,3.93l.919.09a12.686,12.686,0,0,1,.166-2.963c.083-1.16.124-2.327.173-3.488.152-3.757.214-7.521.255-11.278q.055-4.6.069-9.2v-3.3q0-2.293,3.453-2.859s.035-.159,0-.173a2.815,2.815,0,0,0-2.645.739c-1.464,1.181-1.084,3.363-1.091,4.986,0,4.489-.048,8.978-.1,13.461,0,2.251-.055,4.51-.11,6.761,0,1.209-.076,2.417-.138,3.626a4.144,4.144,0,0,1-.96,3.6c-.09.076.753.269.891.131,1.25-1.264,2.507-2.521,3.757-3.792q1.16-1.195,2.355-2.348a1.706,1.706,0,0,1,1.554-.559h16.824l3.135.062a12.788,12.788,0,0,1,1.623.249,3.571,3.571,0,0,0,3.847-3.453c.18-2.583,0-5.249,0-7.839,0-1.92,0-3.847.041-5.767,0-.849,0-1.706.076-2.555a24.324,24.324,0,0,1,.283-3.391C588.651,228.3,588.479,228.337,588.458,228.378Z" transform="translate(-554.058 -223.92)"/><path class="b" d="M588.558,228.371a122.481,122.481,0,0,0-.463,12.639c0,2.01-.034,4.026-.062,6.036,0,1.789-.242,3.7-3.37,3.785-.732-.083-1.457-.152-2.189-.214-1.084-.076-2.162-.145-3.246-.207-2.072-.1-4.2-.131-6.3-.173-3.875-.076-7.756-.035-11.63-.166h-.048A20.376,20.376,0,0,1,557.8,253.9c-1.167,1.167-2.272,2.279-3.37,3.453l.794.1a19.526,19.526,0,0,1,.228-2.963c.124-1.5.2-3,.256-4.51.152-3.826.207-7.652.255-11.478q.055-4.392.076-8.792a12.851,12.851,0,0,1,0-2.472l3.4-2.887a6.661,6.661,0,0,0,.691.1,1.391,1.391,0,0,0,0-.166c-1.25-.18-2.341-.373-3.35.642a4.206,4.206,0,0,0-1.1,3.267c0,4.275,0,8.55-.069,12.825,0,3.039-.055,6.085-.131,9.123,0,1.209-.069,2.417-.152,3.619a4.531,4.531,0,0,1-.912,3.6c-.1.1.656.256.773.138l4.213-4.247c.421-.428.849-.85,1.285-1.271s.739-.691,1.119-1.07a5.173,5.173,0,0,1,2.251-.131h11.63c1.9,0,3.805,0,5.712.048.974,0,1.941.055,2.915.145a1.013,1.013,0,0,0,.276.131,3.412,3.412,0,0,0,3.709-3.453c.338-6.416-.311-12.887.421-19.29C588.73,228.378,588.565,228.364,588.558,228.371Z" transform="translate(-554.11 -223.858)"/><path class="b" d="M588.717,231.31c-.207,4.3-.193,8.619-.228,12.922a28.787,28.787,0,0,1,0,3.363c-.408,3.149-2.548,3.08-4.358,2.908-7.445-.691-14.939-.4-22.4-.691h-.041a18.932,18.932,0,0,1-3.419,3.826c-1.146,1.153-2.251,2.279-3.343,3.453l.642.09c.173-3.218.532-6.416.635-9.669.152-4.6.214-9.2.262-13.813q0-2.542.048-5.076a8.129,8.129,0,0,1,0-2.01l3.294-2.576a10.117,10.117,0,0,0,1.209.145c1.8.145,3.605.152,5.4.186,0,0,.069-.145.09-.145a39.288,39.288,0,0,1-5.981-.256,3.8,3.8,0,0,0-2.03-.117,3.453,3.453,0,0,0-2.341,2.562,15.2,15.2,0,0,0-.145,3.322q0,3.8,0,7.6c0,3.08,0,6.161-.062,9.241,0,1.381-.041,2.818-.083,4.227-.041,1.658,0,5.214-.939,6.216-.117.131.525.221.622.131l3.792-3.812,2.072-2.072a2.6,2.6,0,0,1,1.2-.877,18.782,18.782,0,0,1,3.357,0h5.808c4.1,0,8.35-.276,12.432.235a4.834,4.834,0,0,0,2.4-.076,3.267,3.267,0,0,0,1.982-2.362,29.153,29.153,0,0,0,.159-5.76c0-3.729,0-7.466.193-11.188C588.875,231.345,588.717,231.31,588.717,231.31Z" transform="translate(-554.268 -223.744)"/><path class="b" d="M557.145,253.842c.207-5.939.269-11.886.318-17.825l.041-6.154a5.184,5.184,0,0,1,0-.925l3.281-2.763.511.062c8.7.946,17.528.49,26.244.691.11,0-.414-.691-.615-.691H569.314a53.31,53.31,0,0,1-8.4-.3,2.762,2.762,0,0,0-1.519.152,3.232,3.232,0,0,0-1.513,1.195c-.808,1.084-.649,2.452-.691,3.75,0,7.6,0,15.235-.283,22.846C556.972,253.9,557.138,253.938,557.145,253.842Z" transform="translate(-554.887 -224.403)"/><path class="b" d="M586.14,226.059c3.4.691,2.638,3.363,2.5,5.359q-.145,2.03-.207,4.061c-.1,3.453-.145,6.906-.186,10.318,0,.96,0,1.92-.035,2.88v.608l-4.1,2.569c-.691-.062-1.312-.111-1.968-.138l-2.507-.1c-1.022-.035-2.072-.055-3.066-.076-3.453-.076-6.906-.111-10.325-.138l-3.515-.035a4.967,4.967,0,0,0-1.043,0c-.359.166-.691.836-1,1.14-.656.691-1.333,1.381-2.01,2.072-1.285,1.305-2.583,2.6-3.854,3.909l.967.09a5.76,5.76,0,0,1,0-2.148c.083-1.416.117-2.832.166-4.247.11-2.977.166-5.96.214-8.978q.062-4.945.083-9.89v-4.2c-.159-1.043.387-1.768,1.651-2.182.456-1.153,1.146-1.637,2.072-1.457.325.035.649.055.974.076.919.069,1.844.117,2.763.166,3.053.159,6.112.152,9.165.186,4.427.048,8.861,0,13.295.09.145,0-.262-.518-.407-.518-7.176,0-14.352.09-21.527,0-1.6,0-3.163-.131-4.745-.256a3.336,3.336,0,0,0-2.452.85,3.26,3.26,0,0,0-1.153,2.431c-.207,2.307,0,4.758,0,7.072q0,6.257-.076,12.514c0,2.01-.048,4.02-.1,6.029,0,1.319.221,3.363-.856,4.372-.09.09.8.262.939.124,1.8-1.823,3.578-3.66,5.373-5.484.808-.808.995-1.174,2.141-1.174h18.578a11.742,11.742,0,0,1,3.032.235,3.294,3.294,0,0,0,2.486-.767,3.716,3.716,0,0,0,1.568-3.115c.18-4.192,0-8.433,0-12.632v-3.412a14.36,14.36,0,0,1,.186-2.88,3.846,3.846,0,0,0-.207-1.609,4,4,0,0,0-.76-1.216c-.836-.9-1.278-.856-2.4-1.084C585.622,225.507,586.023,226.025,586.14,226.059Z" transform="translate(-554.241 -224.191)"/><path class="b" d="M587.069,225.826c3.267.691,2.486,4.572,2.4,6.651-.041.884-.076,1.775-.1,2.659-.083,3.453-.124,6.872-.152,10.3v3.488l-3.149,2.763-1.616-.117c-.691-.048-1.381-.09-2.072-.117-1.609-.069-3.218-.111-4.834-.138-3.453-.069-6.906-.1-10.36-.131H563.67a4.954,4.954,0,0,0-1.043,0c-.338.166-.691.836-.953,1.126-.656.691-1.326,1.381-2,2.072-1.278,1.3-2.569,2.583-3.826,3.9l.753.083a7.886,7.886,0,0,1,0-2.072c.048-1.457.186-2.915.249-4.379.117-3,.193-6,.249-8.978.062-3.287.1-6.582.124-9.876v-3.129a10.1,10.1,0,0,1,0-1.885c0-.849.656-1.319,2.01-1.381a2.445,2.445,0,0,1,2.576-1.229c.939.069,1.879.111,2.825.152,3.039.131,6.091.159,9.137.193,4.427.048,8.854,0,13.281.1.1,0-.442-.725-.656-.725H566.7c-1.609,0-3.239.09-4.834,0a9.842,9.842,0,0,0-2.548-.076,4.316,4.316,0,0,0-1.381.78,3.633,3.633,0,0,0-1.381,2.818c-.166,2.631,0,5.346,0,7.984v13.6c0,1.747,0,3.453-.131,5.228a5.345,5.345,0,0,1-.573,2.8c-.1.152.635.214.691.124,1.823-1.816,3.605-3.681,5.428-5.491.822-.815,1.029-1.146,2.182-1.146h6.361c5.035,0,10.07,0,15.1.111a.532.532,0,0,0,.276.11,2.459,2.459,0,0,0,1.381-.166,4.206,4.206,0,0,0,1.236-.78c1.437-1.264,1.25-2.949,1.25-4.683v-14.3a13.6,13.6,0,0,1,.186-2.9,3.108,3.108,0,0,0-.09-1.257,3.453,3.453,0,0,0-.256-.566,6.459,6.459,0,0,0-.691-1.077,3.43,3.43,0,0,0-2.486-1.146A1.713,1.713,0,0,0,587.069,225.826Z" transform="translate(-554.555 -224.124)"/><path class="b" d="M585.572,225.821c3.384.691,2.887,2.507,2.728,4.282-.131,1.423-.242,2.859-.3,4.289-.159,3.453-.18,6.975-.228,10.463,0,1.236,0,2.472-.048,3.709v.615l-2.7,2.638a12.7,12.7,0,0,1-2.673-.228c-1.1-.083-2.2-.124-3.3-.166-3.819-.145-7.645-.18-11.465-.221l-4.227-.041a7.215,7.215,0,0,0-2.148,0,5.626,5.626,0,0,0-.691.822c-.76.843-1.561,1.658-2.355,2.466-1.292,1.305-2.59,2.6-3.861,3.93l.988.09.048-2.238q.09-1.16.124-2.321c.041-1.305.1-2.618.131-3.923.1-3.453.131-6.906.159-10.36q.041-4.717.055-9.434c0-.58-.041-1.181,0-1.761.145-1.561-.117-3.122,3.453-3.06,1.575,0,3.17.242,4.752.29,2.4.069,4.793.083,7.19.1,4.834.041,9.6.035,14.393.076.159,0,.076-.228-.035-.228-5.525,0-11.05,0-16.575-.069-2.832,0-5.677,0-8.509-.228-1.423-.1-2.6-.47-3.812.608a3.191,3.191,0,0,0-1.077,2.528c-.131,2.265,0,4.572,0,6.837q-.041,6.285-.131,12.583c0,1.747-.076,3.488-.131,5.228s.428,4.144-1.008,5.283c-.083.069.808.276.96.124,1.8-1.83,3.584-3.674,5.387-5.525.8-.815,1-1.209,2.155-1.209h14.9c1.706,0,3.453-.1,5.152.062.856.076,1.975.5,2.866.18a5.342,5.342,0,0,0,1.1-.628,3.612,3.612,0,0,0,1.589-3.08c.159-3.536,0-7.114,0-10.657,0-1.782,0-3.564.048-5.346,0-.808.048-1.616.076-2.424.131-.87.366-1.05.034-2.072-.477-1.464-1.616-1.954-3-2.245C585.379,225.559,585.462,225.8,585.572,225.821Z" transform="translate(-554.08 -224.181)"/><path class="b" d="M586.006,250.6a7.646,7.646,0,0,0-2.169-.256c-2.839-.186-5.67-.269-8.516-.332-4.247-.09-8.5-.048-12.742-.186h-.042a17.583,17.583,0,0,1-3.336,3.792c-1.112,1.133-2.231,2.258-3.308,3.419l.269.1a15.826,15.826,0,0,0,.47-3.688c.3-3.17.4-6.347.49-9.531q.131-5.159.193-10.318c0-1.457.041-2.921.055-4.379a17.471,17.471,0,0,1,0-2.479v-.242l3.06-2.493a19.1,19.1,0,0,1,2.631.235c2.763.145,5.587.152,8.384.18,5.152.048,10.3.035,15.463.069.1,0,.117-.18,0-.18-6.216-.069-12.473-.041-18.709-.138-1.747,0-3.5-.041-5.242-.124-.8-.035-1.582-.325-2.362-.359a3.619,3.619,0,0,0-3.785,2.818,27.254,27.254,0,0,0-.138,5.718v13.316c0,2.638,0,5.27-.228,7.9-.1,1.133,0,2.583-.573,3.591-.076.131.18.193.242.131,1.278-1.285,2.562-2.569,3.833-3.861.428-.435.863-.87,1.3-1.3s1.043-1.036,1.582-1.533a6.665,6.665,0,0,1,2.307-.124h11.617c1.616,0,3.239,0,4.834.062a17.8,17.8,0,0,1,4.372.311C586.1,250.838,586.062,250.624,586.006,250.6Z" transform="translate(-554.563 -223.72)"/><path class="b" d="M587.091,225.029c3.363.691,2.659,3.239,2.542,5.2-.138,2.3-.166,4.593-.193,6.906-.035,2.479-.048,4.959-.062,7.431a23.524,23.524,0,0,1,0,3.488c-.622,3.854-4.7,2.763-6.975,2.666-2.687-.152-5.373-.193-8.067-.235-3.874-.069-7.763-.035-11.637-.145h-.048a23.487,23.487,0,0,1-3.826,4.213c-.96.981-1.927,1.954-2.866,2.956l.511.076c.863-9.842.808-19.738.932-29.615v-.925c.407-3.115,3.916-2.424,5.781-2.327,2.818.152,5.636.173,8.453.207,5.159.069,10.318.041,15.477.1.145,0-.228-.449-.366-.449-7.19-.035-14.379,0-21.569-.09h-1.658a9.38,9.38,0,0,1-2.8-.276,3.564,3.564,0,0,0-1.271.069,5.367,5.367,0,0,0-1.381.76,3.64,3.64,0,0,0-1.443,2.714c-.062.635,0,1.381,0,1.989V248.4c0,1.6,0,3.2-.083,4.8-.1,1.34.042,3.17-.642,4.33-.1.166.421.193.5.117,1.83-1.823,3.619-3.681,5.463-5.491.849-.836,1.091-1.209,2.279-1.209h6.354c4.544,0,9.089-.048,13.626.1,1.6.048,2.99.5,4.31-.656A4.022,4.022,0,0,0,589.591,247c0-3.978,0-7.963.083-11.941,0-1.167,0-2.334.062-3.5a20.809,20.809,0,0,1,.276-3.274,4.04,4.04,0,0,0-.193-1.381,3.834,3.834,0,0,0-.732-1.181c-.843-.919-1.257-.849-2.383-1.091C586.621,224.553,586.946,225,587.091,225.029Z" transform="translate(-554.57 -223.872)"/><path class="b" d="M586.714,225.414c3.377.691,2.673,3.3,2.548,5.3-.083,1.34-.145,2.687-.173,4.033-.083,3.453-.117,6.906-.152,10.36v3.481l-3.129,2.763c-.559,0-1.112-.069-1.664-.111q-1.036-.083-2.072-.124c-1.609-.076-3.225-.124-4.834-.159-3.453-.069-6.906-.1-10.36-.138h-3.515a4.749,4.749,0,0,0-1.043,0l-.18.283c-.249.3-.5.594-.774.877-.691.691-1.333,1.381-2.01,2.072-1.285,1.285-2.583,2.569-3.833,3.888l.856.09a6.217,6.217,0,0,1-.062-2.072c.048-1.464.152-2.928.214-4.392.124-3,.2-6,.256-8.978.062-3.294.1-6.589.131-9.876v-3.135a10.107,10.107,0,0,1,0-1.885c0-.849.656-1.312,2-1.381a2.445,2.445,0,0,1,2.562-1.229c.926.069,1.851.111,2.763.145,3.053.117,6.112.152,9.165.186,4.427.041,8.861,0,13.288.076.131,0-.331-.587-.5-.587H566.471c-1.623,0-3.26.062-4.876,0a8.335,8.335,0,0,0-2.617-.1,4.551,4.551,0,0,0-1.381.78,3.667,3.667,0,0,0-1.381,2.825c-.173,2.638,0,5.352,0,7.991,0,4.531.035,9.068,0,13.6,0,1.74,0,3.453-.11,5.207a4.784,4.784,0,0,1-.628,2.8c-.1.131.725.235.829.131,2.037-2.017,4.006-4.144,6.105-6.064.691-.622,1.216-.5,2.113-.5h17.984a18.06,18.06,0,0,1,3.053.159,3.391,3.391,0,0,0,2.673-.932,4.2,4.2,0,0,0,1.236-3.55c0-5.125-.041-10.256,0-15.381a23.813,23.813,0,0,1,.187-2.99,2.935,2.935,0,0,0-.221-1.582,4.143,4.143,0,0,0-.78-1.216c-.856-.919-1.3-.877-2.438-1.112C586.147,224.82,586.541,225.379,586.714,225.414Z" transform="translate(-554.441 -224.036)"/><path class="b" d="M587.359,226.092c3.211.691,2.417,4.565,2.327,6.623-.055,1.188-.083,2.376-.11,3.571-.083,3.357-.11,6.72-.138,10.083a16.151,16.151,0,0,1,0,2.521c.048.822-.49,1.381-1.616,1.63-.49,1.077-1.181,1.519-2.072,1.34-2.97-.228-5.946-.283-8.93-.325q-5.1-.062-10.2-.1h-3a2.425,2.425,0,0,0-.691,0,9.4,9.4,0,0,0-1.257,1.381q-1.077,1.119-2.176,2.217c-1.126,1.126-2.251,2.265-3.357,3.412l.525.069c0-1.181.11-2.41.193-3.584.18-2.383.262-4.759.331-7.148.187-6.264.214-12.535.283-18.8a8.3,8.3,0,0,1,0-.925c.4-3.218,3.964-2.514,5.877-2.4,2.825.152,5.656.214,8.488.262,5.166.083,10.36.041,15.5.138.1,0-.477-.76-.691-.76h-19.69c-1.6,0-3.246.152-4.834,0a11.627,11.627,0,0,0-1.954-.138,3.156,3.156,0,0,0-1.989.808,3.516,3.516,0,0,0-1.381,2.645c-.062.635,0,1.381,0,2v18.62c0,1.63,0,3.253-.083,4.876-.083,1.326.076,3.177-.6,4.33-.1.166.435.186.511.111,1.809-1.83,3.6-3.674,5.408-5.525.822-.829,1.05-1.236,2.231-1.236h6.361l8.5.041c1.236,0,2.473,0,3.709.041a21.345,21.345,0,0,1,3.253.228,3.391,3.391,0,0,0,2.673-.953c1.381-1.243,1.16-2.928,1.167-4.593,0-4.765,0-9.538.048-14.31a11.74,11.74,0,0,1,.235-2.908,3.453,3.453,0,0,0-.076-1.243,3.071,3.071,0,0,0-.269-.594,7.278,7.278,0,0,0-.691-1.084,3.474,3.474,0,0,0-2.5-1.16C586.627,225.3,587.111,226.044,587.359,226.092Z" transform="translate(-554.638 -224.175)"/><path class="b" d="M560.1,226.34a19.635,19.635,0,0,1,3.184.152c3.08.221,6.161.3,9.248.352,5.173.09,10.36.055,15.519.159.145,0-.262-.525-.407-.525H573.26c-2.908,0-5.815,0-8.723-.111a31.975,31.975,0,0,0-4.517-.166S560.061,226.34,560.1,226.34Z" transform="translate(-555.849 -224.492)"/><path class="b" d="M587.749,225.749c3.26.691,2.521,3.2,2.4,5.1-.069,1.043-.11,2.072-.138,3.129-.076,3.177-.083,6.347-.1,9.524v4.178c0,1.809.18,3.764-3.453,3.861-.442,0-.946-.076-1.381-.1q-2.4-.159-4.834-.207c-3.819-.069-7.645-.1-11.471-.131l-4.434-.035a3.169,3.169,0,0,0-1.022,0c-.166.083-.456.58-.594.739-.746.836-1.547,1.637-2.334,2.438-1.264,1.278-2.535,2.548-3.778,3.847l.207.117a18.272,18.272,0,0,0,.38-3.633c.235-2.763.345-5.525.428-8.343.166-6,.186-12,.283-18,0-1.381,0-3,2.645-3.142a20.774,20.774,0,0,1,2.528.2c3.046.242,6.112.256,9.165.3,5.166.076,10.36.048,15.491.131.11,0-.414-.691-.615-.691h-19.7a42.12,42.12,0,0,1-4.835,0,10.363,10.363,0,0,0-1.954-.207,3.08,3.08,0,0,0-1.844.691,3.3,3.3,0,0,0-1.326,1.554,5.242,5.242,0,0,0-.249,2.162v17.487c0,2.03,0,4.054-.1,6.085,0,1.084-.1,2.162-.193,3.239a7.686,7.686,0,0,1-.325,2.072c-.042.11.131.2.207.124,1.823-1.858,3.647-3.723,5.477-5.573a5.525,5.525,0,0,1,1.554-1.271H570.9q4.268,0,8.536.055c1.229,0,2.466,0,3.695.069a26.644,26.644,0,0,1,3.453.256,3.177,3.177,0,0,0,2.507-.9c1.25-1.2,1.057-2.852,1.07-4.42,0-4.786,0-9.579.138-14.365,0-1,.29-2.176.3-3.142a2.39,2.39,0,0,0-.3-1.651,5.773,5.773,0,0,0-.691-1.1,3.448,3.448,0,0,0-2.452-1.153A1.589,1.589,0,0,0,587.749,225.749Z" transform="translate(-554.786 -224.074)"/><path class="b" d="M557.229,256.816a149.393,149.393,0,0,0,.877-15.622c.069-3.191.11-6.375.145-9.558,0-.939,0-1.885.034-2.825a7.479,7.479,0,0,1,0-1.471l2.956-2.493,1.07.111c.829.083,1.658.145,2.493.2,2.949.173,5.919.193,8.875.228,4.793.062,9.586.041,14.379.117.138,0-.29-.525-.442-.525-6.216,0-12.466,0-18.7-.076-1.734,0-3.453,0-5.2-.076-.76,0-1.381-.262-2.148-.318a3.343,3.343,0,0,0-2.486.691,3.239,3.239,0,0,0-1.381,2.072,28.733,28.733,0,0,0-.131,5.718v13.288c0,2.072.076,4.144-.09,6.216-.124,1.457-.3,2.921-.414,4.379C557.111,256.927,557.222,256.851,557.229,256.816Z" transform="translate(-554.937 -223.966)"/><path class="b" d="M585.971,225.675c3.453.691,2.707,3.363,2.576,5.387q-.111,1.575-.186,3.149c-.159,3.453-.159,6.906-.2,10.4v3.357c0,1.651.173.843-2.072,2.265a2.963,2.963,0,0,1-3.308,1.195l-1.471-.076c-1.968-.1-3.93-.138-5.9-.18-3.384-.069-6.768-.1-10.159-.131h-3a2.223,2.223,0,0,0-.691,0,10.909,10.909,0,0,0-1.319,1.519c-.691.753-1.443,1.492-2.175,2.224-1.126,1.133-2.258,2.265-3.357,3.453l1.029.09a5.677,5.677,0,0,1-.069-2.134c.069-1.423.1-2.845.159-4.268.131-3.4.193-6.8.242-10.2.048-3.17.069-6.347.09-9.517V229.4a8.649,8.649,0,0,1,0-1.464l3.239-2.707.843.076c.822.062,1.644.1,2.466.145,2.956.145,5.919.159,8.875.186,4.793.048,9.593,0,14.386.083.159,0-.18-.414-.3-.414-6.216,0-12.431,0-18.647-.048-2.535,0-5.042-.083-7.556-.276a3.322,3.322,0,0,0-2.5.7,3.371,3.371,0,0,0-1.153,1.927,27.451,27.451,0,0,0-.145,5.739q0,6.665-.055,13.316c0,2.652,0,5.325-.1,7.97-.062,1.153.083,2.659-.849,3.529-.09.076.856.276,1,.131,1.54-1.554,3.073-3.115,4.62-4.669.573-.573,1.381-1.72,2.2-1.927h13.53c2.39,0,4.834-.166,7.238,0,1.437.1,2.466.408,3.688-.394a3.757,3.757,0,0,0,1.823-3.26c.173-4.192,0-8.433,0-12.632V232a19.466,19.466,0,0,1,.18-2.977,4.144,4.144,0,0,0-.193-1.554,3.784,3.784,0,0,0-.746-1.188c-.836-.9-1.257-.836-2.376-1.064C585.536,225.212,585.84,225.634,585.971,225.675Z" transform="translate(-554.189 -224.111)"/><path class="b" d="M586.426,226.477c3.156.656,2.631,2.8,2.473,4.71-.11,1.25-.166,2.5-.221,3.757-.145,3.177-.159,6.368-.2,9.558a44.186,44.186,0,0,1-.069,5.152c-.435,3.308-4.772,2.473-6.768,2.39-1.6-.062-3.191-.09-4.786-.117q-5.173-.09-10.36-.117h-3.508a3.84,3.84,0,0,0-1.015,0,5.527,5.527,0,0,0-.691.753c-.932.981-1.892,1.941-2.852,2.9q-1.706,1.7-3.384,3.453l.829.083a6.437,6.437,0,0,1,.034-2.182c.111-1.381.166-2.811.214-4.213.1-2.977.159-5.953.2-8.937.048-3.294.069-6.589.083-9.883v-4.2c-.159-1.05.387-1.775,1.651-2.189.47-1.167,1.16-1.651,2.072-1.464.331.035.691.062,1,.083.925.069,1.851.124,2.763.18,3.053.18,6.119.18,9.179.221,4.434.055,8.868,0,13.295.1.131,0-.352-.635-.532-.635H566.156c-1.609,0-3.212,0-4.834-.069-.615,0-1.05-.138-1.616-.18a3.308,3.308,0,0,0-2.466.8,3.4,3.4,0,0,0-1.2,2.417c-.166,1.685,0,3.453,0,5.166q0,6.085-.076,12.162c0,2.182-.042,4.358-.09,6.54,0,.884-.041,1.761-.09,2.645a4.793,4.793,0,0,1-.787,3.557c-.11.111.691.235.8.117,1.789-1.83,3.564-3.66,5.345-5.525.815-.836,1.008-1.25,2.182-1.25h6.368q4.247,0,8.5.041l3.729.035a13.017,13.017,0,0,1,3.108.269,3.349,3.349,0,0,0,2.542-.808c1.305-.939,1.5-2.279,1.5-3.778v-16.8c.069-.49.131-.988.2-1.478a2.832,2.832,0,0,0-.228-1.575,4.592,4.592,0,0,0-.78-1.243,3.3,3.3,0,0,0-2.431-1.105C585.819,225.821,586.233,226.435,586.426,226.477Z" transform="translate(-554.292 -224.318)"/><path class="b" d="M587.2,226.412c3.287.691,2.5,3.218,2.369,5.228-.069,1.036-.117,2.072-.152,3.122-.11,3.191-.145,6.388-.18,9.579,0,1.381,0,2.763-.041,4.185s.076.891-1.616,2.314a2.023,2.023,0,0,1-2.521,1.271l-1.181-.083c-1.72-.1-3.453-.138-5.166-.166-3.495-.055-6.982-.083-10.477-.1H563.8a3.213,3.213,0,0,0-1.029,0c-.331.138-.691.774-.953,1.036l-2.072,2.072c-1.285,1.292-2.576,2.576-3.84,3.888l.5.062c0-1.492.207-3.011.318-4.5.242-3.232.255-6.492.318-9.731.069-3.357.1-6.72.138-10.083v-3.391a17.374,17.374,0,0,1,0-2.472v-.242l4.1-2.576c.822,0,1.7.131,2.514.18,2.97.18,5.939.214,8.909.256,4.793.069,9.6.041,14.393.131.1,0-.463-.746-.691-.746H562.622c-.691,0-1.381-.18-2.12-.193a3.571,3.571,0,0,0-2.631.87,3.274,3.274,0,0,0-1.216,2.611c-.152,2.3,0,4.641,0,6.906,0,4.537,0,9.075-.048,13.612,0,1.913-.035,3.819-.173,5.725-.076,1.119.062,2.59-.58,3.557-.11.159.414.18.483.1l5.394-5.525a7.109,7.109,0,0,1,1.1-1.133,2.072,2.072,0,0,1,1.119-.145h6.326c5.09,0,10.256-.159,15.332.269.09,0,.166.117.262.124a4.834,4.834,0,0,0,1.34-.152,4.142,4.142,0,0,0,1.153-.691c1.333-1.071,1.319-2.611,1.326-4.144q0-7.024.041-14.055a20.074,20.074,0,0,1,.138-2.956,3.661,3.661,0,0,0,.083-1.381,2.011,2.011,0,0,0-.249-1.091,6.527,6.527,0,0,0-.691-1.084,3.808,3.808,0,0,0-2.555-1.25C586.483,225.625,586.966,226.357,587.2,226.412Z" transform="translate(-554.556 -224.26)"/><path class="b" d="M586.587,226.006c3.225.691,2.548,3.964,2.438,5.974q-.117,2.141-.166,4.289c-.076,3.129-.11,6.264-.145,9.393a22.961,22.961,0,0,1,0,3.232v.256l-4.1,2.631c-.656-.055-1.319-.1-1.975-.124-.856-.041-1.72-.076-2.576-.1-1.713-.055-3.453-.083-5.131-.111-3.267-.055-6.54-.076-9.814-.1a12.353,12.353,0,0,0-2.624,0c-.276.062-.18,0-.408.138a10.86,10.86,0,0,0-1.209,1.347q-1.063,1.105-2.148,2.2c-1.133,1.133-2.265,2.272-3.377,3.453l.932.083a5.435,5.435,0,0,1-.083-2.072c.055-1.45.124-2.894.18-4.337.131-3.391.2-6.789.255-10.18q.076-4.765.1-9.538v-2.811a8.624,8.624,0,0,1,0-1.464l3.1-2.68.96.076c.836.062,1.671.117,2.507.159,2.963.159,5.933.193,8.9.228,4.793.055,9.593.035,14.386.1.124,0-.387-.691-.58-.691H562.194c-.691,0-1.457-.166-2.162-.173a3.66,3.66,0,0,0-2.624.912,3.384,3.384,0,0,0-1.243,2.659c-.159,2.3,0,4.641,0,6.941V249.3c0,1.885,0,3.778-.076,5.663-.055,1.119.062,2.611-.732,3.508-.1.11.78.242.9.124,1.8-1.816,3.578-3.66,5.394-5.463.815-.8,1.008-1.146,2.148-1.146h18.516a14.021,14.021,0,0,1,3.039.186,3.453,3.453,0,0,0,2.638-.9c1.236-.96,1.381-2.252,1.381-3.709v-16.81c.048-.5.1-.988.166-1.485a2.942,2.942,0,0,0-.249-1.575,5.214,5.214,0,0,0-.794-1.243c-.767-.9-1.381-.9-2.459-1.119C585.945,225.309,586.387,225.965,586.587,226.006Z" transform="translate(-554.405 -224.179)"/><path class="b" d="M586.844,226.823c3.06.691,2.59,2.376,2.438,4.1q-.2,2.134-.283,4.275c-.124,3.2-.166,6.409-.207,9.614q0,2.072-.048,4.185c0,1.43.069.9-1.588,2.279-1.809,1.512-1.174,1.319-3.046,1.174-1.6-.131-3.211-.159-4.834-.193-3.812-.069-7.6-.09-11.437-.111h-4.386a5.328,5.328,0,0,0-1.029,0,5.756,5.756,0,0,0-.691.691c-.794.815-1.6,1.63-2.4,2.431q-1.948,1.934-3.875,3.9l.477.062c.076-1.8.407-3.6.49-5.408.145-3.3.18-6.609.228-9.911s.062-6.561.083-9.842V230.4a7.981,7.981,0,0,1,0-1.464c0-.1,3.343-2.8,3.377-2.8a18.172,18.172,0,0,1,2.652.228c2.839.186,5.67.256,8.509.311,5.173.1,10.36.055,15.512.159.124,0-.366-.649-.552-.649H568.611c-1.83,0-3.653,0-5.477-.055a23.113,23.113,0,0,1-3.032-.256,3.163,3.163,0,0,0-2.493.794,3.543,3.543,0,0,0-1.105,2.562c-.18,2.6,0,5.283-.041,7.894q0,6.309-.131,12.632c-.041,1.941-.09,3.881-.228,5.822-.076,1.112.083,2.693-.691,3.605-.11.131.38.18.456.1,1.789-1.865,3.6-3.7,5.373-5.573.8-.85,1-1.347,2.182-1.34l6.368.041c5.138.035,10.27.076,15.4.373a.477.477,0,0,0,.242.138,2.183,2.183,0,0,0,1.333-.131,3.944,3.944,0,0,0,1.229-.739c1.457-1.257,1.285-2.942,1.285-4.683,0-4.752,0-9.51.062-14.269a10.177,10.177,0,0,1,.283-2.887,3.356,3.356,0,0,0-.048-1.257,3.522,3.522,0,0,0-.242-.553,6.11,6.11,0,0,0-.691-1.077c-.767-.912-1.381-.9-2.424-1.126C586.2,226.139,586.644,226.782,586.844,226.823Z" transform="translate(-554.419 -224.389)"/><path class="b" d="M586.207,225.152c3.35.691,2.839,2.873,2.7,4.772-.083,1.229-.152,2.452-.207,3.681-.138,3.2-.124,6.416-.166,9.614a45.908,45.908,0,0,1-.055,5.159c-.428,3.453-4.834,2.6-6.906,2.493-1.616-.083-3.232-.131-4.834-.166-3.453-.083-6.906-.124-10.36-.159l-3.515-.035a3.626,3.626,0,0,0-1.022,0,7.857,7.857,0,0,0-.691.836c-.753.856-1.561,1.664-2.369,2.472-1.278,1.278-2.562,2.555-3.805,3.874l.939.1a6.483,6.483,0,0,1-.048-2.072c.055-1.45.131-2.908.193-4.365.145-3.391.221-6.789.276-10.187.055-3.177.083-6.361.11-9.538V228.82a8.046,8.046,0,0,1,0-1.471l3.122-2.631.891.076c.822.069,1.644.117,2.473.152,2.949.138,5.9.145,8.854.173,4.793.035,9.586,0,14.379.069.159,0-.173-.4-.3-.4-6.216,0-12.431,0-18.647-.055-1.747,0-3.5,0-5.249-.069-.753,0-1.54-.221-2.265-.235a3.536,3.536,0,0,0-2.459.8,3.343,3.343,0,0,0-1.3,2.072,27.874,27.874,0,0,0-.138,5.732v13.343c0,2.072.034,4.185,0,6.271l-.145,2.935a3.453,3.453,0,0,1-.691,2.141c-.1.111.787.256.912.131,2.072-2.01,4-4.1,6.105-6.043.691-.628,1.209-.511,2.072-.511h17.943a15.683,15.683,0,0,1,3.011.18,3.453,3.453,0,0,0,2.687-.919,4.182,4.182,0,0,0,1.229-3.536V233.309c0-1.381,0-2.763.1-4.089a3.633,3.633,0,0,0,0-2.072,3.724,3.724,0,0,0-.691-1.188,3.556,3.556,0,0,0-2.39-1.146C585.765,224.717,586.1,225.132,586.207,225.152Z" transform="translate(-554.287 -223.947)"/><path class="b" d="M561.191,225.509a2.59,2.59,0,0,0,.856.173c1.077.111,2.169.131,3.253.18,3.039.152,6.091.145,9.13.173,4.434,0,8.868,0,13.295.076.18,0,.055-.249-.055-.249-4.427,0-8.861,0-13.288-.048-2.763,0-5.525,0-8.239-.083-1.174-.035-2.362-.09-3.536-.18a5.7,5.7,0,0,1-1.457-.2S561.157,225.5,561.191,225.509Z" transform="translate(-556.199 -224.234)"/><path class="b" d="M586.5,225.024c3.681.76,2.694,4.455,2.576,6.734-.124,2.486-.145,4.986-.173,7.48,0,1.823-.041,3.64-.055,5.463,0,2.251.622,6.036-3.287,6.3l-2.231-.173-3.294-.18c-2.072-.076-4.144-.111-6.216-.145-3.875-.062-7.756,0-11.624-.138h-.048a20.322,20.322,0,0,1-3.453,3.75c-1.181,1.14-2.265,2.272-3.363,3.453l.8.1a8.429,8.429,0,0,1,0-2.072c.076-1.464.186-2.928.256-4.4.145-3.391.228-6.8.29-10.194q.083-4.779.117-9.545v-2.818a8.046,8.046,0,0,1,0-1.471l3.992-2.507,1.112.083c1,.069,2.017.1,3.025.131,2.4.076,4.8.09,7.2.111,4.793.041,9.579,0,14.372.069.159,0-.18-.4-.3-.4-6.561,0-13.122,0-19.69-.076a46.935,46.935,0,0,1-4.931-.076,10.921,10.921,0,0,0-2.113-.18,3.039,3.039,0,0,0-1.816.691,3.453,3.453,0,0,0-1.291,1.547,5.042,5.042,0,0,0-.262,2.162v17.515c0,2.348.055,4.7-.062,7.045-.062,1.291.11,3.211-.753,4.3-.111.138.691.235.773.138,1.837-1.816,3.626-3.681,5.525-5.463.829-.8,1.07-1.14,2.217-1.14h6.347c5.007,0,10.007-.041,15.008.083a1.062,1.062,0,0,0,.29.117,2.921,2.921,0,0,0,1.381-.159,4.011,4.011,0,0,0,1.153-.691,3.55,3.55,0,0,0,1.229-2.763c.193-4.178,0-8.412.041-12.6a50.436,50.436,0,0,1,.138-5.96,3.453,3.453,0,0,0,0-2.072,3.674,3.674,0,0,0-.691-1.181,3.47,3.47,0,0,0-2.39-1.146C586.04,224.582,586.392,225,586.5,225.024Z" transform="translate(-554.375 -223.915)"/><path class="b" d="M587.7,226.381c3.315.725,2.459,3.2,2.328,5.187-.069,1.022-.11,2.072-.145,3.073-.117,3.453-.117,6.906-.145,10.4v3.35c.159,1.07-.4,1.809-1.692,2.224q-.691,1.754-2.072,1.471a17.148,17.148,0,0,1-3.011-.18c-1.941-.083-3.888-.1-5.829-.124q-5.076-.055-10.146-.076h-3a3.494,3.494,0,0,0-.656,0,8.665,8.665,0,0,0-1.271,1.381q-1.077,1.119-2.176,2.2c-1.126,1.133-2.245,2.258-3.356,3.4l.186.117a21.017,21.017,0,0,0,.428-3.654c.276-3.135.338-6.285.414-9.434.076-3.453.124-6.906.166-10.325l.041-4.372a17.471,17.471,0,0,1,0-2.479v-.242l2.763-2.631,1.892.166c.414.048.836.076,1.257.1,2.832.18,5.656.249,8.488.3,5.166.09,10.36.048,15.5.152.1,0-.47-.746-.691-.746h-23.8c-.691,0-1.381-.2-2.072-.228a3.571,3.571,0,0,0-2.645.856,3.253,3.253,0,0,0-1.229,2.624c-.159,2.293,0,4.634,0,6.906,0,4.531,0,9.061-.055,13.6,0,1.92-.062,3.833-.207,5.753a11.428,11.428,0,0,1-.463,3.571c-.055.1.11.186.18.117,1.8-1.872,3.626-3.716,5.428-5.587.815-.843,1.057-1.34,2.252-1.333l6.361.035q4.268,0,8.543.076a54.623,54.623,0,0,1,6.292.214c1.381.173,2.341.276,3.453-.725,1.34-1.236,1.126-2.908,1.133-4.531,0-4.772,0-9.545.117-14.317a10.7,10.7,0,0,1,.3-2.963,3.122,3.122,0,0,0-.062-1.236,3.235,3.235,0,0,0-.256-.573,6.082,6.082,0,0,0-.691-1.091,3.48,3.48,0,0,0-2.479-1.174C586.98,225.6,587.463,226.326,587.7,226.381Z" transform="translate(-554.755 -224.25)"/><path class="b" d="M585.8,225.343c3.453.691,2.908,2.479,2.763,4.254-.09,1.14-.152,2.279-.221,3.419-.207,3.453-.193,6.989-.235,10.47,0,1.216,0,2.431-.048,3.647a9.293,9.293,0,0,1,0,1.519c-.628,3.5-3.37,2.631-5.421,2.493-1.43-.1-2.859-.159-4.289-.207-3.495-.1-7-.152-10.5-.193l-4.234-.048a9.782,9.782,0,0,0-2.134,0,3.334,3.334,0,0,0-.476.58c-.518.649-1.126,1.236-1.706,1.837-1.554,1.616-3.17,3.177-4.717,4.834l.974.09a6.637,6.637,0,0,1,0-2.155c.09-1.416.131-2.845.193-4.268.138-3.391.2-6.789.249-10.187q.062-4.765.09-9.517V229.1c0-1.83-.235-4.109,3.315-4.144,1.043,0,2.127.173,3.17.214,2.949.131,5.9.145,8.847.166,4.793.035,9.593,0,14.386.062.173,0,.055-.242-.055-.242-5.891-.035-11.782,0-17.667-.083a67.547,67.547,0,0,1-6.906-.145,11.34,11.34,0,0,0-2.459-.173,2.908,2.908,0,0,0-1.92.85,3.584,3.584,0,0,0-1.1,2.611c-.193,2.956,0,5.995,0,8.978,0,3.84,0,7.68-.083,11.52,0,1.9,0,3.826-.124,5.725-.062,1.16.055,2.687-.884,3.55-.09.083.808.269.946.131,1.809-1.816,3.6-3.667,5.435-5.463.649-.628.939-1.064,1.816-1.16a43.627,43.627,0,0,1,4.752,0h8.4c2.369,0,4.834-.186,7.217.035a6.815,6.815,0,0,0,2.866.124,5.186,5.186,0,0,0,1.209-.691,3.612,3.612,0,0,0,1.381-2.928c.1-1.616,0-3.281,0-4.9v-7.721q0-2.417.1-4.834c0-1.015.373-2.072.048-3.094-.47-1.492-1.609-1.989-3.011-2.286C585.583,225.06,585.686,225.316,585.8,225.343Z" transform="translate(-554.167 -224.048)"/><path class="b" d="M556.968,257.306c1.043-5.346.891-10.974,1.015-16.4.076-3.453.117-6.948.159-10.429v-2.5c0-1.381-.062-.87,1.485-2.176s1.05-1.271,2.459-1.133c.849.083,1.692.152,2.548.193,2.956.145,5.912.173,8.861.207,4.793.055,9.586.041,14.379.1.145,0-.228-.456-.366-.456-6.216,0-12.432,0-18.647-.083-1.747,0-3.495,0-5.235-.083-.691,0-1.492-.283-2.072-.318a3.37,3.37,0,0,0-2.417.628c-2.148,1.381-1.658,4.013-1.658,6.216v12.673a104.243,104.243,0,0,1-.58,13.619C556.878,257.465,556.968,257.334,556.968,257.306Z" transform="translate(-554.883 -223.882)"/><path class="b" d="M587.314,225.468c3.315.691,2.59,3.267,2.472,5.214-.062,1.029-.1,2.072-.138,3.08-.111,3.453-.1,6.906-.124,10.408v3.35c.166,1.07-.394,1.823-1.664,2.258q-.691,1.789-2.12,1.513c-3-.228-6.009-.311-9.02-.366-3.384-.062-6.775-.09-10.166-.117h-3a2.423,2.423,0,0,0-.691,0,10.638,10.638,0,0,0-1.229,1.464c-.691.753-1.43,1.492-2.155,2.224-1.119,1.133-2.238,2.265-3.336,3.419l.525.076c.041-1.513.131-3.025.262-4.524.276-3.246.3-6.52.373-9.773.083-3.363.124-6.734.159-10.1V230.2a17.437,17.437,0,0,1,.035-2.479v-.249l3.971-2.479c.822,0,1.706.124,2.528.166,2.963.145,5.933.18,8.9.214,4.793.062,9.593.041,14.393.111.117,0-.387-.642-.573-.642H566.988c-1.616,0-3.26.083-4.876,0a7.862,7.862,0,0,0-2.542-.145,4.413,4.413,0,0,0-1.423.78,3.633,3.633,0,0,0-1.443,2.852c-.166,2.638,0,5.352,0,7.984,0,4.531.041,9.054,0,13.578,0,1.754,0,3.495-.166,5.242a7.084,7.084,0,0,1-.483,2.818c-.09.173.428.186.5.111,1.823-1.816,3.612-3.674,5.442-5.484.843-.836,1.077-1.2,2.258-1.2h14.89a54.612,54.612,0,0,1,6.216.117,3.613,3.613,0,0,0,3.246-.739,4.294,4.294,0,0,0,1.195-3.453c0-4.593,0-9.179.076-13.764,0-1.029.035-2.072.069-3.087a8.09,8.09,0,0,1,.214-1.678,2.555,2.555,0,0,0-.311-1.651,6.381,6.381,0,0,0-.691-1.091c-.78-.912-1.381-.9-2.445-1.133C586.685,224.805,587.093,225.427,587.314,225.468Z" transform="translate(-554.62 -224.008)"/><path class="b" d="M586.2,250.717c-4.144-.47-8.288-.428-12.431-.483-3.529-.041-7.065,0-10.6-.117h-.034a9.3,9.3,0,0,1-1.575,1.913c-1,1.07-2.072,2.072-3.066,3.149l-.78.8c-.345.366-.691.725-1.05,1.084,0,0,.083-.062.062-.1a13.748,13.748,0,0,0,.269-1.851l.131-1.45c.235-2.4.345-4.786.435-7.19.18-4.876.249-9.752.311-14.635,0-1.381,0-2.811.048-4.213v-.939l2.763-2.514a7.5,7.5,0,0,1,1.747.2c1.195.111,2.4.159,3.6.193,7.162.207,14.331.124,21.493.193.214,0,0-.29-.11-.29-6.216-.062-12.473-.041-18.709-.124-1.754,0-3.515-.035-5.27-.111-.78,0-1.457-.3-2.245-.352a3.681,3.681,0,0,0-3.847,2.839,27.729,27.729,0,0,0-.131,5.719v13.3c0,2.645-.035,5.27-.256,7.908a12.164,12.164,0,0,1-.442,3.578v.145c1.264-1.292,2.548-2.569,3.819-3.861a33.065,33.065,0,0,1,2.4-2.424c1-.822,1.581-.615,2.825-.615,3.861,0,7.714,0,11.575.048a88.7,88.7,0,0,1,9.089.345S586.249,250.724,586.2,250.717Z" transform="translate(-554.764 -223.779)"/><path class="b" d="M586.282,225.549c3.4.691,2.687,3.329,2.555,5.339-.069,1.043-.124,2.072-.166,3.142-.152,3.453-.145,6.906-.186,10.394,0,1.119,0,2.238-.035,3.357,0,1.658.18.843-2.072,2.286a2.956,2.956,0,0,1-3.315,1.229l-1.471-.069c-1.961-.1-3.93-.145-5.891-.18-3.391-.062-6.775-.1-10.166-.131h-3a2.761,2.761,0,0,0-.691,0,11.251,11.251,0,0,0-1.305,1.519c-.691.753-1.43,1.485-2.162,2.21-1.133,1.126-2.258,2.265-3.356,3.419l1,.1a5.611,5.611,0,0,1-.1-2.072q.069-2.176.166-4.351c.138-3.391.207-6.782.262-10.18.048-3.177.076-6.354.1-9.538v-2.811a8.046,8.046,0,0,1,0-1.471l3.115-2.659.919.069c.829.062,1.658.117,2.486.159,2.956.145,5.919.166,8.875.193,4.8.048,9.593,0,14.386.09.152,0-.262-.518-.414-.518H566.1a39.138,39.138,0,0,1-6.368-.242,3.122,3.122,0,0,0-2.438.767,3.26,3.26,0,0,0-1.2,1.457,5.167,5.167,0,0,0-.262,2.162v22.853q0,1.954-.124,3.916a3.294,3.294,0,0,1-.691,2.127c-.1.1.836.269.974.131,1.81-1.8,3.584-3.64,5.415-5.422.822-.787,1.029-1.126,2.162-1.126H582.1a13.424,13.424,0,0,1,2.977.173,3.142,3.142,0,0,0,2.251-.642,3.743,3.743,0,0,0,1.747-3.218c.18-4.192,0-8.44,0-12.639v-3.419a19.121,19.121,0,0,1,.166-2.942,4.144,4.144,0,0,0-.214-1.582,4.239,4.239,0,0,0-.773-1.209c-.843-.9-1.285-.856-2.41-1.091C585.757,225,586.123,225.514,586.282,225.549Z" transform="translate(-554.299 -224.067)"/><path class="b" d="M561.64,225.938a124.255,124.255,0,0,0,14.165.477c4.061.041,8.129,0,12.2.083.214,0,0-.29-.1-.29l-12.2-.014a113.62,113.62,0,0,1-14.054-.394Z" transform="translate(-556.351 -224.374)"/><path class="b" d="M589.131,232.908c-.076,4.213-.1,8.426-.131,12.639,0,.642.055,1.381,0,2.072-.414,3.688-3.073,2.949-4.966,2.811-7.259-.552-14.5-.352-21.81-.587h-.041a8.324,8.324,0,0,1-1.305,1.651c-.822.9-1.671,1.761-2.521,2.631-.953.988-1.927,1.961-2.859,2.97l.47.076a32.593,32.593,0,0,0,.373-3.654c.3-3.564.4-7.134.483-10.7.083-3.363.131-6.734.166-10.1q0-2.072.048-4.1a10.166,10.166,0,0,1,0-1.892,23.484,23.484,0,0,1,3.177-2.638,13.6,13.6,0,0,1,1.823.186c3.011.228,6.057.173,9.075.2,5.152.041,10.3,0,15.45.062.048,0,.159-.145.083-.145-5.9-.062-11.8-.041-17.7-.124-1.851,0-3.716-.035-5.525-.111a10.678,10.678,0,0,1-2.763-.256,2.99,2.99,0,0,0-2.694.546c-2.017,1.381-1.554,4.033-1.561,6.14v19.393a26.142,26.142,0,0,1-.918,7.114c-.11.152.38.186.449.11,1.119-1.112,2.245-2.224,3.35-3.356.691-.691,1.423-1.443,2.148-2.155.407-.4.96-1.119,1.582-1.229a16.578,16.578,0,0,1,2.617,0h4.462c3.75,0,7.514-.062,11.264.048a30.982,30.982,0,0,1,3.4.124,4.833,4.833,0,0,0,1.54.1,3.136,3.136,0,0,0,2.548-1.816c.6-1.347.283-3.308.3-4.71q0-5.615.131-11.237C589.283,232.908,589.131,232.908,589.131,232.908Z" transform="translate(-554.441 -223.747)"/><path class="b" d="M587.935,226.057c3.308.691,2.41,3.8,2.3,5.857-.173,3.336-.166,6.692-.193,10.035,0,2.217.152,4.517-.041,6.727-.311,3.536-3.287,3.094-5.352,2.984-6.685-.366-13.4-.242-20.084-.29a2.693,2.693,0,0,0-1.084.062,11.679,11.679,0,0,1-.863.981c-.373.394-.753.78-1.133,1.167-.753.767-1.513,1.519-2.265,2.286-.345.359-2.176,2.314-2.251,2.258a15.109,15.109,0,0,1,.255-1.865c.18-1.754.325-3.508.394-5.27.276-7.2.352-14.407.428-21.61a8.706,8.706,0,0,1,0-1.471c.552-3.06,2.362-2.611,4.047-2.459,2.714.256,5.442.345,8.17.4,5.877.124,11.741.076,17.632.186.11,0-.435-.691-.642-.691H567.568c-1.561,0-3.274.111-4.834-.041a6.272,6.272,0,0,0-2.583-.18,5.525,5.525,0,0,0-1.312.691,3.453,3.453,0,0,0-1.437,2.666c-.2,2.3,0,4.745,0,7.045V248c0,1.989.041,4-.152,5.988a19.307,19.307,0,0,1-.47,4.406c0,.034,0,.214.048.138,1.816-1.872,3.647-3.723,5.456-5.594.691-.691.981-1.209,1.906-1.34h4.765c2.8,0,5.6,0,8.4.062s5.629,0,8.412.262c1.271.117,2.314.3,3.391-.691,1.3-1.188,1.105-2.866,1.112-4.441.034-4.793,0-9.586.159-14.379a12.155,12.155,0,0,1,.331-3.073v-.055a2.444,2.444,0,0,0-.214-1.513,5.144,5.144,0,0,0-.781-1.25,3.485,3.485,0,0,0-2.459-1.174,1.692,1.692,0,0,0,.629.711Z" transform="translate(-554.847 -224.134)"/><path class="b" d="M559.856,226.154a24.446,24.446,0,0,1,3.888.18c3.2.186,6.4.249,9.614.29,4.834.069,9.614.041,14.414.131.152,0-.207-.456-.345-.456H573.047c-2.908,0-5.822,0-8.73-.111a31.255,31.255,0,0,0-4.537-.159S559.815,226.161,559.856,226.154Z" transform="translate(-555.775 -224.438)"/><path class="b" d="M586.771,226.281c3.184.691,2.493,3.971,2.39,5.967-.076,1.43-.131,2.852-.166,4.289-.083,3.129-.11,6.257-.145,9.386a24.072,24.072,0,0,1-.041,3.232v.256l-4.144,2.618c-.642-.055-1.3-.1-1.948-.124-.829-.041-1.664-.076-2.5-.1-1.727-.048-3.453-.076-5.187-.1-3.267-.055-6.54-.076-9.807-.1a12.9,12.9,0,0,0-2.631,0c-.256.062-.187,0-.4.138a10.7,10.7,0,0,0-1.216,1.319c-.691.746-1.443,1.471-2.169,2.2-1.133,1.133-2.265,2.272-3.377,3.453l.808.09V256.7l.083-1.492q.145-2.445.214-4.876.145-4.655.2-9.3t.083-9.206v-2.5c0-1.381-.076-.856,1.568-2.272.483-1.05,1.16-1.485,2.072-1.305l1.057.083c.932.076,1.872.124,2.8.173,3.046.152,6.091.173,9.137.207,4.427.048,8.861,0,13.288.1.11,0-.435-.691-.635-.691H562.992c-.953,0-1.892-.173-2.832-.18a3.536,3.536,0,0,0-2.562.843,3.453,3.453,0,0,0-1.285,2.562c-.18,1.989,0,4.1,0,6.091v12.369c0,2.624.041,5.3-.117,7.908-.076,1.112.048,2.611-.691,3.522-.111.131.691.235.787.124,1.8-1.83,3.591-3.681,5.394-5.525.808-.822,1-1.188,2.155-1.188h18.592a15.121,15.121,0,0,1,3.108.221,3.377,3.377,0,0,0,2.535-.829c1.285-.939,1.471-2.279,1.471-3.764V230.964c.076-.483.138-.974.187-1.464a2.763,2.763,0,0,0-.249-1.6,5.464,5.464,0,0,0-.8-1.257,3.408,3.408,0,0,0-2.479-1.14C586.081,225.529,586.55,226.24,586.771,226.281Z" transform="translate(-554.429 -224.261)"/><path class="b" d="M557.242,255.422c.532-6.154.442-12.39.5-18.557q0-3.363.055-6.72c0-1.63-.1-1.126,1.616-2.7,1.872-1.713.919-1.526,2.6-1.381,8.564.856,17.225.456,25.816.642.11,0-.435-.691-.642-.691H569.577c-1.561,0-3.129,0-4.689-.035l-2.148-.055-1.492-.214a3.246,3.246,0,0,0-2.072.47c-1.8,1.043-1.678,2.866-1.685,4.717q0,5.87-.055,11.741c-.035,4.261,0,8.543-.345,12.791Z" transform="translate(-554.943 -224.34)"/><path class="b" d="M586.737,225.757c3.218.691,2.562,3.95,2.459,5.96q-.1,2.141-.159,4.289c-.076,3.129-.1,6.257-.131,9.386a25.238,25.238,0,0,1,0,3.232v.256l-4.144,2.673c-.691-.055-1.312-.1-1.975-.124l-2.569-.111c-1.713-.048-3.453-.076-5.138-.1-3.274-.055-6.547-.083-9.821-.111a12.294,12.294,0,0,0-2.617,0c-.283.062-.18,0-.4.138a11.912,11.912,0,0,0-1.2,1.381c-.691.746-1.43,1.471-2.155,2.2-1.133,1.126-2.258,2.265-3.363,3.453l.9.083a5.723,5.723,0,0,1-.1-2.072c.048-1.457.138-2.915.193-4.372.117-3,.187-5.995.242-8.978q.083-4.931.117-9.869v-3.129a10.092,10.092,0,0,1,0-1.885c0-.856.691-1.326,2.01-1.416a2.459,2.459,0,0,1,2.576-1.25c.939.076,1.878.111,2.818.152,3.039.131,6.085.152,9.13.186,4.427.048,8.854,0,13.288.09.11,0-.408-.691-.6-.691h-19.7c-1.588,0-3.253.09-4.834,0a6.987,6.987,0,0,0-2.6-.055,5.071,5.071,0,0,0-1.3.691,3.626,3.626,0,0,0-1.464,2.763c-.193,2.307,0,4.745,0,7.051v12.507c0,1.975.034,3.944,0,5.912,0,1.285.152,3.184-.691,4.268-.1.124.76.235.877.124,1.816-1.809,3.591-3.654,5.421-5.442.822-.794,1.029-1.126,2.169-1.126h14.9c1.706,0,3.453-.083,5.138,0a8.03,8.03,0,0,0,2.873.035,5.422,5.422,0,0,0,1.209-.732c1.264-.939,1.437-2.265,1.437-3.736V231.987a15.43,15.43,0,0,1,.166-2.88,3.875,3.875,0,0,0-.242-1.63,5.035,5.035,0,0,0-.8-1.243,3.387,3.387,0,0,0-2.466-1.126C586.081,225.053,586.53,225.709,586.737,225.757Z" transform="translate(-554.45 -224.11)"/><path class="b" d="M574.083,245.656v-3.35a.1.1,0,0,0-.1-.1q-.525.048-1.057.083c.048,0,.11.041.159.048q.974-.117.746.691v2.68C573.835,245.884,574.083,245.76,574.083,245.656Z" transform="translate(-559.843 -229.45)"/><path class="b" d="M573.734,245.646V242.3a.11.11,0,0,0-.1-.1l-.995.069c-.069,0,.1.055.124.062.649-.1.9.124.739.691v2.68C573.506,245.833,573.734,245.757,573.734,245.646Z" transform="translate(-559.749 -229.447)"/><path class="b" d="M574.454,245.377v-3.35c0-.048-.062-.055-.1-.048-.366.041-.732.083-1.1.111-.083,0,.076.076.09.076.995.124.76.5.76,1.381v2.03C574.081,245.764,574.454,245.487,574.454,245.377Z" transform="translate(-559.938 -229.378)"/><path class="b" d="M573.678,243.967v-3.343c0-.041,0-.062-.055-.055a20.843,20.843,0,0,1-4.4.207s-.083,0-.083.069v.421c0,.111.131,0,.145-.048.166-.573,3.384-.2,3.605.09s.076,1.167.076,1.588v1.664C572.959,244.686,573.678,244.154,573.678,243.967Z" transform="translate(-558.671 -228.942)"/><path class="b" d="M573.582,243.657v-3.343c0-.041,0-.062-.055-.055a20.265,20.265,0,0,1-4.434.18.083.083,0,0,0-.083.076v1.16a.692.692,0,0,0,.069-.131c-.041-.566.138-.822.539-.76a16.5,16.5,0,0,1,1.754,0c.352,0,1.216,0,1.381.38a6.764,6.764,0,0,1,0,1.83v1.312C572.8,244.431,573.582,243.865,573.582,243.657Z" transform="translate(-558.631 -228.846)"/><path class="b" d="M573.316,243.324v-3.35c0-.041,0-.062-.055-.055a21.844,21.844,0,0,1-4.455.152c-.055,0-.076,0-.076.083v1.195c0,.083.09-.083.09-.111.173-1.008.76-.78,1.533-.774.442,0,1.8-.117,2.072.262s.083,1.174.083,1.582v1.664C572.549,244.118,573.316,243.531,573.316,243.324Z" transform="translate(-558.544 -228.741)"/><path class="b" d="M569.114,242.15h-.235s-.145.055-.145.083a8.931,8.931,0,0,0,0,.96c0-.048.055-.1.055-.159a1.084,1.084,0,0,1,.18-.8C569.01,242.212,569.066,242.143,569.114,242.15Z" transform="translate(-558.541 -229.432)"/><path class="b" d="M572.943,243.147V239.8c0-.041,0-.062-.062-.055a25.332,25.332,0,0,1-4.462.083c-.069,0-.069.041-.069.1,0,.691.035,1.381.048,2.072h0c.1-.9-.083-1.568.939-1.616a7.128,7.128,0,0,1,2.424.076c.635.214.421.691.421,1.34v2.01C572.176,243.886,572.943,243.375,572.943,243.147Z" transform="translate(-558.426 -228.689)"/><path class="b" d="M568.3,245v.739s.048.138.083.138h.338s-.083-.1-.124-.1c-.262-.111-.338-.325-.214-.642C568.355,245.1,568.3,245,568.3,245Z" transform="translate(-558.411 -230.313)"/><path class="b" d="M572.527,243.185v-3.336c0-.041,0-.062-.055-.055a29.01,29.01,0,0,1-4.448,0,.048.048,0,0,0-.069,0c0,1.43,0,2.859-.035,4.289,0,0,0,.111.069.111h.359c.1,0,0-.117-.069-.124-.283-.076-.207-.449-.214-.691a9.669,9.669,0,0,1,.166-2.631c.131-.394.124-.38.539-.449a8.68,8.68,0,0,1,1.692-.041c.767,0,1.381-.145,1.381.725v2.666C571.85,243.889,572.527,243.385,572.527,243.185Z" transform="translate(-558.293 -228.698)"/><path class="b" d="M572.005,243.359v-3.35a.062.062,0,0,0-.035-.035,40.671,40.671,0,0,1-4.4-.055c-.034,0-.055,0-.069.035,0,1.464,0,2.908-.062,4.372,0,0,.041.083.069.083a9.465,9.465,0,0,0,1.084,0c-.048,0-.11-.041-.159-.048-.691-.1-.635,0-.78-.532a6.173,6.173,0,0,1,0-1.782c0-.366,0-1.216.29-1.423a3.129,3.129,0,0,1,1.326-.173h1.485c.691,0,.608-.055.739.421a6.9,6.9,0,0,1,0,1.6v1.319C571.494,243.926,572.005,243.5,572.005,243.359Z" transform="translate(-558.145 -228.742)"/><path class="b" d="M571.582,243.6v-3.35a.076.076,0,0,0-.055-.055c-1.45-.048-2.894,0-4.337-.131a.055.055,0,0,0-.069.041c0,1.471,0,2.921-.11,4.392a.1.1,0,0,0,.083.083,8.542,8.542,0,0,0,1.112,0c.069,0-.1-.069-.124-.069l-.76-.3v-.849a14.8,14.8,0,0,1,.055-1.568c0-.394-.055-.9.352-1.112a4.33,4.33,0,0,1,1.609-.111,7.848,7.848,0,0,1,1.381,0c.5.09.49.117.49.628v2.68C571.2,244.03,571.582,243.713,571.582,243.6Z" transform="translate(-558.012 -228.784)"/><path class="b" d="M571.311,244v-3.343c0-.035,0-.09-.055-.1-1.423-.1-2.845,0-4.268-.18a.055.055,0,0,0-.069.041c-.055,1.464,0,2.921-.138,4.392,0,.048.041.069.083.069h1.92c-.29,0-1.257,0-1.54-.283s-.131-1.678-.11-2.106-.048-1.181.235-1.381a3.087,3.087,0,0,1,1.34-.193c.511,0,1.022-.035,1.54-.035.691,0,.594-.083.753.345a5.655,5.655,0,0,1,0,1.6v1.319C571.027,244.309,571.311,244.109,571.311,244Z" transform="translate(-557.941 -228.883)"/><path class="b" d="M568.722,242.32h-.242s-.138.048-.138.076c-.083,1.381-.048,2.721-.242,4.082,0,.048.055.069.09.069,1.381.207,2.811.1,4.206.283.173,0-.124-.573-.256-.559a14.43,14.43,0,0,1-1.443.069,6.53,6.53,0,0,1-2.072-.048c-.559-.338-.3-3.874-.083-3.888A1.21,1.21,0,0,0,568.722,242.32Z" transform="translate(-558.349 -229.484)"/><path class="b" d="M571.678,244.934v-3.35a.069.069,0,0,0-.055-.055c-1.381,0-2.763.048-4.144-.09a.055.055,0,0,0-.069.041c-.124,1.416-.048,2.845-.221,4.261a.055.055,0,0,0,.041.069c1.381.1,2.763,0,4.192.138.18,0-.083-.477-.193-.47a19.235,19.235,0,0,1-2.072.048c-1.195-.055-1.326.159-1.381-.78a16.749,16.749,0,0,1,0-1.768c0-.587-.09-.863.47-1.029s2.8-.359,3.1.1V245.2C571.292,245.362,571.678,245.051,571.678,244.934Z" transform="translate(-558.067 -229.211)"/><path class="b" d="M572.67,244.48v-3.336c0-.041,0-.062-.062-.055a24.677,24.677,0,0,1-4.227.062.055.055,0,0,0-.069.035c-.069,1.381,0,2.763-.152,4.144a.055.055,0,0,0,.041.062c1.381.173,2.763.069,4.144.228.145,0-.152-.642-.345-.615s-2.984.283-3.184.041a1.444,1.444,0,0,1-.186-.939,15.555,15.555,0,0,1,0-1.8c.048-.622.069-.587.691-.622.5,0,2.355-.249,2.6.276a7.369,7.369,0,0,1,0,1.83v1.374C571.917,245.261,572.663,244.715,572.67,244.48Z" transform="translate(-558.367 -229.103)"/><path class="b" d="M571.2,244.771v-3.343a.1.1,0,0,0-.1-.1c-1.381-.1-2.763,0-4.144-.173a.055.055,0,0,0-.069.035c-.11,1.45-.048,2.894-.221,4.337a.055.055,0,0,0,.041.069c1.381.069,2.811,0,4.22.1.152,0,.041-.262-.069-.262a19.393,19.393,0,0,1-2.97-.069q-.843.124-.642-.787a4.752,4.752,0,0,1-.1-1.464v-.753q-.166-.829.767-.691a9.593,9.593,0,0,1,2.265-.18h.552q.311,0,.207.331a5.7,5.7,0,0,1,0,1.609v1.312C571,244.916,571.2,244.888,571.2,244.771Z" transform="translate(-557.906 -229.124)"/><path class="b" d="M573.718,246.374h.256c.055,0,.173-.131.076-.124h-.214S573.691,246.367,573.718,246.374Z" transform="translate(-560.086 -230.7)"/><path class="b" d="M572.849,243.67v-3.336c0-.048,0-.062-.055-.055a23.626,23.626,0,0,1-4.365.083h-.069c0,1.416,0,2.811-.09,4.22a.09.09,0,0,0,.076.083c1.34.111,2.694.048,4.04.18.159,0-.035-.38-.152-.373-.463.048-.925.069-1.381.076s-1.671.193-2.113-.083-.283-3.191.069-3.453a5.721,5.721,0,0,1,3.184.111c.276.338.062,1.181.062,1.568v1.664C572.048,244.471,572.849,243.891,572.849,243.67Z" transform="translate(-558.402 -228.852)"/><path class="b" d="M571.08,244.458v-3.343a.165.165,0,0,0-.1-.1c-1.381-.1-2.763-.035-4.144-.2a.055.055,0,0,0-.069.035c-.1,1.464-.041,2.921-.2,4.379,0,.062.048.069.09.076,1.381.041,2.763,0,4.144.055.048,0,.18-.117.083-.117h-1.064a15.4,15.4,0,0,1-2.03-.111l-.566-.1c-.373-.276-.207-1.112-.214-1.464a6.287,6.287,0,0,1,.1-2.072l2.272-.359h.773c.691,0,.635-.111.8.338a5.655,5.655,0,0,1,0,1.6V244.4C570.928,244.493,571.08,244.569,571.08,244.458Z" transform="translate(-557.876 -229.019)"/><path class="b" d="M572.42,244.127v-3.343c0-.041,0-.062-.055-.055a26.685,26.685,0,0,1-4.268,0c-.041,0-.062,0-.069.041-.048,1.381,0,2.8-.117,4.206a.069.069,0,0,0,.041.069c1.381.131,2.721.048,4.082.18.173,0-.11-.511-.228-.5a17.419,17.419,0,0,1-2.072.069c-.221,0-1.126.069-1.333-.2a6.167,6.167,0,0,1-.048-1.885c0-.325-.062-1.07.276-1.271s2.8-.256,3.039.186c.173.338,0,1.105,0,1.478v1.664C571.653,244.894,572.42,244.369,572.42,244.127Z" transform="translate(-558.29 -228.992)"/><path class="b" d="M572.9,244.733V241.4c0-.048,0-.062-.055-.055a24.083,24.083,0,0,1-4.234.1c-.055,0-.069.041-.076.09-.069,1.381,0,2.714-.166,4.082a.069.069,0,0,0,.041.069c1.381.193,2.763.076,4.144.255.138,0-.173-.656-.373-.628s-3.011.3-3.225.055a1.463,1.463,0,0,1-.2-.953,16.913,16.913,0,0,1,0-1.872c.055-.649,0-.691.691-.691.518,0,2.507-.256,2.763.311a7.369,7.369,0,0,1,0,1.83V245.3C572.21,245.438,572.9,244.92,572.9,244.733Z" transform="translate(-558.432 -229.184)"/><path class="b" d="M567.686,242.46c-.117,1.381-.083,2.763-.3,4.144a.055.055,0,0,0,.041.069c1.423.152,2.873.069,4.3.214.173,0-.069-.456-.186-.449-.463.035-.932.055-1.381.055s-2.072.166-2.334-.29a5.4,5.4,0,0,1-.09-2.072,14.156,14.156,0,0,1,.11-1.706C567.81,242.349,567.686,242.425,567.686,242.46Z" transform="translate(-558.129 -229.507)"/><path class="b" d="M573.325,244.25v-3.336c0-.041,0-.062-.055-.055a21.059,21.059,0,0,1-4.323.159.069.069,0,0,0-.076.076c0,1.381,0,2.763-.111,4.089a.1.1,0,0,0,.076.083c1.381.18,2.721.083,4.075.269.166,0-.124-.553-.256-.532-.456.062-.919.076-1.381.1a5.366,5.366,0,0,1-2.072-.035c-.463-.249-.359-3.26,0-3.571s3.025-.207,3.308.166.055,1.181.055,1.582V244.9C572.552,245.017,573.325,244.458,573.325,244.25Z" transform="translate(-558.553 -229.032)"/><path class="b" d="M569.547,247.034a25.881,25.881,0,0,1,3.73.228c.159,0,0-.366-.138-.352a19.571,19.571,0,0,1-3.709,0S569.506,247.034,569.547,247.034Z" transform="translate(-558.761 -230.904)"/><path class="b" d="M571.63,244.508v-3.35a.069.069,0,0,0-.062-.055,40.708,40.708,0,0,1-4.192-.083h-.069c-.083,1.437,0,2.852-.187,4.282,0,.041,0,.062.041.069,1.381.09,2.763,0,4.144.124.173,0-.048-.414-.159-.407-.442,0-.884.055-1.319.055h-.787c-.836.311-1.271.159-1.312-.449a3.881,3.881,0,0,1-.09-1.72c.035-1.174-.18-1.3.746-1.381.442-.041,2.507-.352,2.763.1a7.164,7.164,0,0,1,0,1.844v1.312C571.181,245.026,571.63,244.646,571.63,244.508Z" transform="translate(-558.046 -229.082)"/><path class="b" d="M571.9,245.293v-3.343a.083.083,0,0,0-.055-.062,37.085,37.085,0,0,1-4.144-.048c-.055,0-.069.048-.069.09-.138,1.381-.062,2.763-.249,4.144a.055.055,0,0,0,.042.069c1.381.138,2.825.048,4.227.18.18,0-.124-.559-.249-.546-.449.041-.9.062-1.381.069a4.758,4.758,0,0,1-1.692-.069q-.918,0-.477-1.381v-.746c0-.228-.1-1.195.18-1.381l.511-.048a17.474,17.474,0,0,1,1.9-.041c.3,0,.891-.124,1.057.207a7.164,7.164,0,0,1,0,1.844v1.312C571.551,245.68,571.9,245.4,571.9,245.293Z" transform="translate(-558.125 -229.336)"/><path class="b" d="M572.694,245.095v-3.35a.048.048,0,0,0-.055-.055,26.481,26.481,0,0,1-4.185.083.089.089,0,0,0-.083.076c-.083,1.381-.035,2.763-.2,4.144a.069.069,0,0,0,.041.062c1.381.193,2.763.083,4.185.256.145,0-.159-.649-.359-.622a16.27,16.27,0,0,1-2.659.069c-.732-.035-.76,0-.8-.656a17.038,17.038,0,0,1,0-1.879c0-.283-.069-.877.2-1.077a6.237,6.237,0,0,1,2.01-.048,1.789,1.789,0,0,1,1.057.159c.29,0,.408.117.331.366a5.194,5.194,0,0,1,0,1.6v1.319C572.2,245.661,572.694,245.24,572.694,245.095Z" transform="translate(-558.371 -229.289)"/><path class="b" d="M572.109,244.8v-3.363c0-.041,0-.055-.055-.055a34.071,34.071,0,0,1-4.2,0,.055.055,0,0,0-.069.041c-.1,1.381,0,2.8-.187,4.206a.055.055,0,0,0,.041.069c1.381.131,2.763.041,4.144.173.18,0-.145-.6-.269-.587s-3.032.262-3.211,0a1.085,1.085,0,0,1-.159-.629,16.185,16.185,0,0,1,0-2.072c0-.442,0-.511.435-.615a7.8,7.8,0,0,1,1.651-.062h.691c.477-.055.691.09.594.428a5.026,5.026,0,0,1,0,1.609v1.319C571.529,245.412,572.109,244.957,572.109,244.8Z" transform="translate(-558.193 -229.193)"/><path class="b" d="M568.935,242.268l-.808-.048s-.11,0-.117.062c-.117,1.381-.069,2.763-.269,4.144a.069.069,0,0,0,.042.062c1.381.173,2.852.076,4.268.242.173,0-.117-.553-.242-.539a17.612,17.612,0,0,1-2.176.069c-1.188-.035-1.43.221-1.492-.76a19.772,19.772,0,0,1,0-2.307c.035-.649,0-.8.691-.849C568.845,242.337,569.011,242.275,568.935,242.268Z" transform="translate(-558.238 -229.453)"/><path class="b" d="M572.05,243.968v-3.343c0-.041,0-.055-.055-.055a35.441,35.441,0,0,1-4.282,0c-.041,0-.062,0-.069.035-.035,1.43,0,2.839-.124,4.261a.055.055,0,0,0,.041.069c1.381.1,2.721,0,4.082.138.173,0,0-.38-.145-.373-.442,0-.884.048-1.333.055a6.1,6.1,0,0,1-2.031-.124c-.269-.228-.18-1.05-.18-1.305,0-.428-.1-1.8.332-2.024s2.845-.331,3.094.111c.18.325,0,1.112,0,1.478v1.658C571.38,244.659,572.05,244.148,572.05,243.968Z" transform="translate(-558.169 -228.943)"/><path class="b" d="M570.775,241.675a27.205,27.205,0,0,1-3.75-.145.074.074,0,0,0-.076.083c-.131,1.423-.069,2.845-.269,4.268a.069.069,0,0,0,.041.069c1.423.076,2.845,0,4.268.1.152,0,0-.276-.076-.276-.739,0-1.471.048-2.21,0-.366,0-1.278.062-1.485-.338a4.191,4.191,0,0,1-.076-1.637,8,8,0,0,1,.048-1.381c.076-.421.048-.421.449-.532a11.782,11.782,0,0,1,3.232-.083C570.955,241.779,570.817,241.675,570.775,241.675Z" transform="translate(-557.91 -229.24)"/><path class="b" d="M572.368,243.75v-3.336c0-.041,0-.062-.055-.055a29.233,29.233,0,0,1-4.33,0h-.069c0,1.43,0,2.832-.083,4.254,0,.055.041.069.083.076,1.333.1,2.68.041,4.02.152.166,0,0-.373-.138-.359-.456.035-.9.055-1.381.055a6.368,6.368,0,0,1-2.072-.111c-.3-.228-.173-2.072-.173-2.072,0-.359-.048-1.119.325-1.333s2.859-.276,3.1.173c.18.338,0,1.105,0,1.478v1.664C571.622,244.51,572.368,243.958,572.368,243.75Z" transform="translate(-558.266 -228.877)"/><path class="b" d="M573.128,244.942v-3.357c0-.035,0-.055-.055-.055a23.371,23.371,0,0,1-4.227.145s-.083.041-.083.069c-.069,1.381,0,2.721-.173,4.082,0,.041.048.069.076.076,1.381.207,2.763.1,4.144.29.166,0-.159-.615-.3-.6a17.266,17.266,0,0,1-2.535.11c-.3,0-.891.124-1.091-.18-.262-.421-.159-3.4.214-3.605a8.625,8.625,0,0,1,2.763.138c.553-.117.787,0,.691.407a4.981,4.981,0,0,1,0,1.6v1.312C572.561,245.529,573.121,245.094,573.128,244.942Z" transform="translate(-558.501 -229.24)"/><path class="b" d="M572.46,246.957h.221c.035,0,.138-.1.131-.1H572.6Z" transform="translate(-559.698 -230.889)"/><path class="b" d="M571.57,244.165v-3.35a.076.076,0,0,0-.055-.055c-1.423-.041-2.825.048-4.241-.111-.041,0-.062,0-.069.041-.062,1.443,0,2.88-.166,4.323a.069.069,0,0,0,.041.069c1.381.069,2.763,0,4.144.1.152,0,0-.269-.076-.262h-1.381c-.47,0-1.692.138-2.072-.166s-.193-1-.193-1.381-.145-1.72.221-2.072a5.973,5.973,0,0,1,3.35-.1c.276.29.076,1.174.076,1.554v1.671C571.156,244.649,571.57,244.3,571.57,244.165Z" transform="translate(-558.021 -228.968)"/><path class="b" d="M569.457,246.754a27.755,27.755,0,0,1,3.709.207c.145,0,0-.318-.11-.311a19.083,19.083,0,0,1-3.716,0S569.423,246.754,569.457,246.754Z" transform="translate(-558.733 -230.824)"/><path class="b" d="M572.968,244.069v-3.336c0-.048,0-.069-.055-.055a21.865,21.865,0,0,1-4.3.1.055.055,0,0,0-.069.041c0,1.381,0,2.763-.11,4.144a.074.074,0,0,0,.083.076c1.333.173,2.7.069,4.04.235.173,0-.117-.539-.249-.525-.442.055-.9.076-1.381.09a5.056,5.056,0,0,1-2.017-.055c-.421-.256-.3-3.122,0-3.391a5.545,5.545,0,0,1,3.129.138c.262.331.055,1.195.055,1.575v1.664C572.166,244.884,572.968,244.3,572.968,244.069Z" transform="translate(-558.451 -228.975)"/><path class="b" d="M573.311,246.564a3.362,3.362,0,0,1,.829.069c.138,0,.131-.2.035-.193a5.543,5.543,0,0,0-.753.035C573.394,246.474,573.235,246.557,573.311,246.564Z" transform="translate(-559.955 -230.759)"/><path class="b" d="M571.973,244.358v-3.363c0-.041,0-.062-.055-.055a37.635,37.635,0,0,1-4.234,0,.055.055,0,0,0-.069.041c-.062,1.423,0,2.825-.166,4.241a.055.055,0,0,0,.041.069c1.381.1,2.763,0,4.144.138.173,0-.083-.477-.2-.463-.456,0-.9.041-1.381.048a10.357,10.357,0,0,1-1.906-.1l-.152-.635a9.669,9.669,0,0,1,0-1.948c.062-.691,0-.691.691-.739.463-.041.926-.055,1.381-.055a1.857,1.857,0,0,1,.953.1c.269,0,.366.09.29.325a5.184,5.184,0,0,1,0,1.6v1.319C571.33,245.007,571.973,244.523,571.973,244.358Z" transform="translate(-558.147 -229.056)"/><path class="b" d="M568.061,241.966a7.405,7.405,0,0,1-.87-.076c-.048,0-.11,0-.117.069-.138,1.416-.09,2.832-.3,4.247a.055.055,0,0,0,.041.069c1.43.09,2.866.035,4.3.131.159,0,0-.311-.1-.311h-1.381c-.449,0-2.072.117-2.348-.352v-.525a19.931,19.931,0,0,1,0-2.314c0-.656,0-.815.732-.877C567.971,242.076,568.143,242,568.061,241.966Z" transform="translate(-557.937 -229.351)"/><path class="b" d="M573.41,246.357h.235c.048,0,.186-.117.1-.117h-.2A.338.338,0,0,0,573.41,246.357Z" transform="translate(-559.992 -230.697)"/><path class="b" d="M573.425,244.555v-3.35c0-.041,0-.055-.055-.055a21.89,21.89,0,0,1-4.3.186.1.1,0,0,0-.09.069c0,1.347,0,2.693-.117,4.04a.1.1,0,0,0,.069.111c1.381.193,2.763.11,4.109.311.166,0-.124-.566-.262-.546a13.522,13.522,0,0,1-1.381.1,7.088,7.088,0,0,1-2.127-.035c-.366-.214-.221-.629-.228-.995a15.736,15.736,0,0,1,.055-2.072.587.587,0,0,1,.159-.691c.394-.352,3.246-.29,3.515.269a5.657,5.657,0,0,1,0,1.837v1.312C572.762,245.225,573.425,244.728,573.425,244.555Z" transform="translate(-558.584 -229.122)"/><path class="b" d="M568.428,242.189a7.153,7.153,0,0,1-.856-.069c-.041,0-.11,0-.117.069-.138,1.381-.09,2.8-.3,4.2a.069.069,0,0,0,.041.069c1.43.124,2.866.048,4.3.173.18,0-.048-.421-.159-.414-.463,0-.925.048-1.381.048s-2.072.138-2.307-.3a6.123,6.123,0,0,1-.083-2.072c0-.691-.249-1.561.739-1.637A.54.54,0,0,0,568.428,242.189Z" transform="translate(-558.055 -229.422)"/><path class="b" d="M572.312,245.024v-3.35a.048.048,0,0,0-.055-.055,31.141,31.141,0,0,1-4.144,0,.055.055,0,0,0-.069.041c-.11,1.381-.041,2.763-.214,4.178a.069.069,0,0,0,.041.069c1.381.159,2.763.055,4.185.207.173,0-.166-.642-.3-.628a16.926,16.926,0,0,1-2.072.09,5.939,5.939,0,0,1-.925-.048c-.311-.048-.5-.173-.352-.691a8.77,8.77,0,0,1-.1-1.754c0-1.022-.138-.967,1.381-1.064a6.313,6.313,0,0,1,1.443,0c.546.1.622.186.622.691V245.4C571.753,245.611,572.312,245.176,572.312,245.024Z" transform="translate(-558.265 -229.267)"/><path class="b" d="M568.595,245.714c-.041.553-.076,1.105-.145,1.658,0,0,.048.069.076.076,1.381.207,2.8.111,4.192.311.166,0-.131-.58-.262-.559a19.843,19.843,0,0,1-2.245.09,10.154,10.154,0,0,1-1.3-.055c-.49-.249-.587-.691-.29-1.381C568.65,245.817,568.6,245.652,568.595,245.714Z" transform="translate(-558.457 -230.53)"/><path class="b" d="M572.342,244.48v-3.336c0-.041,0-.062-.055-.055a28.777,28.777,0,0,1-4.227,0s-.055,0-.069.041c-.069,1.381,0,2.763-.152,4.185a.055.055,0,0,0,.041.069c1.381.145,2.763.048,4.144.186.173,0-.152-.6-.283-.587a14.412,14.412,0,0,1-2.617.048c-.787.145-1.043-.29-.767-1.3v-.691c0-.3-.055-1.015.159-1.216s1.091-.111,1.2-.111a11.5,11.5,0,0,1,1.381.041c.573.041.477,0,.552.442a17.69,17.69,0,0,1,0,2.9C571.624,245.219,572.342,244.688,572.342,244.48Z" transform="translate(-558.268 -229.103)"/><path class="b" d="M583.9,245.656v-3.35c0-.048,0-.1-.09-.1h-.449c-.124,0,0,.138.069.152.47.09.221,2.852.221,3.308C583.656,245.884,583.9,245.76,583.9,245.656Z" transform="translate(-563.055 -229.45)"/><path class="b" d="M583.221,245.646V242.3a.1.1,0,0,0-.09-.1l-1.188.069c-.062,0,.1.055.124.055,1.133.083.932.269.932,1.319v2.03C583,245.833,583.221,245.757,583.221,245.646Z" transform="translate(-562.628 -229.447)"/><path class="b" d="M583.908,245.377v-3.35c0-.048-.069-.055-.1-.048-.428.048-.856.083-1.292.111-.083,0,.1.076.124.076,1.112.117.919.387.919,1.381v2.03C583.536,245.764,583.908,245.487,583.908,245.377Z" transform="translate(-562.803 -229.378)"/><path class="b" d="M583.306,243.967v-3.343c0-.041,0-.062-.055-.055a22.514,22.514,0,0,1-4.261.2s-.083,0-.09.062v.428c0,.111.138,0,.152,0,.2-.691,1.637-.2,2.238-.159a1.547,1.547,0,0,1,.877.193c.449,0,.594.214.449.635V244.6C582.595,244.686,583.313,244.154,583.306,243.967Z" transform="translate(-561.69 -228.942)"/><path class="b" d="M583.2,243.658v-3.336q0-.069-.062-.062a22.26,22.26,0,0,1-4.289.18.076.076,0,0,0-.09.069,10.949,10.949,0,0,0,0,1.167.652.652,0,0,0,.076-.124c.138-.808.29-.767,1.036-.767.5,0,2.072-.159,2.452.283s.1,1.14.1,1.588v1.664C582.43,244.431,583.2,243.865,583.2,243.658Z" transform="translate(-561.643 -228.847)"/><path class="b" d="M583,243.324v-3.35c0-.041,0-.062-.055-.055a24.3,24.3,0,0,1-4.31.152c-.055,0-.083,0-.09.076a11.606,11.606,0,0,0,0,1.2c0,.083.09-.083.1-.1.186-1.043,1.1-.78,1.878-.753.29,0,1.513-.069,1.72.338a5.427,5.427,0,0,1,0,1.83v1.312C582.2,244.118,583,243.531,583,243.324Z" transform="translate(-561.575 -228.741)"/><path class="b" d="M578.933,242.16h-.3s-.145.035-.145.062a5.733,5.733,0,0,0,0,.974c0-.048.055-.1.062-.152a.787.787,0,0,1,.255-.815A.585.585,0,0,1,578.933,242.16Z" transform="translate(-561.557 -229.435)"/><path class="b" d="M582.531,243.147V239.8c0-.041,0-.062-.055-.055a27.2,27.2,0,0,1-4.31.083c-.062,0-.076,0-.076.09v2.072h0a10.9,10.9,0,0,1,.2-1.381,1.091,1.091,0,0,1,.946-.2h.863a13.524,13.524,0,0,1,1.492.1c.373.276.221.891.221,1.319v2.01C581.806,243.886,582.531,243.375,582.531,243.147Z" transform="translate(-561.44 -228.689)"/><path class="b" d="M578,245v.739s.048.138.083.138h.4s-.09-.1-.124-.1q-.47-.124-.269-.642C578.062,245.1,578,245,578,245Z" transform="translate(-561.412 -230.313)"/><path class="b" d="M582.144,243.19v-3.336c0-.041,0-.062-.055-.055a30.66,30.66,0,0,1-4.289,0c-.069,0-.076,0-.076.09-.062,1.381,0,2.818-.1,4.227,0,0,0,.111.069.111h.421c.1,0-.035-.117-.069-.124-.338-.069-.269-.394-.269-.691a15.88,15.88,0,0,1,.124-2.362c.055-.38.048-.539.394-.691a4.835,4.835,0,0,1,1.892,0c.3,0,.919-.069,1.167.145s.117.615.117.884v2.341C581.467,243.895,582.144,243.391,582.144,243.19Z" transform="translate(-561.294 -228.704)"/><path class="b" d="M581.616,243.35V240a.048.048,0,0,0-.055-.055,41.231,41.231,0,0,1-4.234-.041.055.055,0,0,0-.076,0c-.083,1.443,0,2.887-.131,4.33,0,.035,0,.111.069.117h1.271c-.055,0-.11-.041-.166-.048-.539-.062-.822,0-.96-.532a4.779,4.779,0,0,1,0-1.381,3.74,3.74,0,0,1,.186-1.761c.276-.38,1-.228,1.381-.242a9.169,9.169,0,0,1,1.63,0c.546.1.573.09.573.649v2.68C581.1,243.916,581.616,243.495,581.616,243.35Z" transform="translate(-561.14 -228.732)"/><path class="b" d="M581.218,243.6v-3.35a.076.076,0,0,0-.062-.055c-1.381-.035-2.763,0-4.144-.117a.048.048,0,0,0-.069,0c-.1,1.457-.055,2.921-.173,4.386a.088.088,0,0,0,.076.076h1.292c.069,0-.1-.062-.117-.069l-.953-.3v-2.03a3.721,3.721,0,0,1,.152-1.333c.256-.38,1.008-.242,1.381-.262s1.844-.235,2.12.062.131.552.131.877v2.355C580.838,244.031,581.218,243.713,581.218,243.6Z" transform="translate(-561.031 -228.785)"/><path class="b" d="M578.545,242.33h-.3s-.145.035-.145.062c-.124,1.381-.069,2.728-.276,4.089,0,.048.055.069.083.069,1.347.159,2.707.1,4.054.262.18,0-.083-.539-.2-.532-.587.055-1.188.069-1.782.069-.38,0-1.43.138-1.685-.131-.4-.428-.255-3.8.1-3.819A.892.892,0,0,1,578.545,242.33Z" transform="translate(-561.356 -229.487)"/><path class="b" d="M581.3,244.935v-3.35a.076.076,0,0,0-.055-.055c-1.34,0-2.666.041-4-.076a.062.062,0,0,0-.076,0c-.173,1.381-.076,2.839-.269,4.254a.055.055,0,0,0,.042.069c1.347.083,2.7,0,4.054.131.186,0-.055-.477-.159-.47-.428,0-.856.041-1.292.041a7.867,7.867,0,0,1-1.14-.048c-.691.2-.96-.041-.863-.691a8.484,8.484,0,0,1-.1-2.134c0-.539.069-.566.587-.691a8.577,8.577,0,0,1,1.927-.048c.815,0,.96-.09.96.635v2.68C580.912,245.363,581.3,245.052,581.3,244.935Z" transform="translate(-561.07 -229.212)"/><path class="b" d="M582.283,244.48v-3.336c0-.041,0-.062-.055-.055a26.934,26.934,0,0,1-4.089.062s-.055,0-.076.035c-.117,1.381-.041,2.763-.193,4.144a.062.062,0,0,0,.041.062c1.319.138,2.645.069,3.964.207.159,0-.11-.608-.29-.594a15.934,15.934,0,0,1-1.616.083c-.29,0-1.43.159-1.616-.159a9.7,9.7,0,0,1-.048-1.188,9.873,9.873,0,0,1,0-1.43c.041-.5.069-.525.566-.6a8.661,8.661,0,0,1,1.892,0c.5.041.628,0,.746.477a14.541,14.541,0,0,1,0,2.9C581.53,245.261,582.283,244.715,582.283,244.48Z" transform="translate(-561.372 -229.103)"/><path class="b" d="M580.836,244.781v-3.343a.111.111,0,0,0-.1-.1c-1.319-.069-2.631,0-3.95-.152-.062,0-.076.035-.083.083-.166,1.416-.083,2.845-.276,4.268a.069.069,0,0,0,.041.069c1.381.055,2.721,0,4.082.1.159,0,.055-.276-.048-.276H578.73c-.394,0-1.381.062-1.671-.235s-.173-1.582-.159-2.072-.1-1.2.345-1.478l.691-.055c.442,0,.884-.055,1.326-.055.29,0,1.222-.186,1.381.111a7.49,7.49,0,0,1,0,1.844V244.8C580.636,244.926,580.836,244.9,580.836,244.781Z" transform="translate(-560.926 -229.135)"/><path class="b" d="M583.13,246.347h.325c.048,0,.173-.117.09-.117h-.283a.359.359,0,0,0-.131.117Z" transform="translate(-562.999 -230.694)"/><path class="b" d="M582.466,243.67v-3.336c0-.048,0-.062-.062-.055a25.982,25.982,0,0,1-4.213.083c-.069,0-.069,0-.076.09-.076,1.381-.041,2.763-.145,4.144a.1.1,0,0,0,.076.076c1.305.083,2.6.048,3.9.166.166,0,0-.359-.11-.352-.594.041-1.195.062-1.789.062-.2,0-1.575.111-1.8-.228s0-1.209,0-1.575c0-.49-.083-1.43.29-1.74s1.167-.1,1.547-.1c.262,0,1.381-.083,1.589.29s0,1.443,0,1.83v1.312C581.665,244.471,582.466,243.891,582.466,243.67Z" transform="translate(-561.402 -228.852)"/><path class="b" d="M580.7,244.469v-3.343a.166.166,0,0,0-.1-.1c-1.333-.083-2.659,0-3.992-.18-.055,0-.069.035-.076.083-.145,1.437-.076,2.88-.256,4.31,0,.062.048.069.09.069,1.326.041,2.652,0,3.985.062.069,0,.18-.131.083-.131a22.1,22.1,0,0,1-2.763-.083c-.559-.062-.773-.035-.946-.553a5.656,5.656,0,0,1,0-1.775c0-.477-.083-1.25.387-1.54l.691-.062c.449-.035.9-.048,1.34-.055.311,0,1.278-.207,1.45.1a7.428,7.428,0,0,1,0,1.837v1.292C580.548,244.5,580.7,244.579,580.7,244.469Z" transform="translate(-560.88 -229.03)"/><path class="b" d="M582.011,244.127v-3.343c0-.041,0-.062-.055-.055a30.423,30.423,0,0,1-4.144,0h-.069c-.1,1.381-.041,2.8-.173,4.206a.069.069,0,0,0,.041.069c1.312.1,2.624.055,3.944.173.18,0-.076-.5-.187-.49-.559.048-1.119.069-1.685.062-.18,0-1.423.1-1.637-.2a6.535,6.535,0,0,1,.173-3.1c.283-.256,1.153-.1,1.492-.1s1.312-.09,1.513.242,0,1.464,0,1.83v1.312C581.258,244.894,582.011,244.369,582.011,244.127Z" transform="translate(-561.279 -228.992)"/><path class="b" d="M582.521,244.733V241.4c0-.048,0-.062-.062-.055a26.152,26.152,0,0,1-4.1.1c-.055,0-.076,0-.083.076-.1,1.381-.048,2.763-.2,4.1a.069.069,0,0,0,.041.069c1.319.152,2.652.076,3.978.228.152,0-.117-.622-.3-.6a14.557,14.557,0,0,1-1.644.09c-.29,0-1.457.18-1.658-.159a6.692,6.692,0,0,1-.055-1.961c0-.345-.062-1.119.214-1.319a3.66,3.66,0,0,1,1.561-.1l.829.041c.594-.076.856.09.78.5a5.138,5.138,0,0,1,0,1.6v1.305C581.83,245.438,582.521,244.92,582.521,244.733Z" transform="translate(-561.436 -229.184)"/><path class="b" d="M577.431,242.466c-.138,1.381-.1,2.763-.331,4.144a.069.069,0,0,0,.041.069c1.381.124,2.763.076,4.144.2.187,0,0-.442-.138-.435a22.02,22.02,0,0,1-2.7,0c-.546,0-.78,0-.946-.5a7.479,7.479,0,0,1-.055-1.837,12.925,12.925,0,0,1,.138-1.713S577.431,242.418,577.431,242.466Z" transform="translate(-561.133 -229.506)"/><path class="b" d="M582.935,244.25v-3.336c0-.041,0-.062-.062-.055a22.848,22.848,0,0,1-4.178.152.083.083,0,0,0-.09.076c-.076,1.381,0,2.707-.145,4.061,0,.048,0,.111.069.117,1.305.138,2.617.09,3.93.249.18,0-.076-.511-.193-.5a18.306,18.306,0,0,1-2.217.09c-.332,0-1.146.166-1.347-.18s-.042-1.216-.035-1.616c0-.78-.117-1.733,1.036-1.906a7.425,7.425,0,0,1,1.658.069c.691.069.691,0,.8.532a14.038,14.038,0,0,1,0,2.9C582.169,245.017,582.935,244.458,582.935,244.25Z" transform="translate(-561.554 -229.032)"/><path class="b" d="M579.337,247.033a28.531,28.531,0,0,1,3.522.214c.159,0,0-.332-.09-.318a23.427,23.427,0,0,1-3.55,0S579.3,247.033,579.337,247.033Z" transform="translate(-561.789 -230.91)"/><path class="b" d="M581.252,244.509v-3.35c0-.035,0-.048-.055-.055-1.381,0-2.693.055-4.047-.076a.048.048,0,0,0-.069.035c-.145,1.423-.069,2.852-.242,4.275a.055.055,0,0,0,.041.069c1.34.069,2.68,0,4.02.117.18,0,0-.407-.131-.407a19.147,19.147,0,0,1-2.438,0c-.691.193-.967-.048-.863-.691a2.763,2.763,0,0,1-.124-1.029,3.62,3.62,0,0,1,.09-1.568c.207-.338.946-.2,1.278-.214a7.372,7.372,0,0,1,1.561,0c.525.09.511.1.511.628v2.68C580.783,245.027,581.252,244.647,581.252,244.509Z" transform="translate(-561.052 -229.083)"/><path class="b" d="M581.532,245.315v-3.343a.083.083,0,0,0-.055-.062c-1.326,0-2.638.076-3.964,0-.048,0-.076,0-.083.076-.166,1.381-.083,2.763-.29,4.144a.069.069,0,0,0,.048.069c1.381.11,2.714.055,4.075.173.186,0-.09-.546-.2-.539-.559.041-1.126.055-1.692.055-.925.4-1.457.269-1.588-.4a1.65,1.65,0,0,1-.138-1.05,5.364,5.364,0,0,1,0-1.727c-.062-.3.09-.421.463-.366a2.762,2.762,0,0,1,1.3-.152c.311,0,1.278-.138,1.547.048s.214.311.214.635v2.68C581.187,245.7,581.532,245.425,581.532,245.315Z" transform="translate(-561.146 -229.357)"/><path class="b" d="M582.314,245.095v-3.35c0-.035,0-.055-.062-.055a28.319,28.319,0,0,1-4.047.083.076.076,0,0,0-.083.069c-.124,1.381-.062,2.763-.242,4.144a.069.069,0,0,0,.041.069c1.333.152,2.687.083,4.026.235.159,0-.11-.615-.29-.594-.421.041-.836.062-1.257.069s-1.706.186-1.982-.1a5.229,5.229,0,0,1,0-3.17c0-.338.152-.456.47-.373a2.328,2.328,0,0,0,.76,0,6.375,6.375,0,0,1,2.127.276v3.163C581.775,245.661,582.314,245.24,582.314,245.095Z" transform="translate(-561.375 -229.289)"/><path class="b" d="M581.732,244.8v-3.363c0-.041,0-.055-.055-.055a35.953,35.953,0,0,1-4.047,0,.055.055,0,0,0-.076.035c-.152,1.381-.055,2.8-.235,4.206a.048.048,0,0,0,.042.062c1.333.111,2.673.055,4.013.166.186,0-.11-.58-.221-.573-.421.035-.836.055-1.257.062a8.544,8.544,0,0,1-1.112,0c-.649.207-.926,0-.836-.691a8.332,8.332,0,0,1-.1-2.072c0-.511.062-.525.566-.622a7.508,7.508,0,0,1,1.526,0,2.617,2.617,0,0,1,1.188.2v3.108C581.145,245.411,581.732,244.955,581.732,244.8Z" transform="translate(-561.201 -229.191)"/><path class="b" d="M578.893,242.285a6.172,6.172,0,0,1-1.015-.055s-.117,0-.124.055c-.159,1.381-.09,2.763-.3,4.144a.069.069,0,0,0,.041.069c1.381.138,2.763.083,4.144.228.186,0-.076-.532-.187-.525a19.3,19.3,0,0,1-2.528,0c-.843-.035-.995.1-1.043-.691v-1.54c0-1.381-.173-1.561.96-1.63C578.79,242.327,578.956,242.285,578.893,242.285Z" transform="translate(-561.242 -229.456)"/><path class="b" d="M581.651,243.961v-3.343c0-.041,0-.055-.062-.055a35.7,35.7,0,0,1-4.144,0,.048.048,0,0,0-.069,0c-.1,1.423-.048,2.832-.186,4.254a.055.055,0,0,0,.041.069c1.312.076,2.631.041,3.95.138.173,0,0-.387-.117-.38-.573.035-1.146.055-1.72.041-.207,0-1.471.076-1.685-.249a5.622,5.622,0,0,1,.214-3.135c.3-.269,1.16-.124,1.519-.131.207,0,1.381-.124,1.568.193a6.02,6.02,0,0,1,0,1.83V244.5C580.988,244.652,581.651,244.141,581.651,243.961Z" transform="translate(-561.16 -228.936)"/><path class="b" d="M580.343,241.681a27.53,27.53,0,0,1-3.543-.131.09.09,0,0,0-.09.076c-.166,1.416-.1,2.845-.311,4.261a.048.048,0,0,0,.042.062c1.381.069,2.763.035,4.144.1.166,0,.048-.283-.055-.283a23.371,23.371,0,0,1-2.693-.048c-1.133-.111-.919-.5-.939-1.54,0-.553-.269-1.955.29-2.314q.808-.083,1.616-.1h1.664C580.515,241.785,580.377,241.681,580.343,241.681Z" transform="translate(-560.916 -229.246)"/><path class="b" d="M582.02,243.749v-3.336c0-.041,0-.062-.055-.055a32.337,32.337,0,0,1-4.144,0,.048.048,0,0,0-.069.035c-.083,1.381-.041,2.825-.152,4.247,0,.048.041.069.083.069,1.291.083,2.583.048,3.881.152.173,0,0-.366-.11-.359-.573.041-1.16.062-1.74.048-.366,0-1.381.09-1.623-.166-.325-.359-.145-1.519-.124-1.989s-.041-1.105.387-1.333,2.763-.235,2.949.173a7.108,7.108,0,0,1,0,1.837v1.305C581.26,244.508,582.02,243.956,582.02,243.749Z" transform="translate(-561.288 -228.876)"/><path class="b" d="M582.735,244.941v-3.357a.048.048,0,0,0-.055-.055,26.242,26.242,0,0,1-4.1.145s-.083,0-.09.062c-.1,1.381-.048,2.721-.207,4.089,0,.041.048.069.083.076,1.312.159,2.652.1,3.978.262.18,0-.11-.573-.228-.559a18.084,18.084,0,0,1-2.2.09c-.311,0-.932.09-1.209-.1-.449-.318-.131-3.453.062-3.577a2.673,2.673,0,0,1,1.2-.124,5.981,5.981,0,0,1,2.2.332v3.156C582.175,245.529,582.735,245.093,582.735,244.941Z" transform="translate(-561.498 -229.24)"/><path class="b" d="M580.931,244v-3.343c0-.035,0-.09-.062-.1-1.381-.083-2.763,0-4.1-.166a.055.055,0,0,0-.069,0c-.124,1.457-.062,2.921-.207,4.379a.074.074,0,0,0,.083.076c1.312,0,2.624,0,3.944.055,0,0,.18-.1.1-.1a23.574,23.574,0,0,1-2.763-.076c-.559-.062-.787,0-.96-.553a5.789,5.789,0,0,1,0-1.761c0-.5-.062-1.222.414-1.5a4.9,4.9,0,0,1,1.982-.111c.283,0,1.222-.186,1.381.1a7.483,7.483,0,0,1,0,1.844v1.319C580.648,244.311,580.931,244.11,580.931,244Z" transform="translate(-560.945 -228.885)"/><path class="b" d="M581.183,244.169v-3.35a.076.076,0,0,0-.062-.055,40.118,40.118,0,0,1-4.082-.1.048.048,0,0,0-.069.035c-.131,1.437-.062,2.88-.221,4.316a.055.055,0,0,0,.042.069c1.333.055,2.673.035,4.006.1.159,0,.048-.276-.055-.276-.587,0-1.174.041-1.761,0-.38,0-1.381.069-1.651-.214s-.152-1.547-.138-2.037-.069-1.14.366-1.381c.311-.186,3-.318,3.191.055a7.161,7.161,0,0,1,0,1.844v1.312C580.755,244.653,581.183,244.3,581.183,244.169Z" transform="translate(-561.024 -228.972)"/><path class="b" d="M579.247,246.753a28.261,28.261,0,0,1,3.5.193c.145,0,.041-.29-.069-.276a22.556,22.556,0,0,1-3.55,0S579.213,246.753,579.247,246.753Z" transform="translate(-561.761 -230.83)"/><path class="b" d="M582.624,244.069v-3.336c0-.048,0-.069-.055-.055a23.988,23.988,0,0,1-4.144.1c-.069,0-.076,0-.083.09-.083,1.381,0,2.763-.152,4.1a.083.083,0,0,0,.083.076c1.3.131,2.6.076,3.9.214.18,0-.083-.511-.193-.5a18.192,18.192,0,0,1-2.6.062l-.628-.035a.262.262,0,0,1-.228-.373,5.034,5.034,0,0,1,0-1.706c0-.442-.055-1.14.373-1.381s2.763-.152,2.949.29a7.055,7.055,0,0,1,0,1.83v1.312C581.8,244.884,582.624,244.29,582.624,244.069Z" transform="translate(-561.471 -228.975)"/><path class="b" d="M582.5,246.53c.352,0,.691.048,1.05.083.117,0,.152-.173.055-.173-.318,0-.635.035-.953.035C582.61,246.481,582.514,246.53,582.5,246.53Z" transform="translate(-562.804 -230.759)"/><path class="b" d="M581.556,244.352v-3.363c0-.041,0-.062-.055-.055a40.1,40.1,0,0,1-4.075,0,.055.055,0,0,0-.076,0c-.124,1.381-.055,2.825-.221,4.234a.055.055,0,0,0,.041.069c1.326.083,2.652.041,3.978.138.187,0-.055-.477-.159-.47-.428.035-.849.048-1.278.048a12.733,12.733,0,0,1-1.851-.09l-.228-1.278a4.275,4.275,0,0,1,.076-1.658c.2-.442.166-.359.856-.4.532,0,1.064-.035,1.6,0,.746,0,.649-.083.76.414a14.235,14.235,0,0,1,0,2.921C580.941,245,581.556,244.518,581.556,244.352Z" transform="translate(-561.142 -229.051)"/><path class="b" d="M578.048,242.043a9.547,9.547,0,0,1-1.091-.083c-.041,0-.117,0-.124.062-.18,1.381-.117,2.825-.352,4.234a.062.062,0,0,0,.048.062c1.381.083,2.763.048,4.144.131.166,0,0-.318-.076-.311h-1.8a13.815,13.815,0,0,1-1.6-.131.366.366,0,0,1-.256-.456,6.907,6.907,0,0,1,0-2.2c0-.932-.048-1.209.967-1.285Z" transform="translate(-560.942 -229.373)"/><path class="b" d="M582.829,246.343h.311c.048,0,.18-.111.1-.1h-.29S582.808,246.343,582.829,246.343Z" transform="translate(-562.905 -230.697)"/><path class="b" d="M583.042,244.555v-3.35c0-.041,0-.055-.055-.055a24.172,24.172,0,0,1-4.178.18s-.083,0-.09.062c-.083,1.381,0,2.707-.159,4.054,0,.041,0,.111.076.111,1.312.152,2.631.111,3.95.283.18,0-.076-.518-.193-.5a20.387,20.387,0,0,1-2.251.09c-.311,0-.995.09-1.264-.1s-.159-.953-.159-1.3c0-.553-.145-1.941.276-2.348s1.609-.1,2.072-.069a2.39,2.39,0,0,1,1.291.331V245.1C582.379,245.225,583.042,244.728,583.042,244.555Z" transform="translate(-561.585 -229.122)"/><path class="b" d="M577.647,242.175l-.325-.035s-.117,0-.124.062c-.173,1.381-.11,2.8-.338,4.192a.062.062,0,0,0,.041.062c1.381.1,2.763.062,4.144.173.18,0,0-.414-.124-.414a21.129,21.129,0,0,1-2.562,0c-.863-.055-1.008.069-1.057-.753,0-.483-.318-3.094.269-3.156C577.647,242.278,577.758,242.181,577.647,242.175Z" transform="translate(-561.059 -229.429)"/><path class="b" d="M581.91,245.025v-3.35a.048.048,0,0,0-.055-.055,32.766,32.766,0,0,1-4.033,0c-.062,0-.076.035-.083.09-.152,1.381-.062,2.763-.249,4.144a.055.055,0,0,0,.048.062c1.34.131,2.687.069,4.026.2.166,0-.1-.622-.283-.608a15.811,15.811,0,0,1-1.616.069l-1.437-.048-.228-.608a9.114,9.114,0,0,1,0-2.169c0-.532.062-.559.573-.656a8.593,8.593,0,0,1,1.975,0c.518,0,.691-.041.808.456a14.231,14.231,0,0,1,0,2.921C581.357,245.612,581.91,245.177,581.91,245.025Z" transform="translate(-561.254 -229.268)"/><path class="b" d="M578.311,245.714c-.041.539-.083,1.084-.152,1.623a.09.09,0,0,0,.076.111c1.333.159,2.687.111,4.026.283.18,0-.083-.539-.2-.525a12.769,12.769,0,0,1-3.363.035c-.525-.276-.318-.884-.332-1.381C578.366,245.817,578.318,245.652,578.311,245.714Z" transform="translate(-561.46 -230.53)"/><path class="b" d="M581.963,244.473v-3.336c0-.041,0-.062-.062-.055a32.092,32.092,0,0,1-4.075,0,.048.048,0,0,0-.076,0c-.124,1.381-.041,2.763-.2,4.192a.069.069,0,0,0,.041.069c1.319.11,2.652.055,3.971.18.187,0-.11-.587-.221-.58-.421.041-.836.062-1.257.069a14.5,14.5,0,0,1-1.816-.055l-.242-1.264a4.239,4.239,0,0,1,.062-1.651c.193-.435.138-.345.836-.373h1.582c.691,0,.615-.035.739.449a13.57,13.57,0,0,1,0,2.9C581.245,245.212,581.963,244.68,581.963,244.473Z" transform="translate(-561.272 -229.096)"/><path class="b" d="M593.346,245.656v-3.35c0-.048-.035-.1-.09-.1l-1.057.083c.048,0,.11.041.159.048.649-.076.9.152.739.691v2.68C593.1,245.884,593.346,245.76,593.346,245.656Z" transform="translate(-565.805 -229.45)"/><path class="b" d="M593,245.646V242.3a.1.1,0,0,0-.09-.1l-.995.069c-.069,0,.1.055.117.062.656-.1.9.124.746.691v2.68C592.776,245.833,593,245.757,593,245.646Z" transform="translate(-565.711 -229.447)"/><path class="b" d="M593.683,245.377v-3.35c0-.048-.069-.055-.1-.048-.366.041-.732.083-1.1.111-.09,0,.076.076.09.076.988.124.76.5.76,1.381v2.03C593.338,245.764,593.683,245.487,593.683,245.377Z" transform="translate(-565.886 -229.378)"/><path class="b" d="M592.968,243.967v-3.343c0-.041,0-.062-.055-.055a20.774,20.774,0,0,1-4.392.207s-.09,0-.09.069v.421c0,.111.124,0,.138-.048.166-.573,3.391-.2,3.605.09s.083,1.167.083,1.588v1.664C592.235,244.686,592.968,244.154,592.968,243.967Z" transform="translate(-564.638 -228.942)"/><path class="b" d="M592.852,243.658v-3.336q0-.069-.062-.062a20.251,20.251,0,0,1-4.434.18.076.076,0,0,0-.076.076v1.16a.692.692,0,0,0,.069-.131c-.048-.566.131-.822.539-.76a16.52,16.52,0,0,1,1.754,0c.352,0,1.216,0,1.381.38a6.761,6.761,0,0,1,0,1.83v1.312C592.072,244.431,592.852,243.865,592.852,243.658Z" transform="translate(-564.592 -228.847)"/><path class="b" d="M592.583,243.324v-3.35c0-.041,0-.062-.055-.055a21.913,21.913,0,0,1-4.461.152.076.076,0,0,0-.076.083c0,.4,0,.8,0,1.195,0,.083.083-.083.09-.111.173-1.008.753-.78,1.533-.774.442,0,1.789-.117,2.072.262s.076,1.174.076,1.582v1.664C591.816,244.118,592.583,243.531,592.583,243.324Z" transform="translate(-564.502 -228.741)"/><path class="b" d="M588.383,242.15h-.242s-.138.055-.138.083a7.454,7.454,0,0,0,0,.96c0-.048.048-.1.055-.159a1.084,1.084,0,0,1,.18-.8C588.279,242.212,588.335,242.143,588.383,242.15Z" transform="translate(-564.502 -229.432)"/><path class="b" d="M592.156,243.147V239.8c0-.041,0-.062-.055-.055a25.344,25.344,0,0,1-4.462.083c-.069,0-.069.041-.069.1,0,.691,0,1.381.048,2.072h0c.1-.9-.083-1.568.939-1.616a7.093,7.093,0,0,1,2.417.076c.635.214.428.691.428,1.34v2.01C591.431,243.886,592.156,243.375,592.156,243.147Z" transform="translate(-564.372 -228.689)"/><path class="b" d="M587.57,245v.739s.048.138.076.138h.345s-.09-.1-.124-.1c-.269-.111-.338-.325-.214-.642C587.625,245.1,587.57,245,587.57,245Z" transform="translate(-564.372 -230.313)"/><path class="b" d="M591.812,243.185v-3.336c0-.041,0-.062-.055-.055a29.011,29.011,0,0,1-4.448,0,.048.048,0,0,0-.069,0v4.289s0,.111.062.111h.366c.1,0,0-.117-.069-.124-.283-.076-.207-.449-.214-.691a9.669,9.669,0,0,1,.166-2.631c.131-.394.124-.38.532-.449a8.751,8.751,0,0,1,1.7-.041c.767,0,1.381-.145,1.381.725v2.666C591.135,243.889,591.812,243.385,591.812,243.185Z" transform="translate(-564.27 -228.698)"/><path class="b" d="M591.266,243.35V240a.048.048,0,0,0-.055-.055,40.636,40.636,0,0,1-4.4-.055s-.055,0-.069.035c0,1.464,0,2.908-.062,4.372,0,0,.041.083.069.083a9.465,9.465,0,0,0,1.084,0c-.048,0-.11-.041-.159-.048-.691-.1-.635,0-.78-.532a6.17,6.17,0,0,1,0-1.782c0-.366,0-1.215.29-1.423a3.128,3.128,0,0,1,1.326-.173H590c.691,0,.608-.055.739.421a6.9,6.9,0,0,1,0,1.6v1.319C590.755,243.916,591.266,243.5,591.266,243.35Z" transform="translate(-564.097 -228.733)"/><path class="b" d="M590.852,243.6v-3.35a.076.076,0,0,0-.062-.055c-1.45-.048-2.887,0-4.33-.131-.041,0-.062,0-.069.041-.034,1.471,0,2.921-.11,4.392a.1.1,0,0,0,.076.083,8.529,8.529,0,0,0,1.112,0c.076,0-.1-.069-.117-.069l-.76-.3v-.849a14.8,14.8,0,0,1,.055-1.568c.034-.394-.055-.9.352-1.112a4.33,4.33,0,0,1,1.609-.111,7.847,7.847,0,0,1,1.381,0c.5.09.49.117.49.628v2.68C590.472,244.031,590.852,243.713,590.852,243.6Z" transform="translate(-563.973 -228.785)"/><path class="b" d="M590.578,244v-3.343c0-.035,0-.09-.062-.1-1.381-.1-2.839,0-4.261-.18a.055.055,0,0,0-.069.041c-.062,1.464,0,2.921-.145,4.392,0,.048.048.069.09.069h1.92c-.29,0-1.257,0-1.547-.283s-.124-1.678-.11-2.106-.041-1.181.242-1.381a3.087,3.087,0,0,1,1.34-.193c.511,0,1.022-.035,1.533-.035.691,0,.594-.083.76.345a5.655,5.655,0,0,1,0,1.6v1.319C590.294,244.309,590.578,244.109,590.578,244Z" transform="translate(-563.899 -228.883)"/><path class="b" d="M588,242.32h-.242s-.138.048-.138.076c-.083,1.381-.055,2.721-.242,4.082a.077.077,0,0,0,.083.069c1.381.207,2.818.1,4.213.283.173,0-.131-.573-.256-.559-.483.055-.967.062-1.45.069a6.535,6.535,0,0,1-2.072-.048c-.566-.338-.3-3.874-.083-3.888C587.9,242.382,587.96,242.313,588,242.32Z" transform="translate(-564.314 -229.484)"/><path class="b" d="M590.988,244.934v-3.35a.076.076,0,0,0-.055-.055c-1.381,0-2.763.048-4.144-.09a.055.055,0,0,0-.069.041c-.117,1.416-.041,2.845-.221,4.261a.055.055,0,0,0,.041.069c1.381.1,2.8,0,4.2.138.18,0-.083-.477-.2-.47a19.111,19.111,0,0,1-2.072.048c-1.195-.055-1.333.159-1.381-.78,0-.587-.041-1.181,0-1.768s-.1-.863.47-1.029,2.8-.359,3.1.1V245.2C590.574,245.369,590.988,245.051,590.988,244.934Z" transform="translate(-564.04 -229.211)"/><path class="b" d="M591.983,244.48v-3.336c0-.041,0-.062-.055-.055a24.675,24.675,0,0,1-4.227.062.055.055,0,0,0-.069.035c-.069,1.381,0,2.763-.152,4.144a.055.055,0,0,0,.041.062c1.381.173,2.763.069,4.144.228.145,0-.152-.642-.352-.615s-2.977.283-3.184.041a1.492,1.492,0,0,1-.18-.939,14.17,14.17,0,0,1,0-1.8c.048-.622.069-.587.691-.622.5,0,2.348-.249,2.6.276a7.381,7.381,0,0,1,0,1.83v1.374C591.2,245.261,591.983,244.715,591.983,244.48Z" transform="translate(-564.344 -229.103)"/><path class="b" d="M590.467,244.771v-3.343a.11.11,0,0,0-.1-.1c-1.381-.1-2.763,0-4.144-.173a.055.055,0,0,0-.069.035c-.117,1.45-.048,2.894-.228,4.337a.062.062,0,0,0,.041.069c1.381.069,2.818,0,4.227.1.152,0,.041-.262-.069-.262a19.393,19.393,0,0,1-2.97-.069q-.85.124-.642-.787a4.752,4.752,0,0,1-.1-1.464v-.753q-.18-.829.767-.691a9.593,9.593,0,0,1,2.265-.18h.546c.214,0,.283.131.214.331a5.7,5.7,0,0,1,0,1.609v1.312C590.267,244.916,590.467,244.888,590.467,244.771Z" transform="translate(-563.865 -229.124)"/><path class="b" d="M593,246.374h.256c.055,0,.173-.131.076-.124h-.214S593,246.367,593,246.374Z" transform="translate(-566.052 -230.7)"/><path class="b" d="M592.119,243.67v-3.336c0-.048,0-.062-.062-.055a23.557,23.557,0,0,1-4.358.083h-.069c0,1.416,0,2.811-.09,4.22a.083.083,0,0,0,.076.083c1.34.111,2.693.048,4.033.18.166,0,0-.38-.145-.373-.463.048-.925.069-1.381.076s-1.664.193-2.072-.083-.283-3.191.062-3.453a5.748,5.748,0,0,1,3.191.111c.276.338.062,1.181.062,1.568v1.658C591.311,244.471,592.119,243.891,592.119,243.67Z" transform="translate(-564.363 -228.852)"/><path class="b" d="M590.35,244.458v-3.343a.165.165,0,0,0-.1-.1c-1.381-.1-2.763-.035-4.144-.2a.055.055,0,0,0-.069.035c-.1,1.464-.041,2.921-.2,4.379,0,.062.048.069.09.076,1.381.041,2.763,0,4.144.055.048,0,.18-.117.083-.117h-1.064a15.4,15.4,0,0,1-2.031-.111l-.566-.1c-.373-.276-.207-1.112-.214-1.464a6.072,6.072,0,0,1,.1-2.072l2.265-.359h.76c.691,0,.635-.111.8.338a5.655,5.655,0,0,1,0,1.6V244.4C590.2,244.493,590.35,244.569,590.35,244.458Z" transform="translate(-563.837 -229.019)"/><path class="b" d="M591.69,244.127v-3.343c0-.041,0-.062-.055-.055a26.775,26.775,0,0,1-4.275,0,.055.055,0,0,0-.069.041c-.041,1.381,0,2.8-.111,4.206a.069.069,0,0,0,.041.069c1.381.131,2.721.048,4.082.18.173,0-.11-.511-.235-.5A17.379,17.379,0,0,1,589,244.8c-.214,0-1.119.069-1.326-.2a5.587,5.587,0,0,1-.048-1.885c.007-.256-.062-1.07.276-1.271s2.8-.256,3.032.186c.18.338,0,1.105,0,1.478v1.664C590.923,244.894,591.69,244.369,591.69,244.127Z" transform="translate(-564.252 -228.992)"/><path class="b" d="M592.171,244.733V241.4c0-.048,0-.062-.055-.055a24.1,24.1,0,0,1-4.234.1c-.055,0-.069.041-.076.09-.069,1.381,0,2.714-.166,4.082a.069.069,0,0,0,.041.069c1.381.193,2.763.076,4.144.255.138,0-.166-.656-.366-.628s-3.011.3-3.225.055a1.507,1.507,0,0,1-.207-.953,16.913,16.913,0,0,1,0-1.872c.048-.649,0-.691.691-.691.525,0,2.514-.256,2.763.311a7.06,7.06,0,0,1,0,1.83V245.3C591.48,245.438,592.171,244.92,592.171,244.733Z" transform="translate(-564.394 -229.184)"/><path class="b" d="M586.954,242.46c-.124,1.381-.09,2.763-.3,4.144a.069.069,0,0,0,.041.069c1.43.152,2.873.069,4.31.214.173,0-.069-.456-.186-.449-.463.035-.932.055-1.381.055s-2.072.166-2.334-.29a5.4,5.4,0,0,1-.09-2.072,15.683,15.683,0,0,1,.1-1.706C587.106,242.349,586.954,242.425,586.954,242.46Z" transform="translate(-564.088 -229.507)"/><path class="b" d="M592.585,244.25v-3.336c0-.041,0-.062-.062-.055a20.976,20.976,0,0,1-4.316.159.069.069,0,0,0-.076.076c0,1.381,0,2.763-.11,4.089,0,0,.041.076.069.083,1.381.18,2.763.083,4.082.269.166,0-.124-.553-.256-.532-.456.062-.919.076-1.381.1a5.363,5.363,0,0,1-2.072-.035c-.456-.249-.359-3.26,0-3.571s3.025-.207,3.308.166.062,1.181.062,1.582V244.9C591.819,245.017,592.585,244.458,592.585,244.25Z" transform="translate(-564.512 -229.032)"/><path class="b" d="M588.817,247.034a25.879,25.879,0,0,1,3.729.228c.159,0,0-.366-.138-.352a19.571,19.571,0,0,1-3.709,0S588.776,247.034,588.817,247.034Z" transform="translate(-564.722 -230.904)"/><path class="b" d="M590.9,244.5v-3.35c0-.035,0-.048-.055-.055a40.711,40.711,0,0,1-4.192-.083.048.048,0,0,0-.069,0c-.09,1.437,0,2.859-.193,4.282,0,.041,0,.062.041.069,1.381.09,2.763,0,4.144.124.173,0-.041-.414-.159-.408-.435,0-.877.055-1.312.055h-.787c-.836.311-1.278.159-1.312-.449a3.984,3.984,0,0,1-.1-1.72c.041-1.174-.18-1.3.753-1.381.442-.041,2.507-.352,2.763.1a7.164,7.164,0,0,1,0,1.844v1.312C590.43,245.019,590.9,244.639,590.9,244.5Z" transform="translate(-564.007 -229.076)"/><path class="b" d="M591.166,245.293v-3.343a.083.083,0,0,0-.055-.062,37.085,37.085,0,0,1-4.144-.048c-.055,0-.069.048-.069.09-.138,1.381-.062,2.763-.249,4.144a.055.055,0,0,0,.042.069c1.381.138,2.818.048,4.227.18.18,0-.124-.559-.249-.546-.449.041-.9.062-1.381.069a4.758,4.758,0,0,1-1.692-.069q-.918,0-.477-1.381v-.746c0-.228-.1-1.195.186-1.381l.511-.048a17.427,17.427,0,0,1,1.9-.041c.3,0,.884-.124,1.057.207a7.167,7.167,0,0,1,0,1.844v1.312C590.821,245.687,591.166,245.4,591.166,245.293Z" transform="translate(-564.087 -229.336)"/><path class="b" d="M591.989,245.095v-3.35c0-.035,0-.055-.062-.055a26.377,26.377,0,0,1-4.144.083.089.089,0,0,0-.083.076c-.083,1.381-.041,2.763-.2,4.144a.069.069,0,0,0,.041.062c1.381.193,2.763.083,4.185.256.145,0-.159-.649-.359-.622a16.293,16.293,0,0,1-2.659.069c-.732-.035-.767,0-.8-.656a17.038,17.038,0,0,1,0-1.879c0-.283-.069-.877.2-1.077a6.235,6.235,0,0,1,2.01-.048,1.754,1.754,0,0,1,1.05.159c.3,0,.407.117.331.366a4.985,4.985,0,0,1,0,1.6v1.319C591.444,245.661,591.989,245.24,591.989,245.095Z" transform="translate(-564.351 -229.289)"/><path class="b" d="M591.382,244.8v-3.363c0-.041,0-.055-.055-.055a33.953,33.953,0,0,1-4.192,0,.055.055,0,0,0-.069.041c-.1,1.381,0,2.8-.186,4.206a.055.055,0,0,0,.041.069c1.381.131,2.763.041,4.144.173.18,0-.145-.6-.276-.587s-3.025.262-3.2,0a1.084,1.084,0,0,1-.159-.629,15.008,15.008,0,0,1,0-2.072c0-.442,0-.511.435-.615a7.792,7.792,0,0,1,1.651-.062h.691c.47-.055.691.09.594.428a5.028,5.028,0,0,1,0,1.609v1.319C590.795,245.412,591.382,244.957,591.382,244.8Z" transform="translate(-564.158 -229.193)"/><path class="b" d="M588.2,242.268l-.808-.048c-.035,0-.117,0-.117.062-.124,1.381-.076,2.763-.269,4.144a.069.069,0,0,0,.042.062c1.381.173,2.845.076,4.268.242.173,0-.117-.553-.249-.539a17.463,17.463,0,0,1-2.169.069c-1.188-.035-1.437.221-1.492-.76a19.759,19.759,0,0,1,0-2.307c.041-.649,0-.8.691-.849C588.115,242.337,588.274,242.275,588.2,242.268Z" transform="translate(-564.199 -229.453)"/><path class="b" d="M591.309,243.968v-3.343c0-.041,0-.055-.062-.055a35.315,35.315,0,0,1-4.275,0c-.041,0-.062,0-.069.035-.035,1.43,0,2.839-.124,4.261a.055.055,0,0,0,.035.069c1.381.1,2.728,0,4.089.138.173,0,0-.38-.145-.373-.442,0-.891.048-1.333.055a6.1,6.1,0,0,1-2.03-.124c-.269-.228-.18-1.05-.18-1.305,0-.428-.1-1.8.332-2.024s2.845-.331,3.094.111c.18.325,0,1.112,0,1.478v1.658C590.646,244.659,591.309,244.148,591.309,243.968Z" transform="translate(-564.127 -228.943)"/><path class="b" d="M590.045,241.675a27.2,27.2,0,0,1-3.75-.145.074.074,0,0,0-.076.083c-.131,1.423-.076,2.845-.269,4.268a.055.055,0,0,0,.041.069c1.381.076,2.845,0,4.268.1.152,0,0-.276-.076-.276-.739,0-1.478.048-2.21,0-.373,0-1.285.062-1.492-.338a4.329,4.329,0,0,1-.069-1.637,7.992,7.992,0,0,1,.048-1.381c.076-.421.048-.421.449-.532a11.741,11.741,0,0,1,3.232-.083C590.224,241.779,590.086,241.675,590.045,241.675Z" transform="translate(-563.87 -229.24)"/><path class="b" d="M591.638,243.745v-3.336c0-.041,0-.062-.055-.055a29.235,29.235,0,0,1-4.33,0,.048.048,0,0,0-.069,0c0,1.43,0,2.832-.083,4.254,0,.055.041.069.083.076,1.333.1,2.68.041,4.02.152.166,0,0-.373-.145-.359-.449.035-.9.055-1.381.055a6.368,6.368,0,0,1-2.072-.111c-.3-.228-.173-2.072-.173-2.072,0-.359-.048-1.119.325-1.333s2.859-.276,3.094.173c.18.338,0,1.105,0,1.478v1.664C590.892,244.5,591.638,243.952,591.638,243.745Z" transform="translate(-564.227 -228.871)"/><path class="b" d="M592.387,244.942v-3.357c0-.035,0-.055-.055-.055a23.479,23.479,0,0,1-4.234.145.117.117,0,0,0-.083.069c-.062,1.381,0,2.721-.166,4.082,0,.041.041.069.076.076,1.381.207,2.763.1,4.144.29.166,0-.159-.615-.3-.6a17.267,17.267,0,0,1-2.535.11c-.3,0-.9.124-1.091-.18-.262-.421-.166-3.4.214-3.605a8.577,8.577,0,0,1,2.763.138c.552-.117.794,0,.691.407a4.976,4.976,0,0,1,0,1.6v1.312C591.828,245.529,592.387,245.094,592.387,244.942Z" transform="translate(-564.459 -229.24)"/><path class="b" d="M591.73,246.957h.187a.263.263,0,0,0,.131-.1h-.207A.339.339,0,0,0,591.73,246.957Z" transform="translate(-565.659 -230.889)"/><path class="b" d="M590.83,244.164v-3.35a.076.076,0,0,0-.062-.055c-1.381-.041-2.818.048-4.241-.11a.055.055,0,0,0-.069.041c-.062,1.443,0,2.88-.159,4.323a.069.069,0,0,0,.041.069c1.381.069,2.763,0,4.144.1.152,0,0-.269-.076-.262h-1.381c-.47,0-1.692.138-2.072-.166s-.193-1-.193-1.381-.145-1.72.221-2.072a5.973,5.973,0,0,1,3.35-.1c.276.29.076,1.174.076,1.554v1.671C590.4,244.648,590.83,244.3,590.83,244.164Z" transform="translate(-563.979 -228.967)"/><path class="b" d="M588.727,246.754a27.755,27.755,0,0,1,3.709.207c.145,0,0-.318-.11-.311a19.082,19.082,0,0,1-3.716,0S588.686,246.754,588.727,246.754Z" transform="translate(-564.694 -230.824)"/><path class="b" d="M592.267,244.069v-3.336c0-.048,0-.069-.055-.055a21.865,21.865,0,0,1-4.3.1.055.055,0,0,0-.069.041c0,1.381,0,2.763-.11,4.144a.069.069,0,0,0,.076.076c1.333.173,2.707.069,4.047.235.166,0-.124-.546-.249-.525-.449.055-.9.076-1.381.09a5.1,5.1,0,0,1-2.024-.055c-.428-.256-.3-3.122,0-3.391a5.569,5.569,0,0,1,3.135.138c.262.331.055,1.195.055,1.575v1.664C591.439,244.884,592.267,244.29,592.267,244.069Z" transform="translate(-564.422 -228.975)"/><path class="b" d="M592.581,246.564a3.363,3.363,0,0,1,.829.069c.138,0,.131-.2.035-.193a5.492,5.492,0,0,0-.753.035C592.664,246.474,592.5,246.557,592.581,246.564Z" transform="translate(-565.916 -230.759)"/><path class="b" d="M591.206,244.358v-3.363c0-.041,0-.062-.055-.055a37.53,37.53,0,0,1-4.227,0c-.041,0-.062,0-.069.041-.062,1.423,0,2.825-.166,4.241a.055.055,0,0,0,.041.069c1.381.1,2.763,0,4.144.138.173,0-.09-.477-.207-.463-.449,0-.9.041-1.381.048a10.446,10.446,0,0,1-1.913-.1l-.145-.635a9.669,9.669,0,0,1,0-1.948c.062-.691,0-.691.691-.739.456-.041.919-.055,1.381-.055a1.83,1.83,0,0,1,.946.1c.269,0,.373.09.29.325a4.98,4.98,0,0,1,0,1.6v1.319C590.591,245.007,591.206,244.524,591.206,244.358Z" transform="translate(-564.099 -229.057)"/><path class="b" d="M587.324,241.966a7.4,7.4,0,0,1-.87-.076c-.041,0-.111,0-.111.069-.138,1.416-.1,2.832-.3,4.247a.055.055,0,0,0,.041.069c1.43.09,2.866.035,4.3.131.159,0,0-.311-.1-.311h-1.381c-.449,0-2.072.117-2.341-.352v-.525a19.9,19.9,0,0,1,0-2.314c.034-.656,0-.815.732-.877C587.241,242.076,587.393,242,587.324,241.966Z" transform="translate(-563.898 -229.351)"/><path class="b" d="M592.68,246.357h.228c.055,0,.193-.117.1-.117h-.193a.29.29,0,0,0-.138.117Z" transform="translate(-565.953 -230.697)"/><path class="b" d="M592.694,244.555v-3.35c0-.041,0-.055-.055-.055a21.957,21.957,0,0,1-4.31.186s-.083.035-.083.069c-.041,1.347,0,2.693-.117,4.04a.1.1,0,0,0,.069.111c1.381.193,2.763.111,4.144.311.166,0-.131-.566-.262-.546a13.669,13.669,0,0,1-1.381.1,7.138,7.138,0,0,1-2.134-.035c-.373-.214-.221-.629-.228-.995a17.049,17.049,0,0,1,.062-2.072.6.6,0,0,1,.152-.691c.394-.352,3.246-.29,3.522.269a5.651,5.651,0,0,1,0,1.837v1.312C592.031,245.225,592.694,244.728,592.694,244.555Z" transform="translate(-564.545 -229.122)"/><path class="b" d="M587.7,242.189a7.04,7.04,0,0,1-.856-.069c-.041,0-.117,0-.117.069-.138,1.381-.09,2.8-.3,4.2a.069.069,0,0,0,.041.069c1.43.124,2.866.048,4.3.173.173,0-.048-.421-.159-.414-.463,0-.925.048-1.381.048s-2.072.138-2.3-.3a6.124,6.124,0,0,1-.083-2.072c0-.691-.249-1.561.739-1.637a.537.537,0,0,0,.124-.062Z" transform="translate(-564.016 -229.422)"/><path class="b" d="M591.571,245.024v-3.35a.048.048,0,0,0-.055-.055,31.141,31.141,0,0,1-4.144,0,.055.055,0,0,0-.069.041c-.117,1.381-.041,2.763-.214,4.178a.055.055,0,0,0,.041.069c1.381.159,2.763.055,4.185.207.173,0-.173-.642-.3-.628a16.926,16.926,0,0,1-2.072.09,5.939,5.939,0,0,1-.925-.048c-.311-.048-.5-.173-.359-.691a9.313,9.313,0,0,1-.09-1.754c.034-1.022-.138-.967,1.381-1.064a6.362,6.362,0,0,1,1.45,0c.539.1.622.186.622.691V245.4C591.019,245.611,591.571,245.176,591.571,245.024Z" transform="translate(-564.223 -229.267)"/><path class="b" d="M587.865,245.714c-.041.552-.083,1.105-.145,1.658,0,0,.041.069.076.076,1.381.207,2.763.111,4.192.311.166,0-.131-.58-.269-.559a19.714,19.714,0,0,1-2.21.1,10.326,10.326,0,0,1-1.305-.055c-.49-.249-.58-.691-.283-1.381C587.913,245.817,587.872,245.652,587.865,245.714Z" transform="translate(-564.419 -230.53)"/><path class="b" d="M591.612,244.48v-3.336c0-.041,0-.062-.062-.055a28.683,28.683,0,0,1-4.22,0s-.055,0-.069.041c-.069,1.381,0,2.763-.152,4.185a.055.055,0,0,0,.041.069c1.381.145,2.763.048,4.144.186.173,0-.152-.6-.283-.587a14.413,14.413,0,0,1-2.618.048c-.787.145-1.043-.29-.767-1.3v-.691c0-.3-.055-1.015.159-1.216s1.091-.111,1.2-.111a11.493,11.493,0,0,1,1.381.041c.573.041.477,0,.553.442a18.483,18.483,0,0,1,0,2.9C590.894,245.219,591.612,244.688,591.612,244.48Z" transform="translate(-564.229 -229.103)"/></g></svg>