<svg width="150" height="150" viewBox="0 0 150 150" fill="none" xmlns="http://www.w3.org/2000/svg">
<g clip-path="url(#clip0)">
<path d="M74.083 122.638C100.957 122.638 122.743 100.786 122.743 73.831C122.743 46.8756 100.957 25.024 74.083 25.024C47.2088 25.024 25.423 46.8756 25.423 73.831C25.423 100.786 47.2088 122.638 74.083 122.638Z" fill="url(#paint0_radial)"/>
<path opacity="0.076" d="M40.803 43.212L51.803 18.006L43.135 26.229C110.723 121.048 103.893 129.914 22.646 52.829C22.626 46.162 13.919 39.078 13.129 48.323C11.811 63.846 12.124 75.991 20.723 89.623C28.7485 102.263 41.3078 111.351 55.823 115.023C93.131 124.852 130.518 90.946 127.306 53.108C125.012 25.956 100.55 1.38302 72.681 1.66502C61.865 1.77202 52.481 7.72804 44.422 14.073C32.3 23.612 27.476 35.212 24.003 50.312C21.426 61.4971 39.563 48.807 40.803 43.212Z" fill="#4CCD43"/>
<path opacity="0.076" d="M53.98 53.42C92.616 27.3287 116.027 27.173 124.214 52.953C140.457 85.0863 111.55 89.5727 37.493 66.412C37.444 63.59 37.064 57.702 33.593 56.812C30.122 55.922 28.146 58.263 27.97 61.327C26.37 89.034 35.486 112.498 63.306 122.269C93.069 132.73 123.983 119.836 135.278 89.988C143.692 67.76 139.719 43.788 121.866 27.557C107.887 14.857 89.048 10.624 71.126 17.037C64.1042 19.7406 57.5944 23.6208 51.876 28.511C37.468 40.355 33.564 52.86 30.676 70.699C29.576 77.473 39.969 70.271 40.33 70.018C45.273 66.397 52.79 59.746 53.98 53.42Z" fill="#4CCD43"/>
<path opacity="0.076" d="M52.555 76.903L116.22 57.719L123.202 69.838L127.917 83.998C132.739 105.584 120.576 116.312 91.429 116.181C74.6883 137.29 60.7 141.16 49.464 127.791C45.3103 124.999 42.1115 121.001 40.298 116.336C33.153 103.966 33.211 93.7 34.148 79.481C34.421 75.17 25.489 76.921 25.402 80.172C24.885 98.994 25.48 114.117 38.702 129.678C50.269 143.303 68.435 149.201 86.045 147.886C117.409 145.541 141.383 120.15 140.202 87.869C139.158 59.335 115.808 29.993 84.825 34.314C73.61 35.881 63.252 39.783 54.955 47.842C44.832 57.662 44.061 64.842 41.396 77.875C39.944 84.884 51.302 82.84 52.555 76.903Z" fill="#4CCD43"/>
<path opacity="0.076" d="M58.813 73.156L120.476 54.821C125.277 60.2464 128.676 66.7654 130.376 73.808C132.795 78.4939 133.67 83.8247 132.876 89.038C135.335 116.2 115.79 131.606 74.239 135.255C45.873 127.324 37.331 103.918 39.508 76.679C39.869 72.154 30.889 73.779 30.742 77.234C30.215 90.168 29.385 100.571 34.93 112.785C45.091 135.11 67.43 146.428 91.536 144.785C126.795 142.391 149.436 111.19 143.867 76.36C138.674 43.923 107.223 23.34 75.888 34.999C56.961 42.035 49.025 57.392 45.618 76.058C43.985 85.029 57.72 78.879 58.813 73.156Z" fill="#4CCD43"/>
<path opacity="0.076" d="M38.411 62.198C37.3563 41.7313 49.2293 37.3 74.03 48.904C135.01 47.386 118.63 55.7913 24.891 74.12C24.471 71.278 24.247 63.891 20.362 63.12C16.477 62.349 15.003 64.998 14.993 68.326C14.983 96.013 28.611 125.026 60.013 129.426C89.444 133.552 119.597 114.887 125.713 84.796C132.713 50.396 103.438 13.305 67.252 19.611C58.8656 21.0859 50.9206 24.4359 44.01 29.411C28.763 40.223 23.579 52.369 20.231 70.432C17.97 82.694 37.386 67.697 38.411 62.198Z" fill="#4CCD43"/>
<path opacity="0.076" d="M62.258 55.416L80.249 28.06L65.48 35.96L121.266 39.609L130.305 50.49C146.157 77.904 118.972 122.633 86.661 120.482C76.161 119.782 67.07 116.726 58.9 110.021C44.433 98.128 42.345 84.309 43.379 64.456C43.721 58.043 34.613 55.376 34.262 61.478C33.179 80.543 33.062 96.338 47.162 111.86C63.044 129.368 91.147 134.925 112.762 125.426C135.496 115.441 148.03 93.301 147.435 68.261C146.596 32.652 109.522 5.36099 75.942 20.779C67.7743 24.677 60.3822 30.0254 54.125 36.564C43.993 47.221 43.202 56.729 40.986 70.451C39.97 76.738 49.478 70.792 50.093 70.364C54.781 67.075 61.146 61.216 62.258 55.416Z" fill="#4CCD43"/>
<path opacity="0.076" d="M38.724 80.864C40.286 50.578 62.9226 43.7203 106.634 60.291C116.142 71.9577 116.663 84.94 108.196 99.238C108.567 144.18 80.8546 148.29 25.058 111.568C21.0596 101.894 19.9772 91.2615 21.944 80.98C22.144 76.474 13.266 78.343 13.208 81.78C12.632 112.718 23.399 140.162 55.231 148.269C88.976 156.869 124.195 132.369 127.798 98.325C130.98 68.341 111.028 37.792 79.606 36.478C70.557 36.098 63.832 36.507 54.958 40.789C39.34 48.331 34.528 60.379 31.072 76.505C30.417 79.553 37.738 85.553 38.724 80.864Z" fill="#4CCD43"/>
<path opacity="0.076" d="M38.662 72.241C73.5886 38.2477 96.9086 35.2827 108.622 63.346L103.622 114.118L21.662 78.129C21.33 72.212 12.462 69.623 12.535 75.54C12.848 99.549 18.548 123.285 41.585 135.917C79.685 156.812 130.727 123.869 126.549 80.494C123.289 46.704 88.509 16.438 54.92 33.742C37.066 42.929 30.126 55.707 26.104 74.733C24.355 83.005 37.445 78.071 38.662 72.241Z" fill="#4CCD43"/>
<path opacity="0.076" d="M65.011 61.799C64.6403 48.2037 70.9787 38.222 84.026 31.854L71.031 38.646C105.04 26.746 134.131 39.989 138.853 70.81C142.084 84.98 137.376 96.38 124.728 105.01C119.642 119.336 109.972 126.317 95.717 125.954C80.675 126.168 63.836 122.041 54.495 109.186C44.763 95.795 44.095 82.803 45.466 66.667C45.944 61.061 36.808 61.412 36.603 65.1C35.52 84.359 35.968 100.865 49.234 116.037C57.561 125.545 67.868 130.761 80.207 133.195C116.393 140.338 145.013 117.127 149.396 82.443C151.996 61.909 146.37 42.756 128.829 29.988C122.348 25.296 114.833 22.2336 106.919 21.0597C99.0043 19.8858 90.9236 20.6351 83.36 23.244C75.794 25.794 69.332 30.436 63.349 35.633C52.484 45.063 49.556 55.107 47.204 69.247C45.186 81.38 64.006 67.233 65.011 61.799Z" fill="#4CCD43"/>
<path opacity="0.076" d="M42.843 68.164C41.535 48.1553 53.0017 43.5587 77.243 54.374L109.114 54.851L28.338 77.828C28.006 74.958 27.938 69.507 24.346 68.622C23.6711 68.4157 22.956 68.3776 22.2631 68.5112C21.5702 68.6448 20.9204 68.946 20.3707 69.3885C19.8209 69.8309 19.3878 70.4012 19.1091 71.0496C18.8305 71.6979 18.7147 72.4046 18.772 73.108C19.035 97.088 26.123 119.108 49.325 130.595C84.837 148.161 128.442 121.116 129.964 82.354C131.252 49.754 105.453 20.138 71.512 25.744C63.1264 27.1308 55.1655 30.4053 48.231 35.32C33.208 45.869 28.386 57.771 25.369 75.52C23.349 87.45 41.877 73.643 42.843 68.164Z" fill="#4CCD43"/>
<path opacity="0.076" d="M35.727 57.468C136.67 42.9673 131.753 46.7756 20.977 68.893C20.626 66.061 20.323 59.025 16.526 58.247C12.69 57.459 11.206 60.086 11.138 63.337C10.838 76.903 10.523 84.251 17.024 96.776C20.8965 104.196 26.355 110.672 33.0119 115.745C39.6688 120.817 47.3609 124.362 55.542 126.128C85.168 132.228 116.2 111.462 122.974 82.14C132.16 42.414 92.928 2.78597 53.707 18.513C33.032 26.805 23.193 43.413 18.839 64.526C16.487 75.92 34.594 63.015 35.727 57.468Z" fill="#4CCD43"/>
<path opacity="0.076" d="M51.804 40.632C51.784 35.889 52.7508 31.1936 54.6429 26.8443C56.5351 22.495 59.3112 18.5868 62.795 15.368L51.638 25.479L71.438 11.008L59.515 17.684L127.094 70.918L120.094 85.379C113.523 94.6307 103.936 101.305 92.9784 104.255C82.021 107.205 70.3783 106.246 60.051 101.544C38.634 92.182 31.06 78.392 32.592 49.653C32.953 42.879 24.031 37.546 23.25 45.624C21.85 59.93 20.009 67.248 25.934 81.097C35.598 103.743 61.144 117.066 85.362 114.653C121.841 111.013 147.328 69.73 134.179 35.503C124.379 10.003 92.966 -8.31997 66.893 3.85503C61.017 6.59903 55.365 11.134 50.377 15.231C39.015 24.603 35.237 36.456 32.162 50.47C29.353 63.317 50.593 46.19 51.804 40.632Z" fill="#4CCD43"/>
<path opacity="0.076" d="M31.129 62.831C93.5343 34.2383 116.578 40.71 100.259 82.246C99.205 131.675 70.5323 127.584 14.241 69.974C13.978 67.113 13.831 63.386 10.561 62.51C7.867 61.78 4.89901 63.668 4.89001 66.422C4.83101 96.153 17.414 127.334 51.266 132.629C84.338 137.797 116.609 113.204 119.254 79.706C121.489 51.445 99.819 22.988 70.915 20.847C58.752 19.942 48.464 23.124 38.693 30.355C25.866 39.844 21.793 50.344 18.447 65.614C16.633 73.915 29.902 68.689 31.129 62.831Z" fill="#4CCD43"/>
<path opacity="0.076" d="M54.997 60.037C91.7303 33.469 114.608 32.658 123.63 57.604C141.073 88.7467 112.773 93.3273 38.73 71.346C38.691 68.504 38.34 63.804 35.04 62.889C34.3897 62.679 33.6991 62.6249 33.0241 62.7313C32.3491 62.8377 31.7086 63.1015 31.1545 63.5014C30.6004 63.9013 30.1482 64.426 29.8345 65.0331C29.5208 65.6402 29.3545 66.3127 29.349 66.996C28.705 82.275 29.261 94.907 38.017 107.812C46.48 120.289 57.833 127.947 72.798 130.912C107.49 137.812 138.111 113.312 140.259 78.525C142.407 43.811 114.118 12.357 77.459 22.05C68.6812 24.288 60.5181 28.4685 53.572 34.283C39.643 45.718 35.836 58.341 33.21 75.625C32.234 82.025 41.849 75.81 42.454 75.391C47.177 72.046 53.922 65.954 54.997 60.037Z" fill="#4CCD43"/>
<path opacity="0.076" d="M50.184 47.746L33.697 61.887C33.59 59.087 33.16 52.126 29.519 51.279C25.693 50.379 24.219 52.972 24.004 56.184C23.004 71.424 23.555 83.424 32.497 96.484C40.782 108.478 53.2914 116.9 67.521 120.064C91.769 125.738 117.321 113.777 128.911 92.056C140.011 71.278 138.663 46.686 124.245 28.088C112.395 12.809 90.871 5.44201 72.47 10.366C63.8773 12.6772 55.9097 16.8796 49.15 22.666C34.371 34.766 30.203 47.044 26.95 65.194C25.73 71.994 36.37 64.62 36.604 64.445C41.593 60.739 48.924 54.111 50.184 47.746Z" fill="#4CCD43"/>
<path opacity="0.076" d="M38.45 52.096C45.4686 28.1847 40.3406 31.9963 23.066 63.531C22.832 60.709 22.412 53.672 18.693 52.875C14.808 52.058 13.422 54.695 13.266 57.926C12.524 73.088 13.656 84.747 22.393 97.72C30.5916 109.702 42.9475 118.213 57.065 121.602C81.165 127.529 106.926 114.323 118.806 93.273C139.081 57.333 113.359 7.18398 69.813 9.72398C61.047 10.239 52.692 14.288 45.713 19.261C30.602 30.025 24.472 41.839 20.577 60.203C18.039 72.135 37.298 57.643 38.45 52.096Z" fill="#4CCD43"/>
<path opacity="0.076" d="M46.562 56.349C140.095 38.6157 135.322 43.5237 32.242 71.073C31.949 68.251 31.637 60.524 27.791 59.716C23.799 58.889 22.471 61.604 22.383 64.962C21.69 92.192 32.349 114.556 59.691 123.879C89.815 134.156 127.691 115.286 132.433 81.759C135.557 59.659 127.903 35.707 108.156 23.377C94.695 14.969 78.11 14.132 63.517 19.63C54.966 22.842 47.899 28.038 41.349 34.267C29.43 45.605 26.668 57.098 24.061 72.932C22.978 79.55 33.11 72.718 33.52 72.416C38.363 68.893 45.42 62.5 46.562 56.349Z" fill="#4CCD43"/>
<path opacity="0.076" d="M45.791 44.399C45.7858 39.6479 46.7529 34.9461 48.633 30.5828C50.513 26.2196 53.2662 22.2873 56.723 19.028L46.074 28.75C116.074 121.165 110.08 129.731 28.093 54.45C28.093 51.638 27.547 46.05 24.159 45.195C20.713 44.319 18.81 46.664 18.559 49.642C17.259 65.116 17.495 77.281 26.212 90.798C34.312 103.382 46.642 111.877 61.354 115.683C92.327 123.693 123.983 102.029 130.875 71.568C138.44 38.129 113.168 1.95601 77.236 2.89001C68.021 3.13301 59.929 7.32802 52.696 12.408C37.263 23.249 30.896 34.927 26.809 53.622C24.072 66.13 44.59 49.956 45.791 44.399Z" fill="#4CCD43"/>
<path opacity="0.076" d="M49.383 70.198C49.383 43.2113 68.5283 35.588 106.819 47.328C133.565 74.8987 109.129 84.913 33.51 77.371C33.403 74.52 33.139 70.928 29.986 70.014C27.37 69.264 24.276 71.045 24.237 73.78C23.944 97.448 29.303 121.252 52.637 133.232C84.674 149.689 127.81 129.475 135.365 94.587C142.94 59.639 115.872 21.928 78.095 28.098C69.6148 29.3985 61.5464 32.6281 54.511 37.538C39.537 47.97 34.911 59.58 32.07 77.273C30.162 89.155 48.436 75.657 49.383 70.198Z" fill="#4CCD43"/>
<path opacity="0.076" d="M26.815 71.317L37.084 46.539C45.498 37.0437 55.91 35.096 68.32 40.696C94.012 36.482 101.089 49.6007 89.551 80.052L90.637 117.466L10.076 72.427C10.086 66.997 1.20298 67.649 1.16398 71.327C0.99798 87.015 1.66398 99.482 9.87098 113.349C16.245 124.123 24.035 131.431 35.642 136.21C65.442 148.492 98.447 133.845 111.703 104.931C122.837 80.65 113.486 49.096 90.586 34.296C80.912 28.048 69.706 25.996 58.386 26.822C45.716 27.756 34.207 35.561 27.267 45.585C20.346 55.585 23.255 50.266 19.614 66.547C19.123 68.719 26.037 74.957 26.815 71.317Z" fill="#4CCD43"/>
<path opacity="0.076" d="M61.966 68.534C92.2747 38.3273 113.75 34.024 126.391 55.624C131.312 61.4233 134.475 68.5069 135.508 76.042C138.993 103.564 115.419 133.042 85.647 131.066C52.683 128.866 40.598 102.666 42.911 72.752C43.321 67.488 34.253 68.509 34.111 71.604C33.211 90.756 33.847 107.104 46.928 122.21C59.149 136.341 77.969 141.947 96.272 140.02C130.672 136.39 151.981 106.426 146.934 72.256C142.234 40.356 111.842 18.867 80.234 29.874C73.2281 32.4786 66.8053 36.4407 61.334 41.533C51.192 50.555 48.605 60.559 46.389 73.765C44.581 84.543 60.95 74.052 61.966 68.534Z" fill="#4CCD43"/>
<path opacity="0.076" d="M34.077 48.545L16.955 57.445C16.838 54.613 16.355 49.465 12.972 48.638C9.65297 47.82 7.59298 50.107 7.40798 53.038C6.27598 70.867 7.77898 86.01 19.766 100.491C27.666 110.038 40.402 116.753 52.193 119.891C86.104 128.922 118.6 99.291 120.982 66.784C123.091 38.016 103.148 11.098 73.903 7.23399C59.592 5.33399 47.274 10.602 36.595 20.09C26.268 29.267 22.471 40.167 19.406 53.5C17.15 63.303 32.827 54.228 34.077 48.545Z" fill="#4CCD43"/>
<path opacity="0.076" d="M35.639 66.724C69.4137 33.2167 92.6427 30.0604 105.326 57.255C115.634 126.576 86.9223 131.682 19.191 72.573C18.498 66.802 9.947 64.807 10.074 71.396C10.66 101.467 23.457 130.496 57.474 135.51C96.461 141.262 131.719 104.552 121.158 65.994C112.685 35.046 84.494 15.816 53.579 27.962C33.968 35.662 25.261 51.27 21.162 71.211C19.153 81.03 34.496 72.397 35.639 66.724Z" fill="#4CCD43"/>
<path opacity="0.076" d="M61.575 45.07L71.795 22.297L58.91 33.382L79.878 18.21L65.685 25.986L123.668 32.594L118.748 103.287C108.586 111.034 96.062 113.587 83.587 112.25C73.4412 111.359 63.8174 107.359 56.03 100.795C41.73 88.776 40.08 74.976 41.505 55.201C41.983 48.652 32.866 45.527 32.349 52.009C30.849 71.044 30.406 86.985 44.492 102.625C57.152 116.678 76.092 122.011 94.431 121.145C130.07 119.461 149.398 82.986 145.171 51.396C140.817 18.852 102.679 -3.34597 72.848 12.43C65.7964 16.2677 59.3279 21.0912 53.638 26.755C43.145 37.061 42.12 47.484 39.611 61.04C38.411 67.531 48.543 60.962 48.923 60.69C53.776 57.196 60.335 51.104 61.575 45.07Z" fill="#4CCD43"/>
<path opacity="0.076" d="M30.104 75.298L77.994 40.136C106.751 52.3787 114.32 70.548 100.699 94.644C101.46 128.56 85.835 132.352 53.825 106.021C21.5143 109.096 8.09232 99.1407 13.559 76.154C13.676 70.918 4.75897 72.115 4.69497 75.337C4.37297 93.828 5.42797 109.077 17.053 124.094C25.262 134.702 33.315 139.918 46.453 142.984C77.387 150.184 111.453 130.916 118.931 99.589C125.588 71.689 107.666 38.034 78.704 31.436C67.8858 29.1447 56.6158 30.4394 46.599 35.124C30.171 43.124 26.325 54.624 22.811 70.607C22.285 72.962 29.285 79.19 30.104 75.298Z" fill="#4CCD43"/>
<path opacity="0.076" d="M31.061 54.502L13.471 62.258C13.305 59.407 12.944 55.368 9.693 54.521C9.05208 54.3356 8.37745 54.2981 7.71992 54.4112C7.06239 54.5243 6.43907 54.785 5.89689 55.1738C5.35472 55.5626 4.90779 56.0694 4.58979 56.6559C4.27179 57.2425 4.09099 57.8935 4.06098 58.56C3.37798 76.924 5.33998 91.308 17.005 106.412C24.228 115.764 37.705 123.433 49.325 125.691C78.248 131.316 111.749 111.667 117.509 81.591C123.063 52.619 107.064 23.978 78.834 14.45C68.018 10.801 54.547 12.55 44.659 17.993C28.299 26.993 22.059 40.182 18.159 57.593C16.263 66.052 29.821 60.349 31.061 54.502Z" fill="#4CCD43"/>
<path opacity="0.076" d="M46.611 75.882C80.6983 42.3267 103.673 39.287 115.536 66.763C52.448 117.896 23.6386 122.341 29.108 80.096C29.186 74.422 20.215 74.496 20.167 78.548C19.967 97.248 21.113 112.6 33.374 127.441C42.169 138.098 49.48 142.409 63.126 144.91C99.956 151.674 137.04 124.191 134.18 85.088C131.662 50.569 96.813 20.588 62.717 37.557C44.795 46.481 37.894 59.182 34.155 78.168C32.525 86.441 45.45 81.706 46.611 75.882Z" fill="#4CCD43"/>
<path opacity="0.076" d="M26.668 59.532C54.166 25.0613 76.1747 18.038 92.694 38.462C119.548 63.2107 91.7313 71.5867 9.24398 63.59C9.11698 57.634 0.282991 55.69 0.106991 61.342C-0.361009 77.142 0.399997 89.477 8.707 103.423C16.1543 116.239 28.2633 125.684 42.507 129.787C66.891 136.765 93.755 124.512 106.757 103.316C126.241 71.58 109.793 28.497 73.676 17.976C63.876 15.125 51.332 16.886 42.244 21.47C25.972 29.67 21.052 42.559 17.284 59.016C16.204 63.756 25.38 65.585 26.668 59.532Z" fill="#4CCD43"/>
<path opacity="0.076" d="M48.71 61.867C140.233 43.0843 135.336 47.3924 34.019 74.791C33.765 71.94 33.599 65.73 29.949 64.845C26.454 63.999 24.443 66.392 24.404 69.545C24.082 96.434 33.941 120.258 61.654 129.075C98.347 140.734 141.62 110.448 135.236 69.613C130.004 36.113 99.362 12.457 65.754 24.944C57.359 28.067 50.429 33.06 43.976 39.172C32.276 50.286 29.793 61.555 27.376 77.107C26.399 83.433 35.908 77.38 36.522 76.951C41.174 73.653 47.665 67.687 48.71 61.867Z" fill="#4CCD43"/>
<path opacity="0.12" d="M54.458 35.305C55.785 29.861 64.889 32.359 61.064 38.945L59.87 40.272C54.6953 40.83 52.3104 39.3523 52.715 35.839C52.7 35.499 52.142 35.583 52.154 35.797C52.28 37.951 52.543 39.727 54.499 41.044C55.3452 41.5976 56.339 41.8825 57.3499 41.8612C58.3609 41.84 59.3418 41.5136 60.164 40.925C61.3057 40.1952 62.136 39.0678 62.4942 37.761C62.8524 36.4542 62.713 35.0609 62.103 33.851C61.642 32.96 60.8994 32.2463 59.9908 31.8211C59.0822 31.3959 58.0584 31.283 57.079 31.5C54.902 32.018 54.02 33.534 53.53 35.587C53.381 36.21 54.373 35.655 54.458 35.305Z" fill="#001E00"/>
<path opacity="0.12" d="M52.986 34.273C57.8847 29.7077 60.1323 30.8367 59.729 37.66C57.845 40.9327 55.063 40.101 51.383 35.165C51.322 34.772 50.719 34.224 50.758 34.882C50.883 36.959 51.158 38.602 53.122 39.882C53.9907 40.4264 54.9988 40.7067 56.0238 40.689C57.0489 40.6712 58.0467 40.3561 58.896 39.782C61.196 38.369 61.752 34.842 60.421 32.625C59.8816 31.6771 59.0055 30.9666 57.9667 30.6345C56.9279 30.3024 55.8022 30.3729 54.813 30.832C52.99 31.627 52.277 32.898 51.803 34.832C51.611 35.604 52.902 34.622 52.986 34.273Z" fill="#001E00"/>
<path opacity="0.12" d="M53.396 31.867C61.324 28.5463 60.7154 28.886 51.57 32.886C51.553 32.608 50.943 31.932 50.938 32.433C50.912 35.319 51.755 38.013 55.048 38.575C56.4248 38.8198 57.8429 38.518 59.0007 37.7337C60.1585 36.9494 60.9647 35.7444 61.248 34.375C61.814 31.246 59.29 27.488 55.869 28.284C53.636 28.803 52.569 30.566 52.03 32.637C51.801 33.497 53.304 32.227 53.396 31.867Z" fill="#001E00"/>
<path opacity="0.12" d="M54.335 33.666C62.2684 39.448 61.773 39.91 52.849 35.052C52.782 34.631 52.144 33.752 52.187 34.631C52.351 37.938 54.548 41.061 58.418 40.016C59.1949 39.7991 59.9123 39.4083 60.5159 38.8732C61.1194 38.338 61.5933 37.6725 61.9016 36.9272C62.2099 36.1818 62.3447 35.376 62.2955 34.5709C62.2464 33.7658 62.0147 32.9823 61.618 32.28C61.1314 31.401 60.3591 30.7145 59.429 30.3344C58.499 29.9543 57.467 29.9034 56.504 30.19C53.976 30.957 52.795 32.83 52.318 35.305C52.251 35.642 54.206 34.255 54.335 33.666Z" fill="#001E00"/>
<path opacity="0.12" d="M52.269 33.988L59.222 32.606C59.7269 33.3632 59.924 34.2845 59.773 35.182C59.8464 35.7771 59.7361 36.3804 59.457 36.911C58.5236 40.3777 55.5927 39.619 50.664 34.635C50.618 34.235 50.033 33.897 50.055 34.43C50.17 37.292 51.155 39.49 54.198 40.355C59.298 41.805 62.274 35.055 59.098 31.602C58.5801 30.9854 57.8969 30.5295 57.1288 30.2879C56.3607 30.0463 55.5396 30.029 54.762 30.238C52.684 30.765 51.942 32.26 51.443 34.199C51.3 34.737 52.18 34.353 52.269 33.988Z" fill="#001E00"/>
<path opacity="0.12" d="M54.767 31.43C58.7377 28.9847 61.099 29.3207 61.851 32.438C62.5937 36.872 59.5687 36.9747 52.776 32.746C52.756 32.3 52.153 31.797 52.151 32.446C52.141 35.413 53.093 37.66 56.198 38.399C60.424 39.404 63.433 35.016 62.119 31.378C61.239 28.945 59.251 27.339 56.654 28.262C54.397 29.062 53.367 30.812 52.794 33.062C52.723 33.342 54.611 32.032 54.767 31.43Z" fill="#001E00"/>
<path opacity="0.12" d="M54.671 32.304C63.909 37.2453 63.3274 37.7217 52.9261 33.733C52.9041 33.488 52.267 32.562 52.272 33.144C52.3 35.992 53.183 38.633 56.453 39.088C57.285 39.2051 58.1328 39.1241 58.9275 38.8514C59.7221 38.5788 60.4411 38.1223 61.026 37.5192C61.6108 36.916 62.0449 36.1832 62.2929 35.3806C62.5409 34.5779 62.5957 33.7279 62.453 32.9C61.944 30.538 59.822 28.337 57.243 28.794C54.508 29.278 53.043 31.659 52.508 34.114C52.444 34.388 54.517 32.949 54.671 32.304Z" fill="#001E00"/>
<path opacity="0.12" d="M53.938 33.03C60.1 33.45 62.1533 34.82 60.098 37.14C58.4627 39.7967 55.9203 38.93 52.471 34.54C52.441 34.355 51.745 33.148 51.771 33.83C51.834 35.544 51.687 36.302 52.794 37.71C53.4112 38.4695 54.2334 39.0359 55.1629 39.3422C56.0924 39.6485 57.0902 39.6817 58.038 39.438C58.822 39.2294 59.5468 38.8413 60.155 38.3043C60.7632 37.7674 61.2382 37.0963 61.5424 36.3442C61.8466 35.592 61.9716 34.7795 61.9077 33.9707C61.8438 33.1619 61.5926 32.379 61.174 31.684C60.696 30.8102 59.934 30.1257 59.014 29.7438C58.0941 29.3619 57.0713 29.3056 56.115 29.584C53.589 30.342 52.395 32.284 51.881 34.732C51.817 35.034 53.799 33.642 53.938 33.03Z" fill="#001E00"/>
<path opacity="0.12" d="M53.293 35.695L60.312 34.148C61.3927 36.6427 61.1353 38.5704 59.54 39.931C58.5133 41.373 57.116 41.12 55.348 39.172C52.4427 39.3054 51.225 38.2347 51.695 35.96C51.683 35.66 51.135 35.803 51.143 35.96C51.29 38.644 52.2431 41.36 55.2281 42.002C58.6661 42.742 62.328 39.433 61.669 35.908C61.5847 35.2547 61.3691 34.6252 61.0352 34.0573C60.7014 33.4894 60.2563 32.9949 59.7265 32.6034C59.1967 32.2119 58.5932 31.9316 57.9523 31.7793C57.3114 31.627 56.6463 31.6058 55.997 31.717C53.957 32.026 53.241 33.669 52.806 35.424C52.756 35.63 53.219 36.003 53.293 35.695Z" fill="#001E00"/>
<path opacity="0.12" d="M55.445 33.223C61.641 34.113 63.5887 35.6433 61.2881 37.814C59.3547 40.4373 56.7994 39.3137 53.622 34.443C53.589 34.013 52.9861 33.534 53.0041 34.157C53.0871 36.911 54.041 39.574 57.204 40.017C58.0226 40.1157 58.853 40.0287 59.6333 39.7624C60.4137 39.4961 61.1241 39.0575 61.7116 38.479C62.2992 37.9006 62.749 37.1971 63.0274 36.421C63.3059 35.6449 63.4059 34.8161 63.32 33.996C62.877 31.219 60.43 29.071 57.646 29.83C55.09 30.53 53.846 32.43 53.364 34.904C53.302 35.229 55.311 33.822 55.445 33.223Z" fill="#001E00"/>
<path opacity="0.12" d="M54.869 34.072C62.5837 40.344 62.0093 40.6917 53.146 35.115C53.103 34.707 52.507 34.271 52.537 34.853C52.672 37.516 53.737 40.342 56.837 40.712C57.7324 40.7992 58.6355 40.662 59.4647 40.3127C60.2938 39.9634 61.0228 39.4131 61.5859 38.7114C62.1491 38.0097 62.5285 37.1788 62.69 36.2938C62.8515 35.4087 62.79 34.4973 62.511 33.642C62.18 32.5694 61.4639 31.6572 60.5005 31.0811C59.5371 30.505 58.3945 30.3059 57.293 30.522C54.77 31.011 53.545 33.15 53.103 35.438C53.031 35.821 54.757 34.583 54.869 34.072Z" fill="#001E00"/>
<path opacity="0.12" d="M53.372 34.818C54.594 29.677 63.381 31.503 60.059 38.142L59.039 39.46C56.353 41.5934 53.9253 40.3074 51.756 35.602C51.703 35.21 51.112 34.842 51.149 35.381C51.266 37.081 51.134 37.706 52.205 39.141C52.9885 40.2216 54.1659 40.9502 55.4825 41.1692C56.7991 41.3882 58.149 41.0799 59.24 40.311C60.3278 39.5301 61.0945 38.3801 61.397 37.0756C61.6995 35.771 61.5171 34.401 60.884 33.221C60.404 32.3614 59.654 31.6839 58.7501 31.2935C57.8463 30.903 56.8389 30.8213 55.884 31.061C53.698 31.633 52.757 33.22 52.265 35.296C52.085 36.032 53.29 35.165 53.372 34.818Z" fill="#001E00"/>
<path opacity="0.12" d="M52.748 32.636C57.022 29.6527 59.48 29.829 60.122 33.165C60.64 37.551 57.6114 37.7133 51.036 33.652C51.011 33.408 50.388 32.635 50.393 33.174C50.418 36.131 51.3861 38.399 54.4781 39.194C55.6759 39.4577 56.9287 39.2801 58.0061 38.6939C59.0834 38.1076 59.9129 37.1521 60.342 36.003C61.773 32.325 58.664 27.57 54.548 29.294C52.748 30.05 52.023 31.365 51.536 33.246C51.334 34.027 52.661 32.99 52.748 32.636Z" fill="#001E00"/>
<path opacity="0.12" d="M53.797 34.184C56.279 30.21 57.7207 30.522 58.122 35.12C61.1087 40.6 59.168 40.7047 52.3 35.434C52.231 35.028 51.6 34.285 51.651 35.074C51.751 36.715 51.645 37.364 52.72 38.735C53.5261 39.7684 54.7036 40.4467 56.002 40.6256C57.3004 40.8045 58.6174 40.4699 59.673 39.693C60.7263 38.9129 61.4579 37.7744 61.7298 36.4921C62.0017 35.2099 61.7951 33.8725 61.149 32.732C60.6518 31.8687 59.8808 31.196 58.9581 30.8203C58.0354 30.4446 57.0138 30.3875 56.055 30.658C53.663 31.358 52.634 33.123 52.164 35.438C52.084 35.829 53.691 34.67 53.797 34.184Z" fill="#001E00"/>
<path opacity="0.12" d="M55.997 32.359C63.3017 32.759 65.0147 34.2923 61.136 36.959C60.8688 37.687 60.3342 38.2857 59.641 38.6333C58.9478 38.9809 58.1482 39.0513 57.405 38.83C54.777 38.323 53.942 36.021 53.88 33.488C53.87 33.076 53.28 32.888 53.294 33.307C53.346 35.49 53.466 37.334 55.585 38.674C56.7892 39.3706 58.2164 39.5735 59.567 39.24C60.2919 39.0894 60.976 38.7852 61.5734 38.348C62.1709 37.9108 62.6677 37.3507 63.0305 36.7053C63.3933 36.06 63.6137 35.3444 63.6767 34.6068C63.7397 33.8691 63.644 33.1265 63.396 32.429C62.559 29.967 60.485 28.259 57.876 29.174C55.54 29.993 54.456 31.661 53.944 34.025C53.876 34.334 55.849 32.956 55.997 32.359Z" fill="#001E00"/>
<path opacity="0.12" d="M55.152 34.761C57.98 30.6003 59.398 30.972 59.406 35.876C61.93 41.894 59.8947 41.766 53.3 35.492C53.282 35.117 52.712 35.099 52.729 35.392C52.849 37.528 53.029 39.233 55.024 40.585C55.5744 40.9854 56.2095 41.2538 56.8802 41.3696C57.5509 41.4855 58.2392 41.4456 58.892 41.253C60.227 40.9457 61.4019 40.1571 62.1921 39.038C62.9822 37.9189 63.3322 36.5479 63.175 35.187C63.1019 34.5382 62.8946 33.9118 62.5663 33.3475C62.238 32.7831 61.796 32.2933 61.2682 31.909C60.7404 31.5247 60.1384 31.2545 59.5006 31.1154C58.8627 30.9763 58.2029 30.9714 57.563 31.101C55.325 31.647 54.313 33.241 53.873 35.382C53.701 36.219 55.076 35.105 55.152 34.761Z" fill="#001E00"/>
<path opacity="0.12" d="M53.172 33.359C57.782 29.1237 60.0277 30.283 59.909 36.837C58.143 40.0497 55.4053 39.3497 51.696 34.737C51.665 34.555 50.981 33.444 51.007 34.097C51.078 35.821 50.943 36.536 52.044 37.954C52.6674 38.712 53.4878 39.2831 54.415 39.6046C55.3422 39.9261 56.3402 39.9854 57.299 39.776C60.839 39.176 62.209 34.684 60.461 31.882C59.9196 30.9398 59.0436 30.2358 58.0071 29.9097C56.9705 29.5837 55.8493 29.6594 54.866 30.122C52.836 31.034 52.042 32.473 51.548 34.622C51.465 34.995 53.055 33.853 53.172 33.359Z" fill="#001E00"/>
<path opacity="0.12" d="M52.374 35.027C53.4007 30.6657 55.9673 30.714 60.074 35.172C60.2225 36.0962 60.0671 37.0437 59.631 37.872C59.5223 38.2953 59.33 38.6926 59.0654 39.0404C58.8007 39.3882 58.4691 39.6794 58.09 39.897C55.086 41.805 52.6587 40.283 50.808 35.331C50.786 34.966 50.224 34.977 50.236 35.267C50.323 37.412 50.615 39.18 52.528 40.511C55.944 42.886 60.55 40.195 60.659 36.167C60.7611 35.0136 60.4429 33.8622 59.7629 32.9249C59.083 31.9877 58.0871 31.3278 56.959 31.067C54.179 30.51 52.522 32.296 51.898 34.748C51.856 34.92 52.306 35.306 52.374 35.027Z" fill="#001E00"/>
<path opacity="0.12" d="M100.195 35.305C101.521 29.861 110.627 32.358 106.795 38.945L105.601 40.273C100.427 40.8297 98.042 39.3517 98.446 35.839C98.431 35.499 97.873 35.583 97.886 35.797C98.012 37.952 98.274 39.726 100.231 41.044C101.077 41.5974 102.071 41.8821 103.081 41.8609C104.092 41.8397 105.073 41.5134 105.895 40.925C107.037 40.1955 107.868 39.0681 108.226 37.7612C108.584 36.4542 108.444 35.0608 107.834 33.851C107.373 32.9599 106.631 32.2461 105.722 31.8209C104.813 31.3957 103.789 31.2829 102.81 31.5C100.634 32.018 99.752 33.534 99.261 35.587C99.118 36.21 100.111 35.655 100.195 35.305Z" fill="#001E00"/>
<path opacity="0.12" d="M98.723 34.273C103.622 29.7077 105.869 30.8367 105.465 37.66C103.581 40.9327 100.799 40.101 97.119 35.165C97.058 34.772 96.455 34.224 96.494 34.882C96.62 36.96 96.894 38.602 98.859 39.882C99.7275 40.4263 100.735 40.7066 101.76 40.6889C102.785 40.6711 103.783 40.3561 104.632 39.782C106.932 38.369 107.489 34.842 106.157 32.625C105.618 31.6772 104.742 30.9668 103.703 30.6346C102.665 30.3025 101.539 30.3729 100.55 30.832C98.726 31.627 98.014 32.898 97.539 34.832C97.349 35.604 98.638 34.622 98.723 34.273Z" fill="#001E00"/>
<path opacity="0.12" d="M99.132 31.867C107.06 28.5463 106.451 28.886 97.306 32.886C97.289 32.608 96.679 31.932 96.675 32.433C96.649 35.319 97.492 38.013 100.785 38.575C102.162 38.8198 103.58 38.518 104.738 37.7337C105.895 36.9494 106.702 35.7444 106.985 34.375C107.551 31.246 105.027 27.488 101.605 28.284C99.373 28.803 98.305 30.567 97.766 32.637C97.537 33.497 99.04 32.227 99.132 31.867Z" fill="#001E00"/>
<path opacity="0.12" d="M100.072 33.666C108.005 39.448 107.51 39.91 98.585 35.052C98.518 34.632 97.88 33.752 97.923 34.631C98.088 37.938 100.284 41.061 104.155 40.016C104.932 39.7993 105.65 39.4086 106.253 38.8735C106.857 38.3383 107.331 37.6729 107.639 36.9274C107.948 36.182 108.082 35.3761 108.033 34.5709C107.984 33.7657 107.752 32.9823 107.355 32.28C106.868 31.401 106.096 30.7145 105.166 30.3344C104.236 29.9543 103.204 29.9034 102.241 30.19C99.714 30.958 98.532 32.83 98.055 35.305C97.987 35.642 99.943 34.255 100.072 33.666Z" fill="#001E00"/>
<path opacity="0.12" d="M98.005 33.988L104.958 32.606C105.464 33.363 105.661 34.2845 105.509 35.182C105.583 35.7771 105.473 36.3805 105.193 36.911C104.263 40.3777 101.332 39.619 96.4 34.635C96.354 34.235 95.769 33.897 95.791 34.43C95.908 37.292 96.891 39.49 99.935 40.355C105.035 41.805 108.011 35.055 104.835 31.602C104.317 30.9856 103.634 30.5299 102.866 30.2882C102.098 30.0466 101.277 30.0292 100.5 30.238C98.422 30.765 97.679 32.26 97.18 34.199C97.036 34.737 97.916 34.353 98.005 33.988Z" fill="#001E00"/>
<path opacity="0.12" d="M100.504 31.43C104.475 28.9847 106.836 29.3207 107.587 32.438C108.33 36.8727 105.305 36.9753 98.512 32.746C98.492 32.3 97.889 31.797 97.887 32.446C97.878 35.413 98.829 37.66 101.934 38.399C106.16 39.405 109.17 35.016 107.856 31.378C106.976 28.945 104.987 27.339 102.391 28.262C100.134 29.062 99.104 30.812 98.53 33.062C98.46 33.342 100.347 32.032 100.504 31.43Z" fill="#001E00"/>
<path opacity="0.12" d="M100.411 32.304C109.648 37.2453 109.066 37.7217 98.666 33.733C98.644 33.488 98.006 32.562 98.012 33.144C98.04 35.992 98.923 38.633 102.192 39.088C103.024 39.2048 103.871 39.1236 104.666 38.851C105.46 38.5783 106.179 38.1219 106.764 37.519C107.349 36.916 107.783 36.1834 108.031 35.381C108.279 34.5785 108.334 33.7288 108.192 32.901C107.683 30.539 105.56 28.337 102.981 28.794C100.247 29.278 98.781 31.66 98.246 34.114C98.181 34.388 100.253 32.949 100.411 32.304Z" fill="#001E00"/>
<path opacity="0.12" d="M99.675 33.03C105.837 33.45 107.89 34.8203 105.834 37.141C104.2 39.797 101.658 38.9303 98.2069 34.541C98.1769 34.356 97.481 33.149 97.507 33.831C97.571 35.544 97.4239 36.304 98.5299 37.711C99.1473 38.4703 99.9694 39.0367 100.899 39.343C101.828 39.6492 102.826 39.6826 103.774 39.439C104.558 39.2306 105.283 38.8425 105.891 38.3056C106.5 37.7687 106.975 37.0976 107.279 36.3454C107.583 35.5932 107.708 34.7805 107.644 33.9717C107.58 33.1628 107.329 32.3799 106.91 31.685C106.432 30.8113 105.67 30.127 104.75 29.7451C103.831 29.3633 102.808 29.3068 101.852 29.585C99.326 30.343 98.131 32.285 97.618 34.733C97.553 35.034 99.535 33.642 99.675 33.03Z" fill="#001E00"/>
<path opacity="0.12" d="M99.03 35.695L106.049 34.148C107.13 36.6427 106.872 38.5704 105.277 39.931C104.25 41.373 102.853 41.12 101.085 39.172C98.1797 39.3054 96.9616 38.2347 97.431 35.96C97.419 35.66 96.871 35.803 96.88 35.96C97.027 38.644 97.98 41.36 100.964 42.002C104.402 42.742 108.064 39.433 107.406 35.908C107.322 35.2547 107.106 34.6252 106.772 34.0573C106.438 33.4894 105.993 32.9949 105.463 32.6034C104.934 32.2119 104.33 31.9316 103.689 31.7793C103.048 31.627 102.383 31.6058 101.734 31.717C99.694 32.026 98.978 33.669 98.543 35.424C98.492 35.63 98.956 36.003 99.03 35.695Z" fill="#001E00"/>
<path opacity="0.12" d="M101.181 33.223C107.377 34.113 109.325 35.6433 107.024 37.814C105.094 40.4373 102.539 39.3137 99.359 34.443C99.325 34.014 98.722 33.534 98.741 34.157C98.824 36.911 99.777 39.574 102.941 40.017C103.76 40.1157 104.59 40.0287 105.37 39.7624C106.151 39.4962 106.861 39.0575 107.448 38.479C108.036 37.9005 108.485 37.1971 108.764 36.421C109.042 35.6449 109.142 34.816 109.056 33.996C108.614 31.219 106.167 29.071 103.383 29.83C100.826 30.53 99.583 32.43 99.1 34.904C99.038 35.229 101.043 33.822 101.181 33.223Z" fill="#001E00"/>
<path opacity="0.12" d="M100.611 34.072C108.326 40.344 107.751 40.6917 98.887 35.115C98.845 34.707 98.248 34.271 98.278 34.853C98.414 37.516 99.478 40.342 102.578 40.712C103.474 40.8002 104.378 40.6635 105.208 40.3144C106.038 39.9654 106.767 39.4149 107.331 38.7128C107.895 38.0107 108.274 37.1792 108.436 36.2935C108.597 35.4077 108.535 34.4957 108.255 33.64C107.924 32.5675 107.208 31.6553 106.245 31.0792C105.282 30.5031 104.139 30.3039 103.038 30.52C100.515 31.009 99.289 33.149 98.847 35.436C98.768 35.821 100.493 34.583 100.611 34.072Z" fill="#001E00"/>
<path opacity="0.12" d="M99.111 34.818C100.334 29.676 109.121 31.505 105.798 38.142L104.778 39.46C102.092 41.5933 99.6643 40.3073 97.495 35.602C97.442 35.21 96.851 34.842 96.888 35.381C97.006 37.076 96.874 37.707 97.945 39.141C98.7284 40.2216 99.9059 40.9502 101.222 41.1692C102.539 41.3882 103.889 41.0799 104.98 40.311C106.068 39.5299 106.834 38.3799 107.137 37.0755C107.439 35.771 107.257 34.4011 106.624 33.221C106.143 32.3604 105.392 31.6823 104.487 31.2918C103.582 30.9013 102.574 30.8202 101.618 31.061C99.433 31.633 98.491 33.22 97.999 35.296C97.821 36.032 99.026 35.165 99.111 34.818Z" fill="#001E00"/>
<path opacity="0.12" d="M98.485 32.636C102.758 29.6527 105.216 29.829 105.859 33.165C106.377 37.551 103.348 37.7133 96.772 33.652C96.747 33.408 96.1241 32.635 96.1291 33.174C96.1551 36.131 97.122 38.399 100.214 39.194C101.412 39.4576 102.665 39.2799 103.742 38.6937C104.82 38.1074 105.65 37.152 106.079 36.003C107.509 32.326 104.4 27.57 100.285 29.294C98.485 30.05 97.759 31.365 97.272 33.246C97.07 34.027 98.397 32.99 98.485 32.636Z" fill="#001E00"/>
<path opacity="0.12" d="M99.533 34.184C102.016 30.21 103.458 30.522 103.859 35.12C106.846 40.6 104.905 40.7047 98.036 35.434C97.968 35.034 97.336 34.285 97.387 35.074C97.487 36.715 97.382 37.365 98.457 38.735C99.2631 39.7684 100.441 40.4467 101.739 40.6256C103.037 40.8045 104.354 40.4699 105.41 39.693C106.463 38.9126 107.194 37.7742 107.466 36.492C107.738 35.2099 107.532 33.8726 106.886 32.732C106.388 31.8688 105.617 31.1961 104.695 30.8205C103.772 30.4448 102.75 30.3876 101.791 30.658C99.399 31.358 98.371 33.123 97.9 35.438C97.82 35.829 99.427 34.67 99.533 34.184Z" fill="#001E00"/>
<path opacity="0.12" d="M101.733 32.359C109.039 32.759 110.752 34.2923 106.872 36.959C106.605 37.687 106.07 38.2858 105.377 38.6336C104.684 38.9814 103.884 39.052 103.141 38.831C100.514 38.323 99.678 36.02 99.616 33.489C99.606 33.076 99.016 32.889 99.03 33.307C99.083 35.49 99.203 37.334 101.321 38.674C102.525 39.3706 103.952 39.5735 105.303 39.24C106.028 39.0897 106.712 38.7857 107.31 38.3486C107.908 37.9114 108.405 37.3513 108.768 36.7059C109.131 36.0605 109.351 35.3448 109.414 34.6071C109.477 33.8693 109.381 33.1266 109.133 32.429C108.296 29.967 106.221 28.259 103.612 29.174C101.277 29.993 100.193 31.661 99.68 34.025C99.611 34.334 101.585 32.956 101.733 32.359Z" fill="#001E00"/>
<path opacity="0.12" d="M100.889 34.761C103.716 30.6003 105.134 30.972 105.143 35.876C107.666 41.8947 105.631 41.7667 99.036 35.492C99.018 35.117 98.448 35.099 98.465 35.392C98.585 37.529 98.765 39.233 100.765 40.585C101.315 40.9856 101.95 41.2542 102.621 41.3701C103.291 41.4859 103.979 41.4459 104.632 41.253C105.967 40.9457 107.142 40.157 107.932 39.0379C108.722 37.9188 109.071 36.5478 108.914 35.187C108.841 34.5383 108.634 33.9119 108.306 33.3475C107.978 32.7832 107.536 32.2933 107.008 31.9091C106.48 31.5248 105.878 31.2545 105.24 31.1154C104.603 30.9763 103.943 30.9713 103.303 31.101C101.064 31.647 100.053 33.242 99.612 35.382C99.437 36.219 100.811 35.105 100.889 34.761Z" fill="#001E00"/>
<path opacity="0.12" d="M98.911 33.359C103.522 29.1237 105.767 30.283 105.648 36.837C103.883 40.0497 101.145 39.3497 97.436 34.737C97.404 34.555 96.72 33.444 96.747 34.097C96.818 35.82 96.684 36.537 97.784 37.954C98.4071 38.712 99.2274 39.2832 100.154 39.6047C101.082 39.9262 102.079 39.9855 103.038 39.776C106.579 39.176 107.949 34.684 106.2 31.882C105.659 30.9397 104.783 30.2356 103.747 29.9095C102.71 29.5834 101.589 29.6593 100.606 30.122C98.576 31.035 97.781 32.473 97.288 34.622C97.201 34.995 98.792 33.853 98.911 33.359Z" fill="#001E00"/>
<path opacity="0.12" d="M98.111 35.027C99.139 30.6657 101.706 30.714 105.811 35.172C105.959 36.0962 105.804 37.0435 105.368 37.872C105.259 38.2952 105.067 38.6924 104.802 39.0402C104.537 39.3879 104.206 39.6793 103.827 39.897C100.822 41.805 98.3943 40.283 96.545 35.331C96.523 34.966 95.96 34.977 95.972 35.267C96.059 37.413 96.351 39.18 98.265 40.511C101.681 42.886 106.286 40.195 106.395 36.167C106.497 35.0136 106.179 33.8622 105.499 32.9249C104.819 31.9877 103.823 31.3278 102.695 31.067C99.915 30.51 98.258 32.296 97.634 34.748C97.593 34.92 98.042 35.306 98.111 35.027Z" fill="#001E00"/>
<path opacity="0.12" d="M104.86 58.232C102.916 62.991 100.435 67.291 96.424 70.551C94.3251 72.55 91.6316 73.81 88.752 74.14C75.042 81.13 63.0307 74.86 52.718 55.33C52.63 55.066 52.111 55.285 52.227 55.63C54.149 61.34 56.735 66.638 61.551 70.505C65.0765 73.4173 69.2336 75.4657 73.6909 76.487C79.8272 77.8127 86.2299 77.0679 91.898 74.369C99.149 70.891 103.462 64.921 106.435 57.669C106.616 57.229 105.021 57.842 104.86 58.232Z" fill="#001E00"/>
<path opacity="0.12" d="M103.544 57.085C101.284 62.623 98.855 67.314 93.478 70.779C79.909 79.52 59.735 78.816 51.323 54.385C50.949 53.299 50.839 54.966 51.023 55.458C52.605 59.781 54.355 63.596 57.539 67.02C61.3174 71.0321 66.1563 73.8904 71.4938 75.263C76.8314 76.6357 82.4487 76.4665 87.6939 74.775C91.9902 73.3182 95.8869 70.8784 99.0739 67.65C102.481 64.218 104.328 60.45 106.105 56.035C106.244 55.678 103.776 56.518 103.544 57.085Z" fill="#001E00"/>
<path opacity="0.12" d="M103.782 54.782C101.79 59.633 99.243 63.999 95.146 67.313C94.0926 68.3201 92.8787 69.1445 91.554 69.752C78.51 77.802 65.1143 71.7813 51.367 51.69C51.3531 51.6355 51.3191 51.5883 51.2719 51.5578C51.2247 51.5273 51.1676 51.5158 51.1123 51.5255C51.0569 51.5353 51.0073 51.5655 50.9733 51.6103C50.9393 51.6551 50.9235 51.711 50.929 51.767C50.921 52.3087 51.015 52.847 51.206 53.354C52.765 57.587 54.506 61.362 57.577 64.733C60.6855 68.1116 64.5528 70.7026 68.86 72.292C74.6462 74.4119 80.9722 74.5526 86.847 72.692C91.0505 71.3414 94.8881 69.0441 98.064 65.977C101.485 62.583 103.22 58.9 104.983 54.566C105.166 54.119 103.893 54.512 103.782 54.782Z" fill="#001E00"/>
<path opacity="0.12" d="M105.122 56.488C103.178 61.248 100.773 65.497 96.684 68.868C84.1 79.242 61.626 79.894 52.611 53.842C52.5979 53.7872 52.5646 53.7393 52.5176 53.708C52.4707 53.6768 52.4136 53.6645 52.358 53.6736C52.3023 53.6828 52.2522 53.7126 52.2177 53.7572C52.1832 53.8018 52.1668 53.8578 52.172 53.914C52.1536 54.4544 52.2423 54.993 52.433 55.499C54.581 61.027 57.396 66.118 62.264 69.737C65.9286 72.5308 70.1936 74.4328 74.721 75.292C80.922 76.4037 87.3166 75.4474 92.921 72.57C100.091 68.858 104.121 63.057 107.086 55.747C107.253 55.324 105.311 56.035 105.122 56.488Z" fill="#001E00"/>
<path opacity="0.12" d="M102.663 56.855C100.399 62.395 97.963 67.072 92.563 70.514C78.958 79.182 58.863 78.263 50.602 53.836C50.302 52.948 50.024 54.095 50.194 54.574C51.82 59.162 53.594 63.113 56.942 66.706C59.5487 69.5407 62.7041 71.8164 66.2166 73.395C69.7292 74.9737 73.5258 75.8224 77.3762 75.8897C81.2267 75.957 85.0506 75.2416 88.6162 73.7867C92.1818 72.3318 95.4148 70.1678 98.119 67.426C101.519 64.016 103.354 60.267 105.124 55.873C105.273 55.498 102.885 56.311 102.663 56.855Z" fill="#001E00"/>
<path opacity="0.12" d="M105.249 54.51C104.636 56.6668 103.666 58.7055 102.378 60.541C93.5426 76.0504 76.947 73.0557 52.591 51.557C52.5778 51.5024 52.5445 51.4547 52.4977 51.4236C52.4509 51.3925 52.3941 51.3802 52.3386 51.3892C52.2831 51.3981 52.2331 51.4277 52.1985 51.472C52.1639 51.5163 52.1472 51.572 52.152 51.628C52.1353 52.1699 52.2226 52.71 52.409 53.219C54.498 58.891 57.234 63.842 62.089 67.647C65.5666 70.3917 69.6296 72.2987 73.963 73.22C79.9586 74.4396 86.1882 73.6751 91.711 71.042C98.78 67.642 102.947 61.827 105.865 54.693C106.011 54.328 105.396 54.152 105.249 54.51Z" fill="#001E00"/>
<path opacity="0.12" d="M105.269 55.227C103.933 59.4719 101.558 63.3158 98.359 66.409C85.7263 78.3537 70.5087 73.7137 52.706 52.489C52.606 52.202 52.278 52.269 52.267 52.56C52.2495 53.1457 52.3435 53.7294 52.544 54.28C54.644 59.747 57.418 64.84 62.211 68.441C65.8077 71.2233 69.997 73.1395 74.454 74.041C79.0455 74.9077 83.7795 74.6365 88.242 73.251C92.4751 71.8728 96.3381 69.5472 99.537 66.451C102.967 63.221 104.701 59.351 106.424 55.129C106.711 54.425 105.399 54.908 105.269 55.227Z" fill="#001E00"/>
<path opacity="0.12" d="M104.689 55.883L103 60.032C100.814 64.6183 97.1998 68.3726 92.7 70.732C79.266 78.532 59.928 75.573 52.187 53.211C52.073 52.881 51.787 52.998 51.749 53.285C51.7162 53.919 51.8227 54.5525 52.061 55.141C54.076 60.171 56.367 64.312 60.467 67.929C64.349 71.4496 69.1459 73.8028 74.306 74.718C80.5449 75.7239 86.9422 74.758 92.606 71.955C99.715 68.477 103.812 62.228 106.668 55.143C106.845 54.718 104.874 55.429 104.689 55.883Z" fill="#001E00"/>
<path opacity="0.12" d="M103.72 58.484C102.965 61.3169 101.505 63.9124 99.475 66.028C98.0554 68.5204 96.0317 70.6157 93.59 72.121L89.827 74.258C68.1857 76.51 55.4877 70.273 51.733 55.547C51.659 55.327 51.108 55.429 51.179 55.647C53.179 61.622 55.779 66.662 60.636 70.747C64.726 74.1649 69.7137 76.3326 75.003 76.991C79.0217 77.5758 83.1194 77.281 87.013 76.127C91.3515 74.7419 95.3166 72.3847 98.606 69.235C102.049 66.035 103.947 61.986 105.7 57.715C105.869 57.297 103.911 58.023 103.72 58.484Z" fill="#001E00"/>
<path opacity="0.12" d="M106.083 56.116C104.434 60.154 102.602 64.345 99.205 67.296L83.705 74.622C70.6864 76.0773 60.6053 68.9997 53.462 53.389C53.387 53.163 53.045 53.243 53.023 53.457C52.997 53.8895 53.0653 54.3225 53.223 54.726C54.5853 58.8588 56.7137 62.698 59.497 66.043C63.4626 70.4764 68.7366 73.5323 74.555 74.768C78.3679 75.5973 82.3117 75.6235 86.1352 74.8447C89.9587 74.066 93.5782 72.4995 96.763 70.245C101.909 66.598 104.751 61.795 107.087 56.088C107.341 55.459 106.217 55.789 106.083 56.116Z" fill="#001E00"/>
<path opacity="0.12" d="M105.564 56.981C104.212 61.1856 101.839 64.9901 98.659 68.055C86.0737 79.943 70.8884 75.3813 53.103 54.37C52.765 53.365 52.5941 54.87 52.7671 55.356C54.7611 60.932 57.44 65.806 62.074 69.625C65.6678 72.5827 69.9245 74.6259 74.48 75.58C79.17 76.5659 84.0354 76.3199 88.602 74.866C92.8868 73.4765 96.7985 71.1287 100.04 68.001C103.502 64.576 105.307 60.825 107.109 56.448C107.293 56.002 105.723 56.597 105.564 56.981Z" fill="#001E00"/>
<path opacity="0.12" d="M103.947 57.621C102.204 63.1785 98.6566 67.9957 93.867 71.31C80.3237 80.48 66.2687 74.9854 51.702 54.826C51.431 54.026 51.112 55.026 51.277 55.496C53.317 61.255 55.971 66.23 60.751 70.175C63.2574 72.263 66.1139 73.8905 69.188 74.982C75.1796 77.1877 81.7403 77.3068 87.808 75.32C92.1156 73.8462 96.0388 71.4271 99.29 68.24C102.706 64.819 104.567 61.04 106.354 56.632C106.504 56.261 104.168 57.08 103.947 57.621Z" fill="#001E00"/>
<path opacity="0.12" d="M103.067 55.634L101.378 59.779C99.1828 64.3555 95.5512 68.0886 91.037 70.409C77.552 78.091 58.394 74.781 50.826 52.476C50.8101 52.4234 50.7754 52.3784 50.7285 52.3497C50.6817 52.321 50.6259 52.3105 50.5717 52.3202C50.5176 52.33 50.469 52.3593 50.4352 52.4026C50.4013 52.4459 50.3845 52.5001 50.388 52.555C50.3831 53.0776 50.477 53.5964 50.6649 54.084C52.2539 58.366 54.011 62.154 57.148 65.544C60.3164 68.9573 64.2612 71.5561 68.648 73.12C75.778 75.62 84.331 75.272 90.993 71.615C98.031 67.752 102.036 62.288 104.986 54.951C105.162 54.512 103.246 55.194 103.067 55.634Z" fill="#001E00"/>
<path opacity="0.12" d="M104.543 57.021L102.843 61.176C100.668 65.7476 97.0691 69.4902 92.586 71.842C79.145 79.642 59.892 76.795 52.086 54.297C52.0669 54.2485 52.0317 54.2081 51.9862 54.1825C51.9408 54.1569 51.888 54.1478 51.8366 54.1566C51.7852 54.1654 51.7384 54.1916 51.7041 54.2308C51.6697 54.2701 51.65 54.3199 51.648 54.372C51.6311 54.844 51.7114 55.3144 51.884 55.754C54.628 63.006 58.801 69.06 65.773 72.826C71.2427 75.7759 77.5224 76.8694 83.6673 75.942C89.8121 75.0147 95.4895 72.1166 99.845 67.684C103.245 64.255 105.094 60.478 106.875 56.077C107.026 55.697 104.757 56.497 104.543 57.021Z" fill="#001E00"/>
<path opacity="0.12" d="M106.546 55.342C104.756 60.9829 101.166 65.8812 96.325 69.286C82.725 78.6033 68.5647 73.07 53.844 52.686C53.557 51.805 53.244 52.917 53.409 53.402C55.37 59.096 57.965 64.124 62.652 68.057C66.1582 70.9935 70.3159 73.049 74.778 74.052C80.7952 75.3879 87.0861 74.6767 92.653 72.031C99.82 68.396 103.841 63.099 106.853 55.781C106.89 55.687 106.594 55.229 106.546 55.342Z" fill="#001E00"/>
<path opacity="0.12" d="M105.665 57.567C104.414 61.0233 102.579 64.239 100.239 67.074C98.5171 69.4006 96.0761 71.0944 93.294 71.893C79.914 81.7497 66.5787 76.0857 53.288 54.901C53.138 54.454 52.676 54.915 52.813 55.319C54.747 60.992 57.344 66.279 62.145 70.114C65.6733 73.016 69.8292 75.0562 74.283 76.073C80.4049 77.3875 86.7896 76.6397 92.442 73.946C93.8365 73.2736 95.1742 72.4894 96.442 71.601C101.626 67.964 104.489 63.162 106.842 57.434C107.131 56.724 105.796 57.247 105.665 57.567Z" fill="#001E00"/>
<path opacity="0.12" d="M103.851 56.242L102.159 60.396C100.665 63.7062 98.1186 66.4295 94.916 68.142C93.1722 70.455 90.7216 72.1364 87.936 72.931C74.736 78.4983 62.5693 72.021 51.436 53.499C51.336 53.216 51.005 53.292 50.998 53.576C50.9906 54.1529 51.0924 54.7259 51.298 55.265C53.02 59.651 54.861 63.444 58.211 66.865C62.8217 71.5283 68.8839 74.4812 75.3981 75.2367C81.9122 75.9922 88.4894 74.5053 94.045 71.021C100.089 67.186 103.593 61.937 106.262 55.287C106.411 54.903 104.068 55.706 103.851 56.242Z" fill="#001E00"/>
<path opacity="0.12" d="M102.745 57.82C101.006 63.3682 97.4479 68.1682 92.645 71.445C79.103 80.4863 65.1513 74.916 50.79 54.734C50.64 54.288 50.19 54.767 50.327 55.166C52.274 60.899 54.848 66.109 59.659 70.008C63.2334 72.968 67.462 75.0335 71.994 76.033C76.8241 77.0675 81.8388 76.8443 86.558 75.385C90.8644 73.9611 94.7914 71.5782 98.043 68.416C101.513 65.145 103.351 61.185 105.106 56.865C105.26 56.487 102.962 57.29 102.745 57.82Z" fill="#001E00"/>
<path opacity="0.12" d="M52.875 54.895L47.667 57.383C47.167 57.622 47.828 58.177 48.159 58.019L53.366 55.531C53.868 55.291 53.205 54.737 52.875 54.895Z" fill="#001E00"/>
<path opacity="0.12" d="M51.153 53.817L45.982 56.277C45.582 56.469 47.797 57.513 48.294 57.277L53.406 54.869C53.824 54.673 51.639 53.586 51.153 53.817Z" fill="#001E00"/>
<path opacity="0.12" d="M51.051 51.532L45.885 53.996C45.447 54.205 47.4361 55.14 47.8791 54.93L52.979 52.517C53.436 52.302 51.483 51.326 51.051 51.532Z" fill="#001E00"/>
<path opacity="0.12" d="M52.696 53.407L47.548 55.864C47.105 56.075 49.015 56.954 49.448 56.75L54.539 54.336C54.993 54.119 53.116 53.207 52.696 53.407Z" fill="#001E00"/>
<path opacity="0.12" d="M50.217 53.396C48.493 54.2167 46.7687 55.0377 45.044 55.859C44.656 56.044 46.961 57.136 47.48 56.891L52.58 54.491C52.99 54.298 50.722 53.155 50.217 53.396Z" fill="#001E00"/>
<path opacity="0.12" d="M52.427 51.442L47.227 53.934C46.746 54.164 48.166 54.858 48.515 54.691L53.715 52.201C54.198 51.975 52.776 51.279 52.427 51.442Z" fill="#001E00"/>
<path opacity="0.12" d="M52.711 52.215C50.965 53.0257 49.2194 53.8384 47.474 54.653C47.014 54.867 48.715 55.668 49.11 55.483C50.83 54.6764 52.55 53.87 54.27 53.064C54.746 52.842 53.095 52.042 52.711 52.215Z" fill="#001E00"/>
<path opacity="0.12" d="M52.238 52.78L47.072 55.236C46.658 55.436 48.828 56.472 49.312 56.243L54.418 53.843C54.848 53.636 52.711 52.556 52.238 52.78Z" fill="#001E00"/>
<path opacity="0.12" d="M51.511 55.06L46.311 57.551C45.849 57.773 47.052 58.341 47.381 58.184L52.581 55.693C53.05 55.472 51.844 54.902 51.511 55.06Z" fill="#001E00"/>
<path opacity="0.12" d="M53.604 53.191C51.8707 54.0197 50.1373 54.85 48.404 55.682C47.941 55.904 49.05 56.461 49.37 56.307L54.57 53.817C55.037 53.595 53.926 53.037 53.604 53.191Z" fill="#001E00"/>
<path opacity="0.12" d="M53.094 53.883C51.3606 54.713 49.6273 55.5436 47.894 56.375C47.42 56.603 48.786 57.25 49.129 57.085L54.329 54.594C54.806 54.367 53.438 53.718 53.094 53.883Z" fill="#001E00"/>
<path opacity="0.12" d="M51.572 54.356L46.416 56.817C45.978 57.026 47.871 57.878 48.3 57.675C49.9993 56.8684 51.6994 56.0614 53.4 55.254C53.851 55.042 51.991 54.156 51.572 54.356Z" fill="#001E00"/>
<path opacity="0.12" d="M50.497 52.214L45.323 54.678C44.936 54.863 47.287 56.006 47.815 55.758C49.5157 54.958 51.2157 54.158 52.915 53.358C53.324 53.167 51.011 51.971 50.497 52.214Z" fill="#001E00"/>
<path opacity="0.12" d="M52.144 53.898L46.986 56.354C46.559 56.554 48.586 57.492 49.037 57.277L54.137 54.867C54.581 54.658 52.588 53.686 52.144 53.898Z" fill="#001E00"/>
<path opacity="0.12" d="M54.085 52.482C52.3517 53.31 50.6157 54.139 48.877 54.969C48.556 55.122 48.765 55.694 49.111 55.528L54.318 53.04C54.638 52.888 54.432 52.316 54.085 52.482Z" fill="#001E00"/>
<path opacity="0.12" d="M53.539 54.498C51.8024 55.326 50.0663 56.155 48.331 56.985C47.896 57.193 48.378 57.752 48.718 57.585L53.925 55.097C54.359 54.894 53.879 54.336 53.539 54.498Z" fill="#001E00"/>
<path opacity="0.12" d="M51.383 53.057L46.211 55.516C45.836 55.694 48.255 56.882 48.801 56.626L53.91 54.226C54.301 54.042 51.911 52.805 51.383 53.057Z" fill="#001E00"/>
<path opacity="0.12" d="M50.391 54.299L45.232 56.763C44.793 56.973 46.639 57.79 47.06 57.59C48.7573 56.7827 50.4546 55.9757 52.152 55.169C52.611 54.953 50.8 54.104 50.391 54.299Z" fill="#001E00"/>
<path opacity="0.12" d="M105.972 58.648L111.142 61.133C111.518 61.314 110.92 58.712 110.383 58.45L105.309 55.98C104.911 55.789 105.448 58.396 105.972 58.648Z" fill="#001E00"/>
<path opacity="0.12" d="M104.397 57.157C106.115 57.9823 107.833 58.8084 109.551 59.635C109.983 59.843 109.458 57.655 109.008 57.435C107.314 56.613 105.62 55.792 103.925 54.972C103.479 54.757 103.955 56.942 104.397 57.157Z" fill="#001E00"/>
<path opacity="0.12" d="M104.371 54.658L109.571 57.158C109.747 57.243 110.227 56.931 109.909 56.778L104.709 54.284C104.534 54.196 104.053 54.506 104.371 54.658Z" fill="#001E00"/>
<path opacity="0.12" d="M105.711 56.568C107.429 57.394 109.147 58.2213 110.865 59.05C111.259 59.24 110.678 56.787 110.165 56.539C108.475 55.715 106.784 54.8917 105.091 54.069C104.683 53.87 105.211 56.328 105.711 56.568Z" fill="#001E00"/>
<path opacity="0.12" d="M103.748 56.901C105.481 57.7277 107.215 58.5557 108.948 59.385C109.428 59.614 109.07 58.055 108.719 57.885L103.519 55.399C103.038 55.171 103.396 56.733 103.748 56.901Z" fill="#001E00"/>
<path opacity="0.12" d="M105.599 54.57C107.332 55.4007 109.066 56.234 110.799 57.07C111.113 57.22 111.425 56.704 111.078 56.537L105.878 54.043C105.566 53.889 105.252 54.404 105.599 54.57Z" fill="#001E00"/>
<path opacity="0.12" d="M105.862 55.493C107.595 56.3197 109.329 57.1473 111.062 57.976C111.534 58.202 111.162 56.667 110.805 56.499C109.072 55.669 107.338 54.8403 105.605 54.013C105.131 53.787 105.511 55.325 105.862 55.493Z" fill="#001E00"/>
<path opacity="0.12" d="M105.277 55.924L110.42 58.393C110.86 58.604 110.344 56.575 109.92 56.369C108.228 55.551 106.536 54.7343 104.845 53.919C104.387 53.7 104.858 55.724 105.277 55.924Z" fill="#001E00"/>
<path opacity="0.12" d="M104.949 58.828L110.115 61.311C110.529 61.511 109.977 59.163 109.495 58.929C107.802 58.1063 106.109 57.2843 104.415 56.463C103.984 56.254 104.479 58.603 104.949 58.828Z" fill="#001E00"/>
<path opacity="0.12" d="M106.667 56.536C108.382 57.3587 110.097 58.1827 111.812 59.008C112.24 59.214 111.694 57.134 111.253 56.92L106.186 54.465C105.742 54.251 106.234 56.329 106.667 56.536Z" fill="#001E00"/>
<path opacity="0.12" d="M106.219 57.242L111.383 59.73C111.765 59.914 111.172 57.383 110.647 57.13C108.954 56.3047 107.261 55.4803 105.566 54.657C105.168 54.464 105.706 56.998 106.219 57.242Z" fill="#001E00"/>
<path opacity="0.12" d="M104.828 57.781L109.992 60.268C110.386 60.459 109.819 57.946 109.305 57.696L104.224 55.225C103.811 55.025 104.326 57.542 104.828 57.781Z" fill="#001E00"/>
<path opacity="0.12" d="M103.844 55.415L109.044 57.91C109.562 58.159 109.565 57.265 109.238 57.11L104.038 54.616C103.521 54.366 103.517 55.259 103.844 55.415Z" fill="#001E00"/>
<path opacity="0.12" d="M105.204 57.122C106.924 57.95 108.643 58.779 110.362 59.609C110.742 59.792 110.156 57.194 109.622 56.934L104.549 54.462C104.152 54.269 104.682 56.871 105.204 57.122Z" fill="#001E00"/>
<path opacity="0.12" d="M107.02 55.888L112.22 58.371C112.684 58.593 112.356 57.255 112.02 57.095L106.82 54.608C106.358 54.386 106.687 55.729 107.02 55.888Z" fill="#001E00"/>
<path opacity="0.12" d="M106.525 58.142C108.248 58.9687 109.97 59.7967 111.691 60.626C112.068 60.807 111.464 58.246 110.931 57.987C109.24 57.1643 107.55 56.3414 105.859 55.518C105.465 55.327 106.005 57.893 106.525 58.142Z" fill="#001E00"/>
<path opacity="0.12" d="M104.539 56.274L109.682 58.742C110.13 58.957 109.631 56.966 109.213 56.765C107.521 55.949 105.829 55.1337 104.137 54.319C103.675 54.096 104.13 56.078 104.539 56.274Z" fill="#001E00"/>
<path opacity="0.12" d="M103.979 57.956L109.172 60.487C109.635 60.712 109.204 58.887 108.815 58.696L103.664 56.196C103.19 55.969 103.599 57.771 103.979 57.956Z" fill="#001E00"/>
</g>
<defs>
<radialGradient id="paint0_radial" cx="0" cy="0" r="1" gradientUnits="userSpaceOnUse" gradientTransform="translate(74.249 -22.612) rotate(-90) scale(48.66 48.807)">
<stop stop-color="#4CCD43"/>
<stop offset="1" stop-color="#4CCD43" stop-opacity="0"/>
</radialGradient>
<clipPath id="clip0">
<rect width="150" height="150" fill="white"/>
</clipPath>
</defs>
</svg>
