<svg xmlns="http://www.w3.org/2000/svg" width="48" height="48" viewBox="0 0 48 48"><defs><style>.a{opacity:1;}.b,.c{fill:#001e00;}.b{opacity:0;}.c{opacity:0.062;}</style></defs><g class="a"><rect class="b" width="48" height="48"/><g transform="translate(-664.196 -218.398)"><path class="c" d="M679.04,268.548c.041,0,.131-.088.139-.088C679.139,268.46,679.049,268.548,679.04,268.548Z" transform="translate(-2.617 -12.445)"/><path class="c" d="M686.705,268.754h-6.593c.133,0-1.811.167-1.622-.208a.355.355,0,0,0-.149.073l-.129.208a.053.053,0,0,0,.047.085h8.41C686.738,268.911,686.818,268.754,686.705,268.754Z" transform="translate(-2.369 -12.47)"/><path class="c" d="M679.308,268.377c.051,0,.1-.086.151-.086C679.408,268.291,679.358,268.377,679.308,268.377Z" transform="translate(-2.696 -12.395)"/><path class="c" d="M685.942,268.038h-8.41l.312.3q.121-.5.207-1.011c.014-.073-.156-.028-.168.011l-.388.719c-.113.084.224.339.292.339h8.41C686.358,268.4,686.06,268.038,685.942,268.038Z" transform="translate(-2.153 -12.099)"/><path class="c" d="M686.427,268.247h-8.411l.186.219a4.692,4.692,0,0,0,.222-.974c.011-.054-.158-.011-.165.02l-.315.761c-.073.077.087.254.163.254h8.41C686.719,268.526,686.534,268.247,686.427,268.247Z" transform="translate(-2.287 -12.151)"/><path class="c" d="M679.022,260.457q.085-2.293.134-4.587c0-.036-.146-.071-.146-.094q-.06,2.315-.154,4.628C678.855,260.445,679.022,260.476,679.022,260.457Z" transform="translate(-2.563 -8.692)"/><path class="c" d="M678.879,249.5c-.051,0-.1-.075-.157-.075C678.773,249.424,678.826,249.5,678.879,249.5Z" transform="translate(-2.523 -6.813)"/><path class="c" d="M679.514,258.629c.116-3.031.089-6.077.268-9.1a.1.1,0,0,0-.1-.092q-.575.045-1.15.082c.01,0,.112.036.146.039q1.182-.121.858.878-.017,1.1-.035,2.193-.052,3-.158,6C679.34,258.685,679.51,258.729,679.514,258.629Z" transform="translate(-2.466 -6.815)"/><path class="c" d="M679.658,259.869c.341-3.516.2-7.053.444-10.572,0-.068-.037-.1-.1-.092q-.591.063-1.184.1c-.089.007.079.077.1.079.609.059.755-.011.877.579a13.507,13.507,0,0,1-.034,2.507c-.037,2.455-.041,4.914-.268,7.36C679.484,259.867,679.655,259.893,679.658,259.869Z" transform="translate(-2.543 -6.748)"/><path class="c" d="M672.215,249.559q-.95.165-.537-.07c.02-.008.017-.017,0-.013l-.36.073c-.031.006-.177.119-.088.115l.847-.02A.36.36,0,0,0,672.215,249.559Z" transform="translate(-0.296 -6.828)"/><path class="c" d="M673.6,249.074c-.986-.035-1.97-.085-2.956-.108l.13.257q.529-.3,1.047-.615c-.032.019-.13-.05-.172-.025l-1.005.383c-.162.008-.013.28.092.274.9-.056,1.8-.087,2.7-.123C673.484,249.115,673.543,249.072,673.6,249.074Z" transform="translate(-0.11 -6.562)"/><path class="c" d="M672.892,249.2c-.609-.027-1.214-.049-1.823-.056l.058.2a7.568,7.568,0,0,0,1.034-.594.248.248,0,0,0-.161-.039l-.963.43c-.127.018-.068.227.021.223q.864-.015,1.726-.069C672.819,249.3,672.982,249.206,672.892,249.2Z" transform="translate(-0.227 -6.602)"/><path class="c" d="M683.444,261.139q-4.2,0-8.406,0l.649.627c-.023-1.106.213-2.239.288-3.345.085-1.258.119-2.521.158-3.781.07-2.239.06-4.482.151-6.721,0-.035-.074-.087-.1-.089-1.959-.171-3.971-.137-5.939-.215l.346.573a12.984,12.984,0,0,1,1.931-1.4s-.111-.121-.142-.1a3.128,3.128,0,0,1-2.135.925c-.168-.018.163.591.3.581,1.063-.076,2.133-.13,3.2-.163a14.722,14.722,0,0,1,1.779-.028c.632.058.577.015.559.777-.04,1.722-.075,3.443-.122,5.165q-.06,2.182-.18,4.361c-.039.694.094,2.429-.788,2.845-.08.038.529.673.639.673l8.391,0C684.152,261.82,683.631,261.139,683.444,261.139Z" transform="translate(0 -6.002)"/><path class="c" d="M677,242.817q1.538-1.282,3.051-2.593c.027-.024-.046-.159-.032-.17q-1.531,1.318-3.091,2.6C676.885,242.693,676.966,242.843,677,242.817Z" transform="translate(-1.988 -4.04)"/><path class="c" d="M677.271,241.98c2.631-2.217,5.224-4.478,7.805-6.753.029-.025-.028-.149,0-.174-2.6,2.279-5.215,4.549-7.873,6.766C677.175,241.844,677.263,241.987,677.271,241.98Z" transform="translate(-2.072 -2.561)"/><path class="c" d="M683.587,256.006h-8.4l.725.7a16.435,16.435,0,0,1,.137-2.086c.139-1.708.2-3.426.266-5.139.081-2.243.064-4.494.18-6.734,0-.036-.02-.089-.065-.092-1.989-.154-4.03-.134-6.027-.181l.427.666a11.141,11.141,0,0,1,1.865-1.439c1.374-1.021,2.672-2.181,3.973-3.29,3.047-2.6,6.034-5.263,9.031-7.916.031-.027-.027-.151,0-.174-2.763,2.44-5.527,4.878-8.331,7.269-1.2,1.022-2.389,2.066-3.611,3.057-.915.741-2.053,1.986-3.352,1.826-.154-.019.222.684.382.672.718-.051,1.441-.085,2.159-.12.783-.037,1.567-.055,2.35-.057l.677,0c.244.052.317.2.218.448a8.434,8.434,0,0,1-.036,1.91q-.034,1.786-.073,3.571c-.025,1.041-.06,2.081-.091,3.121-.025.832.156,3.519-.851,3.99-.069.032.594.749.716.749h8.383C684.355,256.766,683.794,256.006,683.587,256.006Z" transform="translate(-0.05 -1.161)"/><path class="c" d="M683.774,254.708h-8.4l.719.7c-.025-1.891.268-3.835.369-5.723.148-2.771.1-5.557.28-8.325a.07.07,0,0,0-.061-.053c-2.022-.088-4.063-.1-6.087-.137l.434.679a25.951,25.951,0,0,1,3.035-2.351c2.035-1.655,4.014-3.388,5.991-5.113,2.859-2.5,5.671-5.047,8.538-7.536.024-.021,0-.176-.009-.165-2.358,2.012-4.653,4.1-6.988,6.141-1.6,1.395-3.2,2.789-4.819,4.158q-1.42,1.174-2.816,2.376a6.752,6.752,0,0,1-3.365,1.811c-.152-.02.226.694.389.684.715-.043,1.434-.076,2.149-.107q.957-.042,1.913-.042c.349,0,1.092-.151,1.326.186.167.239-.02,1.284-.025,1.563q-.022,1.327-.049,2.654c-.025,1.292-.052,2.584-.091,3.876-.035,1.149.134,4.221-.879,4.732-.076.038.594.751.71.751h8.383C684.539,255.468,683.98,254.708,683.774,254.708Z" transform="translate(-0.107 -0.085)"/><path class="c" d="M684.12,254.539h-8.4l.685.677c.046-2.682.4-5.375.507-8.057.08-2.011.05-4.039.213-6.044a.055.055,0,0,0-.061-.053c-2.05,0-4.092-.043-6.141-.07l.423.675a29.1,29.1,0,0,1,3.028-2.354c2.058-1.662,4.064-3.4,6.06-5.13q2.956-2.569,5.882-5.172l1.931-1.71q.317-.738.731-.364c.034.065.094-.107.087-.132l-.064-.258c-.014-.056-.128-.064-.167-.03-2.354,2.018-4.649,4.106-6.982,6.148-1.595,1.4-3.19,2.794-4.8,4.167q-1.39,1.169-2.777,2.343a7.009,7.009,0,0,1-3.347,1.818c-.158-.018.221.687.378.681.877-.036,1.754-.085,2.631-.106.618-.015,1.236-.013,1.854,0s.735-.058.852.528a10.074,10.074,0,0,1-.022,1.9q-.017,1.385-.038,2.769-.024,1.538-.063,3.076c-.03,1.177.129,4.114-.842,4.7-.093.056.574.724.675.724h8.383C684.857,255.273,684.316,254.539,684.12,254.539Z" transform="translate(-0.204 -0.029)"/><path class="c" d="M684.609,254.489q-4.2,0-8.411,0l.621.629c.126-2.445.406-4.878.52-7.324.1-2.26.068-4.561.281-6.815,0-.042-.021-.058-.061-.052-2.069.1-4.114.018-6.182,0l.394.657a34.346,34.346,0,0,1,3.011-2.356c2.086-1.666,4.124-3.393,6.146-5.137,2.892-2.495,5.709-5.082,8.626-7.547l-.437-.006c.457.6.958,1.161,1.464,1.728.013.015.139-.1.122-.123a3.653,3.653,0,0,1-1.136-1.639c0-.142-.387-.1-.449-.046-2.06,1.8-4.092,3.636-6.143,5.448q-2.375,2.1-4.766,4.18-1.746,1.522-3.528,3a7.617,7.617,0,0,1-3.3,1.84c-.171-.011.2.665.349.663.717-.008,1.432-.039,2.15-.054q.945-.021,1.889.01c.37.012,1.009-.1,1.239.259.175.275-.006,1.292-.008,1.6q-.007,1.321-.019,2.643c-.009,1.258-.02,2.516-.043,3.773-.022,1.215.106,3.976-.782,4.677-.1.082.518.675.609.675l8.4,0C685.3,255.167,684.79,254.49,684.609,254.489Z" transform="translate(-0.337 -0.001)"/><path class="c" d="M684.949,254.522h-8.411l.511.527a57.016,57.016,0,0,0,.6-7.281c.11-2.26.064-4.569.3-6.821,0-.043-.019-.061-.061-.052-2.077.171-4.123.05-6.2.046l.328.58c.98-.815,2.05-1.528,3.055-2.314,1.831-1.434,3.612-2.925,5.381-4.434,3.183-2.716,6.265-5.558,9.478-8.237l-.548-.007a64.7,64.7,0,0,0,5.118,5.282c.025.024.156-.072.161-.067-1.057-1.013-2.124-2.016-3.143-3.068-.449-.463-1.651-1.436-1.573-2.181.015-.144-.506-.1-.563-.048-2.575,2.267-5.12,4.569-7.695,6.838-1.8,1.591-3.6,3.2-5.445,4.742q-1.2,1.007-2.451,1.943a3.64,3.64,0,0,1-2.1.97c-.185,0,.157.587.284.587,1.36,0,2.718-.07,4.078-.006.3.015.927-.057,1.146.178.242.258.1,1.523.1,1.706-.008,1.879-.013,3.759-.039,5.638-.015,1.105-.044,2.205-.135,3.307a3.434,3.434,0,0,1-.624,2.184c-.1.1.409.57.5.57h8.41C685.553,255.1,685.107,254.522,684.949,254.522Z" transform="translate(-0.426 0)"/><path class="c" d="M701.831,232.162l1.386,1.317c.024.023.152-.075.161-.066l-1.394-1.334C701.951,232.048,701.815,232.148,701.831,232.162Z" transform="translate(-9.359 -1.679)"/><path class="c" d="M685.44,254.817h-8.41l.339.351a6.924,6.924,0,0,0,.257-1.9c.136-1.5.318-2.982.4-4.482.139-2.536.07-5.122.349-7.643,0-.044-.018-.061-.061-.053-2.067.253-4.1.077-6.173.125l.234.438a34.7,34.7,0,0,0,3.086-2.253c2.145-1.653,4.221-3.381,6.282-5.139,2.912-2.486,5.734-5.094,8.7-7.517l-.725-.011c1.294,1.324,2.5,2.714,3.834,4,3.326,3.2,6.746,6.295,10.149,9.41.028.026.146-.048.172-.025-2.447-2.245-4.894-4.49-7.312-6.767q-1.458-1.373-2.9-2.761c.087.084-3.412-2.784-3.2-3.887.026-.132-.684-.1-.744-.052q-3.85,3.436-7.7,6.877c-1.779,1.581-3.542,3.193-5.377,4.71q-1.215.984-2.464,1.924a4.4,4.4,0,0,1-2.038,1.053c-.191.012.084.447.192.449,1.224.015,2.446-.051,3.669,0,.376.018,1.383-.071,1.6.236.233.33.1,1.422.1,1.709-.006,2.127-.01,4.254-.044,6.381a30.326,30.326,0,0,1-.19,3.076,3.768,3.768,0,0,1-.474,1.765c-.079.113.218.389.32.389h8.41C685.886,255.224,685.564,254.817,685.44,254.817Z" transform="translate(-0.556 -0.062)"/><path class="c" d="M685.979,255.542H677.8c-.135-.13.1-.8.089-.743.285-2.034.439-4.1.539-6.151.111-2.276.065-4.608.311-6.874,0-.042-.02-.06-.061-.054-2.037.3-4.047.1-6.087.212l.055.234a8.379,8.379,0,0,0,1.965-1.255c2.3-1.717,4.519-3.5,6.718-5.348,3.212-2.694,6.286-5.575,9.556-8.2l-.907-.006c.962.877,1.817,1.9,2.739,2.824,1.85,1.844,3.759,3.632,5.67,5.411,2.764,2.571,5.582,5.087,8.337,7.669l.084-.267-.325-.061c-.038-.008-.149.032-.08.084l.32.244c.15.113.2-.17.114-.246-2.252-2.116-4.556-4.178-6.827-6.273q-2.323-2.144-4.63-4.306-1.3-1.24-2.618-2.468a3.467,3.467,0,0,1-1.854-2.644c.026-.118-.863-.109-.932-.047q-3.808,3.446-7.638,6.867c-1.76,1.576-3.492,3.209-5.323,4.7q-1.244.958-2.494,1.91a6.8,6.8,0,0,1-1.933,1.178c-.116.028-.083.231.02.233,1.079.021,2.157-.027,3.236,0a7.693,7.693,0,0,1,1.75.116c.584.163.515.215.515.925,0,1.694,0,3.388-.023,5.082-.013,1.222,0,2.448-.108,3.664a14.81,14.81,0,0,1-.517,3.683c-.013.034.053.083.081.083h8.41C686.06,255.721,686.1,255.542,685.979,255.542Z" transform="translate(-0.688 -0.247)"/><path class="c" d="M685.829,255.216h-8.411l.177.224a4.922,4.922,0,0,0,.293-1.852c.137-1.489.325-2.964.406-4.458.137-2.536.066-5.127.35-7.65,0-.044-.018-.062-.061-.053-2.043.3-4.08.07-6.127.174l.168.337a19.994,19.994,0,0,0,3.087-2.219c2.171-1.655,4.267-3.384,6.35-5.149,2.917-2.471,5.725-5.091,8.7-7.492l-.885-.006c1.4,1.253,2.642,2.735,4,4.042q2.558,2.462,5.17,4.866,2.471,2.282,4.957,4.549l1.9,1.732q.592.868.522.414c-.016,0-.2-.007-.115.046l.308.2a.1.1,0,0,0,.123-.154c-2.248-2.121-4.555-4.182-6.824-6.28q-2.324-2.147-4.629-4.313-1.307-1.246-2.624-2.481a3.5,3.5,0,0,1-1.874-2.652c.027-.118-.842-.108-.91-.046q-3.817,3.446-7.653,6.874c-1.762,1.577-3.5,3.2-5.326,4.706q-1.221.969-2.464,1.909a5.492,5.492,0,0,1-1.976,1.122c-.18.03.024.349.128.35,1.055.013,2.107-.033,3.162,0q.7.014,1.407.081l.622.079c.387.269.189.954.189,1.35,0,2.031,0,4.064-.025,6.095-.011.939-.048,1.864-.125,2.8a8.517,8.517,0,0,1-.494,2.916c-.027.056.12.224.177.224h8.409C686.112,255.5,685.936,255.216,685.829,255.216Z" transform="translate(-0.648 -0.162)"/><path class="c" d="M719.748,248.855c-.041,0-.082-.123-.123-.123C719.667,248.732,719.707,248.855,719.748,248.855Z" transform="translate(-14.625 -6.608)"/><path class="c" d="M673.137,243.126c-.122,0-.677.111-.557-.055a6.794,6.794,0,0,1,1.144-.739c1.888-1.347,3.688-2.774,5.465-4.261,3.765-3.152,7.374-6.51,11.192-9.594l-.748-.032c5.215,5.776,11.159,10.795,16.713,16.224l-.044-.888-1.878-.162c.017,0,.039.143.085.151a1.959,1.959,0,0,1,1.838.9c.058.068.158-.724,0-.868q-3.425-3.1-6.852-6.208c-1.535-1.394-3.071-2.786-4.6-4.191q-1.338-1.209-2.623-2.476a4.621,4.621,0,0,1-1.868-2.489c-.006-.148-.7-.136-.768-.073q-3.423,3.1-6.871,6.17c-1.551,1.389-3.1,2.79-4.684,4.141q-1.97,1.662-4.028,3.216a11.6,11.6,0,0,1-1.791,1.236c-.035.013-.108.1-.139.1q.435-.012.872-.01A.3.3,0,0,0,673.137,243.126Z" transform="translate(-0.571 -0.568)"/><path class="c" d="M714.2,248.55a5.778,5.778,0,0,1-.831-.1c-.035-.006-.1.078-.1.113l.024.391a.909.909,0,0,0,.06-.139.57.57,0,0,1,.8-.1C714.185,248.715,714.27,248.558,714.2,248.55Z" transform="translate(-12.742 -6.524)"/><path class="c" d="M714.962,248.372c-.576-.073-1.17-.115-1.742-.223-.039-.008-.084.08-.082.11q.05.562.056,1.126c0,.013.013.074.017.028a.845.845,0,0,1,.246-1.037q.725.062,1.446.161C714.919,248.538,714.952,248.371,714.962,248.372Z" transform="translate(-12.705 -6.435)"/><path class="c" d="M714.691,248.066q-.888-.139-1.778-.267c-.054-.012-.085.073-.082.11l.064,1.157c0,.055.043.059.048,0,.114-1.392.642-.985,1.69-.836C714.662,248.235,714.7,248.069,714.691,248.066Z" transform="translate(-12.614 -6.332)"/><path class="c" d="M714.292,247.866c-.591-.1-1.246-.165-1.828-.315-.035-.008-.094.028-.09.069.223,2.69.064,5.442.062,8.138,0,.051.1.1.1.146,0-1.548-.015-3.1,0-4.645l.056-2.448q-.031-1.668,1.646-.781C714.3,248.04,714.353,247.878,714.292,247.866Z" transform="translate(-12.479 -6.258)"/><path class="c" d="M712.972,249.68a7.265,7.265,0,0,1-.819-.093c-.037-.006-.094.106-.094.135q-.063,7.144-.2,14.3l.331-.314c-.657-.122-1.313-.213-1.977-.3-.024,0-.038.169-.006.174a2.841,2.841,0,0,1,1.669.48c.085.109.369-.218.368-.293-.03-2.278-.023-4.556-.037-6.834-.008-1.489-.039-2.976-.058-4.464q-.014-.867-.015-1.736-.238-1.305.8-.887C712.974,249.848,713.054,249.688,712.972,249.68Z" transform="translate(-11.833 -6.861)"/><path class="c" d="M704.21,268.873q-1.035-.043-2.071-.078c-.032,0-.067.146-.1.145q1.047.041,2.093.091C704.184,269.033,704.229,268.874,704.21,268.873Z" transform="translate(-9.423 -12.544)"/><path class="c" d="M677.838,240.3c4.5-3.776,8.826-7.744,13.31-11.531l-.23-.039a5.941,5.941,0,0,0,1.4,1.7c1.945,2.065,3.919,4.066,5.964,6.035,2.988,2.876,6.127,5.606,9.071,8.526l-.041-.927c-1,.239-2.276-.247-3.293-.319a20.622,20.622,0,0,1-2.146-.192c-.056-.011-.1.059-.106.111-.349,4.818-.18,9.664-.31,14.49l.588-.551c-1.292-.035-2.588-.294-3.881-.368-1.006-.057-2.015-.092-3.021-.132-.271-.011-1.735.115-1.569-.28.035-.082-.122.018-.139.043l-.133.2a.083.083,0,0,0,.068.138c.8.071,1.612.079,2.418.116q.888.046,1.777.057a4.081,4.081,0,0,1,3.9.818c.049.1.634-.439.632-.537-.072-3.744-.055-7.489-.13-11.234a13.86,13.86,0,0,1-.028-2.086c.089-.65.108-.556.748-.506,1.52.116,3.609-.094,4.663,1.156.055.065.168-.757,0-.906q-3.815-3.426-7.611-6.875c-1.743-1.578-3.525-3.13-5.211-4.77-1.05-1.021-2.8-2.417-3.362-3.775-.023-.055-.183-.079-.229-.039-4.409,3.841-8.732,7.776-13.207,11.541C677.7,240.2,677.768,240.359,677.838,240.3Z" transform="translate(-2.228 -0.652)"/><path class="c" d="M672.858,243.292c-.108,0-.665.1-.57-.05a6.684,6.684,0,0,1,1.162-.744c2.164-1.531,4.206-3.218,6.229-4.93,3.476-2.942,6.825-6.051,10.351-8.931l-.625-.028a21.021,21.021,0,0,0,1.583,1.7c1.965,2.053,3.944,4.064,6,6.029,2.993,2.864,6.12,5.6,9.071,8.506l-.061-.97c-.951.312-2.292-.207-3.268-.262-.709-.041-1.419-.049-2.122-.159-.041-.006-.1.078-.1.115-.177,4.792-.139,9.584-.249,14.376l.452-.428c-1.682-.144-3.34-.377-5.032-.439q-.876-.032-1.751-.067l-1.247-.043c-.26.089-.392.006-.4-.248a1.28,1.28,0,0,0,.145-.666c0,.025-.161.023-.166.051a2.49,2.49,0,0,1-.224.952c-.006.015,0,.028.016.029.99.086,1.992.1,2.985.142q1.822.024,3.635.211a2.321,2.321,0,0,1,1.6.547c.072.111.494-.331.493-.411-.058-3.752-.049-7.505-.112-11.258a12.483,12.483,0,0,1-.019-2.1c.1-.648.127-.546.768-.5,1.526.106,3.6-.143,4.655,1.126.046.056.157-.791-.018-.948q-3.811-3.443-7.619-6.888c-1.745-1.58-3.516-3.138-5.222-4.759q-1.411-1.329-2.7-2.773a1.169,1.169,0,0,1-.445-.88c-.024-.144-.564-.138-.641-.069q-3.824,3.436-7.662,6.856c-1.771,1.572-3.517,3.2-5.36,4.687q-1.309.987-2.6,1.989a10.157,10.157,0,0,1-1.812,1.233c-.02.007-.137.1-.114.1.293-.01.586-.013.879-.013C672.768,243.382,672.88,243.292,672.858,243.292Z" transform="translate(-0.49 -0.616)"/><path class="c" d="M696.177,228.813a83.652,83.652,0,0,0,7.911,8.069c2.757,2.614,5.621,5.13,8.325,7.8l-.008-.731a18.561,18.561,0,0,1-2.822-.344,23.767,23.767,0,0,1-2.731-.322c-.037-.008-.081.044-.083.075-.324,4.846-.156,9.717-.273,14.57l.646-.61c-1.746-.028-3.509-.3-5.254-.394-1.183-.062-2.384-.07-3.563-.2l.292.256q.108-.52.2-1.042c.015-.08-.155-.03-.168.015l-.4.8c-.1.084.226.291.276.294,1.2.08,2.4.1,3.6.123.981.015,3.79-.271,4.383.806.052.094.693-.5.691-.6-.049-3.735-.054-7.471-.112-11.207a12.561,12.561,0,0,1-.016-2.046c.1-.617.127-.554.753-.5,1.442.119,3.5-.05,4.59,1.058.094.1.158-.6.033-.714q-3.816-3.44-7.617-6.9a87.1,87.1,0,0,1-8.566-8.4C696.212,228.607,696.146,228.776,696.177,228.813Z" transform="translate(-7.685 -0.668)"/><path class="c" d="M675.637,241.2c3.683-2.9,7.179-6.041,10.7-9.138,1.079-.95,2.154-1.9,3.233-2.853q.275-.693.657-.418.421.515.888.991c4.929,5.227,10.337,9.923,15.449,14.961l-.027-.875a12.4,12.4,0,0,1-3.3-.306,18.256,18.256,0,0,1-2.209-.234c-.033-.007-.078.051-.08.077-.338,4.83-.168,9.688-.281,14.525l.628-.6c-1.524.01-3.072-.268-4.6-.346-1.389-.07-2.79-.075-4.175-.2l.218.2a6.962,6.962,0,0,0,.215-1.012c.013-.07-.156-.019-.166.019l-.337.825c-.078.087.134.234.2.239,1.2.083,2.405.108,3.6.126.779.012,1.555.041,2.331.1.615.05,1.738.045,2.091.688.052.1.675-.484.673-.583-.063-3.953-.091-7.91-.131-11.863,0-.294-.2-1.51-.01-1.75.218-.281.409-.161.739-.135,1.453.111,3.576-.037,4.611,1.1.071.077.166-.719.015-.854q-3.824-3.427-7.622-6.885c-1.744-1.58-3.527-3.134-5.214-4.775-1.086-1.057-2.746-2.406-3.409-3.773a.148.148,0,0,0-.187-.037c-4.856,4.218-9.538,8.655-14.6,12.633C675.54,241.056,675.642,241.2,675.637,241.2Z" transform="translate(-1.583 -0.592)"/><path class="c" d="M700.31,262.411c-.022,0-.11-.056-.155-.056C700.177,262.355,700.264,262.411,700.31,262.411Z" transform="translate(-8.864 -10.639)"/><path class="c" d="M700.653,260.234c.077-1.839.119-3.679.188-5.518,0-.036-.139-.075-.137-.107-.077,1.857-.128,3.713-.216,5.569C700.486,260.226,700.651,260.264,700.653,260.234Z" transform="translate(-8.963 -8.347)"/><path class="c" d="M700.454,254.352c-.013,0-.1-.072-.148-.072C700.319,254.28,700.411,254.352,700.454,254.352Z" transform="translate(-8.909 -8.249)"/><path class="c" d="M701,261.547c.2-2.384.148-4.783.353-7.164,0-.046-.063-.092-.1-.089q-.593.043-1.186.078c-.057,0,.113.037.133.038q1.256-.141.9.9-.018.784-.039,1.567c-.042,1.548-.1,3.09-.232,4.634A.808.808,0,0,0,701,261.547Z" transform="translate(-8.832 -8.253)"/><path class="c" d="M700.9,264.156c.694-3.287.43-6.674.766-10,.006-.065-.048-.1-.1-.09q-.614.061-1.229.1c-.088.006.081.075.1.077.925.08.945,0,.923.915-.023.943-.042,1.886-.07,2.828a47.2,47.2,0,0,1-.527,6.255C700.754,264.253,700.891,264.189,700.9,264.156Z" transform="translate(-8.908 -8.187)"/><path class="c" d="M693.353,254.194q-.806,0-1.612,0c-.051,0-.1.1-.144.1q.808-.01,1.616-.009A.3.3,0,0,0,693.353,254.194Z" transform="translate(-6.332 -8.223)"/><path class="c" d="M701.432,263.312c-.43-.017-2.583.161-2.788-.277a.972.972,0,0,0,.131-.689q.09-.813.168-1.627c.158-1.612.313-3.207.406-4.826.061-1.04.058-2.12.22-3.152a.048.048,0,0,0-.062-.052c-2.586.337-5.176.115-7.771.2-.039,0-.113.029-.111.08l.013.452c0,.1.122-.035.13-.075.108-.5,2.547-.24,2.948-.244.793-.008,1.589,0,2.381.03.417.018,1.562-.085,1.8.261.21.307.1.865.1,1.234,0,.758-.011,1.515-.025,2.273-.016.891-.017,1.779-.1,2.666a18,18,0,0,1-.5,3.726c-.006.018.017.044.034.045.979.08,1.968.092,2.95.134C701.4,263.47,701.442,263.313,701.432,263.312Z" transform="translate(-6.34 -7.778)"/><path class="c" d="M702.566,263.133q-1.681-.169-3.373-.2-.75.278-.623-.131a1.77,1.77,0,0,0,.1-.665q.079-.834.161-1.67c.159-1.647.319-3.276.414-4.93a30.676,30.676,0,0,1,.218-3.083c0-.042-.022-.059-.063-.051-2.607.342-5.228.062-7.846.153a.084.084,0,0,0-.072.087q.028.661.056,1.322c0,.073.07-.1.073-.121l.332-.953.652,0c.872,0,1.744-.012,2.616-.008.755,0,1.508.025,2.261.073.417.027,1.141-.072,1.375.353a4.838,4.838,0,0,1,0,1.571q0,1.222-.019,2.443c-.024,1.729.07,3.969-.6,5.618-.024.059.083.144.136.147,1.379.08,2.757.1,4.135.2C702.534,263.3,702.569,263.133,702.566,263.133Z" transform="translate(-6.299 -7.694)"/><path class="c" d="M703.511,262.914c-1.831-.146-3.709-.17-5.529-.408l.232.225a1.939,1.939,0,0,0,.2-.9c.154-1.266.3-2.57.4-3.838.161-1.943.078-3.947.387-5.874q0-.063-.063-.051c-2.628.287-5.263.055-7.9.1-.058,0-.068.051-.065.1q.039.69.069,1.38c0,.1.1-.049.106-.08.078-.657.019-.833.677-.956a11.74,11.74,0,0,1,1.808-.006c1.289-.025,2.58-.018,3.866.076.614.045.764.015.886.61a9.754,9.754,0,0,1-.008,1.857c-.006,1.075.008,2.157-.044,3.231-.063,1.289.008,3-.62,4.154-.053.1.123.258.214.263,1.788.085,3.561.142,5.346.285C703.489,263.084,703.514,262.914,703.511,262.914Z" transform="translate(-6.205 -7.594)"/><path class="c" d="M691.581,260c-.012,0-.032-.164-.056-.164C691.538,259.838,691.557,260,691.581,260Z" transform="translate(-6.311 -9.894)"/><path class="c" d="M691.307,259.694s-.025-.165-.056-.165C691.255,259.529,691.276,259.694,691.307,259.694Z" transform="translate(-6.23 -9.802)"/><path class="c" d="M705.78,263.019c-2.73-.492-5.544-.355-8.276-.77l.378.344a12.509,12.509,0,0,0,.227-1.96c.1-1.181.249-2.358.327-3.54.111-1.712.074-3.476.331-5.173,0-.042-.022-.058-.063-.05-2.646.185-5.287.023-7.936.026a.053.053,0,0,0-.065.047c.192,3.07.094,6.165.089,9.24,0,.051.1.1.1.145,0-1.59.037-3.181.01-4.771q-.028-1.026.012-2.05a12.717,12.717,0,0,1,.12-1.482.423.423,0,0,1,.3-.545q.786,0,1.572,0c1.141-.02,2.278-.053,3.419-.018.329.011,1.586-.123,1.846.309q-.01.794-.011,1.588l-.008,1.188c-.013,1.293-.028,2.586-.118,3.876a5.275,5.275,0,0,1-.62,2.843c-.092.117.337.391.418.391a62.262,62.262,0,0,1,8.024.52C705.846,263.174,705.823,263.027,705.78,263.019Z" transform="translate(-6.067 -7.536)"/><path class="c" d="M692.857,254.362c-.625,0-1.25,0-1.874,0-.025,0-.131.077-.132.106-.168,3.684-.119,7.376-.26,11.062-.006.163.477-.167.473-.3-.067-2.186-.013-4.375-.1-6.561a17.061,17.061,0,0,1-.025-3.557.736.736,0,0,1,.168-.646q.812-.01,1.624-.011C692.769,254.453,692.88,254.362,692.857,254.362Z" transform="translate(-6.034 -8.273)"/><path class="c" d="M684.185,256.033q-4.211-.012-8.423-.015l.607.594a19.462,19.462,0,0,1,.166-3.407c.1-1.518.162-3.036.2-4.557.056-2.005.04-4.018.145-6.022a.071.071,0,0,0-.061-.054c-1.967-.06-3.945-.065-5.915-.106l.358.6a18.649,18.649,0,0,1,2.914-2.389c2.081-1.672,4.111-3.4,6.127-5.153,2.884-2.5,5.706-5.081,8.609-7.56l-.477-.017A112.762,112.762,0,0,0,697.575,237c2.508,2.349,5.087,4.632,7.555,7.024l-.031-.882a9.035,9.035,0,0,1-3.209-.117,14.5,14.5,0,0,1-2.3-.286c-.052-.012-.1,0-.1.063-.17,4.82-.063,9.647-.158,14.468l.7-.666a28.741,28.741,0,0,1-5.366-.208c-1.216-.07-2.458-.069-3.664-.233l.6.464a14.806,14.806,0,0,1,.125-2.7c.077-1.152.147-2.3.2-3.458.061-1.458.058-2.924.166-4.379,0-.041,0-.1-.06-.1-2.556-.076-5.122-.069-7.68-.111a.051.051,0,0,0-.064.049c-.158,3.746-.058,7.5-.173,11.253,0,.133.73-.363.729-.551-.021-2.362-.024-4.722-.09-7.083a10.518,10.518,0,0,1,.02-2.9c.3-.451,1.755-.184,2.267-.209q1.435-.077,2.875-.075.82,0,1.639.021c.4.251.156,1.436.151,1.773q-.031,1.976-.081,3.953c-.028,1.07.229,3.224-.665,4.066-.1.1.52.509.6.509.607,0,1.215,0,1.822.011,1.5.018,5.245-.318,5.964.615.079.1.744-.56.744-.656.02-3.5-.013-7-.077-10.5-.013-.739-.016-1.479-.013-2.218,0-.241-.1-.644.132-.818l.6.026q.6.009,1.205.052a5.4,5.4,0,0,1,3.2.814c.1.087.147-.739.011-.861-2.56-2.283-5.1-4.592-7.645-6.888-1.75-1.578-3.53-3.131-5.242-4.75q-1.06-1.031-2.11-2.072a5.9,5.9,0,0,1-1.223-1.57c-.039-.1-.415-.073-.477-.016-2.3,2.042-4.587,4.1-6.888,6.144q-2.367,2.1-4.747,4.192-1.888,1.688-3.884,3.248a3.894,3.894,0,0,1-2.014,1.02c-.187.006.187.607.314.6,1.045-.039,2.091-.1,3.136-.119q.67-.015,1.34,0l.644.018c.375.239.163.908.159,1.282q-.031,3.108-.085,6.217c-.017.956-.031,1.913-.075,2.869-.031.684.025,2.181-.627,2.695-.1.082.507.639.6.639l8.4,0C684.853,256.666,684.361,256.034,684.185,256.033Z" transform="translate(-0.196 -0.418)"/><path class="c" d="M709.871,248.36c-1.527-.276-3.136-.344-4.63-.77-.042-.012-.1.009-.1.063.144,2.219.04,4.455.046,6.677q.005,1.924,0,3.847a23.178,23.178,0,0,1,0,3.28c-.075.518-.161.3-.693.239-.744-.089-1.5-.136-2.243-.206-1.251-.118-2.5-.267-3.75-.349a16.142,16.142,0,0,1-1.9-.17l.613.482c.108-1.844.32-3.683.435-5.527.106-1.709.076-3.449.284-5.148a.057.057,0,0,0-.063-.051q-3.951-.029-7.9-.085c-.039-.007-.061.009-.064.049.218,3.749.032,7.53.047,11.286,0,.151.222.111.223,0,.019-2.222.06-4.45.031-6.672q-.025-1,.023-2-.548-2.27,1.021-1.989c.689-.009,1.363-.037,2.053-.062q1.628-.059,3.259-.03c.926.015.92.051.9.865-.037,1.62-.058,3.24-.112,4.861-.036,1.1.182,3.214-.793,4.039-.1.087.527.527.606.527,1.147,0,2.3,0,3.444.067,1.434.089,3.316-.06,4.639.527a.141.141,0,0,0,.156-.1c.018-3.58.006-7.16.021-10.739,0-.8.012-1.593.054-2.388.015-.279-.055-.743.234-.916.387-.232,1.458.166,1.874.223.806.111,1.613.188,2.422.264C709.968,248.45,709.923,248.37,709.871,248.36Z" transform="translate(-5.834 -6.269)"/><path class="c" d="M710.295,248.7c-1.773-.4-3.658-.434-5.4-.941-.045-.013-.1,0-.1.063.122,2.5.013,5.017.014,7.52q0,3.472,0,6.943l.269-.239a11.053,11.053,0,0,0-3.169-.392c-.872-.084-1.742-.187-2.614-.277-.963-.1-2.047-.056-3.03-.238l.656.508c.037-1.832.289-3.683.4-5.514.1-1.686.084-3.388.246-5.068,0-.042-.006-.1-.062-.1-2.612-.119-5.24-.093-7.856-.15-.04-.007-.061.009-.063.05.173,3.781-.007,7.584-.006,11.37,0,.168.327-.052.328-.161.018-1.975.017-3.949.032-5.925a12.7,12.7,0,0,1,.383-4.647l.619-.013c1.266-.023,2.53-.1,3.8-.118q.764-.015,1.526-.009a.821.821,0,0,1,.836.076c.355.353.067,1.758.053,2.3-.033,1.329-.082,2.658-.125,3.987-.032,1,.137,2.745-.8,3.429-.1.071.567.553.65.553.946,0,1.894-.007,2.839.024q1.175.067,2.35.126a6.665,6.665,0,0,1,2.8.485c.083.049.268-.169.269-.239.018-3.773-.011-7.548.016-11.32a10.634,10.634,0,0,1,.063-2.076c.125-.572.17-.594.778-.528,1.417.152,2.856.318,4.264.544C710.291,248.73,710.392,248.717,710.295,248.7Z" transform="translate(-5.733 -6.318)"/><path class="c" d="M685.1,255.824q-4.216-.014-8.431-.021l.575.577a24.281,24.281,0,0,1,.232-4.958c.078-1.3.117-2.611.163-3.916.063-1.742.036-3.5.178-5.238q0-.065-.061-.053c-2,.144-3.969.035-5.97.007l.377.632a16.323,16.323,0,0,1,2.853-2.489c2.1-1.691,4.177-3.4,6.226-5.158,2.893-2.476,5.691-5.076,8.633-7.494l-1,.006a20.539,20.539,0,0,1,3.064,2.764q1.295,1.292,2.62,2.552,2.3,2.2,4.623,4.362c2.253,2.1,4.557,4.147,6.779,6.277l-.053-.919c-.841.415-2.262.042-3.154-.013a14.7,14.7,0,0,1-2.283-.253c-.048-.011-.1,0-.1.061.029,4.787-.054,9.58-.1,14.367l.565-.522a22.9,22.9,0,0,1-4.637-.2c-1.425-.1-2.874-.089-4.292-.262l.563.445c-.28-1.988.207-4.214.3-6.208.072-1.479.053-2.986.23-4.456q0-.064-.063-.051c-2.576.163-5.135-.015-7.711-.02a.051.051,0,0,0-.065.049c-.039,3.723-.047,7.448-.118,11.171,0,.161.609-.254.608-.406-.015-2.159.04-4.325-.038-6.482q-.045-.95-.03-1.9,0-.833.065-1.664c.242-.325,1.462-.123,1.719-.123,1.425,0,2.826-.05,4.245.051.813.058.765.149.768.862,0,1.143.016,2.286.017,3.428q.017,1.785-.084,3.568a3.879,3.879,0,0,1-.45,1.756c-.087.125.465.49.554.489.97-.016,1.941,0,2.91.011q1.221.013,2.442.046a4.348,4.348,0,0,1,2.511.464c.109.1.608-.411.608-.507-.01-3.5,0-7-.051-10.5q-.016-1.137,0-2.274c0-.256-.084-.625.155-.8l.6.021q.6,0,1.195.029a5.336,5.336,0,0,1,3.173.747c.1.083.13-.772-.01-.9q-3.052-2.745-6.1-5.5-2.341-2.109-4.682-4.215-1.075-.965-2.145-1.936a13.289,13.289,0,0,1-3.128-3.453c-.008-.15-.953-.1-1.025-.035q-3.4,3.08-6.8,6.155c-1.539,1.393-3.073,2.793-4.616,4.182q-1.31,1.2-2.671,2.347a3.969,3.969,0,0,1-3,1.9c-.194.026.206.636.333.638.7.012,1.4-.018,2.1-.026.744-.009,1.489,0,2.232.058.56.039.607.022.7.563a12.664,12.664,0,0,1,.008,1.9q0,1.773.01,3.547c0,1.008.013,2.016,0,3.024-.008.724.131,3.044-.539,3.89-.093.117.463.622.561.622l8.407,0C685.738,256.433,685.267,255.824,685.1,255.824Z" transform="translate(-0.455 -0.348)"/><path class="c" d="M683.668,255.753q-4.207-.005-8.414-.007l.625.608a29.681,29.681,0,0,1,.25-3.39c.094-1.5.144-3.013.183-4.518.05-1.984.044-3.972.124-5.955,0-.05-.063-.087-.1-.09-1.934-.158-3.946-.122-5.891-.186l.343.568a28.025,28.025,0,0,1,3.031-2.326c2.058-1.648,4.041-3.4,6.025-5.132q2.946-2.575,5.865-5.18c.371-.33,2.109-2.326,2.692-2.122q.22.293.468.563.887.96,1.805,1.891c1.824,1.9,3.732,3.707,5.653,5.51,2.778,2.606,5.638,5.132,8.376,7.779l0-.554a34.1,34.1,0,0,1-5.594-.708c-.049-.013-.1.008-.1.064-.12,4.849-.083,9.7-.162,14.549l.637-.588c-1.769.023-3.571-.232-5.331-.361-1.212-.089-2.458-.075-3.661-.263l.611.467a22.477,22.477,0,0,1,.211-2.712c.084-1.133.136-2.27.182-3.405.059-1.45.058-2.905.149-4.354,0-.052-.066-.084-.107-.087-2.536-.2-5.123-.122-7.669-.194a.052.052,0,0,0-.064.049c-.119,3.788-.076,7.583-.176,11.372,0,.152.673-.3.67-.461-.033-2.4-.03-4.8-.08-7.194-.01-.5-.289-2.683.141-3.083.392-.364,2.265-.165,2.769-.187,1.107-.049,2.214-.072,3.322-.075a.9.9,0,0,1,.957.153q-.036.815-.049,1.631c-.034,1.307-.079,2.612-.128,3.918-.039,1.051.241,3.428-.782,4.18-.1.075.527.51.6.511.966.009,1.932.025,2.9.041q1.643.01,3.286.106a2.467,2.467,0,0,1,1.619.579c.083.106.682-.483.682-.575-.02-3.486.007-6.973-.051-10.458a21.568,21.568,0,0,1-.008-2.708c.056-.485-.022-.467.443-.518a8.028,8.028,0,0,1,1.538.127,6.4,6.4,0,0,1,3.239.735c.141.106.133-.463.045-.542q-3.794-3.44-7.584-6.886c-1.755-1.6-3.548-3.18-5.247-4.843a20.608,20.608,0,0,1-3.545-3.848c-.008-.013-.035-.028-.051-.015-2.624,2.259-5.189,4.588-7.8,6.865-1.814,1.584-3.631,3.164-5.477,4.711q-1.229,1.055-2.517,2.037a3.4,3.4,0,0,1-2.088.97c-.177-.01.167.584.3.576,1.226-.077,2.461-.145,3.689-.166.321,0,1.566-.232,1.781.137l-.013.639q-.015.8-.03,1.59c-.038,1.965-.076,3.93-.14,5.895-.03.908-.051,1.816-.12,2.722-.049.651-.018,1.769-.7,2.15-.094.053.517.653.615.653l8.4,0C684.357,256.408,683.85,255.753,683.668,255.753Z" transform="translate(-0.058 -0.363)"/><path class="c" d="M685.084,255.022q-4.214-.012-8.428-.018l.577.59c-.089-2.431.339-4.893.451-7.319.1-2.261.053-4.568.275-6.822,0-.046-.018-.063-.062-.052a59.943,59.943,0,0,1-6.1.023l.38.644a40.123,40.123,0,0,1,4.406-3.587c1.887-1.536,3.741-3.115,5.586-4.7,2.623-2.257,5.178-4.6,7.844-6.81l-.832-.01a32.632,32.632,0,0,1,2.771,2.751c1.855,1.846,3.772,3.633,5.691,5.413,2.769,2.569,5.586,5.087,8.351,7.661l.039-.335c-1.827-.258-3.734-.278-5.531-.708-.042-.01-.1.009-.1.063.137,2.457.02,4.932.023,7.391q.005,3.436.006,6.871l.226-.168a25.3,25.3,0,0,0-4.438-.41c-1.429-.134-2.891-.113-4.309-.322l.528.425c.036-1.848.28-3.682.39-5.525.1-1.71.065-3.468.307-5.165,0-.044-.02-.061-.063-.049-2.617.2-5.22,0-7.838-.006a.05.05,0,0,0-.065.048c.146,3.721.008,7.45.027,11.174,0,.162.287-.028.288-.134.019-2.187.07-4.385.014-6.57-.018-.733-.332-3.652.346-3.868h.632q1.014.016,2.027-.018c1.053-.008,2.118.011,3.169.09.824.062.81.134.811.861,0,1.14.009,2.28.006,3.421q.013,1.782-.12,3.56a3.731,3.731,0,0,1-.5,1.775c-.09.12.43.469.518.468,1.161-.013,2.326,0,3.485.053,1.4.068,3.3-.12,4.613.457.056.024.225-.108.226-.168.01-3.319.067-6.641.018-9.958-.012-.844-.013-1.689.013-2.532.011-.36-.169-1.2.231-1.4.275-.14,1.074.072,1.367.1a11.022,11.022,0,0,1,3.683.6c.15.083.133-.28.08-.329-2.265-2.1-4.564-4.166-6.841-6.254q-2.33-2.137-4.647-4.286-1.313-1.222-2.619-2.45a4.266,4.266,0,0,1-1.962-2.562c.011-.141-.789-.109-.853-.051q-2.671,2.411-5.353,4.811c-2.059,1.849-4.113,3.7-6.188,5.536-1.671,1.477-3.73,4.118-5.844,4.2-.187.007.2.647.335.65.553.01,1.1,0,1.65-.015.629-.014,1.26-.01,1.888.016.334.014,1.3-.066,1.493.2s.085.9.085,1.212q0,1.208,0,2.417,0,1.5,0,3c0,1.639.234,5.156-.643,6.107-.1.108.47.634.564.634q4.2,0,8.407,0C685.728,255.647,685.252,255.022,685.084,255.022Z" transform="translate(-0.459 -0.127)"/><path class="c" d="M697.277,233.13c4.221,4.025,8.577,7.907,12.8,11.93l.093-.251c-1.817-.6-3.835-.419-5.677-.93a.071.071,0,0,0-.1.065q-.022,7.283-.131,14.57l.531-.475c-1.743-.248-3.519-.332-5.272-.488-1.213-.107-2.463-.081-3.664-.287l.617.472a19.519,19.519,0,0,1,.209-2.079c.115-1.1.145-2.2.2-3.3.081-1.689.077-3.386.188-5.073,0-.038-.076-.084-.107-.086-2.553-.215-5.157-.137-7.72-.225a.052.052,0,0,0-.064.049c-.045,3.809-.051,7.619-.137,11.428,0,.167.57-.217.57-.359-.016-1.965.017-3.93-.013-5.895-.019-1.23-.077-2.452-.015-3.682.057-1.141.325-.956,1.348-.974,1.322-.024,2.642-.123,3.966-.144.41-.007,1.758-.249,1.973.136q-.041.815-.057,1.633l-.039,1.21q-.088,2.6-.258,5.2a2.168,2.168,0,0,1-.7,1.712c-.1.066.532.516.61.517.781.011,1.562.019,2.343.036q.875.015,1.748.051a5.1,5.1,0,0,1,3.758.67c.094.1.572-.37.572-.458q-.021-5.632-.043-11.263a11.828,11.828,0,0,1,.025-2.023c.106-.588.147-.572.754-.52.582.051,1.164.14,1.745.208a7.009,7.009,0,0,1,2.776.579c.13.078.151-.2.094-.251-4.263-3.942-8.586-7.814-12.795-11.815C697.364,232.978,697.208,233.065,697.277,233.13Z" transform="translate(-5.576 -1.955)"/><path class="c" d="M684.791,255.367h-8.4l.71.7a14.3,14.3,0,0,1,.024-3.5c.1-1.568.193-3.128.252-4.7.075-1.994.039-4.008.206-6,0-.045-.018-.062-.061-.052-1.993.088-3.968-.021-5.958-.011l.5.737a2.116,2.116,0,0,1,.676-.746q1.731-1.505,3.5-2.964,2.8-2.335,5.559-4.711c2.614-2.259,5.167-4.6,7.819-6.812l-.865-.008a20.872,20.872,0,0,1,2.938,2.762c1.865,1.856,3.774,3.666,5.7,5.465,2.763,2.586,5.593,5.1,8.342,7.7l-.019-.72a9.708,9.708,0,0,1-3.18-.115,17.658,17.658,0,0,1-2.262-.285c-.054-.012-.111-.012-.108.058.065,2.463-.075,4.932-.09,7.4-.014,2.319-.014,4.637-.028,6.956l.533-.487a26.558,26.558,0,0,1-4.644-.223c-1.423-.113-2.878-.094-4.29-.292l.681.53a11.23,11.23,0,0,1,0-2.711c.061-1.189.158-2.376.218-3.566.074-1.477.054-2.984.233-4.453,0-.044-.021-.061-.064-.049-2.578.077-5.147-.049-7.725-.046-.042-.008-.063.008-.063.05.073,3.726-.057,7.47-.107,11.2,0,.165.583-.234.583-.379,0-1.941.018-3.883.008-5.823-.006-1.175-.043-2.344.032-3.518.067-1.041.4-.786,1.324-.787,1.059,0,2.115-.044,3.174-.02.5.012,1.781-.178,2.12.193a.56.56,0,0,1,.081.694q.007.782.011,1.564c.009,1.763.423,5.979-.549,7.14-.094.112.588.579.675.576,1.353-.043,2.718-.02,4.07,0,1.117.018,2.765-.242,3.712.45.118.087.575-.366.575-.47.006-3.5-.041-7,0-10.5.008-.751.027-1.5.064-2.253.013-.268-.061-.642.21-.806l.472-.012q1.062.027,2.119.135a4.578,4.578,0,0,1,2.237.574c.144.1.125-.613.023-.7q-3.439-3.1-6.869-6.213-2.318-2.1-4.632-4.2-1.339-1.221-2.676-2.448a4.74,4.74,0,0,1-1.933-2.395c-.011-.151-.817-.113-.887-.049q-3.818,3.458-7.654,6.9c-1.761,1.585-3.508,3.185-5.285,4.751-.9.794-2.721,2.872-4.252,2.938-.171.007.3.742.453.742.818,0,1.634-.051,2.453-.052.578,0,1.158.015,1.736.05.553.032.6,0,.689.537a12.07,12.07,0,0,1,.006,1.9c0,.931,0,1.862.006,2.793,0,1.019.009,2.038.008,3.057,0,1.2.244,3.742-.571,4.542-.1.1.6.747.7.747h8.382C685.549,256.124,684.995,255.367,684.791,255.367Z" transform="translate(-0.394 -0.226)"/><path class="c" d="M685.371,256.1l-8.413,0,.381.383c.2-2.664.4-5.325.505-7.995.076-2,.047-4.015.212-6.008,0-.042-.02-.059-.061-.053-1.993.182-3.964.048-5.959.077l.258.463c3.016-2.573,6.188-4.955,9.206-7.53,2.9-2.474,5.7-5.085,8.654-7.491h-1a25.342,25.342,0,0,1,3.041,2.8q1.29,1.3,2.612,2.562,2.292,2.2,4.618,4.372c2.25,2.1,4.557,4.145,6.772,6.282l-.06-.938c-.858.4-2.272-.022-3.178-.07a15.737,15.737,0,0,1-2.235-.215.077.077,0,0,0-.09.069c-.021,4.779-.075,9.561-.13,14.34l.484-.453a41.014,41.014,0,0,1-4.549-.266c-1.4-.088-2.807-.093-4.2-.217l.337.3c.131-1.811.308-3.627.4-5.439.089-1.712.063-3.457.27-5.159,0-.04-.023-.057-.062-.051-2.564.208-5.126.028-7.693.065a.064.064,0,0,0-.065.048c-.1,3.7-.072,7.412-.144,11.117,0,.166.527-.2.525-.341-.03-2.407-.025-4.812-.076-7.217q-.027-1.15.013-2.3a.574.574,0,0,1,.132-.753c.376-.345,2.253-.1,2.737-.113q1.63-.038,3.257.06l.633.054a.734.734,0,0,1,.173.863q0,1.073,0,2.148c0,1.295,0,2.587-.08,3.88a7.337,7.337,0,0,1-.446,2.859c-.067.131.272.343.372.344,1.178.016,2.356.043,3.535.07.915.02,1.821.06,2.734.142.526.047,1.3,0,1.727.4.1.1.527-.345.526-.437-.018-3.035.024-6.072-.021-9.107q-.068-1.871-.046-3.744-.2-1.165.776-.807c1.365.056,3.355-.171,4.443.866.079.075.135-.78-.017-.917l-6.089-5.5-4.679-4.22q-1.074-.965-2.141-1.94a12.441,12.441,0,0,1-3.085-3.48c0-.146-.962-.1-1.033-.039q-3.785,3.438-7.584,6.862c-1.751,1.585-3.475,3.209-5.27,4.744q-1.159.973-2.353,1.9a5.715,5.715,0,0,1-1.907,1.126c-.192.043.106.472.217.474,1.2.013,2.4-.066,3.6-.02.353.013,1.317-.075,1.51.215a4.783,4.783,0,0,1,.08,1.71c0,2.134,0,4.268-.012,6.4-.006,1.029-.044,2.065-.139,3.09a4.516,4.516,0,0,1-.372,1.743c-.066.123.251.422.363.422h8.409C685.854,256.542,685.5,256.1,685.371,256.1Z" transform="translate(-0.526 -0.418)"/><path class="c" d="M692.183,254.436q-.944-.006-1.888-.009c-.04,0-.127.056-.131.1-.289,3.714-.155,7.458-.328,11.177-.008.154.606-.249.6-.406-.069-1.939-.021-3.882-.082-5.822-.04-1.29-.108-2.576-.085-3.868l.023-.775a2.613,2.613,0,0,1,1.752-.307A.3.3,0,0,0,692.183,254.436Z" transform="translate(-5.811 -8.293)"/><path class="c" d="M685.694,255.735h-8.41l.292.3a9.3,9.3,0,0,0,.187-1.874c.115-1.494.3-2.975.369-4.473.123-2.536.062-5.114.313-7.64,0-.044-.018-.061-.061-.053a59.623,59.623,0,0,1-6.03.132l.213.4c1.541-1,3.121-2.345,4.511-3.459,1.9-1.528,3.764-3.114,5.618-4.7,2.627-2.248,5.173-4.618,7.865-6.787l-1.034.008a38.757,38.757,0,0,1,4.23,4.023q2.583,2.5,5.216,4.955c2.509,2.335,5.068,4.62,7.556,6.977l-.019-.639a14.585,14.585,0,0,1-3.24-.29,22.109,22.109,0,0,1-2.219-.242.089.089,0,0,0-.084.073c.139,4.724-.025,9.484-.047,14.21l.218-.165a25.159,25.159,0,0,0-4.323-.408c-1.414-.1-2.84-.1-4.251-.234l.234.223a2.83,2.83,0,0,0,.13-.887c.108-1.275.258-2.557.353-3.833.146-1.942.068-3.931.344-5.86,0-.042-.021-.059-.063-.051-2.58.3-5.166.049-7.754.112-.055,0-.068.05-.067.093.049,3.655-.022,7.313-.05,10.97,0,.192.27.058.27-.049-.008-2.438.007-4.875-.039-7.312-.01-.522-.313-2.987.32-3.3q.79,0,1.579.011.826-.027,1.654-.018.871-.005,1.743.039.807.03,1.607.13a.72.72,0,0,1,.184.852q0,.774,0,1.548c0,1.488.006,2.97-.1,4.455a9.568,9.568,0,0,1-.441,2.945c-.026.065.177.221.234.224,1.379.052,2.758.058,4.137.13.79.041,1.58.085,2.369.151a4.6,4.6,0,0,1,1.765.332c.053.03.219-.11.218-.165-.006-3.317.046-6.638-.011-9.954-.015-.849-.018-1.7,0-2.548a2.3,2.3,0,0,1,.116-.985q-.088-.606.4-.427a5.472,5.472,0,0,1,1.565.116c1.023.085,2.46.078,3.263.756.122.1.125-.533.023-.626-2.025-1.855-4.065-3.695-6.1-5.544q-2.314-2.107-4.621-4.223-1.093-1.006-2.181-2.016a7.755,7.755,0,0,1-3.064-3.6c.017-.125-.992-.1-1.063-.032q-3.786,3.435-7.585,6.856c-1.753,1.582-3.477,3.209-5.282,4.73q-1.176.966-2.382,1.9a5.94,5.94,0,0,1-1.922,1.136c-.186.042.063.411.172.413,1.351.027,2.7-.048,4.054.045.41.028.972-.094,1.189.331l0,.632q0,.787,0,1.574c0,2.173.068,4.359-.016,6.53a11.457,11.457,0,0,1-.531,4.142c-.042.092.215.3.292.3h8.41C686.09,256.088,685.81,255.735,685.694,255.735Z" transform="translate(-0.618 -0.311)"/><path class="c" d="M684.064,255.615h-8.4l.728.7a16.6,16.6,0,0,1,.082-3.485c.08-1.529.156-3.057.2-4.586.063-2.01.047-4.028.164-6.034a.058.058,0,0,0-.061-.054c-1.969-.068-3.957-.065-5.93-.091l.47.7a14.4,14.4,0,0,1,2.817-2.451c2.041-1.709,4.075-3.424,6.084-5.17,2.881-2.5,5.7-5.075,8.595-7.562l-.452-.013a112.872,112.872,0,0,0,8.347,8.266c2.764,2.593,5.606,5.111,8.34,7.735l-.011-.718a12.421,12.421,0,0,1-3.214-.175,16.6,16.6,0,0,1-2.278-.3c-.058-.014-.107-.01-.108.058-.078,4.814-.1,9.627-.17,14.44l.66-.617a33.552,33.552,0,0,1-6-.284c-1-.063-2.031-.055-3.026-.2l.709.539a12.6,12.6,0,0,1,.055-2.739c.06-1.166.128-2.331.18-3.5.066-1.479.057-2.971.191-4.445a.059.059,0,0,0-.062-.051c-2.563-.089-5.14-.058-7.706-.1q-.061-.012-.063.051c-.049,3.754-.075,7.512-.16,11.267,0,.145.7-.329.7-.5q-.011-3.545-.049-7.088a10.2,10.2,0,0,1,.085-2.871c.242-.337,1.416-.161,1.7-.169,1.121-.034,2.236-.106,3.358-.107.434,0,1.545-.211,1.769.2q-.03,1.389-.037,2.779l-.023,1.348q-.035,1.326-.039,2.652a5.009,5.009,0,0,1-.651,2.749c-.1.082.619.588.7.587.792-.014,1.585-.008,2.377-.006,1.283,0,4.44-.393,5.337.553.1.1.706-.511.706-.6.016-3.7-.068-7.41-.019-11.113a10.285,10.285,0,0,1,.051-1.9c.106-.5.124-.519.649-.511,1.348.02,3.252-.044,4.383.779.137.1.135-.608.031-.7q-3.833-3.443-7.645-6.908c-1.754-1.587-3.531-3.156-5.248-4.785q-1.076-1.041-2.135-2.1a5.909,5.909,0,0,1-1.236-1.571c-.038-.1-.391-.067-.452-.013-2.574,2.274-5.125,4.575-7.7,6.853q-2.7,2.393-5.425,4.768-1.138,1.038-2.345,1.995a3.379,3.379,0,0,1-2.051.963c-.165,0,.269.713.424.706.691-.032,1.382-.07,2.074-.1.587-.025,2.679-.365,3.043.158.175.251-.01,1.319-.013,1.61q-.011,1.328-.024,2.655-.02,1.911-.05,3.821c-.019,1.151.2,4.11-.69,4.706-.093.063.618.751.72.751h8.383C684.837,256.377,684.272,255.615,684.064,255.615Z" transform="translate(-0.183 -0.308)"/><path class="c" d="M684.51,256.422l-8.412,0,.432.424c.054-2.1.338-4.2.413-6.3.09-2.51.068-5.025.189-7.532,0-.035-.008-.1-.06-.1-1.953,0-3.9-.045-5.856-.056l.252.44c.937-.822,1.981-1.544,2.959-2.316,2.1-1.659,4.14-3.388,6.167-5.139,2.894-2.5,5.717-5.091,8.643-7.555l-.568-.022c5.189,5.755,11.189,10.7,16.71,16.122l-.068-1.016c-.88.377-2.262-.017-3.185-.063a13.6,13.6,0,0,1-2.249-.226.076.076,0,0,0-.092.069c-.252,4.811-.1,9.638-.2,14.453l.688-.664a26.988,26.988,0,0,1-4.687-.185c-1.417-.068-2.852-.075-4.264-.22l.45.345c.025-1.792.292-3.594.374-5.386.077-1.688.073-3.384.194-5.069,0-.036-.013-.094-.063-.094-2.539-.008-5.076-.045-7.615-.06a.065.065,0,0,0-.065.049c-.256,3.72-.1,7.471-.229,11.2,0,.134.718-.356.714-.541-.044-2.37-.042-4.739-.114-7.107-.011-.392-.3-2.9.175-3.146q.779-.009,1.559-.012.848-.048,1.7-.065.88-.028,1.759-.023.836,0,1.673.04c.408.266.161,1.429.156,1.785-.023,1.315-.046,2.632-.089,3.947q-.04,1.195-.137,2.386a3.436,3.436,0,0,1-.475,1.777c-.1.114.364.385.439.387,1.182.025,2.364.064,3.546.061.981,0,3.662-.356,4.325.647.065.1.734-.555.734-.653,0-3.463.008-6.932-.084-10.394a22.271,22.271,0,0,1-.044-2.667c.048-.489-.027-.446.442-.5,1.322-.14,3.813,0,4.74.946a1.459,1.459,0,0,0-.025-.993q-4.2-3.777-8.4-7.558c-1.9-1.713-3.828-3.405-5.663-5.192a7.319,7.319,0,0,1-2.038-2.4c-.046-.134-.491-.144-.581-.063q-3.839,3.435-7.679,6.868c-1.786,1.589-3.554,3.207-5.384,4.744q-1.208,1-2.447,1.96a4.8,4.8,0,0,1-1.947,1.1c-.192.024.1.455.211.451,1.051-.032,2.1-.094,3.151-.1a11.255,11.255,0,0,1,1.716.024c.6.088.51.06.5.8q-.031,2.574-.069,5.147c-.02,1.259-.033,2.519-.1,3.776q-.027.85-.133,1.693a2.881,2.881,0,0,1-.441,1.788c-.1.1.331.465.416.465h8.41C685.041,256.9,684.65,256.422,684.51,256.422Z" transform="translate(-0.283 -0.514)"/><path class="c" d="M685.258,256.415h-8.41l.282.282a44.692,44.692,0,0,0,.532-7.052c.082-2.274.051-4.573.222-6.842a.055.055,0,0,0-.06-.054c-1.984.146-3.925.033-5.9.075l.185.35a106.517,106.517,0,0,0,10.078-8.143c2.623-2.255,5.173-4.612,7.849-6.8l-.872-.019a49.529,49.529,0,0,1,4.145,4.083c1.7,1.7,3.463,3.352,5.218,5,2.5,2.347,5.08,4.622,7.535,7.016l-.073-1c-.868.4-2.289-.037-3.2-.085a17.662,17.662,0,0,1-2.191-.191.085.085,0,0,0-.087.073c-.139,4.794-.108,9.589-.187,14.384l.53-.5a42.317,42.317,0,0,1-4.55-.283c-1.395-.077-2.8-.086-4.191-.2l.26.238c.606-3.466.33-7.035.71-10.519a.057.057,0,0,0-.061-.052c-2.55.167-5.093.032-7.644.068-.051,0-.066.052-.068.091-.184,3.69-.1,7.4-.2,11.089,0,.161.565-.227.561-.374-.044-2.169.013-4.342-.071-6.511q-.046-.988-.044-1.977,0-.873.043-1.746c.275-.459,1.363-.207,1.763-.213,1.151-.017,2.292-.075,3.443-.049a3.43,3.43,0,0,1,1.831.311l-.008.647c-.011,1.15-.022,2.3-.041,3.449q.005,1.324-.1,2.643a7.92,7.92,0,0,1-.445,2.933c-.052.1.152.273.243.277.995.041,1.992.058,2.987.082q1.207.012,2.414.074a3.9,3.9,0,0,1,2.655.56c.089.106.573-.4.572-.482-.032-3.273.029-6.551-.057-9.824a23.813,23.813,0,0,1-.028-3.39c.06-.5-.03-.453.449-.493,1.336-.112,3.859-.007,4.792.965a1.438,1.438,0,0,0-.03-.977q-3.413-3.087-6.833-6.165-2.338-2.108-4.675-4.216-1.314-1.185-2.609-2.39a4.5,4.5,0,0,1-1.853-2.371c-.013-.151-.823-.126-.9-.06-2.532,2.307-5.085,4.591-7.631,6.882-1.755,1.581-3.482,3.209-5.292,4.728q-1.205.973-2.427,1.923a6.455,6.455,0,0,1-1.892,1.165c-.177.045.038.363.146.363.879,0,1.755-.052,2.633-.061a10.147,10.147,0,0,1,1.907.042l.795.275q0,.559,0,1.117-.012,2.686-.042,5.372c-.013.991-.013,1.98-.075,2.969a9.482,9.482,0,0,1-.49,3.572c-.047.089.21.281.282.281h8.41C685.644,256.753,685.373,256.415,685.258,256.415Z" transform="translate(-0.491 -0.496)"/><path class="c" d="M684.609,255.961q-4.2,0-8.405-.006l.636.619a15.087,15.087,0,0,1,.074-3.448c.1-1.536.175-3.066.229-4.6.071-2.017.052-4.047.189-6.061a.05.05,0,0,0-.061-.053c-1.982.039-3.949.008-5.93-.014l.406.646a14.731,14.731,0,0,1,2.845-2.493q3.119-2.545,6.175-5.162c2.894-2.487,5.708-5.073,8.633-7.523l-.793-.025a23.1,23.1,0,0,1,2.909,2.793c1.84,1.887,3.749,3.7,5.669,5.506,2.757,2.592,5.6,5.1,8.319,7.729l-.061-.977c-.837.42-2.255.071-3.146.022a14.1,14.1,0,0,1-2.264-.245c-.054-.012-.1,0-.1.061-.126,4.8-.078,9.592-.152,14.388l.679-.649c-1.9.368-4.068-.087-6-.191-1-.054-2.023-.056-3.019-.182l.632.484a11.445,11.445,0,0,1,.038-2.7c.067-1.174.152-2.345.2-3.52.068-1.487.061-2.992.213-4.473a.051.051,0,0,0-.062-.052c-2.564.037-5.121,0-7.685-.02a.049.049,0,0,0-.064.049c-.116,3.722-.065,7.45-.161,11.174,0,.137.716-.354.715-.537-.013-2.352-.023-4.7-.073-7.053a10.35,10.35,0,0,1,.045-2.843c.291-.406,2.4-.168,2.811-.182q1.116-.057,2.234-.039.771.008,1.541.042c.4.241.168,1.534.168,1.823q0,1.94-.029,3.88c-.014,1.108.237,3.056-.57,3.986-.1.111.542.531.625.53.964-.017,1.927,0,2.89,0,1.1,0,4.015-.432,4.873.518.094.1.726-.544.727-.638.015-2.757-.013-5.514-.021-8.27-.005-1.465-.052-2.926-.028-4.39q-.282-.9.7-.784a7.035,7.035,0,0,1,4.342.787c.089.077.132-.82-.018-.955q-3.82-3.428-7.633-6.867c-1.758-1.579-3.535-3.141-5.275-4.742-.992-.913-2.875-2.09-3.157-3.478-.03-.151-.733-.139-.813-.066-2.287,2.075-4.588,4.134-6.884,6.2-1.548,1.393-3.093,2.789-4.648,4.174q-1.327,1.2-2.69,2.359a3.693,3.693,0,0,1-3.047,1.905c-.188.015.229.655.362.653.7-.01,1.39-.046,2.088-.07q1.13-.036,2.26,0c.57.02.625-.011.72.541a11.685,11.685,0,0,1,0,1.9q-.005,1.78-.01,3.558c0,1.015-.009,2.031-.022,3.047-.011.921.134,3.233-.578,3.939-.1.1.534.665.625.665q4.192,0,8.384,0C685.3,256.629,684.793,255.961,684.609,255.961Z" transform="translate(-0.325 -0.386)"/><path class="c" d="M684.955,256.787H677.42c-.9,0-.668.073-.541-.789.617-4.2.36-8.474.576-12.7,0-.044-.061-.094-.1-.092-1.722.079-3.447-.061-5.162.008q-.522-.04-.211.021l.684-.436c1.212-.8,2.42-1.758,3.543-2.665,4.594-3.71,8.875-7.788,13.417-11.556l-.525-.023a15.318,15.318,0,0,0,1.553,1.679c2.215,2.307,4.445,4.559,6.765,6.761,2.748,2.609,5.608,5.112,8.305,7.772l-.061-.988a8.092,8.092,0,0,1-2.781-.181,26.384,26.384,0,0,1-2.647-.213c-.028,0-.075.058-.076.08-.308,4.811-.156,9.645-.27,14.462l.568-.534c-1.084.011-2.182-.2-3.265-.282-1.212-.092-2.435-.123-3.649-.17-.288-.011-1.492.045-1.554-.141a9.111,9.111,0,0,1,.248-1.741q.162-1.617.232-3.243c.071-1.7.064-3.409.193-5.1,0-.044-.066-.091-.1-.089-2.5.108-4.983,0-7.481,0-.037,0-.106.04-.109.083-.251,3.7-.14,7.433-.287,11.142-.006.156.592-.243.587-.4-.087-2.84-.14-5.708-.152-8.548,0-.2-.175-1.827.185-2.091q.8-.009,1.6-.012,1.152-.05,2.307-.054,1.148-.037,2.3.006a.809.809,0,0,1,.94.23l-.023.651q-.024,1.086-.055,2.171c-.04,1.345-.091,2.688-.194,4.03a7.831,7.831,0,0,1-.474,3.069c-.046.08.029.173.121.18.994.071,2,.089,2.993.12q1.222.012,2.442.088a3.209,3.209,0,0,1,2.652.679c.063.1.613-.43.611-.519-.058-3.737-.048-7.474-.115-11.211a11.908,11.908,0,0,1-.02-2.065c.1-.613.116-.533.73-.5,1.5.093,3.553-.138,4.615,1.086.05.058.157-.808-.018-.965q-4.206-3.786-8.4-7.583c-1.9-1.717-3.818-3.411-5.634-5.214-.675-.671-1.757-1.5-2.027-2.467-.038-.134-.452-.141-.538-.064-2.555,2.28-5.1,4.57-7.666,6.84-1.784,1.579-3.544,3.2-5.39,4.707l-2.583,2a6.918,6.918,0,0,1-1.872,1.193c-.088.022-.113.189-.006.186,1.073-.032,2.146-.073,3.22-.087q.771-.02,1.543.019l.884.223-.011.635q-.013.791-.026,1.582c-.037,2.206-.043,4.419-.165,6.622-.049.878-.125,1.759-.208,2.635a4.786,4.786,0,0,1-.365,1.819c-.027.049.051.142.1.142h8.409C685.107,257,685.073,256.787,684.955,256.787Z" transform="translate(-0.39 -0.6)"/><path class="c" d="M684.368,255.146h-8.4l.778.763a15.4,15.4,0,0,1,.034-3.547c.086-1.561.179-3.118.237-4.681.075-1.994.051-4,.2-5.993q0-.062-.061-.053c-2,.008-3.988-.023-5.984-.041l.546.775a8.591,8.591,0,0,1,1.587-1.508q1.273-1.1,2.557-2.193c1.857-1.565,3.717-3.124,5.551-4.717,2.6-2.262,5.158-4.587,7.785-6.823l-.619-.013c.951.847,1.811,1.809,2.705,2.715,1.845,1.871,3.762,3.664,5.686,5.453,2.783,2.588,5.622,5.118,8.386,7.726v-.534a22.686,22.686,0,0,1-5.474-.551c-.056-.014-.113-.017-.111.056.085,2.473-.081,4.956-.1,7.429-.014,2.32-.014,4.641-.027,6.961l.525-.474a37.474,37.474,0,0,1-4.649-.267c-1.424-.123-2.892-.1-4.3-.32l.739.572c-.33-1.758.085-3.853.182-5.617.094-1.71.072-3.446.266-5.147q0-.061-.063-.051c-2.589-.02-5.177-.034-7.767-.06-.042-.011-.063.006-.063.05.115,3.743-.048,7.516-.1,11.262,0,.168.577-.226.577-.368.008-1.947.03-3.9.015-5.843a18.673,18.673,0,0,1,.045-3.515q-.113-.941.565-.8.617-.006,1.234-.006c1.093-.032,2.181-.087,3.276-.07.426.007,1.469-.177,1.7.23l0,.637q0,.782,0,1.563c0,1.7.374,6.2-.654,7.182-.1.092.646.623.735.62,1.162-.037,2.332-.034,3.495-.012.872.015,1.736.033,2.606.106a3.134,3.134,0,0,1,1.65.374c.118.087.567-.353.567-.458.011-3.5-.054-7.012.015-10.515.015-.752.039-1.5.085-2.256.016-.262-.051-.659.218-.819l.455-.014q1.067.061,2.129.165a5.485,5.485,0,0,1,2.226.491c.168.094.119-.451.041-.522-2.795-2.541-5.6-5.072-8.389-7.619-1.906-1.741-3.834-3.462-5.681-5.266-.625-.611-1.93-1.574-2.111-2.514-.028-.145-.558-.124-.636-.054q-3.859,3.441-7.708,6.893c-1.781,1.589-3.584,3.155-5.362,4.747-1.081.968-2.692,2.976-4.338,2.919-.15,0,.323.782.5.779.82-.012,1.635-.068,2.455-.083.458-.008,2.192-.261,2.476.219q0,.8,0,1.608,0,1.326-.009,2.652,0,1.508-.006,3.018a16.9,16.9,0,0,1-.668,5.366c-.094.07.668.813.771.813l8.384,0C685.182,255.968,684.59,255.146,684.368,255.146Z" transform="translate(-0.281 -0.172)"/><path class="c" d="M683.716,256.1l-8.411,0,.486.472c.151-2.334.433-4.641.5-6.99.063-2.244.055-4.492.138-6.736,0-.024-.1-.107-.125-.108-1.934-.089-3.883-.106-5.82-.166l.245.422c1-.795,2.1-1.447,3.105-2.242,2.057-1.631,4.03-3.376,6.006-5.1s3.919-3.45,5.873-5.182q.963-.854,1.926-1.709l.544-.479c.134-.22.211-.237.231-.051-.161-.087.676.974.268.406a15.979,15.979,0,0,0,1.507,1.636c1.756,1.827,3.547,3.6,5.386,5.343,3.023,2.869,6.16,5.627,9.142,8.538v-.633c-1.093-.03-2.2-.269-3.288-.379a16.145,16.145,0,0,1-2.291-.315.076.076,0,0,0-.092.07c-.222,4.851-.116,9.71-.216,14.563l.65-.608c-1.335,0-2.685-.2-4.015-.288-1.632-.111-3.3-.106-4.927-.319l.489.371c.126-2.005.4-3.983.477-6,.054-1.453.054-2.909.137-4.36,0-.034-.1-.1-.127-.1-2.525-.117-5.066-.106-7.595-.175a.064.064,0,0,0-.063.049c-.217,3.777-.117,7.572-.24,11.351,0,.149.682-.3.678-.475-.047-2.17.008-4.344-.075-6.512q-.046-.978-.042-1.958a1.776,1.776,0,0,1,.228-2.012l.639-.014q1.033,0,2.063-.072c1.136-.049,2.277-.082,3.415-.077.95,0,.963-.024.931.807-.045,1.177-.073,2.355-.121,3.533q-.063,1.36-.125,2.722a3.757,3.757,0,0,1-.706,2.947c-.111.086.414.412.477.413q1.765.058,3.531.085c1.013.015,3.655-.287,4.331.741.067.1.7-.5.7-.6-.03-3.729-.048-7.458-.092-11.186a12.636,12.636,0,0,1,0-2.005c.094-.6.138-.556.749-.51,1.4.106,3.408-.037,4.529.944.12.1.143-.525.04-.619q-4.187-3.786-8.363-7.586c-1.9-1.738-3.813-3.456-5.6-5.306q-.894-.908-1.758-1.846a2.674,2.674,0,0,1-.57-.718c-.057-.2-.149-.192-.277.029q-.7.609-1.387,1.224-2.692,2.384-5.4,4.754c-2.087,1.825-4.176,3.651-6.313,5.418q-1.258,1.053-2.564,2.046a3.669,3.669,0,0,1-2.043,1.023c-.18,0,.089.442.2.435q1.609-.1,3.223-.154a13.92,13.92,0,0,1,1.814-.014c.633.064.56.01.543.776-.039,1.718-.073,3.436-.122,5.154q-.054,1.905-.146,3.809a13.994,13.994,0,0,1-.152,1.766,2.051,2.051,0,0,1-.583,1.773c-.109.067.392.514.471.514h8.409C684.294,256.626,683.866,256.1,683.716,256.1Z" transform="translate(-0.067 -0.453)"/><path class="c" d="M684.638,254.992h-8.4l.728.721a16.933,16.933,0,0,1,.068-3.519c.1-1.567.2-3.126.261-4.7.079-1.993.046-4.008.216-6,0-.044-.018-.062-.062-.052-2.012.073-4.011-.02-6.021-.017l.511.751a9.979,9.979,0,0,1,1.6-1.488q1.291-1.108,2.6-2.193c1.87-1.558,3.733-3.122,5.574-4.714,2.612-2.26,5.165-4.592,7.806-6.818l-.712-.013a37.7,37.7,0,0,1,2.732,2.73c1.847,1.86,3.766,3.645,5.687,5.427,2.783,2.581,5.615,5.109,8.386,7.7l.006-.432a37.194,37.194,0,0,1-5.5-.627c-.051-.012-.111-.01-.107.058.145,2.729-.039,5.485-.046,8.217q-.007,3.065-.006,6.13l.394-.356c-1.52-.141-3.047-.184-4.568-.325-1.424-.132-2.89-.106-4.3-.327l.682.534a30.129,30.129,0,0,1,.237-5.594c.1-1.708.068-3.453.284-5.151,0-.043-.022-.06-.064-.049-2.6.056-5.191-.042-7.79-.048-.042-.01-.063.007-.063.049.167,3.731-.027,7.487-.044,11.222,0,.175.451-.144.453-.266.016-1.945.035-3.892.025-5.837a18.509,18.509,0,0,1,.059-3.6q-.1-.955.589-.815.621,0,1.241,0c1.09-.023,2.177-.058,3.268-.023.425.013,1.478-.149,1.7.263l0,.609q0,.782,0,1.565c0,1.758.4,6.048-.628,7.159-.1.1.591.584.677.581,1.349-.039,2.706-.011,4.054.025,1.193.031,2.73-.165,3.805.425.118.065.432-.219.432-.337.019-3.735-.045-7.476.033-11.21a9.268,9.268,0,0,1,.085-1.967c.127-.5.154-.532.689-.516a11.01,11.01,0,0,1,4.394.644c.171.088.117-.36.047-.424-2.787-2.556-5.6-5.089-8.384-7.644-1.907-1.747-3.837-3.477-5.689-5.283-.582-.567-1.993-1.61-2.047-2.535-.008-.149-.662-.116-.731-.055q-3.452,3.093-6.9,6.187-2.336,2.09-4.682,4.171-1.837,1.631-3.71,3.22a3.484,3.484,0,0,1-2.091.978c-.16,0,.3.756.465.756.825-.006,1.648-.056,2.474-.061.464,0,2.034-.194,2.392.167a.572.572,0,0,1,.082.725q0,1.1,0,2.2,0,1.47,0,2.94a21.233,21.233,0,0,1-.65,6.841c-.1.085.623.769.72.769h8.384C685.412,255.771,684.848,254.992,684.638,254.992Z" transform="translate(-0.355 -0.126)"/><path class="c" d="M685.706,256.369h-7.536c-.885,0-.674.106-.577-.756.48-4.306.331-8.634.709-12.939a.054.054,0,0,0-.06-.054c-1.984.218-3.946.068-5.931.151l.061.239a3.058,3.058,0,0,0,.971-.594q1.827-1.388,3.657-2.77c1.9-1.521,3.754-3.114,5.6-4.7,2.629-2.252,5.179-4.62,7.872-6.795l-.939-.013c1.991,1.615,3.685,3.654,5.53,5.438q2.286,2.208,4.608,4.379c2.251,2.105,4.561,4.155,6.777,6.3l-.044-.872-1.824-.09a13.924,13.924,0,0,0-1.42-.142c-.727-.048-1.465-.073-2.184-.189-.047-.008-.08.079-.08.112-.027,4.755-.084,9.514-.146,14.27l.334-.315c-1.45-.2-2.9-.315-4.365-.394-.9-.049-1.523-.076-2.414-.108-.276-.011-1.5.049-1.573-.133a8.609,8.609,0,0,1,.183-1.746c.1-1.122.231-2.242.29-3.366.091-1.712.061-3.476.276-5.178a.056.056,0,0,0-.061-.053c-2.539.251-5.08.079-7.624.141-.043,0-.11.027-.111.082-.08,3.67-.077,7.343-.156,11.014,0,.165.372-.094.37-.212-.037-2.187.016-4.377-.059-6.562q-.043-1.013-.038-2.027.005-.923.069-1.844c.6-.5,2.236-.232,2.9-.244a17.318,17.318,0,0,1,3.359.049q1.2-.059.882.951l-.006.961c-.012,1.285-.015,2.576-.068,3.86a16.124,16.124,0,0,1-.508,4.31c-.02.058.058.12.112.124.991.061,1.987.072,2.979.109q1.211.037,2.422.113a8.784,8.784,0,0,1,2.828.506c.1.1.371-.206.37-.294-.03-3.54-.018-7.081-.063-10.62-.011-.787-.018-1.573-.008-2.359,0-.291-.107-.737.2-.912l.571.049q1.149.04,2.293.158a3.572,3.572,0,0,1,2.319.851c.073.077.148-.717,0-.852q-3.431-3.109-6.865-6.217-2.307-2.092-4.611-4.19-1.332-1.226-2.666-2.45a3.9,3.9,0,0,1-1.807-2.435c0-.144-.9-.116-.964-.053-2.525,2.3-5.071,4.582-7.61,6.869-1.751,1.577-3.47,3.215-5.287,4.716q-1.23.959-2.464,1.914a8.3,8.3,0,0,1-1.867,1.214c-.139.046-.053.238.061.239,1.063.011,2.123-.047,3.185-.033a5.222,5.222,0,0,1,1.827.208q.559-.01.409.469,0,.64,0,1.28c-.008,1.886-.023,3.77-.053,5.655-.018,1.151-.087,2.288-.179,3.435a10.086,10.086,0,0,1-.351,2.413.119.119,0,0,0,.1.137h8.409C685.844,256.572,685.825,256.369,685.706,256.369Z" transform="translate(-0.605 -0.476)"/><path class="c" d="M697.44,232.727q3.349,3.177,6.746,6.3,1.725,1.586,3.452,3.17c.713.653,1.4,1.4,2.164,1.985.518.4.25.3.255.18,0-.037-1.394-.244-1.562-.268a29.083,29.083,0,0,1-3.821-.6c-.049-.014-.1,0-.1.062.132,4.827-.027,9.686-.059,14.516l.42-.374a26.814,26.814,0,0,0-3.925-.395c-1.64-.154-3.348-.136-4.968-.426l.676.516c-.039-1.809.263-3.694.362-5.5.092-1.679.08-3.37.215-5.046a.085.085,0,0,0-.068-.09c-2.583-.192-5.208-.124-7.8-.19-.039-.007-.061.01-.063.05.084,3.8-.032,7.6-.077,11.4,0,.174.47-.151.47-.275,0-2.431-.013-4.861-.013-7.291,0-.529-.226-2.714.245-3.113.425-.361,2.226-.161,2.745-.184,1.1-.05,2.2-.068,3.307-.074a.933.933,0,0,1,.956.142q-.035.814-.047,1.629c-.034,1.32-.083,2.64-.127,3.961-.035,1.067.253,3.355-.825,4.085-.094.064.584.563.67.563.948,0,1.9,0,2.848.022q2.089.064,4.168.291a1.081,1.081,0,0,1,.845.342c.108.089.458-.255.458-.354.006-3.761-.028-7.524-.006-11.286a11.459,11.459,0,0,1,.051-2.027c.113-.572.151-.575.749-.523.582.05,1.164.154,1.744.224a9.469,9.469,0,0,1,2.726.456c.068.031.221-.023.131-.106-4.253-3.962-8.583-7.839-12.789-11.852C697.562,232.617,697.427,232.715,697.44,232.727Z" transform="translate(-5.648 -1.847)"/><path class="c" d="M683.911,255.267h-8.4l.744.72a19.778,19.778,0,0,1,.129-3.489c.084-1.525.161-3.05.21-4.577.064-2.006.046-4.021.166-6.025a.063.063,0,0,0-.061-.053c-1.987-.087-4-.082-5.986-.116l.467.706a16.542,16.542,0,0,1,2.891-2.423q3.058-2.542,6.053-5.158c2.862-2.493,5.67-5.047,8.537-7.535l-.257-.035A18.358,18.358,0,0,0,690.9,230c1.834,1.877,3.748,3.67,5.669,5.459,2.781,2.591,5.627,5.117,8.384,7.735l.01-.432c-1.824-.3-3.754-.242-5.553-.708-.054-.013-.107-.006-.106.06.063,4.82-.081,9.657-.123,14.48l.549-.493c-1.767-.033-3.538-.228-5.3-.384-1.213-.108-2.462-.077-3.664-.274l.708.541a29.9,29.9,0,0,1,.221-4.856c.1-1.934.1-3.884.267-5.812a.063.063,0,0,0-.063-.051c-2.578-.113-5.175-.076-7.757-.125-.041-.008-.062.008-.063.05.044,3.776-.065,7.567-.127,11.344,0,.165.594-.235.594-.381,0-2.4-.022-4.806-.026-7.209,0-.494-.217-2.639.223-3.011.253-.214,1.408-.1,1.646-.1,1.12-.036,2.236-.1,3.356-.111q.814,0,1.629.006a.6.6,0,0,1,.17.841c-.02,1.158-.036,2.317-.063,3.476-.029,1.231.383,4.521-.76,5.416-.1.075.617.589.7.588.977-.014,1.953,0,2.929.014q1.181.01,2.359.053a4.094,4.094,0,0,1,2.476.523c.107.1.59-.381.59-.476,0-3.516-.035-7.032-.013-10.547,0-.764.018-1.528.05-2.291.025-.589.042-.777.706-.845a11.431,11.431,0,0,1,2.188.21,5.467,5.467,0,0,1,2.239.506c.165.094.122-.358.051-.423-2.788-2.545-5.589-5.075-8.371-7.627-1.9-1.746-3.827-3.476-5.647-5.309a9.771,9.771,0,0,1-2.294-2.622c-.024-.058-.212-.074-.257-.034-2.338,2.032-4.635,4.113-6.96,6.161-1.589,1.4-3.177,2.8-4.78,4.183q-1.37,1.167-2.724,2.352a7.094,7.094,0,0,1-3.254,1.856c-.158-.011.26.72.42.712q1.052-.056,2.105-.1.932-.041,1.865-.039c.351,0,1.009-.14,1.239.186.174.247-.014,1.323-.017,1.61q-.015,1.3-.033,2.6c-.018,1.292-.037,2.584-.065,3.876-.024,1.143.184,4.154-.763,4.706-.084.049.626.768.736.768h8.381C684.7,256.045,684.124,255.267,683.911,255.267Z" transform="translate(-0.143 -0.223)"/><path class="c" d="M685.332,255.458q-4.215-.014-8.43-.021l.518.527a48.3,48.3,0,0,1,.312-4.941c.087-1.308.13-2.618.182-3.927.07-1.742.033-3.507.2-5.243,0-.046-.016-.063-.062-.052a51.815,51.815,0,0,1-6.043.042l.346.6a24.971,24.971,0,0,1,2.92-2.451q3.175-2.519,6.253-5.149c2.9-2.474,5.7-5.08,8.65-7.491l-1,.011a25.883,25.883,0,0,1,2.942,2.712q1.341,1.3,2.69,2.6,2.3,2.189,4.623,4.344c2.257,2.091,4.552,4.143,6.789,6.255l-.018-.652a16.416,16.416,0,0,1-3.695-.247,16.719,16.719,0,0,1-1.789-.242c-.042-.009-.1.011-.1.064.176,4.752-.014,9.54-.025,14.3l.338-.312c-2.912-.29-5.881-.239-8.782-.6l.49.392c-.008-1.841.258-3.666.36-5.5.1-1.71.061-3.468.3-5.165,0-.045-.02-.062-.063-.05-2.594.249-5.18.008-7.776.016a.053.053,0,0,0-.066.048c.065,3.709-.011,7.421-.029,11.132,0,.172.392-.107.393-.224q0-2.919.01-5.839c0,.053-.355-4.313.266-4.511q.777,0,1.555.009,1.391-.051,2.782.009c.527.019,1.828-.156,2.176.247a.592.592,0,0,1,.087.7q.008.778.011,1.557c.008,1.444.02,2.885-.046,4.328a6.037,6.037,0,0,1-.487,2.87c-.08.129.385.436.479.435q1.751-.015,3.5.049c.772.027,1.543.055,2.314.1a5.618,5.618,0,0,1,2.241.371c.088.048.338-.234.338-.312.007-3.741-.012-7.481-.018-11.222A10.055,10.055,0,0,1,701,243c.124-.574.183-.515.775-.484,1.374.07,3.279-.094,4.437.756.138.1.12-.551.024-.639q-3.426-3.121-6.864-6.23-2.317-2.106-4.628-4.221-1.328-1.246-2.7-2.443a3.684,3.684,0,0,1-1.844-2.426c.011-.135-.964-.092-1.034-.029l-6.81,6.152c-1.541,1.392-3.077,2.789-4.624,4.175q-1.312,1.207-2.69,2.337a3.946,3.946,0,0,1-3.038,1.895c-.2.024.179.6.3.608,1.178.032,2.355-.039,3.533.02.332.017,1.283-.052,1.467.216a4.9,4.9,0,0,1,.083,1.7c.009,2.146.023,4.293.019,6.439,0,1.211.245,3.538-.553,4.628-.088.12.4.57.5.57l8.407,0C685.921,256.018,685.485,255.459,685.332,255.458Z" transform="translate(-0.519 -0.245)"/><path class="c" d="M684.362,255.508h-8.4l.755.734a14.259,14.259,0,0,1,.02-3.525c.082-1.559.167-3.114.222-4.674.071-2,.054-4.007.192-6q0-.06-.061-.053c-1.981,0-3.956-.018-5.938-.034l.52.746a3.64,3.64,0,0,1,1.567-1.508q1.278-1.108,2.574-2.193c1.861-1.562,3.719-3.128,5.554-4.721,2.605-2.262,5.159-4.589,7.788-6.824l-.67-.018c1.455,1.184,2.716,2.721,4.036,4.018,1.715,1.685,3.477,3.326,5.237,4.965,2.513,2.341,5.081,4.629,7.566,7l-.018-.767a9.358,9.358,0,0,1-3.184-.1,17.128,17.128,0,0,1-2.26-.288c-.059-.013-.111-.016-.111.057-.009,4.793-.113,9.591-.165,14.385l.639-.6c-1.932.3-4.036-.132-5.985-.256-1-.063-2.033-.052-3.03-.2l.732.561a10.921,10.921,0,0,1,0-2.745c.054-1.182.135-2.362.19-3.543.07-1.484.062-2.986.217-4.463a.049.049,0,0,0-.063-.051c-2.571-.025-5.144-.025-7.717-.049q-.062-.014-.063.051c0,3.738-.071,7.479-.137,11.218,0,.15.68-.313.68-.483,0-1.915.01-3.83,0-5.744-.008-1.168-.048-2.329.016-3.5.056-1.039.376-.793,1.3-.8,1.069-.006,2.136-.082,3.206-.085.51,0,1.795-.233,2.148.125a.574.574,0,0,1,.082.743q0,.783,0,1.567c0,1.693.372,6.239-.626,7.21-.1.094.64.612.727.609.982-.029,1.965-.019,2.946-.021q1.178-.007,2.356,0a3.767,3.767,0,0,1,2.4.485c.108.1.683-.486.683-.582.014-3.695-.077-7.395.006-11.089a10.119,10.119,0,0,1,.072-1.883c.106-.474.12-.508.626-.513,1.331-.012,3.217-.059,4.341.735.137.1.132-.652.024-.75q-4.232-3.8-8.443-7.622c-1.911-1.727-3.841-3.438-5.7-5.227-.644-.621-1.807-1.477-2.035-2.407-.035-.146-.6-.132-.687-.059q-3.45,3.1-6.9,6.19-2.336,2.092-4.679,4.176-1.838,1.631-3.7,3.238a3.529,3.529,0,0,1-2.058.995c-.161,0,.308.755.473.752.826-.016,1.647-.075,2.473-.094.461-.011,2.183-.271,2.468.209q0,.806,0,1.613,0,1.329-.009,2.658,0,1.512-.008,3.024a18.057,18.057,0,0,1-.632,5.4c-.1.076.648.784.748.784h8.383C685.157,256.3,684.578,255.508,684.362,255.508Z" transform="translate(-0.273 -0.268)"/><path class="c" d="M694.024,254.08q-2.212-.066-4.423-.112c-.042,0-.068.054-.07.087-.294,3.747-.155,7.527-.3,11.282-.006.147.673-.3.668-.469-.074-2.414-.058-4.832-.125-7.246q-.035-1.179-.016-2.358a1,1,0,0,1,.211-1.015q.791-.018,1.584-.028,1.158-.06,2.315-.087A1.1,1.1,0,0,0,694.024,254.08Z" transform="translate(-5.632 -8.157)"/><path class="c" d="M708.55,248a22.173,22.173,0,0,1-2.831-.467c-.039-.011-.1.014-.1.065.13,1.679.065,3.371.061,5.053-.007,2.459.01,4.918.014,7.376,0,.2.158,1.49,0,1.629-.206.182-1.048-.06-1.285-.082-.995-.1-1.993-.161-2.986-.266-1.427-.15-2.927-.134-4.333-.38l.539.436c.217-1.833.363-3.7.481-5.535.111-1.715.079-3.47.318-5.171a.047.047,0,0,0-.063-.051c-2.646.1-5.282,0-7.929-.017a.049.049,0,0,0-.065.049c.236,3.728.055,7.483.087,11.22,0,.061.144.166.145.058.029-2.456.015-4.913.023-7.369q0-1.213.1-2.421-.073-1.018.654-.876a12.01,12.01,0,0,1,2.364-.046q1.618-.041,3.237.019a.7.7,0,0,1,.877.246q-.013.8-.014,1.607c-.011,1.283-.016,2.568-.061,3.851-.04,1.127.13,3.113-.735,4.02-.1.106.451.48.529.479,1.358,0,2.71.029,4.065.117a17.021,17.021,0,0,1,4.143.451c.013,0,.043,0,.043-.02.013-2.84.013-5.682.03-8.522a31.035,31.035,0,0,1,.053-4.643q-.149-1.229.836-.884.888.139,1.781.249C708.56,248.176,708.578,248,708.55,248Z" transform="translate(-5.972 -6.252)"/><path class="c" d="M685.906,256.072h-5.45a13.1,13.1,0,0,1-2.725,0c-.127-.116.094-1.005.058-.717.28-2.3.43-4.623.529-6.938.087-2.022.052-4.08.252-6.1a.048.048,0,0,0-.06-.054c-2.007.257-3.992.1-6,.2l.062.244a9.424,9.424,0,0,0,1.9-1.284c2.3-1.738,4.527-3.529,6.731-5.382,3.2-2.689,6.26-5.566,9.521-8.178h-1a56.629,56.629,0,0,1,4.173,4.072q2.571,2.521,5.208,4.973c2.506,2.341,5.07,4.623,7.55,6.992l-.025-.686a14.263,14.263,0,0,1-3.259-.338c-.728-.057-1.462-.091-2.184-.2-.039-.006-.082.082-.081.111.076,2.411-.051,4.832-.061,7.244-.01,2.31-.008,4.621-.025,6.931l.185-.135a18.3,18.3,0,0,0-4.261-.466c-1.12-.066-2.238-.108-3.359-.151-.58-.023-.66.087-.613-.507.127-1.582.372-3.158.462-4.743.1-1.715.068-3.5.311-5.2a.05.05,0,0,0-.061-.052c-2.562.3-5.119.1-7.687.186-.042,0-.111.027-.111.081,0,3.647-.043,7.3-.091,10.944,0,.163.235.092.234-.019-.02-1.98-.017-3.96-.018-5.939a27.612,27.612,0,0,1,.021-4.248.491.491,0,0,1,.248-.587l1.126.008q.783.015,1.565-.025a13.511,13.511,0,0,1,3.359.067l.877.32q-.006.8-.008,1.6-.011,1.578-.042,3.156a19.416,19.416,0,0,1-.518,4.992.084.084,0,0,0,.084.1c1.384.089,2.774.1,4.159.177.805.047,1.611.1,2.414.173a4.231,4.231,0,0,1,1.784.36c.049.032.185-.083.185-.135-.018-3.559-.011-7.117-.042-10.676-.007-.8-.015-1.61,0-2.415.007-.28-.092-.756.194-.934l.608.056q.657.042,1.313.1c1.016.084,2.571.136,3.314.854.1.1.134-.565.018-.671-1.772-1.623-3.555-3.232-5.332-4.849q-2.311-2.1-4.618-4.214l-1.516-1.4a26.783,26.783,0,0,1-4.459-4.943c.017-.129-.953-.1-1.023-.042q-3.784,3.442-7.593,6.857c-1.749,1.577-3.464,3.216-5.282,4.714q-1.228.956-2.46,1.9a8.048,8.048,0,0,1-1.884,1.206c-.142.046-.052.242.062.244.888.016,1.772-.032,2.66-.028a9.461,9.461,0,0,1,1.942.075l.8.322q0,.556,0,1.113c0,1.781-.007,3.563-.029,5.344-.012.985-.006,1.969-.088,2.951a16.9,16.9,0,0,1-.465,3.682c-.011.035.065.1.1.1h8.41C686.02,256.265,686.025,256.072,685.906,256.072Z" transform="translate(-0.663 -0.394)"/><path class="c" d="M694.38,254.258c-1.449-.033-2.9-.07-4.345-.087a.1.1,0,0,0-.109.084c-.287,3.728-.165,7.487-.306,11.222-.006.149.656-.289.65-.455-.09-2.625-.094-5.259-.144-7.886a16.189,16.189,0,0,1,0-2.083c.061-.546-.013-.548.489-.66a7.148,7.148,0,0,1,1.282-.017c.772-.018,1.543-.053,2.315-.07C694.269,254.3,694.325,254.256,694.38,254.258Z" transform="translate(-5.747 -8.217)"/><path class="c" d="M684.818,256.238l-8.413,0,.493.488a24.876,24.876,0,0,1,.169-3.368c.115-1.533.191-3.054.241-4.59.065-2.015.046-4.042.181-6.054a.053.053,0,0,0-.061-.053c-1.978.071-3.939.011-5.916,0l.31.53a25.408,25.408,0,0,1,2.922-2.423c2.107-1.674,4.166-3.4,6.21-5.149,2.9-2.483,5.709-5.075,8.641-7.517l-.82-.025a25.51,25.51,0,0,1,2.922,2.811c1.841,1.888,3.747,3.709,5.666,5.518,2.752,2.594,5.6,5.1,8.309,7.734l-.08-1.046c-.82.437-2.264.06-3.145.023a13.237,13.237,0,0,1-2.257-.22.073.073,0,0,0-.1.065c-.156,4.8-.075,9.6-.157,14.4l.656-.63a25.747,25.747,0,0,1-5.313-.184c-1.212-.061-2.44-.062-3.646-.2l.5.389a55.552,55.552,0,0,1,.348-6.149c.065-1.484.055-2.983.2-4.461a.055.055,0,0,0-.062-.052c-2.558.077-5.106,0-7.664,0a.056.056,0,0,0-.065.049c-.18,3.714-.075,7.443-.179,11.16,0,.141.692-.333.689-.51-.03-2.134.02-4.273-.07-6.4q-.051-.956-.046-1.913,0-.84.035-1.678c.256-.382,1.4-.163,1.721-.169a24.664,24.664,0,0,1,4.343-.045q1.136-.091.813.894l0,.967c-.006,1.293-.015,2.588-.044,3.88-.025,1.127.172,3.09-.56,4.066-.09.121.408.432.491.432,1.179,0,2.357.039,3.535.036.752,0,1.5,0,2.254.032.606.027,1.645.011,2.071.536.084.1.7-.526.7-.618,0-3.462.015-6.929-.07-10.389a21.215,21.215,0,0,1-.034-2.645c.051-.48-.022-.43.441-.479,1.318-.143,3.733-.061,4.687.864a1.543,1.543,0,0,0-.037-1.022q-3.8-3.429-7.617-6.85c-1.758-1.579-3.531-3.14-5.273-4.736-.983-.9-2.883-2.08-3.127-3.469-.027-.152-.763-.137-.841-.065-2.8,2.551-5.631,5.075-8.447,7.612-1.907,1.718-3.79,3.474-5.784,5.092-.846.686-1.9,1.791-3.035,1.96-.2.029.153.54.267.539,1.039-.01,2.076-.079,3.115-.078q.668-.006,1.334.025l.752.241v.635q0,.792,0,1.584c-.009,2.2.011,4.4-.05,6.6-.032,1.135.2,3.125-.56,4.042-.094.113.384.53.478.53h8.41C685.4,256.78,684.971,256.238,684.818,256.238Z" transform="translate(-0.372 -0.458)"/><path class="c" d="M691.145,254.825c.039,3.536-.085,7.1-.194,10.641,0,.163.361-.084.358-.2-.089-3.495-.254-7.08-.059-10.566C691.25,254.693,691.145,254.784,691.145,254.825Z" transform="translate(-6.141 -8.373)"/><path class="c" d="M684.782,255.725h-8.4l.677.663a13.641,13.641,0,0,1,.023-3.48c.1-1.563.185-3.118.241-4.684.07-1.995.046-4.006.194-6q0-.064-.061-.053c-1.982.073-3.937-.023-5.919-.012l.463.7a3.992,3.992,0,0,1,1.539-1.49q2.073-1.725,4.145-3.451,2.449-2.066,4.869-4.168c2.34-2.029,4.627-4.128,7.006-6.111l-.894-.008a27.909,27.909,0,0,1,4.229,4c1.714,1.684,3.473,3.326,5.229,4.964,2.51,2.341,5.078,4.625,7.556,7l-.047-.915c-.845.413-2.254.068-3.148.01a15.759,15.759,0,0,1-2.251-.249c-.056-.011-.106-.01-.107.059-.03,4.782-.094,9.567-.146,14.35l.63-.593c-1.9.361-4.049-.109-5.976-.22-1-.058-2.017-.051-3.012-.177l.665.511a10.433,10.433,0,0,1-.008-2.7c.06-1.184.154-2.366.209-3.55.07-1.479.054-2.983.22-4.454q0-.063-.063-.051c-2.564.067-5.117-.042-7.68-.039-.04-.008-.061.009-.063.05-.035,3.719-.076,7.44-.144,11.16,0,.149.672-.311.672-.479-.008-2.133.028-4.271-.031-6.4q-.037-.936-.011-1.872.015-.817.079-1.632c.235-.306,1.408-.118,1.655-.123.746-.014,1.488-.046,2.235-.043q1,0,1.99.055l.6.037c.369.243.163,1.372.165,1.78q.006,1.236.006,2.471a20.383,20.383,0,0,1-.539,5.3c-.093.115.571.56.658.558.978-.028,1.958-.016,2.936-.016q1.188,0,2.376.009a3.9,3.9,0,0,1,2.44.468c.109.1.675-.484.675-.58.006-3.491-.044-6.984-.031-10.475q0-1.1.04-2.191c.009-.265-.073-.627.191-.791.359-.225,1.282,0,1.691.019a5.525,5.525,0,0,1,3.124.717c.108.085.13-.774,0-.895q-3.44-3.081-6.863-6.181-2.339-2.106-4.681-4.208-1.317-1.188-2.631-2.38a4.84,4.84,0,0,1-1.915-2.333c-.02-.154-.844-.117-.918-.049-2.8,2.541-5.618,5.064-8.422,7.6-1.891,1.712-3.752,3.469-5.694,5.122-.831.708-1.864,1.788-3.014,1.886-.181.015.274.706.418.706.825,0,1.648-.056,2.474-.061.475,0,2.155-.225,2.44.268q0,.8,0,1.605,0,1.323,0,2.647.005,1.51.008,3.02a19.7,19.7,0,0,1-.548,5.389c-.1.1.573.71.667.71q4.19,0,8.38,0C685.513,256.445,684.977,255.725,684.782,255.725Z" transform="translate(-0.386 -0.325)"/></g></g></svg>